<svg width="24" height="22" viewBox="0 0 24 22" fill="none" xmlns="http://www.w3.org/2000/svg">
<path d="M10.8732 16.402H13.1268V13.0433H16.507V10.8041H13.1268V7.44529H10.8732V10.8041H7.49296V13.0433H10.8732V16.402ZM12 22C10.5915 22 9.27249 21.7343 8.04282 21.2029C6.81239 20.6707 5.74197 19.9519 4.83155 19.0465C3.92038 18.1419 3.197 17.0783 2.66141 15.8557C2.12657 14.6338 1.85915 13.3232 1.85915 11.9237C1.85915 10.5242 2.12657 9.21313 2.66141 7.99054C3.197 6.76869 3.92038 5.70507 4.83155 4.7997C5.74197 3.89506 6.81239 3.17703 8.04282 2.6456C9.27249 2.11342 10.5915 1.84733 12 1.84733C13.4085 1.84733 14.7279 2.11342 15.9583 2.6456C17.188 3.17703 18.2584 3.89506 19.1696 4.7997C20.08 5.70507 20.803 6.76869 21.3386 7.99054C21.8734 9.21313 22.1408 10.5242 22.1408 11.9237C22.1408 13.3232 21.8734 14.6338 21.3386 15.8557C20.803 17.0783 20.08 18.1419 19.1696 19.0465C18.2584 19.9519 17.188 20.6707 15.9583 21.2029C14.7279 21.7343 13.4085 22 12 22ZM4.78873 0L6.3662 1.56743L1.57746 6.3257L0 4.75827L4.78873 0ZM19.2113 0L24 4.75827L22.4225 6.3257L17.6338 1.56743L19.2113 0ZM12 19.7608C14.1972 19.7608 16.0608 19.0002 17.591 17.4791C19.1219 15.9587 19.8873 14.1069 19.8873 11.9237C19.8873 9.74046 19.1219 7.88828 17.591 6.36712C16.0608 4.84672 14.1972 4.08651 12 4.08651C9.80282 4.08651 7.93916 4.84672 6.40901 6.36712C4.87812 7.88828 4.11268 9.74046 4.11268 11.9237C4.11268 14.1069 4.87812 15.9587 6.40901 17.4791C7.93916 19.0002 9.80282 19.7608 12 19.7608Z" fill="#88898B"/>
</svg>
