<svg width="25" height="25" viewBox="0 0 25 25" fill="none" xmlns="http://www.w3.org/2000/svg">
<mask id="mask0_15588_1714" style="mask-type:alpha" maskUnits="userSpaceOnUse" x="0" y="0" width="25" height="25">
<rect y="0.5" width="25" height="24" fill="#D9D9D9"/>
</mask>
<g mask="url(#mask0_15588_1714)">
<path d="M11.5825 17.4673H13.7252V14.4139H16.9394V12.3783H13.7252V9.32484H11.5825V12.3783H8.36833V14.4139H11.5825V17.4673ZM12.6539 22.5564C11.3146 22.5564 10.0604 22.3148 8.89117 21.8317C7.72122 21.3479 6.70341 20.6945 5.83773 19.8714C4.97134 19.049 4.28352 18.0821 3.77425 16.9706C3.2657 15.8599 3.01143 14.6684 3.01143 13.3961C3.01143 12.1238 3.2657 10.932 3.77425 9.82052C4.28352 8.70975 4.97134 7.74283 5.83773 6.91976C6.70341 6.09736 7.72122 5.44461 8.89117 4.96149C10.0604 4.47769 11.3146 4.23579 12.6539 4.23579C13.9931 4.23579 15.2477 4.47769 16.4176 4.96149C17.5869 5.44461 18.6047 6.09736 19.4711 6.91976C20.3367 7.74283 21.0242 8.70975 21.5335 9.82052C22.042 10.932 22.2963 12.1238 22.2963 13.3961C22.2963 14.6684 22.042 15.8599 21.5335 16.9706C21.0242 18.0821 20.3367 19.049 19.4711 19.8714C18.6047 20.6945 17.5869 21.3479 16.4176 21.8317C15.2477 22.3148 13.9931 22.5564 12.6539 22.5564ZM5.79702 2.5564L7.29695 3.98133L2.74359 8.30703L1.24365 6.8821L5.79702 2.5564ZM19.5107 2.5564L24.0641 6.8821L22.5641 8.30703L18.0108 3.98133L19.5107 2.5564ZM12.6539 20.5208C14.743 20.5208 16.5151 19.8293 17.97 18.4465C19.4257 17.0643 20.1535 15.3808 20.1535 13.3961C20.1535 11.4114 19.4257 9.72756 17.97 8.34469C16.5151 6.9625 14.743 6.27141 12.6539 6.27141C10.5647 6.27141 8.7926 6.9625 7.33767 8.34469C5.88202 9.72756 5.15419 11.4114 5.15419 13.3961C5.15419 15.3808 5.88202 17.0643 7.33767 18.4465C8.7926 19.8293 10.5647 20.5208 12.6539 20.5208Z" fill="#68696D"/>
</g>
</svg>
