<svg width="34" height="34" viewBox="0 0 34 34" fill="none" xmlns="http://www.w3.org/2000/svg">
<circle cx="17" cy="17" r="17" fill="#FDD7E4"/>
<path d="M20.6068 10.0132C20.9357 10.2031 21.0663 10.6043 20.9263 10.9462L20.8813 11.0378L14.0725 22.8311C13.8653 23.1898 13.4067 23.3127 13.0479 23.1056C12.7191 22.9158 12.5884 22.5145 12.7285 22.1727L12.7734 22.0811L19.5823 10.2878C19.7894 9.92904 20.2481 9.80614 20.6068 10.0132Z" fill="black"/>
<path d="M20.0365 9.93829C20.4011 9.83967 20.7755 10.0277 20.9207 10.3645L20.9571 10.4698L22.4403 16.0566C22.5465 16.4569 22.3082 16.8676 21.9078 16.9739C21.5439 17.0705 21.1714 16.8823 21.0268 16.5465L20.9905 16.4414L19.7007 11.5825L14.8482 12.8952C14.4847 12.9935 14.1114 12.807 13.9652 12.4719L13.9285 12.367C13.8302 12.0035 14.0167 11.6301 14.3518 11.484L14.4567 11.4472L20.0365 9.93829Z" fill="black"/>
</svg>
