<svg width="34" height="34" viewBox="0 0 34 34" fill="none" xmlns="http://www.w3.org/2000/svg">
<circle cx="17" cy="17" r="17" fill="#CFC8FF"/>
<path d="M22.1725 21.9039C21.904 22.1724 21.4826 22.1947 21.1886 21.971L21.1118 21.9039L11.4826 12.2746C11.1897 11.9817 11.1897 11.5069 11.4826 11.214C11.7511 10.9455 12.1725 10.9231 12.4664 11.1469L12.5432 11.214L22.1725 20.8432C22.4654 21.1361 22.4654 21.611 22.1725 21.9039Z" fill="black"/>
<path d="M22.3925 21.3723C22.3933 21.7501 22.1148 22.063 21.7519 22.1161L21.6407 22.124L15.8605 22.1107C15.4463 22.1097 15.1113 21.7731 15.1123 21.3589C15.1131 20.9824 15.3914 20.6713 15.7531 20.6185L15.864 20.6107L20.8912 20.6224L20.8791 15.5956C20.8782 15.219 21.155 14.9066 21.5166 14.8522L21.6274 14.8438C22.0039 14.843 22.3163 15.1197 22.3707 15.4813L22.3791 15.5921L22.3925 21.3723Z" fill="black"/>
</svg>
