<svg width="17" height="16" viewBox="0 0 17 16" fill="none" xmlns="http://www.w3.org/2000/svg">
<path fill-rule="evenodd" clip-rule="evenodd" d="M0.849609 11.7877V5.86646H16.1502V11.8351C16.1502 14.2766 14.4706 15.7777 11.7834 15.7777H5.208C2.54594 15.7777 0.849609 14.2455 0.849609 11.7877ZM5.06493 9.87436C4.67864 9.8907 4.35953 9.60992 4.34273 9.25292C4.34273 8.89514 4.64505 8.59959 5.03134 8.58325C5.40924 8.58325 5.71995 8.85625 5.72835 9.20547C5.74514 9.56403 5.44283 9.85959 5.06493 9.87436ZM8.51652 9.87436C8.13023 9.8907 7.81112 9.60992 7.79432 9.25292C7.79432 8.89514 8.09664 8.59959 8.48293 8.58325C8.86082 8.58325 9.17154 8.85625 9.17994 9.20547C9.19673 9.56403 8.89442 9.85959 8.51652 9.87436ZM11.9431 12.7365C11.5568 12.7287 11.2461 12.4332 11.2461 12.0754C11.2377 11.7176 11.5484 11.4228 11.9347 11.415H11.9431C12.3378 11.415 12.6569 11.7106 12.6569 12.0754C12.6569 12.4409 12.3378 12.7365 11.9431 12.7365ZM7.79432 12.0754C7.81112 12.4332 8.13023 12.7139 8.51652 12.6976C8.89442 12.6828 9.19673 12.3873 9.17994 12.0295C9.17154 11.6795 8.86082 11.4065 8.48293 11.4065C8.09664 11.4228 7.79432 11.7176 7.79432 12.0754ZM4.33473 12.0754C4.35152 12.4332 4.67064 12.7139 5.05693 12.6976C5.43482 12.6828 5.73714 12.3873 5.72034 12.0295C5.71195 11.6795 5.40123 11.4065 5.02334 11.4065C4.63704 11.4228 4.33473 11.7176 4.33473 12.0754ZM11.2544 9.24513C11.2544 8.88735 11.5568 8.59957 11.9431 8.5918C12.321 8.5918 12.6233 8.87102 12.6401 9.21402C12.6485 9.5718 12.3461 9.86735 11.9682 9.87435C11.582 9.88213 11.2628 9.60991 11.2544 9.25291V9.24513Z" fill="black"/>
<path opacity="0.4" d="M0.852295 5.8663C0.863212 5.40975 0.9052 4.50364 0.984138 4.21197C1.38723 2.57164 2.75605 1.52941 4.7127 1.38086H12.2874C14.2273 1.53719 15.6129 2.58642 16.016 4.21197C16.0941 4.49586 16.136 5.40897 16.147 5.8663H0.852295Z" fill="black"/>
<path d="M5.35853 3.79217C5.72803 3.79217 6.00515 3.53628 6.00515 3.19328V0.821835C6.00515 0.478835 5.72803 0.222168 5.35853 0.222168C4.98904 0.222168 4.71191 0.478835 4.71191 0.821835V3.19328C4.71191 3.53628 4.98904 3.79217 5.35853 3.79217Z" fill="black"/>
<path d="M11.6408 3.79217C12.0019 3.79217 12.2874 3.53628 12.2874 3.19328V0.821835C12.2874 0.478835 12.0019 0.222168 11.6408 0.222168C11.2713 0.222168 10.9941 0.478835 10.9941 0.821835V3.19328C10.9941 3.53628 11.2713 3.79217 11.6408 3.79217Z" fill="black"/>
</svg>
