<svg width="38" height="24" viewBox="0 0 38 24" fill="none" xmlns="http://www.w3.org/2000/svg">
<path d="M22.8546 12.4076C22.8546 14.6744 20.9607 16.5465 18.5814 16.5465C16.202 16.5465 14.3081 14.6744 14.3081 12.4076C14.3081 10.1408 16.202 8.26868 18.5814 8.26868C20.9607 8.26868 22.8546 10.1408 22.8546 12.4076Z" stroke="#68696D" stroke-width="1.5"/>
<path d="M25.3663 12.4076C25.3663 16.0244 22.3479 18.9909 18.5814 18.9909C14.8149 18.9909 11.7965 16.0244 11.7965 12.4076C11.7965 8.79072 14.8149 5.82422 18.5814 5.82422C22.3479 5.82422 25.3663 8.79072 25.3663 12.4076Z" stroke="#68696D" stroke-width="1.5"/>
<path d="M35 23H3C1.89543 23 1 22.1046 1 21V5.27586C1 4.17129 1.89543 3.27586 3 3.27586H8.35054C8.80501 3.27586 9.24592 3.12108 9.60067 2.83702L11.3467 1.43885C11.7014 1.15478 12.1424 1 12.5968 1H25.0112C25.4153 1 25.8099 1.12239 26.143 1.35105L28.4359 2.92481C28.7691 3.15347 29.1636 3.27586 29.5677 3.27586H35C36.1046 3.27586 37 4.17129 37 5.27586V21C37 22.1046 36.1046 23 35 23Z" stroke="#68696D" stroke-width="2"/>
<line x1="6.68605" y1="5.0741" x2="6.68605" y2="8.33336" stroke="#68696D" stroke-width="3"/>
<line x1="3.51163" y1="6.51868" x2="9.37209" y2="6.51868" stroke="#68696D" stroke-width="2"/>
</svg>
