<svg width="22" height="22" viewBox="0 0 22 22" fill="none" xmlns="http://www.w3.org/2000/svg">
<path fill-rule="evenodd" clip-rule="evenodd" d="M8.70439 14.6172C4.54871 14.6172 0.999512 15.2523 0.999512 17.7972C0.999512 20.3421 4.52708 21.0002 8.70439 21.0002C12.8612 21.0002 16.4093 20.3639 16.4093 17.8202C16.4093 15.2764 12.8828 14.6172 8.70439 14.6172Z" stroke="black" stroke-width="2" stroke-linecap="round" stroke-linejoin="round"/>
<path fill-rule="evenodd" clip-rule="evenodd" d="M8.70491 10.9871C11.4325 10.9871 13.6433 8.75161 13.6433 5.99357C13.6433 3.23552 11.4325 1 8.70491 1C5.97842 1 3.76761 3.23552 3.76761 5.99357C3.75788 8.74178 5.95248 10.9773 8.6714 10.9871H8.70491Z" stroke="black" stroke-width="2" stroke-linecap="round" stroke-linejoin="round"/>
<path d="M18.7876 7.4707V11.8543" stroke="black" stroke-width="2" stroke-linecap="round" stroke-linejoin="round"/>
<path d="M20.9998 9.6623H16.5781" stroke="black" stroke-width="2" stroke-linecap="round" stroke-linejoin="round"/>
</svg>
