<svg width="276" height="263" viewBox="0 0 276 263" fill="none" xmlns="http://www.w3.org/2000/svg">
<rect x="0.5" y="0.5" width="275" height="262" rx="19.5" fill="white" stroke="#E1E1E1"/>
<circle cx="33" cy="100" r="17" fill="#ECECEC"/>
<path d="M36.6068 93.0132C36.9356 93.2031 37.0663 93.6043 36.9263 93.9462L36.8813 94.0378L30.0724 105.831C29.8653 106.19 29.4066 106.313 29.0479 106.106C28.7191 105.916 28.5884 105.515 28.7285 105.173L28.7734 105.081L35.5823 93.2878C35.7894 92.929 36.2481 92.8061 36.6068 93.0132Z" fill="black"/>
<path d="M36.0365 92.9383C36.4011 92.8397 36.7755 93.0277 36.9207 93.3645L36.9571 93.4698L38.4403 99.0566C38.5465 99.4569 38.3082 99.8676 37.9078 99.9739C37.5439 100.071 37.1714 99.8823 37.0268 99.5465L36.9905 99.4414L35.7007 94.5825L30.8482 95.8952C30.4847 95.9935 30.1114 95.807 29.9652 95.4719L29.9285 95.367C29.8302 95.0035 30.0167 94.6301 30.3518 94.484L30.4567 94.4472L36.0365 92.9383Z" fill="black"/>
<circle cx="33" cy="151" r="17" fill="#D9D9D9"/>
<path d="M38.1725 155.904C37.904 156.172 37.4826 156.195 37.1886 155.971L37.1118 155.904L27.4826 146.275C27.1897 145.982 27.1897 145.507 27.4826 145.214C27.7511 144.945 28.1725 144.923 28.4664 145.147L28.5433 145.214L38.1725 154.843C38.4654 155.136 38.4654 155.611 38.1725 155.904Z" fill="black"/>
<path d="M38.3925 155.372C38.3933 155.75 38.1148 156.063 37.7519 156.116L37.6407 156.124L31.8605 156.111C31.4463 156.11 31.1113 155.773 31.1123 155.359C31.1131 154.982 31.3914 154.671 31.7532 154.619L31.864 154.611L36.8912 154.622L36.8791 149.596C36.8783 149.219 37.155 148.907 37.5166 148.852L37.6274 148.844C38.0039 148.843 38.3163 149.12 38.3707 149.481L38.3791 149.592L38.3925 155.372Z" fill="black"/>
<line opacity="0.1" x1="1" y1="66.5" x2="276" y2="66.5" stroke="black"/>
<line opacity="0.1" x1="1" y1="192.5" x2="276" y2="192.5" stroke="black"/>
<line opacity="0.1" x1="158.5" y1="202" x2="158.5" y2="243" stroke="black"/>
<rect opacity="0.5" x="16" y="16" width="84" height="13" rx="6.5" fill="#D9D9D9"/>
<rect opacity="0.5" x="16" y="205" width="52" height="13" rx="6.5" fill="#D9D9D9"/>
<rect opacity="0.5" x="208" y="206" width="52" height="13" rx="6.5" fill="#D9D9D9"/>
<rect opacity="0.5" x="74" y="102" width="110" height="13" rx="6.5" fill="#D9D9D9"/>
<rect opacity="0.5" x="74" y="154" width="146" height="13" rx="6.5" fill="#D9D9D9"/>
<rect x="16" y="39" width="129" height="13" rx="6.5" fill="#D9D9D9"/>
<rect x="73" y="83" width="93" height="13" rx="6.5" fill="#D9D9D9"/>
<rect x="73" y="135" width="116" height="13" rx="6.5" fill="#D9D9D9"/>
<rect x="16" y="221" width="116" height="13" rx="6.5" fill="#D9D9D9"/>
<rect x="179" y="222" width="81" height="13" rx="6.5" fill="#D9D9D9"/>
<rect x="170" y="16" width="89" height="36" rx="18" fill="#ECECEC"/>
</svg>
