<svg width="392" height="230" viewBox="0 0 392 230" fill="none" xmlns="http://www.w3.org/2000/svg">
<line x1="349" y1="206.5" x2="36" y2="206.5" stroke="#ECECEC"/>
<line x1="349" y1="59.5" x2="36" y2="59.5" stroke="#ECECEC"/>
<line x1="35.5" y1="206" x2="35.5" stroke="#ECECEC"/>
<path d="M11.5309 213.71C10.8109 214.7 9.80088 215.195 8.50088 215.195C7.20088 215.195 6.18588 214.7 5.45588 213.71C4.73588 212.72 4.37588 211.4 4.37588 209.75C4.37588 208.1 4.73588 206.78 5.45588 205.79C6.18588 204.8 7.20088 204.305 8.50088 204.305C9.80088 204.305 10.8109 204.8 11.5309 205.79C12.2609 206.78 12.6259 208.1 12.6259 209.75C12.6259 211.4 12.2609 212.72 11.5309 213.71ZM8.50088 213.515C9.28088 213.515 9.87588 213.19 10.2859 212.54C10.6959 211.89 10.9009 210.96 10.9009 209.75C10.9009 208.54 10.6959 207.61 10.2859 206.96C9.87588 206.31 9.28088 205.985 8.50088 205.985C7.73088 205.985 7.13588 206.31 6.71588 206.96C6.30588 207.61 6.10088 208.54 6.10088 209.75C6.10088 210.96 6.30588 211.89 6.71588 212.54C7.13588 213.19 7.73088 213.515 8.50088 213.515Z" fill="#68696D"/>
<path d="M9.53809 169.46C10.5381 169.46 11.3831 169.76 12.0731 170.36C12.7631 170.95 13.1081 171.77 13.1081 172.82C13.1081 173.87 12.7531 174.695 12.0431 175.295C11.3331 175.895 10.4631 176.195 9.43309 176.195C8.60309 176.195 7.86809 176.005 7.22809 175.625C6.58809 175.235 6.13309 174.675 5.86309 173.945L7.34809 173.09C7.62809 174.04 8.32309 174.515 9.43309 174.515C10.0231 174.515 10.4931 174.365 10.8431 174.065C11.2031 173.755 11.3831 173.34 11.3831 172.82C11.3831 172.3 11.2081 171.89 10.8581 171.59C10.5081 171.29 10.0431 171.14 9.46309 171.14H6.40309L6.80809 165.5H12.6581V167.12H8.39809L8.21809 169.46H9.53809Z" fill="#68696D"/>
<path d="M4.94035 126.5H6.44035V137H4.71535V128.345L2.60035 128.945L2.18035 127.475L4.94035 126.5ZM15.3214 135.71C14.6014 136.7 13.5914 137.195 12.2914 137.195C10.9914 137.195 9.97641 136.7 9.24641 135.71C8.52641 134.72 8.16641 133.4 8.16641 131.75C8.16641 130.1 8.52641 128.78 9.24641 127.79C9.97641 126.8 10.9914 126.305 12.2914 126.305C13.5914 126.305 14.6014 126.8 15.3214 127.79C16.0514 128.78 16.4164 130.1 16.4164 131.75C16.4164 133.4 16.0514 134.72 15.3214 135.71ZM12.2914 135.515C13.0714 135.515 13.6664 135.19 14.0764 134.54C14.4864 133.89 14.6914 132.96 14.6914 131.75C14.6914 130.54 14.4864 129.61 14.0764 128.96C13.6664 128.31 13.0714 127.985 12.2914 127.985C11.5214 127.985 10.9264 128.31 10.5064 128.96C10.0964 129.61 9.89141 130.54 9.89141 131.75C9.89141 132.96 10.0964 133.89 10.5064 134.54C10.9264 135.19 11.5214 135.515 12.2914 135.515Z" fill="#68696D"/>
<path d="M5.57756 92.5H7.07756V103H5.35256V94.345L3.23756 94.945L2.81756 93.475L5.57756 92.5ZM12.3286 96.46C13.3286 96.46 14.1736 96.76 14.8636 97.36C15.5536 97.95 15.8986 98.77 15.8986 99.82C15.8986 100.87 15.5436 101.695 14.8336 102.295C14.1236 102.895 13.2536 103.195 12.2236 103.195C11.3936 103.195 10.6586 103.005 10.0186 102.625C9.37861 102.235 8.92361 101.675 8.65361 100.945L10.1386 100.09C10.4186 101.04 11.1136 101.515 12.2236 101.515C12.8136 101.515 13.2836 101.365 13.6336 101.065C13.9936 100.755 14.1736 100.34 14.1736 99.82C14.1736 99.3 13.9986 98.89 13.6486 98.59C13.2986 98.29 12.8336 98.14 12.2536 98.14H9.19361L9.59861 92.5H15.4486V94.12H11.1886L11.0086 96.46H12.3286Z" fill="#68696D"/>
<path d="M0.344395 64V62.65L4.00439 58.915C4.89439 58.025 5.33939 57.255 5.33939 56.605C5.33939 56.095 5.18439 55.7 4.87439 55.42C4.57439 55.13 4.18939 54.985 3.71939 54.985C2.83939 54.985 2.18939 55.42 1.76939 56.29L0.314395 55.435C0.644395 54.735 1.10939 54.205 1.70939 53.845C2.30939 53.485 2.97439 53.305 3.70439 53.305C4.62439 53.305 5.41439 53.595 6.07439 54.175C6.73439 54.755 7.0644 55.545 7.0644 56.545C7.0644 57.615 6.46939 58.755 5.27939 59.965L2.90939 62.335H7.25939V64H0.344395ZM15.4274 62.71C14.7074 63.7 13.6974 64.195 12.3974 64.195C11.0974 64.195 10.0824 63.7 9.35236 62.71C8.63236 61.72 8.27236 60.4 8.27236 58.75C8.27236 57.1 8.63236 55.78 9.35236 54.79C10.0824 53.8 11.0974 53.305 12.3974 53.305C13.6974 53.305 14.7074 53.8 15.4274 54.79C16.1574 55.78 16.5224 57.1 16.5224 58.75C16.5224 60.4 16.1574 61.72 15.4274 62.71ZM12.3974 62.515C13.1774 62.515 13.7724 62.19 14.1824 61.54C14.5924 60.89 14.7974 59.96 14.7974 58.75C14.7974 57.54 14.5924 56.61 14.1824 55.96C13.7724 55.31 13.1774 54.985 12.3974 54.985C11.6274 54.985 11.0324 55.31 10.6124 55.96C10.2024 56.61 9.99736 57.54 9.99736 58.75C9.99736 59.96 10.2024 60.89 10.6124 61.54C11.0324 62.19 11.6274 62.515 12.3974 62.515Z" fill="#68696D"/>
<path d="M1.9816 26V24.65L5.6416 20.915C6.5316 20.025 6.9766 19.255 6.9766 18.605C6.9766 18.095 6.8216 17.7 6.5116 17.42C6.2116 17.13 5.8266 16.985 5.3566 16.985C4.4766 16.985 3.8266 17.42 3.4066 18.29L1.9516 17.435C2.2816 16.735 2.7466 16.205 3.3466 15.845C3.9466 15.485 4.6116 15.305 5.3416 15.305C6.2616 15.305 7.0516 15.595 7.7116 16.175C8.3716 16.755 8.7016 17.545 8.7016 18.545C8.7016 19.615 8.1066 20.755 6.9166 21.965L4.5466 24.335H8.8966V26H1.9816ZM13.4346 19.46C14.4346 19.46 15.2796 19.76 15.9696 20.36C16.6596 20.95 17.0046 21.77 17.0046 22.82C17.0046 23.87 16.6496 24.695 15.9396 25.295C15.2296 25.895 14.3596 26.195 13.3296 26.195C12.4996 26.195 11.7646 26.005 11.1246 25.625C10.4846 25.235 10.0296 24.675 9.75957 23.945L11.2446 23.09C11.5246 24.04 12.2196 24.515 13.3296 24.515C13.9196 24.515 14.3896 24.365 14.7396 24.065C15.0996 23.755 15.2796 23.34 15.2796 22.82C15.2796 22.3 15.1046 21.89 14.7546 21.59C14.4046 21.29 13.9396 21.14 13.3596 21.14H10.2996L10.7046 15.5H16.5546V17.12H12.2946L12.1146 19.46H13.4346Z" fill="#68696D"/>
<path d="M60 50C60 47.2386 62.2386 45 65 45H83C85.7614 45 88 47.2386 88 50V206H60V50Z" fill="#FDD7E4"/>
<path d="M144 44C144 41.2386 146.239 39 149 39H167C169.761 39 172 41.2386 172 44V206H144V44Z" fill="#FDD7E4"/>
<path d="M226 69C226 66.2386 228.239 64 231 64H249C251.761 64 254 66.2386 254 69V206H226V69Z" fill="#FDD7E4"/>
<path d="M308 57C308 54.2386 310.239 52 313 52H331C333.761 52 336 54.2386 336 57V206H308V57Z" fill="#FDD7E4"/>
<path d="M373.604 70L372.869 67.885H368.399L367.664 70H365.789L369.599 59.5H371.669L375.464 70H373.604ZM368.969 66.265H372.299L370.634 61.525L368.969 66.265ZM381.28 62.5H383.05L380.125 70H378.25L375.325 62.5H377.095L379.195 68.2L381.28 62.5ZM389.753 62.5H391.343V69.655C391.343 70.795 390.968 71.67 390.218 72.28C389.468 72.89 388.558 73.195 387.488 73.195C385.758 73.195 384.573 72.59 383.933 71.38L385.328 70.57C385.718 71.34 386.448 71.725 387.518 71.725C388.218 71.725 388.763 71.54 389.153 71.17C389.553 70.81 389.753 70.305 389.753 69.655V68.74C389.143 69.61 388.273 70.045 387.143 70.045C386.083 70.045 385.188 69.67 384.458 68.92C383.728 68.16 383.363 67.245 383.363 66.175C383.363 65.105 383.728 64.195 384.458 63.445C385.188 62.685 386.083 62.305 387.143 62.305C388.273 62.305 389.143 62.74 389.753 63.61V62.5ZM385.658 67.855C386.118 68.305 386.688 68.53 387.368 68.53C388.048 68.53 388.613 68.305 389.063 67.855C389.523 67.405 389.753 66.845 389.753 66.175C389.753 65.505 389.523 64.945 389.063 64.495C388.613 64.045 388.048 63.82 387.368 63.82C386.688 63.82 386.118 64.045 385.658 64.495C385.208 64.945 384.983 65.505 384.983 66.175C384.983 66.845 385.208 67.405 385.658 67.855Z" fill="black"/>
<path d="M68.5973 225.195C66.9673 225.195 65.8423 224.555 65.2223 223.275L66.7073 222.405C67.0473 223.145 67.6823 223.515 68.6123 223.515C69.2123 223.515 69.6723 223.37 69.9923 223.08C70.3223 222.78 70.4873 222.36 70.4873 221.82V214.5H72.2123V221.82C72.2123 222.9 71.8723 223.735 71.1923 224.325C70.5123 224.905 69.6473 225.195 68.5973 225.195ZM79.1641 217.5H80.7841V225H79.1641V224.04C78.6741 224.81 77.8991 225.195 76.8391 225.195C75.9791 225.195 75.2841 224.92 74.7541 224.37C74.2241 223.82 73.9591 223.065 73.9591 222.105V217.5H75.5791V221.94C75.5791 222.5 75.7291 222.93 76.0291 223.23C76.3291 223.53 76.7391 223.68 77.2591 223.68C77.8291 223.68 78.2891 223.505 78.6391 223.155C78.9891 222.795 79.1641 222.25 79.1641 221.52V217.5ZM86.6234 217.305C87.4834 217.305 88.1784 217.58 88.7084 218.13C89.2384 218.68 89.5034 219.435 89.5034 220.395V225H87.8834V220.56C87.8834 220 87.7334 219.57 87.4334 219.27C87.1334 218.97 86.7234 218.82 86.2034 218.82C85.6334 218.82 85.1734 219 84.8234 219.36C84.4734 219.71 84.2984 220.25 84.2984 220.98V225H82.6784V217.5H84.2984V218.46C84.7884 217.69 85.5634 217.305 86.6234 217.305Z" fill="#68696D"/>
<path d="M149.631 225.195C148.001 225.195 146.876 224.555 146.256 223.275L147.741 222.405C148.081 223.145 148.716 223.515 149.646 223.515C150.246 223.515 150.706 223.37 151.026 223.08C151.356 222.78 151.521 222.36 151.521 221.82V214.5H153.246V221.82C153.246 222.9 152.906 223.735 152.226 224.325C151.546 224.905 150.681 225.195 149.631 225.195ZM160.198 217.5H161.818V225H160.198V224.04C159.708 224.81 158.933 225.195 157.873 225.195C157.013 225.195 156.318 224.92 155.788 224.37C155.258 223.82 154.993 223.065 154.993 222.105V217.5H156.613V221.94C156.613 222.5 156.763 222.93 157.063 223.23C157.363 223.53 157.773 223.68 158.293 223.68C158.863 223.68 159.323 223.505 159.673 223.155C160.023 222.795 160.198 222.25 160.198 221.52V217.5ZM163.713 225V214.05H165.333V225H163.713Z" fill="#68696D"/>
<path d="M235.011 225L234.276 222.885H229.806L229.071 225H227.196L231.006 214.5H233.076L236.871 225H235.011ZM230.376 221.265H233.706L232.041 216.525L230.376 221.265ZM242.862 217.5H244.482V225H242.862V224.04C242.372 224.81 241.597 225.195 240.537 225.195C239.677 225.195 238.982 224.92 238.452 224.37C237.922 223.82 237.657 223.065 237.657 222.105V217.5H239.277V221.94C239.277 222.5 239.427 222.93 239.727 223.23C240.027 223.53 240.437 223.68 240.957 223.68C241.527 223.68 241.987 223.505 242.337 223.155C242.687 222.795 242.862 222.25 242.862 221.52V217.5ZM252.346 217.5H253.936V224.655C253.936 225.795 253.561 226.67 252.811 227.28C252.061 227.89 251.151 228.195 250.081 228.195C248.351 228.195 247.166 227.59 246.526 226.38L247.921 225.57C248.311 226.34 249.041 226.725 250.111 226.725C250.811 226.725 251.356 226.54 251.746 226.17C252.146 225.81 252.346 225.305 252.346 224.655V223.74C251.736 224.61 250.866 225.045 249.736 225.045C248.676 225.045 247.781 224.67 247.051 223.92C246.321 223.16 245.956 222.245 245.956 221.175C245.956 220.105 246.321 219.195 247.051 218.445C247.781 217.685 248.676 217.305 249.736 217.305C250.866 217.305 251.736 217.74 252.346 218.61V217.5ZM248.251 222.855C248.711 223.305 249.281 223.53 249.961 223.53C250.641 223.53 251.206 223.305 251.656 222.855C252.116 222.405 252.346 221.845 252.346 221.175C252.346 220.505 252.116 219.945 251.656 219.495C251.206 219.045 250.641 218.82 249.961 218.82C249.281 218.82 248.711 219.045 248.251 219.495C247.801 219.945 247.576 220.505 247.576 221.175C247.576 221.845 247.801 222.405 248.251 222.855Z" fill="#68696D"/>
<path d="M313.503 227.195C312.493 227.195 311.633 226.965 310.923 226.505C310.223 226.045 309.733 225.415 309.453 224.615L310.938 223.745C311.358 224.925 312.228 225.515 313.548 225.515C314.198 225.515 314.683 225.39 315.003 225.14C315.333 224.88 315.498 224.545 315.498 224.135C315.498 223.705 315.323 223.38 314.973 223.16C314.623 222.93 314.003 222.68 313.113 222.41C312.613 222.26 312.208 222.12 311.898 221.99C311.588 221.86 311.258 221.68 310.908 221.45C310.568 221.21 310.313 220.915 310.143 220.565C309.973 220.215 309.888 219.805 309.888 219.335C309.888 218.405 310.218 217.67 310.878 217.13C311.538 216.58 312.333 216.305 313.263 216.305C314.103 216.305 314.838 216.51 315.468 216.92C316.098 217.33 316.583 217.895 316.923 218.615L315.468 219.455C315.028 218.475 314.293 217.985 313.263 217.985C312.763 217.985 312.363 218.105 312.063 218.345C311.763 218.575 311.613 218.89 311.613 219.29C311.613 219.68 311.763 219.99 312.063 220.22C312.373 220.44 312.928 220.675 313.728 220.925C314.128 221.055 314.418 221.155 314.598 221.225C314.788 221.285 315.048 221.385 315.378 221.525C315.718 221.665 315.973 221.805 316.143 221.945C316.313 222.085 316.493 222.26 316.683 222.47C316.883 222.68 317.023 222.92 317.103 223.19C317.183 223.46 317.223 223.765 317.223 224.105C317.223 225.055 316.878 225.81 316.188 226.37C315.508 226.92 314.613 227.195 313.503 227.195ZM320.084 223.94C320.204 224.51 320.479 224.95 320.909 225.26C321.339 225.56 321.864 225.71 322.484 225.71C323.344 225.71 323.989 225.4 324.419 224.78L325.754 225.56C325.014 226.65 323.919 227.195 322.469 227.195C321.249 227.195 320.264 226.825 319.514 226.085C318.764 225.335 318.389 224.39 318.389 223.25C318.389 222.13 318.759 221.195 319.499 220.445C320.239 219.685 321.189 219.305 322.349 219.305C323.449 219.305 324.349 219.69 325.049 220.46C325.759 221.23 326.114 222.165 326.114 223.265C326.114 223.435 326.094 223.66 326.054 223.94H320.084ZM320.069 222.62H324.479C324.369 222.01 324.114 221.55 323.714 221.24C323.324 220.93 322.864 220.775 322.334 220.775C321.734 220.775 321.234 220.94 320.834 221.27C320.434 221.6 320.179 222.05 320.069 222.62ZM331.784 219.305C332.814 219.305 333.694 219.69 334.424 220.46C335.154 221.22 335.519 222.15 335.519 223.25C335.519 224.36 335.154 225.295 334.424 226.055C333.694 226.815 332.814 227.195 331.784 227.195C330.644 227.195 329.769 226.775 329.159 225.935V230H327.539V219.5H329.159V220.58C329.769 219.73 330.644 219.305 331.784 219.305ZM329.834 224.975C330.284 225.425 330.849 225.65 331.529 225.65C332.209 225.65 332.774 225.425 333.224 224.975C333.674 224.515 333.899 223.94 333.899 223.25C333.899 222.56 333.674 221.99 333.224 221.54C332.774 221.08 332.209 220.85 331.529 220.85C330.849 220.85 330.284 221.08 329.834 221.54C329.384 221.99 329.159 222.56 329.159 223.25C329.159 223.94 329.384 224.515 329.834 224.975Z" fill="black"/>
</svg>
