<svg width="46" height="44" viewBox="0 0 46 44" fill="none" xmlns="http://www.w3.org/2000/svg">
<ellipse opacity="0.2" cx="29.3372" cy="25.9515" rx="9.13357" ry="9.65854" fill="#8C8B8B"/>
<g clip-path="url(#clip0_16970_12049)">
<path d="M37.7801 14.6977L29.3937 10.6903C29.1021 10.5509 28.7576 10.5616 28.4759 10.7188L19.4891 15.7331C19.4885 15.7334 19.4879 15.7337 19.4873 15.734C19.4868 15.7343 19.4862 15.7347 19.4856 15.735L10.4988 20.7493C10.217 20.9065 10.0353 21.1894 10.0144 21.5032L9.41227 30.5258C9.38137 30.9885 9.70413 31.4039 10.1725 31.5043L30.7909 35.9256C31.0372 35.9785 31.284 35.9359 31.4882 35.822C31.6923 35.7081 31.8539 35.5228 31.9297 35.2902L38.2769 15.8232C38.4211 15.381 38.2102 14.9032 37.7801 14.6977ZM20.4598 23.8782L20.8509 18.0165L26.2993 20.62L20.4598 23.8782ZM27.6438 22.0414L29.578 32.6246L21.0613 25.7142L27.6438 22.0414ZM22.035 16.4843L27.8744 13.2261L27.4832 19.0876L22.035 16.4843ZM18.4946 24.1029L13.0464 21.4995L18.8858 18.2414L18.4946 24.1029ZM17.3107 25.6352L11.4712 28.8934L11.8624 23.0318L17.3107 25.6352ZM19.2681 26.7147L27.3313 33.2573L13.0361 30.1919L19.2681 26.7147ZM29.437 21.0409L35.669 17.5637L31.2683 31.0606L29.437 21.0409ZM29.4483 18.8629L29.8395 13.0013L35.2878 15.6047L29.4483 18.8629Z" fill="#8C8B8B"/>
<path d="M27.4654 9.05371C27.681 8.93338 27.8492 8.73351 27.9187 8.48271L28.926 4.84948C29.0651 4.34787 28.7571 3.83221 28.238 3.69779C27.719 3.56339 27.1854 3.86111 27.0463 4.36272L26.0389 7.99595C25.8998 8.49755 26.2079 9.01321 26.727 9.14763C26.9865 9.21484 27.2497 9.17405 27.4654 9.05371Z" fill="#8C8B8B"/>
<path d="M17.8008 12.9107C18.2661 12.651 18.4256 12.0759 18.1569 11.6261L16.2108 8.36864C15.9422 7.91889 15.347 7.76479 14.8816 8.02445C14.4163 8.28411 14.2568 8.85925 14.5255 9.309L16.4716 12.5665C16.7403 13.0163 17.3354 13.1704 17.8008 12.9107Z" fill="#8C8B8B"/>
<path d="M8.77383 19.1649C9.03338 19.2321 9.29656 19.1913 9.51217 19.071C9.72779 18.9507 9.896 18.7508 9.96548 18.5C10.1046 17.9984 9.79654 17.4828 9.27745 17.3483L5.5181 16.3748C4.9991 16.2404 4.46552 16.5381 4.32639 17.0397C4.18727 17.5413 4.49533 18.057 5.01443 18.1914L8.77383 19.1649Z" fill="#8C8B8B"/>
</g>
<defs>
<clipPath id="clip0_16970_12049">
<rect width="32.9377" height="32.38" fill="white" transform="matrix(0.873264 -0.487247 0.512863 0.858471 0.5 16.0488)"/>
</clipPath>
</defs>
</svg>
