<svg width="22" height="20" viewBox="0 0 22 20" fill="none" xmlns="http://www.w3.org/2000/svg">
<path d="M20.7145 7.70552L17.4665 2.08312C16.7273 0.80624 15.3609 0 13.8824 0H7.38644C5.908 0 4.5416 0.78408 3.80236 2.08312L0.5544 7.70552C-0.1848 8.9824 -0.1848 10.5727 0.5544 11.8495L3.80236 17.4719C4.54156 18.7488 5.908 19.555 7.38644 19.555H13.8824C15.3609 19.555 16.7273 18.771 17.4665 17.4719L20.7145 11.8719C21.4537 10.5728 21.4537 9.00472 20.7145 7.70552ZM15.3833 9.4302V12.9246C15.3833 14.515 14.0841 15.8141 12.4938 15.8141L9.425 15.8142C8.3722 15.8142 7.45376 15.2542 6.96092 14.4255H6.93858L4.72094 10.0575C4.54172 9.69904 4.69859 9.25108 5.07937 9.07184C5.46015 8.89262 5.90813 9.02699 6.08733 9.38543L6.78169 10.7518C6.91607 10.9982 7.29685 10.9087 7.29685 10.6398V5.0846C7.29685 4.68148 7.63279 4.3454 8.05841 4.3454C8.48404 4.3454 8.81997 4.68133 8.81997 5.0846V9.02696C8.81997 9.20618 8.97685 9.36289 9.15591 9.36289C9.35747 9.36289 9.51435 9.20602 9.51435 9.02696L9.5145 4.47976C9.5145 4.07664 9.85044 3.74056 10.2761 3.74056C10.7017 3.74056 11.0376 4.07649 11.0376 4.47976V9.04936C11.0376 9.25092 11.1945 9.38529 11.3736 9.38529C11.5751 9.38529 11.732 9.22842 11.732 9.04936L11.7321 5.08452C11.7321 4.6814 12.0681 4.34532 12.4937 4.34532C12.9193 4.34532 13.2553 4.68125 13.2553 5.08452V9.07172C13.2553 9.27328 13.4121 9.40765 13.5912 9.40765C13.7928 9.40765 13.9496 9.25078 13.9496 9.07172V6.13736C13.9496 5.75658 14.2856 5.42048 14.7112 5.42048C15.1368 5.42048 15.4728 5.73407 15.4728 6.13736L15.4729 9.43016L15.3833 9.4302Z" fill="black"/>
</svg>
