<svg width="23" height="24" viewBox="0 0 23 24" fill="none" xmlns="http://www.w3.org/2000/svg">
<path d="M18.208 1.45801H4.79134C3.77468 1.45801 2.79965 1.86188 2.08077 2.58077C1.36188 3.29965 0.958008 4.27468 0.958008 5.29134V11.9997C0.958008 12.2538 1.05897 12.4976 1.2387 12.6773C1.41842 12.857 1.66218 12.958 1.91634 12.958H6.70801V21.583C6.70755 21.7663 6.75968 21.9459 6.8582 22.1005C6.95671 22.255 7.09749 22.3781 7.26384 22.4551C7.43058 22.5318 7.61585 22.5591 7.79764 22.5336C7.97942 22.5081 8.15005 22.431 8.28926 22.3113L11.0205 19.973L13.7518 22.3113C13.9253 22.4598 14.1463 22.5414 14.3747 22.5414C14.6031 22.5414 14.824 22.4598 14.9976 22.3113L17.7288 19.973L20.4601 22.3113C20.6337 22.4598 20.8546 22.5414 21.083 22.5413C21.2217 22.5404 21.3586 22.511 21.4855 22.4551C21.6519 22.3781 21.7926 22.255 21.8912 22.1005C21.9897 21.9459 22.0418 21.7663 22.0413 21.583V5.29134C22.0413 4.27468 21.6375 3.29965 20.9186 2.58077C20.1997 1.86188 19.2247 1.45801 18.208 1.45801ZM2.87467 11.0413V5.29134C2.87467 4.78301 3.07661 4.2955 3.43605 3.93605C3.7955 3.57661 4.28301 3.37467 4.79134 3.37467C5.29967 3.37467 5.78718 3.57661 6.14663 3.93605C6.50607 4.2955 6.70801 4.78301 6.70801 5.29134V11.0413H2.87467ZM20.1247 19.5034L18.3518 17.9797C18.1782 17.8312 17.9573 17.7496 17.7288 17.7496C17.5004 17.7496 17.2795 17.8312 17.1059 17.9797L14.3747 20.318L11.6434 17.9797C11.4698 17.8312 11.2489 17.7496 11.0205 17.7496C10.7921 17.7496 10.5712 17.8312 10.3976 17.9797L8.62467 19.5034V5.29134C8.62348 4.61809 8.44499 3.95703 8.10717 3.37467H18.208C18.7163 3.37467 19.2039 3.57661 19.5633 3.93605C19.9227 4.2955 20.1247 4.78301 20.1247 5.29134V19.5034ZM18.208 6.24967C18.208 6.50384 18.107 6.7476 17.9273 6.92732C17.7476 7.10704 17.5038 7.20801 17.2497 7.20801H11.4997C11.2455 7.20801 11.0018 7.10704 10.822 6.92732C10.6423 6.7476 10.5413 6.50384 10.5413 6.24967C10.5413 5.99551 10.6423 5.75175 10.822 5.57203C11.0018 5.39231 11.2455 5.29134 11.4997 5.29134H17.2497C17.5038 5.29134 17.7476 5.39231 17.9273 5.57203C18.107 5.75175 18.208 5.99551 18.208 6.24967ZM18.208 10.083C18.208 10.3372 18.107 10.5809 17.9273 10.7607C17.7476 10.9404 17.5038 11.0413 17.2497 11.0413H11.4997C11.2455 11.0413 11.0018 10.9404 10.822 10.7607C10.6423 10.5809 10.5413 10.3372 10.5413 10.083C10.5413 9.82884 10.6423 9.58509 10.822 9.40536C11.0018 9.22564 11.2455 9.12467 11.4997 9.12467H17.2497C17.5038 9.12467 17.7476 9.22564 17.9273 9.40536C18.107 9.58509 18.208 9.82884 18.208 10.083ZM18.208 13.9163C18.208 14.1705 18.107 14.4143 17.9273 14.594C17.7476 14.7737 17.5038 14.8747 17.2497 14.8747H11.4997C11.2455 14.8747 11.0018 14.7737 10.822 14.594C10.6423 14.4143 10.5413 14.1705 10.5413 13.9163C10.5413 13.6622 10.6423 13.4184 10.822 13.2387C11.0018 13.059 11.2455 12.958 11.4997 12.958H17.2497C17.5038 12.958 17.7476 13.059 17.9273 13.2387C18.107 13.4184 18.208 13.6622 18.208 13.9163Z" fill="black"/>
</svg>
