<svg width="21" height="22" viewBox="0 0 21 22" fill="none" xmlns="http://www.w3.org/2000/svg">
<mask id="mask0_15873_458" style="mask-type:alpha" maskUnits="userSpaceOnUse" x="0" y="0" width="21" height="22">
<rect y="0.5" width="21" height="21" fill="#D9D9D9"/>
</mask>
<g mask="url(#mask0_15873_458)">
<path d="M4.375 17.1248H5.6L13.1469 9.57788L11.9219 8.35288L4.375 15.8998V17.1248ZM16.8875 8.30913L13.1687 4.63413L14.3938 3.40913C14.7292 3.07371 15.1413 2.90601 15.6301 2.90601C16.1184 2.90601 16.5302 3.07371 16.8656 3.40913L18.0906 4.63413C18.426 4.96955 18.601 5.37438 18.6156 5.84863C18.6302 6.3223 18.4698 6.72684 18.1344 7.06226L16.8875 8.30913ZM15.6188 9.59976L6.34375 18.8748H2.625V15.156L11.9 5.88101L15.6188 9.59976Z" fill="#88898B"/>
</g>
</svg>
