<svg width="23" height="24" viewBox="0 0 23 24" fill="none" xmlns="http://www.w3.org/2000/svg">
<g clip-path="url(#clip0_15721_4409)">
<path d="M23 8.7207C23 8.2245 22.594 7.82227 22.0977 7.82227C21.6015 7.82227 21.1993 8.2245 21.1993 8.7207V17.4249C20.7916 17.2303 20.336 17.1211 19.8555 17.1211H3.32489C2.48234 17.1211 1.79688 16.4473 1.79688 15.5488C1.79688 14.6504 2.48234 13.9766 3.32489 13.9766H4.98633C5.48254 13.9766 5.88477 13.5743 5.88477 13.0781V5.12772H11.9043C12.4005 5.12772 12.8027 4.72549 12.8027 4.22928C12.8027 3.73307 12.4005 3.33084 11.9043 3.33084H5.88477V1.39844C5.88477 0.902231 5.48254 0.5 4.98633 0.5H3.32489C1.49154 0.5 0 1.99154 0 3.82489V15.5931C0 17.4264 1.49154 18.918 3.32489 18.918H16.8457V22.6016C16.8457 23.0978 17.2479 23.5 17.7441 23.5H19.8555C21.5894 23.5 23 22.0894 23 20.3555C23 20.3428 23 8.7207 23 8.7207ZM1.79688 3.82489C1.79688 2.98234 2.48234 2.29688 3.32489 2.29688H4.08789V12.1797H3.32489C2.77433 12.1797 2.25467 12.3145 1.79688 12.5529V3.82489ZM19.8555 21.7031H18.6426V18.918H19.8555C20.5662 18.918 21.1498 19.4772 21.1993 20.1833V20.4453C21.1993 20.4466 21.1995 20.4479 21.1995 20.4492C21.1512 21.1487 20.567 21.7031 19.8555 21.7031ZM12.3843 11.0102C12.5557 11.186 12.7886 11.2813 13.0274 11.2813C13.1074 11.2813 13.188 11.2706 13.2672 11.2486L16.8935 10.2441C17.0427 10.2028 17.1788 10.1236 17.2884 10.0142L22.2106 5.10121C23.2615 4.05031 23.2615 2.3404 22.2106 1.28946C21.1597 0.2386 19.4497 0.23851 18.3996 1.28874L13.4669 6.21038C13.3622 6.31491 13.2848 6.44366 13.2418 6.58525L12.1677 10.1217C12.0724 10.4352 12.1555 10.7757 12.3843 11.0102ZM19.6694 2.56003C20.0197 2.20973 20.5897 2.20973 20.9399 2.56003C21.2903 2.91033 21.2903 3.4803 20.9406 3.83001L20.7665 4.00373L19.4959 2.73311L19.6694 2.56003ZM14.8957 7.32314L18.2239 4.00233L19.4947 5.27313L16.1862 8.57552L14.3618 9.08089L14.8957 7.32314Z" fill="black"/>
</g>
<defs>
<clipPath id="clip0_15721_4409">
<rect width="23" height="23" fill="white" transform="translate(0 0.5)"/>
</clipPath>
</defs>
</svg>
