<svg width="35" height="36" viewBox="0 0 35 36" fill="none" xmlns="http://www.w3.org/2000/svg">
<circle cx="17.5" cy="18" r="17.5" fill="white"/>
<path d="M17.5 0.5C7.83826 0.5 0 8.32837 0 17.9908C0 27.6625 7.83826 35.5 17.5 35.5C27.167 35.5 34.9986 27.6624 34.9986 17.9908C34.9987 8.32837 27.167 0.5 17.5 0.5ZM18.7471 27.7283C18.3406 28.09 17.8696 28.2718 17.336 28.2718C16.7839 28.2718 16.3023 28.0932 15.8913 27.7355C15.4796 27.3784 15.2733 26.8784 15.2733 26.2361C15.2733 25.6662 15.4729 25.1866 15.8709 24.7979C16.2688 24.4092 16.7569 24.2149 17.336 24.2149C17.9058 24.2149 18.3855 24.4092 18.7748 24.7979C19.1635 25.1866 19.3585 25.6662 19.3585 26.2361C19.3578 26.8692 19.1542 27.3667 18.7471 27.7283ZM23.8151 15.1639C23.5029 15.743 23.132 16.2423 22.7018 16.6634C22.2729 17.0843 21.5015 17.7918 20.3881 18.7866C20.0811 19.0672 19.8341 19.3136 19.649 19.5257C19.4639 19.7386 19.3255 19.9328 19.2352 20.1094C19.1443 20.2859 19.0745 20.4625 19.0251 20.6391C18.9756 20.8149 18.9012 21.1252 18.8004 21.5686C18.6292 22.5093 18.0909 22.9797 17.1864 22.9797C16.716 22.9797 16.3207 22.8261 15.9986 22.5185C15.6777 22.2108 15.5177 21.7543 15.5177 21.1483C15.5177 20.3887 15.6356 19.7305 15.8708 19.1739C16.1047 18.6172 16.4176 18.1291 16.8063 17.7081C17.1956 17.2872 17.72 16.7878 18.3808 16.2087C18.9598 15.7021 19.3782 15.32 19.6358 15.0624C19.894 14.8042 20.1108 14.5169 20.2866 14.2007C20.4639 13.8838 20.5508 13.5406 20.5508 13.1697C20.5508 12.4457 20.2827 11.8357 19.7439 11.3383C19.2056 10.8409 18.5112 10.5919 17.6608 10.5919C16.6653 10.5919 15.9328 10.8429 15.4624 11.3449C14.992 11.8469 14.5948 12.586 14.2687 13.563C13.9604 14.5855 13.3767 15.0967 12.5182 15.0967C12.0116 15.0967 11.5841 14.9181 11.2356 14.561C10.8878 14.2039 10.7138 13.8173 10.7138 13.4009C10.7138 12.5419 10.9899 11.6709 11.5413 10.7888C12.0934 9.90673 12.8984 9.17611 13.957 8.59768C15.015 8.01861 16.2503 7.72871 17.6608 7.72871C18.9724 7.72871 20.1299 7.97112 21.1339 8.45537C22.1379 8.93888 22.9139 9.59706 23.4614 10.4297C24.0082 11.2617 24.2822 12.1663 24.2822 13.1433C24.2835 13.9109 24.1274 14.5849 23.8151 15.1639Z" fill="#D9D9D9"/>
</svg>
