<svg width="25" height="25" viewBox="0 0 25 25" fill="none" xmlns="http://www.w3.org/2000/svg">
<mask id="mask0_24817_773" style="mask-type:alpha" maskUnits="userSpaceOnUse" x="0" y="0" width="25" height="25">
<rect x="0.5" y="0.5" width="24" height="24" fill="#D9D9D9"/>
</mask>
<g mask="url(#mask0_24817_773)">
<path d="M12 12V17" stroke="white" stroke-width="2" stroke-linecap="round"/>
<path d="M9.5 14.5H14.5" stroke="white" stroke-width="2" stroke-linecap="round"/>
<path d="M11.5 21.45C9.48333 21.2 7.81267 20.3207 6.488 18.812C5.16267 17.304 4.5 15.5333 4.5 13.5C4.5 12.4 4.71667 11.3457 5.15 10.337C5.58333 9.329 6.2 8.45 7 7.7L8.425 9.125C7.79167 9.69167 7.31267 10.35 6.988 11.1C6.66267 11.85 6.5 12.65 6.5 13.5C6.5 14.9667 6.96667 16.2623 7.9 17.387C8.83333 18.5123 10.0333 19.2 11.5 19.45V21.45ZM13.5 21.45V19.45C14.95 19.1833 16.1457 18.4917 17.087 17.375C18.029 16.2583 18.5 14.9667 18.5 13.5C18.5 11.8333 17.9167 10.4167 16.75 9.25C15.5833 8.08333 14.1667 7.5 12.5 7.5H12.425L13.525 8.6L12.125 10L8.625 6.5L12.125 3L13.525 4.4L12.425 5.5H12.5C14.7333 5.5 16.625 6.275 18.175 7.825C19.725 9.375 20.5 11.2667 20.5 13.5C20.5 15.5167 19.8377 17.2793 18.513 18.788C17.1877 20.296 15.5167 21.1833 13.5 21.45Z" fill="white"/>
</g>
</svg>
