<svg width="17" height="20" viewBox="0 0 17 20" fill="none" xmlns="http://www.w3.org/2000/svg">
<path d="M7.45866 19.8223C5.35796 19.5619 3.61769 18.6459 2.23783 17.0744C0.85727 15.5035 0.166992 13.6591 0.166992 11.541C0.166992 10.3952 0.392687 9.29692 0.844076 8.24622C1.29546 7.19622 1.93783 6.2806 2.77116 5.49935L4.25553 6.98372C3.59581 7.574 3.09685 8.25977 2.75866 9.04102C2.41977 9.82227 2.25033 10.6556 2.25033 11.541C2.25033 13.0688 2.73644 14.4184 3.70866 15.59C4.68088 16.7622 5.93088 17.4785 7.45866 17.7389V19.8223ZM9.54199 19.8223V17.7389C11.0524 17.4612 12.2979 16.7407 13.2785 15.5775C14.2597 14.4143 14.7503 13.0688 14.7503 11.541C14.7503 9.8049 14.1427 8.32921 12.9274 7.11393C11.7121 5.89865 10.2364 5.29102 8.50033 5.29102H8.4222L9.56803 6.43685L8.1097 7.89518L4.46387 4.24935L8.1097 0.603516L9.56803 2.06185L8.4222 3.20768H8.50033C10.8267 3.20768 12.7972 4.01497 14.4118 5.62956C16.0264 7.24414 16.8337 9.21463 16.8337 11.541C16.8337 13.6417 16.1437 15.4778 14.7639 17.0494C13.3833 18.6202 11.6427 19.5445 9.54199 19.8223Z" fill="black"/>
</svg>
