<svg width="16" height="19" viewBox="0 0 16 19" fill="none" xmlns="http://www.w3.org/2000/svg">
<path d="M7 18.95C4.98333 18.7 3.31267 17.8207 1.988 16.312C0.662667 14.804 0 13.0333 0 11C0 9.9 0.216667 8.84567 0.65 7.837C1.08333 6.829 1.7 5.95 2.5 5.2L3.925 6.625C3.29167 7.19167 2.81267 7.85 2.488 8.6C2.16267 9.35 2 10.15 2 11C2 12.4667 2.46667 13.7623 3.4 14.887C4.33333 16.0123 5.53333 16.7 7 16.95V18.95ZM9 18.95V16.95C10.45 16.6833 11.6457 15.9917 12.587 14.875C13.529 13.7583 14 12.4667 14 11C14 9.33333 13.4167 7.91667 12.25 6.75C11.0833 5.58333 9.66667 5 8 5H7.925L9.025 6.1L7.625 7.5L4.125 4L7.625 0.5L9.025 1.9L7.925 3H8C10.2333 3 12.125 3.775 13.675 5.325C15.225 6.875 16 8.76667 16 11C16 13.0167 15.3377 14.7793 14.013 16.288C12.6877 17.796 11.0167 18.6833 9 18.95Z" fill="#1C1B1F"/>
</svg>
