<svg width="28" height="28" viewBox="0 0 28 28" fill="none" xmlns="http://www.w3.org/2000/svg">
<path d="M5.76116 10.5877L10.5873 5.76154L17.4126 5.76154L22.2388 10.5877L22.2387 17.413L17.4126 22.2391L10.5873 22.2391L5.76116 17.413L5.76116 10.5877Z" stroke="rgba(255, 255, 255, 1)" stroke-width="2"/>
<path d="M9.35569 16.0046C9.00903 16.0046 8.71736 15.9279 8.48069 15.7746C8.24403 15.6179 8.07736 15.4062 7.98069 15.1396L8.57069 14.7946C8.70736 15.1512 8.97569 15.3296 9.37569 15.3296C9.56903 15.3296 9.71069 15.2946 9.80069 15.2246C9.89069 15.1546 9.93569 15.0662 9.93569 14.9596C9.93569 14.8362 9.88069 14.7412 9.77069 14.6746C9.66069 14.6046 9.46403 14.5296 9.18069 14.4496C9.02403 14.4029 8.89069 14.3562 8.78069 14.3096C8.67403 14.2629 8.56569 14.2012 8.45569 14.1246C8.34903 14.0446 8.26736 13.9446 8.21069 13.8246C8.15403 13.7046 8.12569 13.5646 8.12569 13.4046C8.12569 13.0879 8.23736 12.8362 8.46069 12.6496C8.68736 12.4596 8.95903 12.3646 9.27569 12.3646C9.55903 12.3646 9.80736 12.4346 10.0207 12.5746C10.2374 12.7112 10.4057 12.9029 10.5257 13.1496L9.94569 13.4846C9.80569 13.1846 9.58236 13.0346 9.27569 13.0346C9.13236 13.0346 9.01903 13.0679 8.93569 13.1346C8.85569 13.1979 8.81569 13.2812 8.81569 13.3846C8.81569 13.4946 8.86069 13.5846 8.95069 13.6546C9.04403 13.7212 9.22069 13.7946 9.48069 13.8746C9.58736 13.9079 9.66736 13.9346 9.72069 13.9546C9.77736 13.9712 9.85236 13.9996 9.94569 14.0396C10.0424 14.0762 10.1157 14.1112 10.1657 14.1446C10.219 14.1779 10.279 14.2229 10.3457 14.2796C10.4124 14.3362 10.4624 14.3946 10.4957 14.4546C10.5324 14.5146 10.5624 14.5879 10.5857 14.6746C10.6124 14.7579 10.6257 14.8496 10.6257 14.9496C10.6257 15.2729 10.5074 15.5296 10.2707 15.7196C10.0374 15.9096 9.73236 16.0046 9.35569 16.0046ZM13.2638 12.4346V13.0946H12.3188V15.9346H11.6288V13.0946H10.6888V12.4346H13.2638ZM16.3938 15.4796C16.0404 15.8296 15.6104 16.0046 15.1038 16.0046C14.5971 16.0046 14.1671 15.8296 13.8138 15.4796C13.4638 15.1262 13.2888 14.6946 13.2888 14.1846C13.2888 13.6746 13.4638 13.2446 13.8138 12.8946C14.1671 12.5412 14.5971 12.3646 15.1038 12.3646C15.6104 12.3646 16.0404 12.5412 16.3938 12.8946C16.7471 13.2446 16.9238 13.6746 16.9238 14.1846C16.9238 14.6946 16.7471 15.1262 16.3938 15.4796ZM14.2988 15.0096C14.5154 15.2229 14.7838 15.3296 15.1038 15.3296C15.4238 15.3296 15.6921 15.2229 15.9088 15.0096C16.1254 14.7929 16.2338 14.5179 16.2338 14.1846C16.2338 13.8512 16.1254 13.5762 15.9088 13.3596C15.6921 13.1429 15.4238 13.0346 15.1038 13.0346C14.7838 13.0346 14.5154 13.1429 14.2988 13.3596C14.0821 13.5762 13.9738 13.8512 13.9738 14.1846C13.9738 14.5179 14.0821 14.7929 14.2988 15.0096ZM18.7137 12.4346C19.0504 12.4346 19.3337 12.5479 19.5637 12.7746C19.7937 13.0012 19.9087 13.2796 19.9087 13.6096C19.9087 13.9396 19.7937 14.2179 19.5637 14.4446C19.3337 14.6712 19.0504 14.7846 18.7137 14.7846H18.0987V15.9346H17.4087V12.4346H18.7137ZM18.7137 14.1396C18.8604 14.1396 18.9821 14.0896 19.0787 13.9896C19.1754 13.8862 19.2237 13.7596 19.2237 13.6096C19.2237 13.4562 19.1754 13.3296 19.0787 13.2296C18.9821 13.1296 18.8604 13.0796 18.7137 13.0796H18.0987V14.1396H18.7137Z" fill="rgba(255, 255, 255, 1)"/>
</svg>
