<svg width="24" height="25" viewBox="0 0 24 25" fill="none" xmlns="http://www.w3.org/2000/svg">
<path d="M8.90548 20.8888C8.90548 15.1563 12.4994 10.125 18.2496 10.125V5.44941C18.1942 3.25343 16.3042 1.50404 13.9971 1.51248H6.61897L0.999953 7.08267V16.7851C0.986643 18.9927 2.81898 20.8107 5.13713 20.8888H8.90548ZM8.90548 20.8888C6.68997 20.8888 6.68997 20.8888 8.90548 20.8888Z" stroke="black" stroke-width="2" stroke-linecap="round" stroke-linejoin="round"/>
<path d="M6.90918 1.5V4.5712C6.90918 6.07038 5.63475 7.28556 4.05974 7.28979H1.00511" stroke="black" stroke-width="2" stroke-linecap="round" stroke-linejoin="round"/>
<path d="M8.90417 15.875H3.87411" stroke="black" stroke-width="2" stroke-linecap="round" stroke-linejoin="round"/>
<path d="M11.7806 10.125H5.31231" stroke="black" stroke-width="2" stroke-linecap="round" stroke-linejoin="round"/>
<path d="M18.2496 18.75L19.6872 20.1875" stroke="black" stroke-width="2" stroke-linecap="round" stroke-linejoin="round"/>
<path d="M17.5309 15.875L18.2497 18.75" stroke="black" stroke-width="2" stroke-linecap="round" stroke-linejoin="round"/>
<path d="M18.2496 13.7188V12.2812" stroke="black" stroke-width="2" stroke-linecap="round" stroke-linejoin="round"/>
<path d="M21.1248 14.4375L22.5624 12.2812" stroke="black" stroke-width="2" stroke-linecap="round" stroke-linejoin="round"/>
<path d="M13.9377 5.8125H9.62506" stroke="black" stroke-width="2" stroke-linecap="round" stroke-linejoin="round"/>
<path d="M22.9999 18.75C22.9999 21.3733 20.8732 23.5 18.2496 23.5C15.6261 23.5 13.4994 21.3733 13.4994 18.75C13.4994 16.1267 15.6261 14 18.2496 14C20.8732 14 22.9999 16.1267 22.9999 18.75Z" stroke="black" stroke-width="2"/>
</svg>
