<svg width="397" height="303" viewBox="0 0 397 303" fill="none" xmlns="http://www.w3.org/2000/svg">
<line x1="354" y1="279.5" x2="41" y2="279.5" stroke="#ECECEC"/>
<line x1="354" y1="54.5" x2="41" y2="54.5" stroke="#ECECEC"/>
<line x1="40.5" y1="279" x2="40.5" y2="-5.96242e-09" stroke="#ECECEC"/>
<path d="M16.5309 286.71C15.8109 287.7 14.8009 288.195 13.5009 288.195C12.2009 288.195 11.1859 287.7 10.4559 286.71C9.73588 285.72 9.37588 284.4 9.37588 282.75C9.37588 281.1 9.73588 279.78 10.4559 278.79C11.1859 277.8 12.2009 277.305 13.5009 277.305C14.8009 277.305 15.8109 277.8 16.5309 278.79C17.2609 279.78 17.6259 281.1 17.6259 282.75C17.6259 284.4 17.2609 285.72 16.5309 286.71ZM13.5009 286.515C14.2809 286.515 14.8759 286.19 15.2859 285.54C15.6959 284.89 15.9009 283.96 15.9009 282.75C15.9009 281.54 15.6959 280.61 15.2859 279.96C14.8759 279.31 14.2809 278.985 13.5009 278.985C12.7309 278.985 12.1359 279.31 11.7159 279.96C11.3059 280.61 11.1009 281.54 11.1009 282.75C11.1009 283.96 11.3059 284.89 11.7159 285.54C12.1359 286.19 12.7309 286.515 13.5009 286.515Z" fill="#68696D"/>
<path d="M5.21623 238.5H6.71623V249H4.99123V240.345L2.87623 240.945L2.45623 239.475L5.21623 238.5ZM15.5973 247.71C14.8773 248.7 13.8673 249.195 12.5673 249.195C11.2673 249.195 10.2523 248.7 9.52229 247.71C8.80229 246.72 8.44229 245.4 8.44229 243.75C8.44229 242.1 8.80229 240.78 9.52229 239.79C10.2523 238.8 11.2673 238.305 12.5673 238.305C13.8673 238.305 14.8773 238.8 15.5973 239.79C16.3273 240.78 16.6923 242.1 16.6923 243.75C16.6923 245.4 16.3273 246.72 15.5973 247.71ZM12.5673 247.515C13.3473 247.515 13.9423 247.19 14.3523 246.54C14.7623 245.89 14.9673 244.96 14.9673 243.75C14.9673 242.54 14.7623 241.61 14.3523 240.96C13.9423 240.31 13.3473 239.985 12.5673 239.985C11.7973 239.985 11.2023 240.31 10.7823 240.96C10.3723 241.61 10.1673 242.54 10.1673 243.75C10.1673 244.96 10.3723 245.89 10.7823 246.54C11.2023 247.19 11.7973 247.515 12.5673 247.515ZM25.0455 247.71C24.3255 248.7 23.3155 249.195 22.0155 249.195C20.7155 249.195 19.7005 248.7 18.9705 247.71C18.2505 246.72 17.8905 245.4 17.8905 243.75C17.8905 242.1 18.2505 240.78 18.9705 239.79C19.7005 238.8 20.7155 238.305 22.0155 238.305C23.3155 238.305 24.3255 238.8 25.0455 239.79C25.7755 240.78 26.1405 242.1 26.1405 243.75C26.1405 245.4 25.7755 246.72 25.0455 247.71ZM22.0155 247.515C22.7955 247.515 23.3905 247.19 23.8005 246.54C24.2105 245.89 24.4155 244.96 24.4155 243.75C24.4155 242.54 24.2105 241.61 23.8005 240.96C23.3905 240.31 22.7955 239.985 22.0155 239.985C21.2455 239.985 20.6505 240.31 20.2305 240.96C19.8205 241.61 19.6155 242.54 19.6155 243.75C19.6155 244.96 19.8205 245.89 20.2305 246.54C20.6505 247.19 21.2455 247.515 22.0155 247.515Z" fill="#68696D"/>
<path d="M1.62027 210V208.65L5.28027 204.915C6.17027 204.025 6.61527 203.255 6.61527 202.605C6.61527 202.095 6.46027 201.7 6.15027 201.42C5.85027 201.13 5.46527 200.985 4.99527 200.985C4.11527 200.985 3.46527 201.42 3.04527 202.29L1.59027 201.435C1.92027 200.735 2.38527 200.205 2.98527 199.845C3.58527 199.485 4.25027 199.305 4.98027 199.305C5.90027 199.305 6.69027 199.595 7.35027 200.175C8.01027 200.755 8.34027 201.545 8.34027 202.545C8.34027 203.615 7.74527 204.755 6.55527 205.965L4.18527 208.335H8.53527V210H1.62027ZM16.7032 208.71C15.9832 209.7 14.9732 210.195 13.6732 210.195C12.3732 210.195 11.3582 209.7 10.6282 208.71C9.90824 207.72 9.54824 206.4 9.54824 204.75C9.54824 203.1 9.90824 201.78 10.6282 200.79C11.3582 199.8 12.3732 199.305 13.6732 199.305C14.9732 199.305 15.9832 199.8 16.7032 200.79C17.4332 201.78 17.7982 203.1 17.7982 204.75C17.7982 206.4 17.4332 207.72 16.7032 208.71ZM13.6732 208.515C14.4532 208.515 15.0482 208.19 15.4582 207.54C15.8682 206.89 16.0732 205.96 16.0732 204.75C16.0732 203.54 15.8682 202.61 15.4582 201.96C15.0482 201.31 14.4532 200.985 13.6732 200.985C12.9032 200.985 12.3082 201.31 11.8882 201.96C11.4782 202.61 11.2732 203.54 11.2732 204.75C11.2732 205.96 11.4782 206.89 11.8882 207.54C12.3082 208.19 12.9032 208.515 13.6732 208.515ZM26.1515 208.71C25.4315 209.7 24.4215 210.195 23.1215 210.195C21.8215 210.195 20.8065 209.7 20.0765 208.71C19.3565 207.72 18.9965 206.4 18.9965 204.75C18.9965 203.1 19.3565 201.78 20.0765 200.79C20.8065 199.8 21.8215 199.305 23.1215 199.305C24.4215 199.305 25.4315 199.8 26.1515 200.79C26.8815 201.78 27.2465 203.1 27.2465 204.75C27.2465 206.4 26.8815 207.72 26.1515 208.71ZM23.1215 208.515C23.9015 208.515 24.4965 208.19 24.9065 207.54C25.3165 206.89 25.5215 205.96 25.5215 204.75C25.5215 203.54 25.3165 202.61 24.9065 201.96C24.4965 201.31 23.9015 200.985 23.1215 200.985C22.3515 200.985 21.7565 201.31 21.3365 201.96C20.9265 202.61 20.7215 203.54 20.7215 204.75C20.7215 205.96 20.9265 206.89 21.3365 207.54C21.7565 208.19 22.3515 208.515 23.1215 208.515Z" fill="#68696D"/>
<path d="M6.01147 169.79C6.77147 169.97 7.38647 170.325 7.85647 170.855C8.33646 171.375 8.57646 172.03 8.57646 172.82C8.57646 173.87 8.22146 174.695 7.51147 175.295C6.80146 175.895 5.93146 176.195 4.90147 176.195C4.10147 176.195 3.38146 176.01 2.74146 175.64C2.11146 175.27 1.65646 174.73 1.37646 174.02L2.84646 173.165C3.15647 174.065 3.84147 174.515 4.90147 174.515C5.50147 174.515 5.97647 174.365 6.32647 174.065C6.67647 173.755 6.85147 173.34 6.85147 172.82C6.85147 172.3 6.67647 171.89 6.32647 171.59C5.97647 171.29 5.50147 171.14 4.90147 171.14H4.51147L3.82146 170.105L6.08647 167.12H1.69146V165.5H8.14147V166.97L6.01147 169.79ZM16.8571 174.71C16.1371 175.7 15.1271 176.195 13.8271 176.195C12.5271 176.195 11.5121 175.7 10.7821 174.71C10.0621 173.72 9.70205 172.4 9.70205 170.75C9.70205 169.1 10.0621 167.78 10.7821 166.79C11.5121 165.8 12.5271 165.305 13.8271 165.305C15.1271 165.305 16.1371 165.8 16.8571 166.79C17.5871 167.78 17.9521 169.1 17.9521 170.75C17.9521 172.4 17.5871 173.72 16.8571 174.71ZM13.8271 174.515C14.6071 174.515 15.2021 174.19 15.6121 173.54C16.0221 172.89 16.2271 171.96 16.2271 170.75C16.2271 169.54 16.0221 168.61 15.6121 167.96C15.2021 167.31 14.6071 166.985 13.8271 166.985C13.0571 166.985 12.4621 167.31 12.0421 167.96C11.6321 168.61 11.4271 169.54 11.4271 170.75C11.4271 171.96 11.6321 172.89 12.0421 173.54C12.4621 174.19 13.0571 174.515 13.8271 174.515ZM26.3053 174.71C25.5853 175.7 24.5753 176.195 23.2753 176.195C21.9753 176.195 20.9603 175.7 20.2303 174.71C19.5103 173.72 19.1503 172.4 19.1503 170.75C19.1503 169.1 19.5103 167.78 20.2303 166.79C20.9603 165.8 21.9753 165.305 23.2753 165.305C24.5753 165.305 25.5853 165.8 26.3053 166.79C27.0353 167.78 27.4003 169.1 27.4003 170.75C27.4003 172.4 27.0353 173.72 26.3053 174.71ZM23.2753 174.515C24.0553 174.515 24.6503 174.19 25.0603 173.54C25.4703 172.89 25.6753 171.96 25.6753 170.75C25.6753 169.54 25.4703 168.61 25.0603 167.96C24.6503 167.31 24.0553 166.985 23.2753 166.985C22.5053 166.985 21.9103 167.31 21.4903 167.96C21.0803 168.61 20.8753 169.54 20.8753 170.75C20.8753 171.96 21.0803 172.89 21.4903 173.54C21.9103 174.19 22.5053 174.515 23.2753 174.515Z" fill="#68696D"/>
<path d="M8.14617 133.505V135.11H6.94617V137H5.20617V135.11H0.0461719V133.505L3.66117 126.5H5.53617L1.92117 133.505H5.20617V130.775H6.94617V133.505H8.14617ZM16.1573 135.71C15.4373 136.7 14.4273 137.195 13.1273 137.195C11.8273 137.195 10.8123 136.7 10.0823 135.71C9.36234 134.72 9.00234 133.4 9.00234 131.75C9.00234 130.1 9.36234 128.78 10.0823 127.79C10.8123 126.8 11.8273 126.305 13.1273 126.305C14.4273 126.305 15.4373 126.8 16.1573 127.79C16.8873 128.78 17.2523 130.1 17.2523 131.75C17.2523 133.4 16.8873 134.72 16.1573 135.71ZM13.1273 135.515C13.9073 135.515 14.5023 135.19 14.9123 134.54C15.3223 133.89 15.5273 132.96 15.5273 131.75C15.5273 130.54 15.3223 129.61 14.9123 128.96C14.5023 128.31 13.9073 127.985 13.1273 127.985C12.3573 127.985 11.7623 128.31 11.3423 128.96C10.9323 129.61 10.7273 130.54 10.7273 131.75C10.7273 132.96 10.9323 133.89 11.3423 134.54C11.7623 135.19 12.3573 135.515 13.1273 135.515ZM25.6056 135.71C24.8856 136.7 23.8756 137.195 22.5756 137.195C21.2756 137.195 20.2606 136.7 19.5306 135.71C18.8106 134.72 18.4506 133.4 18.4506 131.75C18.4506 130.1 18.8106 128.78 19.5306 127.79C20.2606 126.8 21.2756 126.305 22.5756 126.305C23.8756 126.305 24.8856 126.8 25.6056 127.79C26.3356 128.78 26.7006 130.1 26.7006 131.75C26.7006 133.4 26.3356 134.72 25.6056 135.71ZM22.5756 135.515C23.3556 135.515 23.9506 135.19 24.3606 134.54C24.7706 133.89 24.9756 132.96 24.9756 131.75C24.9756 130.54 24.7706 129.61 24.3606 128.96C23.9506 128.31 23.3556 127.985 22.5756 127.985C21.8056 127.985 21.2106 128.31 20.7906 128.96C20.3806 129.61 20.1756 130.54 20.1756 131.75C20.1756 132.96 20.3806 133.89 20.7906 134.54C21.2106 135.19 21.8056 135.515 22.5756 135.515Z" fill="#68696D"/>
<path d="M5.20703 92.46C6.20703 92.46 7.05203 92.76 7.74203 93.36C8.43203 93.95 8.77703 94.77 8.77703 95.82C8.77703 96.87 8.42203 97.695 7.71203 98.295C7.00203 98.895 6.13203 99.195 5.10203 99.195C4.27203 99.195 3.53703 99.005 2.89703 98.625C2.25703 98.235 1.80203 97.675 1.53203 96.945L3.01703 96.09C3.29703 97.04 3.99203 97.515 5.10203 97.515C5.69203 97.515 6.16203 97.365 6.51203 97.065C6.87203 96.755 7.05203 96.34 7.05203 95.82C7.05203 95.3 6.87703 94.89 6.52703 94.59C6.17703 94.29 5.71203 94.14 5.13203 94.14H2.07203L2.47703 88.5H8.32703V90.12H4.06703L3.88703 92.46H5.20703ZM16.7765 97.71C16.0565 98.7 15.0465 99.195 13.7465 99.195C12.4465 99.195 11.4315 98.7 10.7015 97.71C9.98148 96.72 9.62148 95.4 9.62148 93.75C9.62148 92.1 9.98148 90.78 10.7015 89.79C11.4315 88.8 12.4465 88.305 13.7465 88.305C15.0465 88.305 16.0565 88.8 16.7765 89.79C17.5065 90.78 17.8715 92.1 17.8715 93.75C17.8715 95.4 17.5065 96.72 16.7765 97.71ZM13.7465 97.515C14.5265 97.515 15.1215 97.19 15.5315 96.54C15.9415 95.89 16.1465 94.96 16.1465 93.75C16.1465 92.54 15.9415 91.61 15.5315 90.96C15.1215 90.31 14.5265 89.985 13.7465 89.985C12.9765 89.985 12.3815 90.31 11.9615 90.96C11.5515 91.61 11.3465 92.54 11.3465 93.75C11.3465 94.96 11.5515 95.89 11.9615 96.54C12.3815 97.19 12.9765 97.515 13.7465 97.515ZM26.2247 97.71C25.5047 98.7 24.4947 99.195 23.1947 99.195C21.8947 99.195 20.8797 98.7 20.1497 97.71C19.4297 96.72 19.0697 95.4 19.0697 93.75C19.0697 92.1 19.4297 90.78 20.1497 89.79C20.8797 88.8 21.8947 88.305 23.1947 88.305C24.4947 88.305 25.5047 88.8 26.2247 89.79C26.9547 90.78 27.3197 92.1 27.3197 93.75C27.3197 95.4 26.9547 96.72 26.2247 97.71ZM23.1947 97.515C23.9747 97.515 24.5697 97.19 24.9797 96.54C25.3897 95.89 25.5947 94.96 25.5947 93.75C25.5947 92.54 25.3897 91.61 24.9797 90.96C24.5697 90.31 23.9747 89.985 23.1947 89.985C22.4247 89.985 21.8297 90.31 21.4097 90.96C20.9997 91.61 20.7947 92.54 20.7947 93.75C20.7947 94.96 20.9997 95.89 21.4097 96.54C21.8297 97.19 22.4247 97.515 23.1947 97.515Z" fill="#68696D"/>
<path d="M4.05984 55.025C5.14984 55.025 6.03984 55.36 6.72984 56.03C7.41984 56.69 7.76484 57.55 7.76484 58.61C7.76484 59.67 7.41984 60.535 6.72984 61.205C6.03984 61.865 5.14984 62.195 4.05984 62.195C2.95984 62.195 2.06484 61.865 1.37484 61.205C0.684844 60.535 0.339844 59.67 0.339844 58.61C0.339844 57.81 0.549844 57.105 0.969844 56.495L4.29984 51.5H6.26484L3.86484 55.025H4.05984ZM4.05984 60.56C4.63984 60.56 5.11484 60.385 5.48484 60.035C5.85484 59.675 6.03984 59.2 6.03984 58.61C6.03984 58.02 5.85484 57.55 5.48484 57.2C5.11484 56.84 4.63984 56.66 4.05984 56.66C3.46984 56.66 2.98984 56.84 2.61984 57.2C2.24984 57.55 2.06484 58.02 2.06484 58.61C2.06484 59.2 2.24984 59.675 2.61984 60.035C2.98984 60.385 3.46984 60.56 4.05984 60.56ZM15.8937 60.71C15.1737 61.7 14.1637 62.195 12.8637 62.195C11.5637 62.195 10.5487 61.7 9.81867 60.71C9.09867 59.72 8.73867 58.4 8.73867 56.75C8.73867 55.1 9.09867 53.78 9.81867 52.79C10.5487 51.8 11.5637 51.305 12.8637 51.305C14.1637 51.305 15.1737 51.8 15.8937 52.79C16.6237 53.78 16.9887 55.1 16.9887 56.75C16.9887 58.4 16.6237 59.72 15.8937 60.71ZM12.8637 60.515C13.6437 60.515 14.2387 60.19 14.6487 59.54C15.0587 58.89 15.2637 57.96 15.2637 56.75C15.2637 55.54 15.0587 54.61 14.6487 53.96C14.2387 53.31 13.6437 52.985 12.8637 52.985C12.0937 52.985 11.4987 53.31 11.0787 53.96C10.6687 54.61 10.4637 55.54 10.4637 56.75C10.4637 57.96 10.6687 58.89 11.0787 59.54C11.4987 60.19 12.0937 60.515 12.8637 60.515ZM25.3419 60.71C24.6219 61.7 23.6119 62.195 22.3119 62.195C21.0119 62.195 19.9969 61.7 19.2669 60.71C18.5469 59.72 18.1869 58.4 18.1869 56.75C18.1869 55.1 18.5469 53.78 19.2669 52.79C19.9969 51.8 21.0119 51.305 22.3119 51.305C23.6119 51.305 24.6219 51.8 25.3419 52.79C26.0719 53.78 26.4369 55.1 26.4369 56.75C26.4369 58.4 26.0719 59.72 25.3419 60.71ZM22.3119 60.515C23.0919 60.515 23.6869 60.19 24.0969 59.54C24.5069 58.89 24.7119 57.96 24.7119 56.75C24.7119 55.54 24.5069 54.61 24.0969 53.96C23.6869 53.31 23.0919 52.985 22.3119 52.985C21.5419 52.985 20.9469 53.31 20.5269 53.96C20.1169 54.61 19.9119 55.54 19.9119 56.75C19.9119 57.96 20.1169 58.89 20.5269 59.54C20.9469 60.19 21.5419 60.515 22.3119 60.515Z" fill="#68696D"/>
<path d="M0.892969 13.5H7.56797V15L3.87797 24H2.06297L5.69297 15.15H0.892969V13.5ZM15.1905 22.71C14.4705 23.7 13.4605 24.195 12.1605 24.195C10.8605 24.195 9.84555 23.7 9.11555 22.71C8.39555 21.72 8.03555 20.4 8.03555 18.75C8.03555 17.1 8.39555 15.78 9.11555 14.79C9.84555 13.8 10.8605 13.305 12.1605 13.305C13.4605 13.305 14.4705 13.8 15.1905 14.79C15.9205 15.78 16.2855 17.1 16.2855 18.75C16.2855 20.4 15.9205 21.72 15.1905 22.71ZM12.1605 22.515C12.9405 22.515 13.5355 22.19 13.9455 21.54C14.3555 20.89 14.5605 19.96 14.5605 18.75C14.5605 17.54 14.3555 16.61 13.9455 15.96C13.5355 15.31 12.9405 14.985 12.1605 14.985C11.3905 14.985 10.7955 15.31 10.3755 15.96C9.96555 16.61 9.76055 17.54 9.76055 18.75C9.76055 19.96 9.96555 20.89 10.3755 21.54C10.7955 22.19 11.3905 22.515 12.1605 22.515ZM24.6388 22.71C23.9188 23.7 22.9088 24.195 21.6088 24.195C20.3088 24.195 19.2938 23.7 18.5638 22.71C17.8438 21.72 17.4838 20.4 17.4838 18.75C17.4838 17.1 17.8438 15.78 18.5638 14.79C19.2938 13.8 20.3088 13.305 21.6088 13.305C22.9088 13.305 23.9188 13.8 24.6388 14.79C25.3688 15.78 25.7338 17.1 25.7338 18.75C25.7338 20.4 25.3688 21.72 24.6388 22.71ZM21.6088 22.515C22.3888 22.515 22.9838 22.19 23.3938 21.54C23.8038 20.89 24.0088 19.96 24.0088 18.75C24.0088 17.54 23.8038 16.61 23.3938 15.96C22.9838 15.31 22.3888 14.985 21.6088 14.985C20.8388 14.985 20.2438 15.31 19.8238 15.96C19.4138 16.61 19.2088 17.54 19.2088 18.75C19.2088 19.96 19.4138 20.89 19.8238 21.54C20.2438 22.19 20.8388 22.515 21.6088 22.515Z" fill="#68696D"/>
<path d="M65 54C65 51.2386 67.2386 49 70 49H88C90.7614 49 93 51.2386 93 54V279H65V54Z" fill="#17A1FA"/>
<path d="M149 81C149 78.2386 151.239 76 154 76H172C174.761 76 177 78.2386 177 81V279H149V81Z" fill="#17A1FA"/>
<path d="M231 43C231 40.2386 233.239 38 236 38H254C256.761 38 259 40.2386 259 43V279H231V43Z" fill="#17A1FA"/>
<path d="M313 123C313 120.239 315.239 118 318 118H336C338.761 118 341 120.239 341 123V279H313V123Z" fill="#17A1FA"/>
<path d="M378.604 62L377.869 59.885H373.399L372.664 62H370.789L374.599 51.5H376.669L380.464 62H378.604ZM373.969 58.265H377.299L375.634 53.525L373.969 58.265ZM386.28 54.5H388.05L385.125 62H383.25L380.325 54.5H382.095L384.195 60.2L386.28 54.5ZM394.753 54.5H396.343V61.655C396.343 62.795 395.968 63.67 395.218 64.28C394.468 64.89 393.558 65.195 392.488 65.195C390.758 65.195 389.573 64.59 388.933 63.38L390.328 62.57C390.718 63.34 391.448 63.725 392.518 63.725C393.218 63.725 393.763 63.54 394.153 63.17C394.553 62.81 394.753 62.305 394.753 61.655V60.74C394.143 61.61 393.273 62.045 392.143 62.045C391.083 62.045 390.188 61.67 389.458 60.92C388.728 60.16 388.363 59.245 388.363 58.175C388.363 57.105 388.728 56.195 389.458 55.445C390.188 54.685 391.083 54.305 392.143 54.305C393.273 54.305 394.143 54.74 394.753 55.61V54.5ZM390.658 59.855C391.118 60.305 391.688 60.53 392.368 60.53C393.048 60.53 393.613 60.305 394.063 59.855C394.523 59.405 394.753 58.845 394.753 58.175C394.753 57.505 394.523 56.945 394.063 56.495C393.613 56.045 393.048 55.82 392.368 55.82C391.688 55.82 391.118 56.045 390.658 56.495C390.208 56.945 389.983 57.505 389.983 58.175C389.983 58.845 390.208 59.405 390.658 59.855Z" fill="black"/>
<path d="M73.5973 298.195C71.9673 298.195 70.8423 297.555 70.2223 296.275L71.7073 295.405C72.0473 296.145 72.6823 296.515 73.6123 296.515C74.2123 296.515 74.6723 296.37 74.9923 296.08C75.3223 295.78 75.4873 295.36 75.4873 294.82V287.5H77.2123V294.82C77.2123 295.9 76.8723 296.735 76.1923 297.325C75.5123 297.905 74.6473 298.195 73.5973 298.195ZM84.1641 290.5H85.7841V298H84.1641V297.04C83.6741 297.81 82.8991 298.195 81.8391 298.195C80.9791 298.195 80.2841 297.92 79.7541 297.37C79.2241 296.82 78.9591 296.065 78.9591 295.105V290.5H80.5791V294.94C80.5791 295.5 80.7291 295.93 81.0291 296.23C81.3291 296.53 81.7391 296.68 82.2591 296.68C82.8291 296.68 83.2891 296.505 83.6391 296.155C83.9891 295.795 84.1641 295.25 84.1641 294.52V290.5ZM91.6234 290.305C92.4834 290.305 93.1784 290.58 93.7084 291.13C94.2384 291.68 94.5034 292.435 94.5034 293.395V298H92.8834V293.56C92.8834 293 92.7334 292.57 92.4334 292.27C92.1334 291.97 91.7234 291.82 91.2034 291.82C90.6334 291.82 90.1734 292 89.8234 292.36C89.4734 292.71 89.2984 293.25 89.2984 293.98V298H87.6784V290.5H89.2984V291.46C89.7884 290.69 90.5634 290.305 91.6234 290.305Z" fill="#68696D"/>
<path d="M154.631 298.195C153.001 298.195 151.876 297.555 151.256 296.275L152.741 295.405C153.081 296.145 153.716 296.515 154.646 296.515C155.246 296.515 155.706 296.37 156.026 296.08C156.356 295.78 156.521 295.36 156.521 294.82V287.5H158.246V294.82C158.246 295.9 157.906 296.735 157.226 297.325C156.546 297.905 155.681 298.195 154.631 298.195ZM165.198 290.5H166.818V298H165.198V297.04C164.708 297.81 163.933 298.195 162.873 298.195C162.013 298.195 161.318 297.92 160.788 297.37C160.258 296.82 159.993 296.065 159.993 295.105V290.5H161.613V294.94C161.613 295.5 161.763 295.93 162.063 296.23C162.363 296.53 162.773 296.68 163.293 296.68C163.863 296.68 164.323 296.505 164.673 296.155C165.023 295.795 165.198 295.25 165.198 294.52V290.5ZM168.713 298V287.05H170.333V298H168.713Z" fill="#68696D"/>
<path d="M240.011 298L239.276 295.885H234.806L234.071 298H232.196L236.006 287.5H238.076L241.871 298H240.011ZM235.376 294.265H238.706L237.041 289.525L235.376 294.265ZM247.862 290.5H249.482V298H247.862V297.04C247.372 297.81 246.597 298.195 245.537 298.195C244.677 298.195 243.982 297.92 243.452 297.37C242.922 296.82 242.657 296.065 242.657 295.105V290.5H244.277V294.94C244.277 295.5 244.427 295.93 244.727 296.23C245.027 296.53 245.437 296.68 245.957 296.68C246.527 296.68 246.987 296.505 247.337 296.155C247.687 295.795 247.862 295.25 247.862 294.52V290.5ZM257.346 290.5H258.936V297.655C258.936 298.795 258.561 299.67 257.811 300.28C257.061 300.89 256.151 301.195 255.081 301.195C253.351 301.195 252.166 300.59 251.526 299.38L252.921 298.57C253.311 299.34 254.041 299.725 255.111 299.725C255.811 299.725 256.356 299.54 256.746 299.17C257.146 298.81 257.346 298.305 257.346 297.655V296.74C256.736 297.61 255.866 298.045 254.736 298.045C253.676 298.045 252.781 297.67 252.051 296.92C251.321 296.16 250.956 295.245 250.956 294.175C250.956 293.105 251.321 292.195 252.051 291.445C252.781 290.685 253.676 290.305 254.736 290.305C255.866 290.305 256.736 290.74 257.346 291.61V290.5ZM253.251 295.855C253.711 296.305 254.281 296.53 254.961 296.53C255.641 296.53 256.206 296.305 256.656 295.855C257.116 295.405 257.346 294.845 257.346 294.175C257.346 293.505 257.116 292.945 256.656 292.495C256.206 292.045 255.641 291.82 254.961 291.82C254.281 291.82 253.711 292.045 253.251 292.495C252.801 292.945 252.576 293.505 252.576 294.175C252.576 294.845 252.801 295.405 253.251 295.855Z" fill="#68696D"/>
<path d="M318.503 300.195C317.493 300.195 316.633 299.965 315.923 299.505C315.223 299.045 314.733 298.415 314.453 297.615L315.938 296.745C316.358 297.925 317.228 298.515 318.548 298.515C319.198 298.515 319.683 298.39 320.003 298.14C320.333 297.88 320.498 297.545 320.498 297.135C320.498 296.705 320.323 296.38 319.973 296.16C319.623 295.93 319.003 295.68 318.113 295.41C317.613 295.26 317.208 295.12 316.898 294.99C316.588 294.86 316.258 294.68 315.908 294.45C315.568 294.21 315.313 293.915 315.143 293.565C314.973 293.215 314.888 292.805 314.888 292.335C314.888 291.405 315.218 290.67 315.878 290.13C316.538 289.58 317.333 289.305 318.263 289.305C319.103 289.305 319.838 289.51 320.468 289.92C321.098 290.33 321.583 290.895 321.923 291.615L320.468 292.455C320.028 291.475 319.293 290.985 318.263 290.985C317.763 290.985 317.363 291.105 317.063 291.345C316.763 291.575 316.613 291.89 316.613 292.29C316.613 292.68 316.763 292.99 317.063 293.22C317.373 293.44 317.928 293.675 318.728 293.925C319.128 294.055 319.418 294.155 319.598 294.225C319.788 294.285 320.048 294.385 320.378 294.525C320.718 294.665 320.973 294.805 321.143 294.945C321.313 295.085 321.493 295.26 321.683 295.47C321.883 295.68 322.023 295.92 322.103 296.19C322.183 296.46 322.223 296.765 322.223 297.105C322.223 298.055 321.878 298.81 321.188 299.37C320.508 299.92 319.613 300.195 318.503 300.195ZM325.084 296.94C325.204 297.51 325.479 297.95 325.909 298.26C326.339 298.56 326.864 298.71 327.484 298.71C328.344 298.71 328.989 298.4 329.419 297.78L330.754 298.56C330.014 299.65 328.919 300.195 327.469 300.195C326.249 300.195 325.264 299.825 324.514 299.085C323.764 298.335 323.389 297.39 323.389 296.25C323.389 295.13 323.759 294.195 324.499 293.445C325.239 292.685 326.189 292.305 327.349 292.305C328.449 292.305 329.349 292.69 330.049 293.46C330.759 294.23 331.114 295.165 331.114 296.265C331.114 296.435 331.094 296.66 331.054 296.94H325.084ZM325.069 295.62H329.479C329.369 295.01 329.114 294.55 328.714 294.24C328.324 293.93 327.864 293.775 327.334 293.775C326.734 293.775 326.234 293.94 325.834 294.27C325.434 294.6 325.179 295.05 325.069 295.62ZM336.784 292.305C337.814 292.305 338.694 292.69 339.424 293.46C340.154 294.22 340.519 295.15 340.519 296.25C340.519 297.36 340.154 298.295 339.424 299.055C338.694 299.815 337.814 300.195 336.784 300.195C335.644 300.195 334.769 299.775 334.159 298.935V303H332.539V292.5H334.159V293.58C334.769 292.73 335.644 292.305 336.784 292.305ZM334.834 297.975C335.284 298.425 335.849 298.65 336.529 298.65C337.209 298.65 337.774 298.425 338.224 297.975C338.674 297.515 338.899 296.94 338.899 296.25C338.899 295.56 338.674 294.99 338.224 294.54C337.774 294.08 337.209 293.85 336.529 293.85C335.849 293.85 335.284 294.08 334.834 294.54C334.384 294.99 334.159 295.56 334.159 296.25C334.159 296.94 334.384 297.515 334.834 297.975Z" fill="black"/>
</svg>
