<svg width="35" height="35" viewBox="0 0 35 35" fill="none" xmlns="http://www.w3.org/2000/svg">
  <path d="M17.5 0C7.83826 0 0 7.82837 0 17.4908C0 27.1625 7.83826 35 17.5 35C27.167 35 34.9986 27.1624 34.9986 17.4908C34.9987 7.82837 27.167 0 17.5 0ZM18.7471 27.2283C18.3406 27.59 17.8696 27.7718 17.336 27.7718C16.7839 27.7718 16.3023 27.5932 15.8913 27.2355C15.4796 26.8784 15.2733 26.3784 15.2733 25.7361C15.2733 25.1662 15.4729 24.6866 15.8709 24.2979C16.2688 23.9092 16.7569 23.7149 17.336 23.7149C17.9058 23.7149 18.3855 23.9092 18.7748 24.2979C19.1635 24.6866 19.3585 25.1662 19.3585 25.7361C19.3578 26.3692 19.1542 26.8667 18.7471 27.2283ZM23.8151 14.6639C23.5029 15.243 23.132 15.7423 22.7018 16.1634C22.2729 16.5843 21.5015 17.2918 20.3881 18.2866C20.0811 18.5672 19.8341 18.8136 19.649 19.0257C19.4639 19.2386 19.3255 19.4328 19.2352 19.6094C19.1443 19.7859 19.0745 19.9625 19.0251 20.1391C18.9756 20.3149 18.9012 20.6252 18.8004 21.0686C18.6292 22.0093 18.0909 22.4797 17.1864 22.4797C16.716 22.4797 16.3207 22.3261 15.9986 22.0185C15.6777 21.7108 15.5177 21.2543 15.5177 20.6483C15.5177 19.8887 15.6356 19.2305 15.8708 18.6739C16.1047 18.1172 16.4176 17.6291 16.8063 17.2081C17.1956 16.7872 17.72 16.2878 18.3808 15.7087C18.9598 15.2021 19.3782 14.82 19.6358 14.5624C19.894 14.3042 20.1108 14.0169 20.2866 13.7007C20.4639 13.3838 20.5508 13.0406 20.5508 12.6697C20.5508 11.9457 20.2827 11.3357 19.7439 10.8383C19.2056 10.3409 18.5112 10.0919 17.6608 10.0919C16.6653 10.0919 15.9328 10.3429 15.4624 10.8449C14.992 11.3469 14.5948 12.086 14.2687 13.063C13.9604 14.0855 13.3767 14.5967 12.5182 14.5967C12.0116 14.5967 11.5841 14.4181 11.2356 14.061C10.8878 13.7039 10.7138 13.3173 10.7138 12.9009C10.7138 12.0419 10.9899 11.1709 11.5413 10.2888C12.0934 9.40673 12.8984 8.67611 13.957 8.09768C15.015 7.51861 16.2503 7.22871 17.6608 7.22871C18.9724 7.22871 20.1299 7.47112 21.1339 7.95537C22.1379 8.43888 22.9139 9.09706 23.4614 9.92972C24.0082 10.7617 24.2822 11.6663 24.2822 12.6433C24.2835 13.4109 24.1274 14.0849 23.8151 14.6639Z" fill="#FF4D4D"/>
</svg>
