<svg width="18" height="18" viewBox="0 0 18 18" fill="none" xmlns="http://www.w3.org/2000/svg">
<path d="M9 12.7969C6.131 12.7969 3.79688 15.131 3.79688 18H5.20312C5.20312 17.2067 5.44781 16.4696 5.86547 15.8599L7.50076 17.4952C7.44732 17.6537 7.41797 17.8234 7.41797 18H10.582C10.582 17.8234 10.5527 17.6537 10.4993 17.4951L12.1346 15.8598C12.5522 16.4696 12.7969 17.2067 12.7969 18H14.2031C14.2031 15.131 11.869 12.7969 9 12.7969ZM8.49512 16.5007L6.85983 14.8654C7.46961 14.4478 8.20673 14.2031 9 14.2031C9.79327 14.2031 10.5304 14.4478 11.1401 14.8655L9.50484 16.5008C9.34625 16.4474 9.17659 16.418 9 16.418C8.82341 16.418 8.65375 16.4474 8.49512 16.5007V16.5007ZM15.364 11.636C14.3837 10.6558 13.217 9.93013 11.9439 9.49085C13.3074 8.55179 14.2031 6.9802 14.2031 5.20312C14.2031 2.33413 11.869 0 9 0C6.131 0 3.79688 2.33413 3.79688 5.20312C3.79688 6.9802 4.69262 8.55179 6.05609 9.49089C4.78308 9.93013 3.61631 10.6558 2.63605 11.6361C0.936176 13.3359 0 15.596 0 18H1.40625C1.40625 13.8128 4.81279 10.4062 9 10.4062C13.1872 10.4062 16.5938 13.8128 16.5938 18H18C18 15.596 17.0638 13.3359 15.364 11.636ZM5.20312 5.20312C5.20312 3.10954 6.90638 1.40625 9 1.40625C11.0936 1.40625 12.7969 3.10954 12.7969 5.20312C12.7969 7.29671 11.0936 9 9 9C6.90638 9 5.20312 7.29671 5.20312 5.20312V5.20312Z" fill="#68696D"/>
</svg>
