<svg width="15" height="15" viewBox="0 0 15 15" fill="none" xmlns="http://www.w3.org/2000/svg">
<path d="M8.00002 10C8.24272 10 8.30228 8.40253 8.30228 8.13815L8.30225 6.22326C8.30225 5.95887 8.24258 4 7.99988 4C7.75719 4 7.86446 5.95887 7.86446 6.22326L7.8643 8.13815C7.8643 8.40253 7.75733 10 8.00002 10Z" fill="#68696D"/>
<path d="M2.7832 8.61697C3.0259 8.61697 3.22266 8.40263 3.22266 8.13825V6.22335C3.22266 5.95897 3.0259 5.74463 2.7832 5.74463C2.54051 5.74463 2.34375 5.95897 2.34375 6.22335V8.13825C2.34375 8.40263 2.54051 8.61697 2.7832 8.61697Z" fill="#68696D"/>
<path d="M14.9686 7.3222L14.2387 5.33441C13.9031 4.4204 13.1023 3.82979 12.1986 3.82979H12.0703V2.87234H13.3887C13.6314 2.87234 13.8281 2.658 13.8281 2.39362C13.8281 2.12923 13.6314 1.91489 13.3887 1.91489H8.64258C8.49562 1.91489 8.35843 1.99487 8.27695 2.12809L7.61783 3.20509C7.35006 2.74254 6.91922 2.40265 6.41396 2.28201C6.22397 0.990096 5.19369 0 3.95508 0C2.71646 0 1.68618 0.990096 1.49622 2.28198C0.641602 2.48604 0 3.3172 0 4.30851V7.18085C0 7.27535 0.0256641 7.36774 0.0737988 7.44638L1.37613 9.57447H0.439453C0.196758 9.57447 0 9.78881 0 10.0532V13.2447C0 13.5091 0.196758 13.7234 0.439453 13.7234H1.56562C1.8075 14.4663 2.4588 15 3.22266 15C3.98651 15 4.63778 14.4663 4.87969 13.7234H10.1203C10.3622 14.4663 11.0135 15 11.7773 15C12.5412 15 13.1925 14.4663 13.4344 13.7234H14.5605C14.8032 13.7234 15 13.5091 15 13.2447V7.5C15 7.43911 14.9893 7.37876 14.9686 7.3222ZM12.0703 4.78723H12.1986C12.7408 4.78723 13.2213 5.14162 13.4227 5.69004L13.9115 7.02128H12.0703V4.78723ZM1.9043 3.19149C2.14699 3.19149 2.34375 2.97715 2.34375 2.71277C2.34375 1.74488 3.06659 0.957447 3.95508 0.957447C4.84356 0.957447 5.56641 1.74488 5.56641 2.71277C5.56641 2.97715 5.76316 3.19149 6.00586 3.19149C6.41408 3.19149 6.83512 3.62296 7 4H0.878906C1.04379 3.62296 1.49607 3.19149 1.9043 3.19149ZM0.878906 7.03589V4.78723H7.4707C7.61487 4.78723 7.75333 4.70971 7.83633 4.57404L8.87774 2.87234H12.0703V3.82979H9.81445C9.57176 3.82979 9 4.04413 9 4.30851V9.5L2.34375 9.41013L0.878906 7.03589ZM3.22266 14.0426C2.73803 14.0426 2.34375 13.613 2.34375 13.0851C2.34375 12.5572 2.73803 12.1277 3.22266 12.1277C3.70729 12.1277 4.10156 12.5572 4.10156 13.0851C4.10156 13.613 3.70729 14.0426 3.22266 14.0426ZM11.7773 14.0426C11.2927 14.0426 10.8984 13.613 10.8984 13.0851C10.8984 12.5572 11.2927 12.1277 11.7773 12.1277C12.262 12.1277 12.6562 12.5572 12.6562 13.0851C12.6562 13.613 12.262 14.0426 11.7773 14.0426ZM14.1211 12.766H13.5103C13.3703 11.8615 12.6468 11.1702 11.7773 11.1702C10.9079 11.1702 10.14 11.5956 10 12.5H4.87969C4.73974 11.5956 4.09207 11.1702 3.22266 11.1702C2.35324 11.1702 1.62967 11.8615 1.48972 12.766H0.878906V10.5319H14.1211V12.766ZM13.9115 9.41013H10.2539V4.78723H11.1914V7.5C11.1914 7.76438 11.3882 7.97872 11.6309 7.97872H13.9115V9.41013Z" fill="#68696D"/>
<path d="M6.29883 8.61697C6.54152 8.61697 6.73828 8.40263 6.73828 8.13825V6.22335C6.73828 5.95897 6.54152 5.74463 6.29883 5.74463C6.05613 5.74463 5.85938 5.95897 5.85938 6.22335V8.13825C5.85938 8.40263 6.05613 8.61697 6.29883 8.61697Z" fill="#68696D"/>
<path d="M4.54102 8.61697C4.78371 8.61697 4.98047 8.40263 4.98047 8.13825V6.22335C4.98047 5.95897 4.78371 5.74463 4.54102 5.74463C4.29832 5.74463 4.10156 5.95897 4.10156 6.22335V8.13825C4.10156 8.40263 4.29832 8.61697 4.54102 8.61697Z" fill="#68696D"/>
</svg>
