<svg width="25" height="21" viewBox="0 0 25 21" fill="none" xmlns="http://www.w3.org/2000/svg">
<path d="M24.9828 8.76439C24.9388 8.10515 24.3235 7.8854 23.8401 7.57776C22.5216 6.78667 21.2031 6.03953 19.8846 5.24845C19.7528 5.16055 19.6649 5.1166 19.533 5.0287C19.2254 4.8529 18.8738 4.89685 18.5222 4.89685C18.3464 4.89685 18.1706 4.89685 18.0388 4.89685V4.45736H18.2585C19.4012 4.45736 19.4012 2.69938 18.2585 2.69938C16.4566 2.69938 14.6547 2.69938 12.8088 2.69938C12.3253 2.69938 11.9298 3.09493 11.9298 3.57837V4.89685C11.3145 4.89685 10.7432 4.89685 10.1279 4.89685C10.04 3.97391 9.46864 3.22678 8.6336 2.91913C8.45781 1.77645 7.49092 0.897461 6.30429 0.897461C5.11766 0.897461 4.15077 1.77645 3.97497 2.91913C3.13994 3.22678 2.5686 4.01786 2.4807 4.89685C2.43675 4.89685 2.43675 4.89685 2.3928 4.89685C1.90935 4.89685 1.38196 4.89685 0.89852 4.89685C0.415077 4.89685 0.019533 5.29239 0.019533 5.77584V8.54465V8.63254V8.72044C0.019533 9.64338 -0.0244163 10.5663 0.019533 11.4893C0.0634824 12.3243 0.502976 13.2472 0.722722 14.0823C1.07432 15.3128 1.46986 16.4995 1.82146 17.7301C1.9533 18.0817 2.26095 18.3893 2.65649 18.3893H4.23867C4.63421 19.4001 5.6011 20.1033 6.74378 20.1033C7.88646 20.1033 8.85335 19.3562 9.24889 18.3453C11.5782 18.3453 13.9515 18.3014 16.2808 18.3014H17.6432C17.9948 19.3562 19.0056 20.1033 20.1483 20.1033C21.291 20.1033 22.3018 19.3562 22.6534 18.3014H24.0159C24.4993 18.3014 24.8949 17.9059 24.8949 17.4224C24.8949 14.8294 24.8949 12.2364 24.8949 9.64338C24.9828 9.37968 25.0267 9.07204 24.9828 8.76439ZM20.3241 10.3466H23.2248V11.3135C22.2579 11.3135 21.291 11.3135 20.3241 11.3135C20.3241 10.9619 20.3241 10.6542 20.3241 10.3466ZM18.8738 6.69877C19.9286 7.31406 21.0273 7.9733 22.0821 8.58859C21.3789 8.58859 20.7197 8.58859 20.0165 8.58859C19.8407 8.58859 19.6209 8.58859 19.4451 8.58859C18.9617 8.58859 18.5662 8.98414 18.5662 9.46758V12.1924C18.5662 12.6759 18.9617 13.0714 19.4451 13.0714H23.2248V16.5874C23.049 16.5874 22.9171 16.5874 22.7413 16.5874C22.3897 15.5326 21.3789 14.7855 20.2362 14.7855C19.0935 14.7855 18.0827 15.5326 17.7311 16.5874C17.5553 16.5874 17.4235 16.5874 17.2477 16.5874C17.2477 13.467 17.2477 10.3905 17.2477 7.27011C17.2477 7.09432 17.2477 6.87457 17.2477 6.69877H18.8738ZM7.27117 4.9408C7.35907 4.72105 7.57882 4.54526 7.84252 4.54526C8.10621 4.54526 8.32596 4.72105 8.41386 4.9408C8.01831 4.9408 7.66672 4.9408 7.27117 4.9408ZM6.34824 2.65543C6.56798 2.65543 6.74378 2.78728 6.87563 2.96308C6.69983 3.05098 6.52404 3.18283 6.34824 3.27073C6.17244 3.13888 5.99664 3.00703 5.82085 2.96308C5.95269 2.78728 6.12849 2.65543 6.34824 2.65543ZM4.85396 4.54526C5.11766 4.54526 5.3374 4.72105 5.4253 4.9408C5.02976 4.9408 4.67816 4.9408 4.28262 4.9408C4.37052 4.6771 4.59026 4.54526 4.85396 4.54526ZM11.3585 6.69877H12.8527C13.3362 6.69877 13.7317 6.30323 13.7317 5.81979C13.7317 5.38029 13.7317 4.9408 13.7317 4.50131H16.2808V4.9408C15.8413 4.98475 15.4458 5.33634 15.4458 5.81979V7.88541C10.919 7.88541 6.34824 7.88541 1.82146 7.88541C1.82146 7.48986 1.82146 7.09432 1.82146 6.69877H11.3585ZM2.56859 13.8625C2.3928 13.2912 2.217 12.7198 2.0412 12.1485C1.9533 11.8408 1.86541 11.7529 1.86541 11.4893C1.82146 10.874 1.82146 10.2587 1.86541 9.64338H15.4897V16.016V16.5874C13.4241 16.5874 11.4024 16.5874 9.33679 16.6313C8.9852 15.5765 7.97436 14.8294 6.83168 14.8294C5.64505 14.8294 4.63421 15.6205 4.28262 16.6753C3.97497 16.6753 3.71128 16.6753 3.40363 16.6753C3.13994 15.7084 2.83229 14.7854 2.56859 13.8625ZM6.83168 18.3893C6.34824 18.3893 5.90874 17.9938 5.90874 17.4664C5.90874 16.939 6.30429 16.5434 6.83168 16.5434C7.31512 16.5434 7.75462 16.939 7.75462 17.4664C7.75462 17.9938 7.31512 18.3893 6.83168 18.3893ZM20.2362 18.3893C19.7528 18.3893 19.3133 17.9938 19.3133 17.4664C19.3133 16.939 19.7088 16.5434 20.2362 16.5434C20.7197 16.5434 21.1592 16.939 21.1592 17.4664C21.1592 17.9938 20.7197 18.3893 20.2362 18.3893Z" fill="#88898B"/>
</svg>
