<svg width="52" height="52" viewBox="0 0 52 52" fill="none" xmlns="http://www.w3.org/2000/svg">
<rect width="52" height="52" rx="8" fill="#17A1FA"/>
<path d="M26.5003 23.9619C24.8045 23.9619 23.417 23.4223 22.3378 22.3432C21.2587 21.264 20.7191 19.8765 20.7191 18.1807C20.7191 16.4848 21.2587 15.0973 22.3378 14.0182C23.417 12.939 24.8045 12.3994 26.5003 12.3994C28.1962 12.3994 29.5837 12.939 30.6628 14.0182C31.742 15.0973 32.2816 16.4848 32.2816 18.1807C32.2816 19.8765 31.742 21.264 30.6628 22.3432C29.5837 23.4223 28.1962 23.9619 26.5003 23.9619ZM14.167 36.3338V32.7109C14.167 31.7345 14.4111 30.8994 14.8993 30.2057C15.3875 29.5119 16.017 28.9852 16.7878 28.6255C18.5094 27.8546 20.1602 27.2765 21.7404 26.8911C23.3206 26.5057 24.9073 26.313 26.5003 26.313C28.0934 26.313 29.6736 26.5121 31.2409 26.9104C32.8083 27.3086 34.4528 27.8803 36.1743 28.6255C36.9708 28.9852 37.6132 29.5119 38.1014 30.2057C38.5896 30.8994 38.8337 31.7345 38.8337 32.7109V36.3338H14.167ZM16.4795 34.0213H36.5212V32.7109C36.5212 32.2998 36.3991 31.9079 36.155 31.5354C35.9109 31.1628 35.609 30.8866 35.2493 30.7067C33.6048 29.9102 32.1017 29.3642 30.7399 29.0687C29.3781 28.7732 27.9649 28.6255 26.5003 28.6255C25.0357 28.6255 23.6097 28.7732 22.2222 29.0687C20.8347 29.3642 19.3316 29.9102 17.7128 30.7067C17.3531 30.8866 17.0576 31.1628 16.8264 31.5354C16.5951 31.9079 16.4795 32.2998 16.4795 32.7109V34.0213ZM26.5003 21.6494C27.5024 21.6494 28.3311 21.3218 28.9863 20.6666C29.6415 20.0114 29.9691 19.1827 29.9691 18.1807C29.9691 17.1786 29.6415 16.3499 28.9863 15.6947C28.3311 15.0395 27.5024 14.7119 26.5003 14.7119C25.4982 14.7119 24.6696 15.0395 24.0144 15.6947C23.3592 16.3499 23.0316 17.1786 23.0316 18.1807C23.0316 19.1827 23.3592 20.0114 24.0144 20.6666C24.6696 21.3218 25.4982 21.6494 26.5003 21.6494Z" fill="white"/>
</svg>
