<svg width="52" height="52" viewBox="0 0 52 52" fill="none" xmlns="http://www.w3.org/2000/svg">
<rect width="52" height="52" rx="8" fill="#17A1FA"/>
<path d="M32.755 23.9716L29.575 23.6116V21.9466C31.165 21.2266 32.225 19.9666 32.225 18.5716V17.7166C32.225 17.4466 31.96 17.2666 31.5625 17.2666C31.165 17.2666 30.9 17.4466 30.9 17.7166V18.5716C30.9 20.3266 28.8462 21.7216 26.2625 21.7216C23.6788 21.7216 21.625 20.3266 21.625 18.5716V17.7166C21.625 17.4466 21.36 17.2666 20.9625 17.2666C20.565 17.2666 20.3 17.4466 20.3 17.7166V18.5716C20.3 19.9666 21.36 21.2266 22.95 21.9466V23.6116L19.77 23.9716C16.9875 24.2416 15 25.8616 15 27.7966V31.0816C15 31.3516 15.265 31.5316 15.6625 31.5316C16.06 31.5316 16.325 31.3516 16.325 31.0816V27.7966C16.325 26.3116 17.8487 25.0966 19.9688 24.8716L20.6312 24.7816L19.24 25.4116C18.7762 25.6366 18.975 25.9966 19.1075 26.0866L21.2937 27.5716L20.4325 28.1566C20.2337 28.2916 20.1675 28.5616 20.3662 28.7416L25.6 34.0069V37.0219H20.3V30.2719C20.3 30.0019 20.035 29.8219 19.6375 29.8219C19.24 29.8219 18.975 30.0019 18.975 30.2719V37.0219H16.325V35.6719C16.325 35.4019 16.06 35.2219 15.6625 35.2219C15.265 35.2219 15 35.4019 15 35.6719V37.4719C15 37.7419 15.265 37.9219 15.6625 37.9219H36.8625C37.26 37.9219 37.525 37.7419 37.525 37.4719V27.7971C37.525 25.8621 35.5375 24.2421 32.755 23.9721V23.9716ZM24.275 22.3966C24.8712 22.5316 25.5337 22.6216 26.2625 22.6216C26.9912 22.6216 27.6537 22.5316 28.25 22.3966V23.8366C27.7862 24.2416 27.0575 24.5116 26.2625 24.5116C25.4675 24.5116 24.7387 24.2866 24.275 23.8366V22.3966ZM21.8237 28.5166L22.7512 27.8866C23.0162 27.7066 23.0162 27.4366 22.7512 27.2566L20.6975 25.8616L23.1487 24.7366L25.07 31.8019L21.8237 28.5166ZM26.2625 31.3516L24.6062 25.0969C25.1362 25.2769 25.6662 25.3669 26.2625 25.3669C26.8587 25.3669 27.3887 25.2769 27.9187 25.0969L27.2562 27.5719C27.19 27.7969 27.455 28.0669 27.7862 28.1119C28.1175 28.1569 28.515 27.9769 28.5812 27.7519L29.3762 24.7369L31.8275 25.8619L29.7737 27.2569C29.5087 27.4369 29.5087 27.7069 29.7737 27.8869L30.7012 28.5169L27.455 31.8019L28.0512 29.6869C28.1175 29.4619 27.8525 29.1919 27.5212 29.1469C27.19 29.1019 26.7925 29.2819 26.7262 29.5069L26.2625 31.3516ZM36.2 37.0216H33.55V30.2716C33.55 30.0016 33.285 29.8216 32.8875 29.8216C32.49 29.8216 32.225 30.0016 32.225 30.2716V37.0216H26.925V34.0066L32.0925 28.7413C32.2913 28.5613 32.225 28.3363 32.0262 28.1563L31.165 27.5713L33.3512 26.0863C33.7487 25.7713 33.4175 25.4563 33.2188 25.4113L31.8275 24.7813L32.49 24.8713C34.61 25.0963 36.1337 26.3563 36.1337 27.7963V37.0216H36.2Z" fill="white"/>
<path d="M15.6625 34.3215C16.06 34.3215 16.325 34.1415 16.325 33.8715V32.9715C16.325 32.7015 16.06 32.5215 15.6625 32.5215C15.265 32.5215 15 32.7015 15 32.9715V33.8715C15 34.1415 15.265 34.3215 15.6625 34.3215Z" fill="white"/>
<path d="M20.2996 15.0612V15.8712C20.2996 16.0512 20.4321 16.1862 20.6309 16.2762C22.7509 17.1312 24.5396 17.5812 26.2621 17.5812C27.9846 17.5812 29.7734 17.1312 31.8934 16.2762C32.0921 16.1862 32.2246 16.0512 32.2246 15.8712V15.0612L33.3509 13.3062C33.8146 12.6762 33.5496 11.9562 32.8209 11.5062C32.5559 11.3262 32.0921 11.3712 31.8934 11.5512C31.6284 11.7312 31.6946 12.0462 31.9596 12.1812C32.2909 12.3612 32.3571 12.6312 32.1584 12.9012L31.0984 14.5212H21.4259L20.4321 12.9012C20.2334 12.6762 20.3659 12.3612 20.6309 12.1812C22.9496 10.8312 26.7259 10.5162 29.8392 11.3262C30.1705 11.4162 30.568 11.3262 30.7005 11.0562C30.833 10.8312 30.7005 10.5612 30.303 10.4712C26.7255 9.57121 22.4855 9.97621 19.7696 11.5512C18.9746 12.0012 18.7759 12.7212 19.1734 13.3062L20.2996 15.0612ZM21.6246 15.4212H30.8996V15.6012C27.3221 16.9962 25.2021 16.9962 21.6246 15.6012V15.4212Z" fill="white"/>
<path d="M24.9379 12.2715C24.5404 12.2715 24.2754 12.4515 24.2754 12.7215C24.2754 12.9915 24.5404 13.1715 24.9379 13.1715H27.5879C27.9854 13.1715 28.2504 12.9915 28.2504 12.7215C28.2504 12.4515 27.9854 12.2715 27.5879 12.2715H24.9379Z" fill="white"/>
</svg>
