<svg width="52" height="52" viewBox="0 0 52 52" fill="none" xmlns="http://www.w3.org/2000/svg">
<rect width="52" height="52" rx="8" fill="#17A1FA"/>
<path d="M26.9364 27.5264C27.3435 27.5264 27.6735 27.1964 27.6735 26.7893V23.8407C27.6735 23.4336 27.3435 23.1035 26.9364 23.1035C26.5293 23.1035 26.1992 23.4336 26.1992 23.8407V26.7893C26.1992 27.1964 26.5293 27.5264 26.9364 27.5264Z" fill="white"/>
<path d="M18.0897 27.5264C18.4968 27.5264 18.8268 27.1964 18.8268 26.7893V23.8407C18.8268 23.4336 18.4968 23.1035 18.0897 23.1035C17.6826 23.1035 17.3525 23.4336 17.3525 23.8407V26.7893C17.3525 27.1964 17.6826 27.5264 18.0897 27.5264Z" fill="white"/>
<path d="M38.5295 25.5327L37.3052 22.4718C36.7422 21.0644 35.3989 20.155 33.883 20.155H33.6679V18.6807H35.8793C36.2864 18.6807 36.6165 18.3507 36.6165 17.9435C36.6165 17.5364 36.2864 17.2064 35.8793 17.2064H27.9181C27.6716 17.2064 27.4415 17.3296 27.3048 17.5347L26.1992 19.1931C25.75 18.4808 25.0273 17.9575 24.1798 17.7717C23.8611 15.7824 22.1329 14.2578 20.0552 14.2578C17.9775 14.2578 16.2493 15.7824 15.9307 17.7716C14.4971 18.0859 13.4209 19.3657 13.4209 20.8921V25.315C13.4209 25.4605 13.4639 25.6028 13.5447 25.7239L15.7293 29.0008H14.158C13.7509 29.0008 13.4209 29.3308 13.4209 29.7379V34.6522C13.4209 35.0593 13.7509 35.3894 14.158 35.3894H16.0471C16.4528 36.5333 17.5453 37.3551 18.8266 37.3551C20.108 37.3551 21.2004 36.5333 21.6062 35.3894H30.3969C30.8026 36.5333 31.8951 37.3551 33.1764 37.3551C34.4578 37.3551 35.5502 36.5333 35.956 35.3894H37.845C38.2521 35.3894 38.5822 35.0593 38.5822 34.6522V25.8065C38.5822 25.7127 38.5643 25.6198 38.5295 25.5327ZM33.6679 21.6293H33.883C34.7926 21.6293 35.5985 22.175 35.9363 23.0194L36.7563 25.0693H33.6679V21.6293ZM16.6152 19.1721C17.0223 19.1721 17.3524 18.8421 17.3524 18.435C17.3524 16.9446 18.5649 15.7321 20.0552 15.7321C21.5456 15.7321 22.7581 16.9446 22.7581 18.435C22.7581 18.8421 23.0881 19.1721 23.4952 19.1721C24.18 19.1721 24.7724 19.5744 25.049 20.155H15.0615C15.3381 19.5744 15.9304 19.1721 16.6152 19.1721ZM14.8952 25.0918V21.6293H25.9524V21.6288C26.1942 21.6288 26.4265 21.5099 26.5657 21.301L28.3126 18.6807H32.1936V20.155H29.8839C29.4768 20.155 29.1467 20.485 29.1467 20.8921V29.0008H17.5012L14.8952 25.0918ZM18.8266 35.8808C18.0137 35.8808 17.3524 35.2194 17.3524 34.4065C17.3524 33.5936 18.0137 32.9322 18.8266 32.9322C19.6396 32.9322 20.3009 33.5936 20.3009 34.4065C20.3009 35.2194 19.6396 35.8808 18.8266 35.8808ZM33.1764 35.8808C32.3635 35.8808 31.7021 35.2194 31.7021 34.4065C31.7021 33.5936 32.3635 32.9322 33.1764 32.9322C33.9894 32.9322 34.6507 33.5936 34.6507 34.4065C34.6507 35.2194 33.9894 35.8808 33.1764 35.8808ZM37.1079 33.9151H36.0833C35.8486 32.5224 34.6348 31.4579 33.1764 31.4579C31.7181 31.4579 30.5043 32.5224 30.2696 33.9151H21.7335C21.4988 32.5224 20.285 31.4579 18.8266 31.4579C17.3683 31.4579 16.1545 32.5224 15.9198 33.9151H14.8952V30.475H37.1079V33.9151ZM37.1079 29.0008H30.621V21.6293H32.1936V25.8065C32.1936 26.2136 32.5236 26.5436 32.9307 26.5436H37.1079V29.0008Z" fill="white"/>
<path d="M23.9871 27.5264C24.3942 27.5264 24.7243 27.1964 24.7243 26.7893V23.8407C24.7243 23.4336 24.3942 23.1035 23.9871 23.1035C23.58 23.1035 23.25 23.4336 23.25 23.8407V26.7893C23.25 27.1964 23.58 27.5264 23.9871 27.5264Z" fill="white"/>
<path d="M21.0379 27.5264C21.445 27.5264 21.7751 27.1964 21.7751 26.7893V23.8407C21.7751 23.4336 21.445 23.1035 21.0379 23.1035C20.6308 23.1035 20.3008 23.4336 20.3008 23.8407V26.7893C20.3008 27.1964 20.6308 27.5264 21.0379 27.5264Z" fill="white"/>
</svg>
