<svg width="35" height="35" viewBox="0 0 35 35" fill="none" xmlns="http://www.w3.org/2000/svg">
<mask id="mask0_13438_149" style="mask-type:alpha" maskUnits="userSpaceOnUse" x="0" y="0" width="35" height="35">
<rect width="35" height="35" fill="#D9D9D9"/>
</mask>
<g mask="url(#mask0_13438_149)">
<path d="M16.0426 24.7923H18.9593V20.4173H23.3343V17.5006H18.9593V13.1257H16.0426V17.5006H11.6676V20.4173H16.0426V24.7923ZM17.501 32.084C15.6781 32.084 13.9708 31.7379 12.3793 31.0456C10.7868 30.3525 9.40139 29.4162 8.22306 28.2369C7.04375 27.0586 6.1075 25.6731 5.41431 24.0806C4.72209 22.4891 4.37598 20.7819 4.37598 18.959C4.37598 17.1361 4.72209 15.4284 5.41431 13.8359C6.1075 12.2443 7.04375 10.8589 8.22306 9.67961C9.40139 8.50128 10.7868 7.566 12.3793 6.87378C13.9708 6.18058 15.6781 5.83398 17.501 5.83398C19.3239 5.83398 21.0316 6.18058 22.6241 6.87378C24.2156 7.566 25.601 8.50128 26.7803 9.67961C27.9587 10.8589 28.8944 12.2443 29.5876 13.8359C30.2799 15.4284 30.626 17.1361 30.626 18.959C30.626 20.7819 30.2799 22.4891 29.5876 24.0806C28.8944 25.6731 27.9587 27.0586 26.7803 28.2369C25.601 29.4162 24.2156 30.3525 22.6241 31.0456C21.0316 31.7379 19.3239 32.084 17.501 32.084ZM8.16764 3.42773L10.2093 5.4694L4.01139 11.6673L1.96973 9.62565L8.16764 3.42773ZM26.8343 3.42773L33.0322 9.62565L30.9906 11.6673L24.7926 5.4694L26.8343 3.42773ZM17.501 29.1673C20.3447 29.1673 22.7568 28.1766 24.7372 26.1952C26.7186 24.2148 27.7093 21.8027 27.7093 18.959C27.7093 16.1152 26.7186 13.7027 24.7372 11.7213C22.7568 9.74086 20.3447 8.75065 17.501 8.75065C14.6572 8.75065 12.2451 9.74086 10.2647 11.7213C8.28334 13.7027 7.29264 16.1152 7.29264 18.959C7.29264 21.8027 8.28334 24.2148 10.2647 26.1952C12.2451 28.1766 14.6572 29.1673 17.501 29.1673Z" fill="#FF4D4D"/>
</g>
</svg>
