<svg width="24" height="24" viewBox="0 0 24 24" fill="none" xmlns="http://www.w3.org/2000/svg">
<path d="M6.49219 11.8594H6.02344C5.50566 11.8594 5.08594 12.2791 5.08594 12.7969C5.08594 13.3147 5.50566 13.7344 6.02344 13.7344H6.49219C7.00997 13.7344 7.42969 13.3147 7.42969 12.7969C7.42969 12.2791 7.00997 11.8594 6.49219 11.8594Z" fill="#88898B"/>
<path d="M15.7266 8.10938H9.77344C9.25566 8.10938 8.83594 8.52909 8.83594 9.04688C8.83594 9.56466 9.25566 9.98438 9.77344 9.98438H15.7266C16.2443 9.98438 16.6641 9.56466 16.6641 9.04688C16.6641 8.52909 16.2443 8.10938 15.7266 8.10938Z" fill="#88898B"/>
<path d="M14.2214 22.125H5.08594C4.05206 22.125 3.21094 21.2839 3.21094 20.25V3.75C3.21094 2.71613 4.05206 1.875 5.08594 1.875H16.612C17.6459 1.875 18.487 2.71613 18.487 3.75V9.04688C18.487 9.56466 18.9067 9.98438 19.4245 9.98438C19.9423 9.98438 20.362 9.56466 20.362 9.04688V3.75C20.362 1.68225 18.6797 0 16.612 0H5.08594C3.01819 0 1.33594 1.68225 1.33594 3.75V20.25C1.33594 22.3177 3.01819 24 5.08594 24H14.2214C14.7391 24 15.1589 23.5803 15.1589 23.0625C15.1589 22.5447 14.7391 22.125 14.2214 22.125Z" fill="#88898B"/>
<path d="M6.49219 15.6094H6.02344C5.50566 15.6094 5.08594 16.0291 5.08594 16.5469C5.08594 17.0647 5.50566 17.4844 6.02344 17.4844H6.49219C7.00997 17.4844 7.42969 17.0647 7.42969 16.5469C7.42969 16.0291 7.00997 15.6094 6.49219 15.6094Z" fill="#88898B"/>
<path d="M15.7266 4.35938H9.77344C9.25566 4.35938 8.83594 4.77909 8.83594 5.29688C8.83594 5.81466 9.25566 6.23438 9.77344 6.23438H15.7266C16.2443 6.23438 16.6641 5.81466 16.6641 5.29688C16.6641 4.77909 16.2443 4.35938 15.7266 4.35938Z" fill="#88898B"/>
<path d="M20.0219 16.8728H19.1628C18.7427 16.8728 18.4008 16.5249 18.4008 16.0973V15.9706C18.4008 15.5509 18.7284 15.2344 19.1628 15.2344H19.9751C20.2139 15.2344 20.4609 15.3942 20.4609 15.6617C20.4609 16.1795 20.8806 16.5992 21.3984 16.5992C21.9161 16.5992 22.3359 16.1795 22.3359 15.6617C22.3359 14.5381 21.5062 13.6006 20.413 13.3997V12.7969C20.413 12.2791 19.9933 11.8594 19.4755 11.8594C18.9578 11.8594 18.538 12.2791 18.538 12.7969V13.4319C18.0741 13.5414 17.649 13.7728 17.3043 14.1101C16.8023 14.6013 16.5258 15.2621 16.5258 15.9706V16.0973C16.5258 17.5588 17.7087 18.7478 19.1628 18.7478H20.0219C20.4448 18.7478 20.789 19.0905 20.789 19.5117V19.957C20.789 20.3645 20.4592 20.6719 20.0219 20.6719H18.6257C18.3614 20.6719 18.1621 20.4827 18.1621 20.2318C18.1621 19.714 17.7424 19.2943 17.2246 19.2943C16.7068 19.2943 16.2871 19.714 16.2871 20.2318C16.2871 20.8597 16.5332 21.4457 16.9801 21.882C17.3986 22.2906 17.949 22.5237 18.538 22.5448V23.0625C18.538 23.5803 18.9578 24 19.4755 24C19.9933 24 20.413 23.5803 20.413 23.0625V22.5195C21.7026 22.3394 22.664 21.2787 22.664 19.957V19.5117C22.664 18.0566 21.4788 16.8728 20.0219 16.8728Z" fill="#88898B"/>
<path d="M13.8516 17.4844C14.3693 17.4844 14.7891 17.0647 14.7891 16.5469C14.7891 16.0291 14.3693 15.6094 13.8516 15.6094H9.77344C9.25566 15.6094 8.83594 16.0291 8.83594 16.5469C8.83594 17.0647 9.25566 17.4844 9.77344 17.4844H13.8516Z" fill="#88898B"/>
<path d="M6.49219 8.10938H6.02344C5.50566 8.10938 5.08594 8.52909 5.08594 9.04688C5.08594 9.56466 5.50566 9.98438 6.02344 9.98438H6.49219C7.00997 9.98438 7.42969 9.56466 7.42969 9.04688C7.42969 8.52909 7.00997 8.10938 6.49219 8.10938Z" fill="#88898B"/>
<path d="M16.6641 12.7969C16.6641 12.2791 16.2443 11.8594 15.7266 11.8594H9.77344C9.25566 11.8594 8.83594 12.2791 8.83594 12.7969C8.83594 13.3147 9.25566 13.7344 9.77344 13.7344H15.7266C16.2443 13.7344 16.6641 13.3147 16.6641 12.7969Z" fill="#88898B"/>
<path d="M6.49219 4.35938H6.02344C5.50566 4.35938 5.08594 4.77909 5.08594 5.29688C5.08594 5.81466 5.50566 6.23438 6.02344 6.23438H6.49219C7.00997 6.23438 7.42969 5.81466 7.42969 5.29688C7.42969 4.77909 7.00997 4.35938 6.49219 4.35938Z" fill="#88898B"/>
</svg>
