<svg width="20" height="27" viewBox="0 0 20 27" fill="none" xmlns="http://www.w3.org/2000/svg">
<path d="M6.56227 24.5201C6.23852 24.5024 5.9162 24.4709 5.59673 24.4256L3.90357 24.2323L2.8578 24.094C2.52027 24.0456 2.17998 23.9929 1.84522 23.9336C1.51046 23.8743 1.16187 23.8062 0.868612 23.7447L0.470222 23.659V18.4642L2.32108 18.585L3.67948 18.6487L5.10427 18.6992L6.54844 18.7344L7.9511 18.7563H9.25694C9.65256 18.7563 9.99839 18.7563 10.2972 18.7256C10.5763 18.7073 10.8536 18.6743 11.1272 18.6268C11.3269 18.5929 11.521 18.5405 11.7054 18.4708C11.8339 18.4235 11.9517 18.3597 12.054 18.2819C12.1318 18.2198 12.1913 18.1448 12.2283 18.0622C12.2755 17.9527 12.298 17.8375 12.2947 17.7218V17.3857C12.3071 17.272 12.2831 17.1576 12.2251 17.0532C12.1671 16.9488 12.0768 16.8576 11.9627 16.7882C11.8257 16.7102 11.6733 16.6508 11.5117 16.6125C11.3319 16.5716 11.1455 16.5517 10.9584 16.5532H9.04944C7.75858 16.5678 6.47153 16.4384 5.226 16.1688C4.17361 15.9442 3.19427 15.5427 2.35427 14.9915C1.53034 14.4197 0.915803 13.6821 0.575353 12.8564C0.168202 11.8627 -0.0253967 10.8216 0.00266678 9.77685V8.83453C-0.0200049 7.84344 0.195001 6.85798 0.636218 5.93069C1.04453 5.10377 1.71095 4.37285 2.57284 3.80662C3.15395 3.40801 3.79742 3.07062 4.48732 2.8028C5.1459 2.56268 5.84329 2.39635 6.5595 2.30857V0H12.5962V2.21193C13.5185 2.27657 14.4357 2.38143 15.3435 2.52603L15.8525 2.59632C16.2758 2.65563 16.6963 2.71933 17.1141 2.78962C17.5318 2.85991 17.8832 2.91922 18.2428 2.98731L18.6523 3.06638V8.26782L18.0713 8.22828C17.4959 8.18874 16.9121 8.1536 16.3256 8.12504C15.6865 8.09209 15.0336 8.06573 14.3668 8.04157C13.7001 8.01741 13.0112 7.99984 12.4053 7.98885C11.852 7.98885 11.2517 7.97348 10.6236 7.97348C10.2944 7.97348 9.99009 7.97348 9.71343 7.99984C9.44623 8.0148 9.18025 8.04119 8.91665 8.07891C8.72553 8.10612 8.53958 8.15263 8.36333 8.2173C8.22623 8.26751 8.10088 8.33584 7.9926 8.41938C7.9027 8.49251 7.83545 8.58125 7.79617 8.67857C7.7393 8.82053 7.71219 8.96894 7.71594 9.11788V9.40343C7.71015 9.56235 7.744 9.72061 7.81554 9.8691C7.87655 9.98286 7.9715 10.0831 8.0922 10.1612C8.24825 10.2567 8.42854 10.3242 8.62062 10.3589C8.9151 10.4143 9.21718 10.4402 9.51976 10.4358H11.899C12.7148 10.4311 13.5286 10.4989 14.3253 10.6379C15.0374 10.7618 15.7225 10.9683 16.3588 11.2507C17.5279 11.7656 18.479 12.5436 19.0922 13.4868C19.3975 13.9592 19.6261 14.4603 19.7728 14.9783C19.9254 15.5242 20.0015 16.0819 19.9996 16.6411V17.5856C20.0072 18.4215 19.8977 19.2554 19.6732 20.0721C19.4968 20.7441 19.1698 21.3854 18.7076 21.9655C18.2884 22.478 17.7538 22.9247 17.1307 23.2834C16.4913 23.6439 15.778 23.9137 15.0225 24.0808L14.8206 24.1247C14.0998 24.3077 13.3587 24.4357 12.6073 24.5069V27H6.56227V24.5201Z" fill="#88898B"/>
</svg>
