<svg width="49" height="31" viewBox="0 0 49 31" fill="none" xmlns="http://www.w3.org/2000/svg">
<path d="M29.4767 15.7493C29.4767 18.807 26.924 21.3203 23.732 21.3203C20.54 21.3203 17.9873 18.807 17.9873 15.7493C17.9873 12.6915 20.54 10.1783 23.732 10.1783C26.924 10.1783 29.4767 12.6915 29.4767 15.7493Z" stroke="#68696D" stroke-width="1.5"/>
<path d="M32.7244 15.7492C32.7244 20.5525 28.7178 24.4807 23.7323 24.4807C18.7468 24.4807 14.7402 20.5525 14.7402 15.7492C14.7402 10.946 18.7468 7.01776 23.7323 7.01776C28.7178 7.01776 32.7244 10.946 32.7244 15.7492Z" stroke="#68696D" stroke-width="1.5"/>
<path d="M45.5455 29.4445H3C1.89543 29.4445 1 28.549 1 27.4445V5.94253C1 4.83796 1.89543 3.94253 3 3.94253H10.7094C11.1639 3.94253 11.6048 3.78775 11.9595 3.50368L14.5381 1.43885C14.8928 1.15478 15.3338 1 15.7882 1H32.2266C32.6306 1 33.0252 1.12239 33.3584 1.35105L36.6225 3.59148C36.9557 3.82014 37.3503 3.94253 37.7543 3.94253H45.5455C46.65 3.94253 47.5455 4.83796 47.5455 5.94253V27.4445C47.5455 28.549 46.65 29.4445 45.5455 29.4445Z" stroke="#68696D" stroke-width="2"/>
<line x1="7.91211" y1="6.2677" x2="7.91211" y2="10.4817" stroke="#68696D" stroke-width="3"/>
<line x1="4.24707" y1="8.42834" x2="11.8242" y2="8.42834" stroke="#68696D" stroke-width="2"/>
</svg>
