<svg width="29" height="28" viewBox="0 0 29 28" fill="none" xmlns="http://www.w3.org/2000/svg">
<path fill-rule="evenodd" clip-rule="evenodd" d="M22.8326 5.42969C25.1128 5.42969 26.9478 7.25108 26.9478 9.4979V14.0713C23.6286 15.9858 19.2435 17.1424 14.4672 17.1424C9.69078 17.1424 5.31918 15.9858 2 14.0713V9.4846C2 7.23778 3.84849 5.42969 6.12874 5.42969H22.8326Z" stroke="#88898B" stroke-width="2.5" stroke-linecap="round" stroke-linejoin="round"/>
<path d="M19.1968 5.42474V4.93815C19.1968 3.31619 17.861 2 16.2149 2H12.7338C11.0877 2 9.75195 3.31619 9.75195 4.93815V5.42474" stroke="#88898B" stroke-width="2.5" stroke-linecap="round" stroke-linejoin="round"/>
<path d="M2.0332 18.9287L2.28821 22.2644C2.46092 24.5125 4.36203 26.2502 6.64902 26.2502H22.2991C24.5861 26.2502 26.4872 24.5125 26.6599 22.2644L26.9149 18.9287" stroke="#88898B" stroke-width="2.5" stroke-linecap="round" stroke-linejoin="round"/>
</svg>
