<svg width="25" height="27" viewBox="0 0 25 27" fill="none" xmlns="http://www.w3.org/2000/svg">
<path fill-rule="evenodd" clip-rule="evenodd" d="M22.817 8.34854L22.0777 7.06579C21.4524 5.98038 20.0665 5.60595 18.9796 6.22874V6.22874C18.4622 6.53352 17.8448 6.61999 17.2636 6.46908C16.6824 6.31817 16.1851 5.94228 15.8814 5.4243C15.686 5.09506 15.581 4.72006 15.577 4.33722V4.33722C15.5946 3.72343 15.3631 3.12864 14.9351 2.68834C14.5071 2.24805 13.9191 1.99975 13.305 2H11.8157C11.2141 1.99999 10.6374 2.23971 10.213 2.66611C9.78865 3.0925 9.5517 3.67043 9.55459 4.272V4.272C9.53676 5.51403 8.52476 6.51151 7.2826 6.51138C6.89976 6.5074 6.52476 6.4024 6.19552 6.207V6.207C5.10863 5.5842 3.72272 5.95864 3.09734 7.04405L2.30378 8.34854C1.67916 9.43259 2.0485 10.8176 3.12996 11.4467V11.4467C3.83292 11.8526 4.26597 12.6026 4.26597 13.4143C4.26597 14.226 3.83292 14.9761 3.12996 15.3819V15.3819C2.04987 16.0068 1.68013 17.3885 2.30378 18.4692V18.4692L3.05386 19.7629C3.34687 20.2916 3.8385 20.6817 4.41996 20.847C5.00141 21.0123 5.62475 20.939 6.15204 20.6434V20.6434C6.67039 20.3409 7.28809 20.2581 7.86783 20.4132C8.44758 20.5684 8.94133 20.9487 9.23934 21.4696C9.43475 21.7988 9.53975 22.1738 9.54372 22.5567V22.5567C9.54372 23.8115 10.5609 24.8287 11.8157 24.8287H13.305C14.5556 24.8287 15.571 23.8181 15.577 22.5675V22.5675C15.5741 21.9641 15.8125 21.3845 16.2393 20.9578C16.666 20.5311 17.2456 20.2926 17.849 20.2955C18.2309 20.3058 18.6044 20.4103 18.9361 20.5999V20.5999C20.0201 21.2245 21.4052 20.8552 22.0343 19.7737V19.7737L22.817 18.4692C23.1199 17.9492 23.2031 17.3299 23.048 16.7484C22.8929 16.1669 22.5124 15.6712 21.9908 15.3711V15.3711C21.4691 15.071 21.0886 14.5753 20.9336 13.9938C20.7785 13.4122 20.8616 12.7929 21.1646 12.2729C21.3616 11.9289 21.6468 11.6437 21.9908 11.4467V11.4467C23.0658 10.818 23.4342 9.44102 22.817 8.35941V8.35941V8.34854Z" stroke="#88898B" stroke-width="2.5" stroke-linecap="round" stroke-linejoin="round"/>
</svg>
