<svg width="25" height="27" viewBox="0 0 25 27" fill="none" xmlns="http://www.w3.org/2000/svg">
<path fill-rule="evenodd" clip-rule="evenodd" d="M22.817 8.43448L22.0777 7.15173C21.4524 6.06632 20.0665 5.69188 18.9796 6.31468V6.31468C18.4622 6.61945 17.8448 6.70592 17.2636 6.55502C16.6824 6.40411 16.1851 6.02822 15.8814 5.51024C15.686 5.181 15.581 4.806 15.577 4.42316V4.42316C15.5946 3.80937 15.3631 3.21458 14.9351 2.77428C14.5071 2.33399 13.9191 2.08568 13.305 2.08594H11.8157C11.2141 2.08593 10.6374 2.32565 10.213 2.75204C9.78865 3.17844 9.5517 3.75636 9.55459 4.35793V4.35793C9.53676 5.59997 8.52476 6.59744 7.2826 6.59732C6.89976 6.59334 6.52476 6.48834 6.19552 6.29293V6.29293C5.10863 5.67014 3.72272 6.04458 3.09734 7.12998L2.30378 8.43448C1.67916 9.51853 2.0485 10.9036 3.12996 11.5327V11.5327C3.83292 11.9385 4.26597 12.6886 4.26597 13.5003C4.26597 14.312 3.83292 15.062 3.12996 15.4679V15.4679C2.04987 16.0927 1.68013 17.4744 2.30378 18.5552V18.5552L3.05386 19.8488C3.34687 20.3775 3.8385 20.7677 4.41996 20.9329C5.00141 21.0982 5.62475 21.0249 6.15204 20.7293V20.7293C6.67039 20.4269 7.28809 20.344 7.86783 20.4992C8.44758 20.6543 8.94133 21.0346 9.23934 21.5555C9.43475 21.8848 9.53975 22.2598 9.54372 22.6426V22.6426C9.54372 23.8974 10.5609 24.9146 11.8157 24.9146H13.305C14.5556 24.9146 15.571 23.904 15.577 22.6535V22.6535C15.5741 22.05 15.8125 21.4704 16.2393 21.0437C16.666 20.617 17.2456 20.3786 17.849 20.3815C18.2309 20.3917 18.6044 20.4963 18.9361 20.6859V20.6859C20.0201 21.3105 21.4052 20.9411 22.0343 19.8597V19.8597L22.817 18.5552C23.1199 18.0352 23.2031 17.4158 23.048 16.8343C22.8929 16.2528 22.5124 15.7571 21.9908 15.457V15.457C21.4691 15.1569 21.0886 14.6612 20.9336 14.0797C20.7785 13.4982 20.8616 12.8788 21.1646 12.3588C21.3616 12.0149 21.6468 11.7297 21.9908 11.5327V11.5327C23.0658 10.9039 23.4342 9.52696 22.817 8.44535V8.44535V8.43448Z" stroke="#88898B" stroke-width="2.5" stroke-linecap="round" stroke-linejoin="round"/>
<circle cx="12.5654" cy="13.4999" r="3.13079" stroke="#88898B" stroke-width="2.5" stroke-linecap="round" stroke-linejoin="round"/>
</svg>