<svg width="28" height="25" viewBox="0 0 28 25" fill="none" xmlns="http://www.w3.org/2000/svg">
<path d="M9.8693 4.23529C9.8693 5.21277 9.57512 6.05817 9.14824 6.63571C8.72117 7.2135 8.21164 7.47059 7.73885 7.47059C7.26606 7.47059 6.75653 7.2135 6.32946 6.63571C5.90258 6.05817 5.6084 5.21277 5.6084 4.23529C5.6084 3.25782 5.90258 2.41242 6.32946 1.83488C6.75653 1.25709 7.26606 1 7.73885 1C8.21164 1 8.72117 1.25709 9.14824 1.83488C9.57512 2.41242 9.8693 3.25782 9.8693 4.23529Z" stroke="#88898B" stroke-width="2"/>
<path d="M18.2179 14.1181C18.2179 15.0956 17.9238 15.941 17.4969 16.5185C17.0698 17.0963 16.5603 17.3534 16.0875 17.3534C15.6147 17.3534 15.1052 17.0963 14.6781 16.5185C14.2512 15.941 13.957 15.0956 13.957 14.1181C13.957 13.1406 14.2512 12.2952 14.6781 11.7177C15.1052 11.1399 15.6147 10.8828 16.0875 10.8828C16.5603 10.8828 17.0698 11.1399 17.4969 11.7177C17.9238 12.2952 18.2179 13.1406 18.2179 14.1181Z" stroke="#88898B" stroke-width="2"/>
<path d="M24.5256 8.47065C24.5256 9.44812 24.2314 10.2935 23.8045 10.8711C23.3774 11.4489 22.8679 11.7059 22.3951 11.7059C21.9223 11.7059 21.4128 11.4489 20.9857 10.8711C20.5588 10.2935 20.2646 9.44812 20.2646 8.47065C20.2646 7.49317 20.5588 6.64777 20.9857 6.07023C21.4128 5.49244 21.9223 5.23535 22.3951 5.23535C22.8679 5.23535 23.3774 5.49244 23.8045 6.07023C24.2314 6.64777 24.5256 7.49317 24.5256 8.47065Z" stroke="#88898B" stroke-width="2"/>
<path d="M11.9131 13.4119H2L4.60871 9.88247C5.47828 9.41188 7.32177 8.4707 7.73916 8.4707C8.15656 8.4707 9.65222 9.41188 10.3479 9.88247L11.9131 13.4119Z" stroke="#88898B" stroke-width="2"/>
<path d="M10.6328 23.9996H22.9648L19.7196 19.966C18.6378 19.4282 16.3445 18.3525 15.8252 18.3525C15.306 18.3525 13.4453 19.4282 12.5799 19.966L10.6328 23.9996Z" stroke="#88898B" stroke-width="2"/>
<path d="M26 15.5296H19.834L21.4566 13.5128C21.9975 13.2439 23.1442 12.7061 23.4038 12.7061C23.6634 12.7061 24.5937 13.2439 25.0264 13.5128L26 15.5296Z" stroke="#88898B" stroke-width="2"/>
</svg>
