<svg width="23" height="23" viewBox="0 0 23 23" fill="none" xmlns="http://www.w3.org/2000/svg">
<path d="M11.5 16C7.83406 16 4.5 19.3341 4.5 23H6.64844C6.64844 21.9864 6.96109 21.0445 7.49476 20.2654L9.58431 22.3549C9.51603 22.5576 9.47852 22.7743 9.47852 23H13.5215C13.5215 22.7743 13.484 22.5576 13.4157 22.3549L15.5053 20.2653C16.0389 21.0445 16.3516 21.9864 16.3516 23H18.5C18.5 19.3341 15.1659 16 11.5 16ZM10.8549 21.0843L8.76534 18.9947C9.54451 18.4611 10.4864 18.1484 11.5 18.1484C12.5136 18.1484 13.4555 18.4611 14.2346 18.9948L12.1451 21.0843C11.9424 21.0161 11.7256 20.9785 11.5 20.9785C11.2744 20.9785 11.0576 21.0161 10.8549 21.0843ZM19.6318 14.8682C18.3792 13.6157 16.8883 12.6885 15.2617 12.1272C17.0039 10.9273 18.1484 8.91915 18.1484 6.64844C18.1484 2.9825 15.1659 0 11.5 0C7.83406 0 4.85156 2.9825 4.85156 6.64844C4.85156 8.91915 5.99613 10.9273 7.73833 12.1272C6.11171 12.6885 4.62084 13.6157 3.36829 14.8683C1.19622 17.0403 0 19.9282 0 23H1.79688C1.79688 17.6497 6.14967 13.2969 11.5 13.2969C16.8503 13.2969 21.2031 17.6497 21.2031 23H23C23 19.9282 21.8038 17.0403 19.6318 14.8682ZM6.64844 6.5C6.64844 3.82486 8.82481 2 11.5 2C14.1752 2 16 3.82486 16 6.5C16 9.17514 14.1752 11 11.5 11C8.82481 11 6.64844 9.17514 6.64844 6.5Z" fill="#88898B"/>
</svg>
