<svg width="23" height="23" viewBox="0 0 23 23" fill="none" xmlns="http://www.w3.org/2000/svg">
<path d="M18.3271 0.0419922H4.08637C3.00726 0.0419922 1.97235 0.480979 1.2093 1.26238C0.446253 2.04378 0.0175781 3.10359 0.0175781 4.20866V11.5003C0.0175781 11.7766 0.124747 12.0415 0.315508 12.2369C0.50627 12.4322 0.764998 12.542 1.03478 12.542H6.12077V21.917C6.12029 22.1162 6.17561 22.3114 6.28018 22.4794C6.38475 22.6475 6.53418 22.7812 6.71074 22.8649C6.88772 22.9483 7.08438 22.978 7.27732 22.9503C7.47027 22.9226 7.65139 22.8387 7.79914 22.7087L10.6982 20.167L13.5972 22.7087C13.7814 22.87 14.0159 22.9587 14.2584 22.9587C14.5008 22.9587 14.7353 22.87 14.9195 22.7087L17.8185 20.167L20.7176 22.7087C20.9018 22.87 21.1363 22.9587 21.3787 22.9587C21.5259 22.9576 21.6713 22.9257 21.806 22.8649C21.9825 22.7812 22.132 22.6475 22.2365 22.4794C22.3411 22.3114 22.3964 22.1162 22.3959 21.917V4.20866C22.3959 3.10359 21.9673 2.04378 21.2042 1.26238C20.4412 0.480979 19.4063 0.0419922 18.3271 0.0419922ZM2.05197 10.4587V4.20866C2.05197 3.65612 2.26631 3.12622 2.64784 2.73552C3.02936 2.34482 3.54681 2.12533 4.08637 2.12533C4.62593 2.12533 5.14338 2.34482 5.52491 2.73552C5.90643 3.12622 6.12077 3.65612 6.12077 4.20866V10.4587H2.05197ZM20.3615 19.6566L18.4797 18.0003C18.2955 17.8389 18.061 17.7503 17.8185 17.7503C17.5761 17.7503 17.3416 17.8389 17.1574 18.0003L14.2584 20.542L11.3593 18.0003C11.1751 17.8389 10.9406 17.7503 10.6982 17.7503C10.4557 17.7503 10.2212 17.8389 10.037 18.0003L8.15516 19.6566V4.20866C8.15389 3.47687 7.96445 2.75832 7.60588 2.12533H18.3271C18.8667 2.12533 19.3842 2.34482 19.7657 2.73552C20.1472 3.12622 20.3615 3.65612 20.3615 4.20866V19.6566ZM18.3271 5.25033C18.3271 5.52659 18.22 5.79154 18.0292 5.98689C17.8385 6.18224 17.5797 6.29199 17.3099 6.29199H11.2068C10.937 6.29199 10.6783 6.18224 10.4875 5.98689C10.2967 5.79154 10.1896 5.52659 10.1896 5.25033C10.1896 4.97406 10.2967 4.70911 10.4875 4.51376C10.6783 4.31841 10.937 4.20866 11.2068 4.20866H17.3099C17.5797 4.20866 17.8385 4.31841 18.0292 4.51376C18.22 4.70911 18.3271 4.97406 18.3271 5.25033ZM18.3271 9.41699C18.3271 9.69326 18.22 9.95821 18.0292 10.1536C17.8385 10.3489 17.5797 10.4587 17.3099 10.4587H11.2068C10.937 10.4587 10.6783 10.3489 10.4875 10.1536C10.2967 9.95821 10.1896 9.69326 10.1896 9.41699C10.1896 9.14073 10.2967 8.87577 10.4875 8.68042C10.6783 8.48507 10.937 8.37533 11.2068 8.37533H17.3099C17.5797 8.37533 17.8385 8.48507 18.0292 8.68042C18.22 8.87577 18.3271 9.14073 18.3271 9.41699ZM18.3271 13.5837C18.3271 13.8599 18.22 14.1249 18.0292 14.3202C17.8385 14.5156 17.5797 14.6253 17.3099 14.6253H11.2068C10.937 14.6253 10.6783 14.5156 10.4875 14.3202C10.2967 14.1249 10.1896 13.8599 10.1896 13.5837C10.1896 13.3074 10.2967 13.0424 10.4875 12.8471C10.6783 12.6517 10.937 12.542 11.2068 12.542H17.3099C17.5797 12.542 17.8385 12.6517 18.0292 12.8471C18.22 13.0424 18.3271 13.3074 18.3271 13.5837Z" fill="#88898B"/>
</svg>
