<svg width="25" height="25" viewBox="0 0 25 25" fill="none" xmlns="http://www.w3.org/2000/svg">
<path fill-rule="evenodd" clip-rule="evenodd" d="M10.1076 16.2637C5.73469 16.2637 2 16.9246 2 19.5729C2 22.2212 5.71194 22.906 10.1076 22.906C14.4816 22.906 18.2151 22.244 18.2151 19.5968C18.2151 16.9496 14.5043 16.2637 10.1076 16.2637Z" stroke="#88898B" stroke-width="2.5" stroke-linecap="round" stroke-linejoin="round"/>
<path fill-rule="evenodd" clip-rule="evenodd" d="M10.1075 12.4867C12.9776 12.4867 15.304 10.1604 15.304 7.29024C15.304 4.42011 12.9776 2.09375 10.1075 2.09375C7.2385 2.09375 4.91214 4.42011 4.91214 7.29024C4.90191 10.1501 7.2112 12.4765 10.0722 12.4867H10.1075Z" stroke="#88898B" stroke-width="2.5" stroke-linecap="round" stroke-linejoin="round"/>
<path d="M20.7182 8.82715V13.3889" stroke="#88898B" stroke-width="2.5" stroke-linecap="round" stroke-linejoin="round"/>
<path d="M23.0453 11.1079H18.3926" stroke="#88898B" stroke-width="2.5" stroke-linecap="round" stroke-linejoin="round"/>
</svg>
