<svg width="52" height="52" viewBox="0 0 52 52" fill="none" xmlns="http://www.w3.org/2000/svg">
<rect width="52" height="52" rx="8" fill="#17A1FA"/>
<path d="M14.125 37.6667C13.5583 37.6667 13.0625 37.4542 12.6375 37.0292C12.2125 36.6042 12 36.1083 12 35.5417V17.125C12 16.5583 12.2125 16.0625 12.6375 15.6375C13.0625 15.2125 13.5583 15 14.125 15H38.2083C38.775 15 39.2708 15.2125 39.6958 15.6375C40.1208 16.0625 40.3333 16.5583 40.3333 17.125V35.5417C40.3333 36.1083 40.1208 36.6042 39.6958 37.0292C39.2708 37.4542 38.775 37.6667 38.2083 37.6667H14.125ZM26.1667 26.9708L14.125 19.0729V35.5417H38.2083V19.0729L26.1667 26.9708ZM26.1667 24.8458L38.0667 17.125H14.3021L26.1667 24.8458ZM14.125 19.0729V17.125V35.5417V19.0729Z" fill="white"/>
</svg>
