<svg width="34" height="35" viewBox="0 0 34 35" fill="none" xmlns="http://www.w3.org/2000/svg">
<path d="M21.6668 29.1843C21.6668 31.1573 19.856 32.9995 17.308 32.9995C14.7599 32.9995 12.9492 31.1573 12.9492 29.1843C12.9492 27.2114 14.7599 25.3691 17.308 25.3691C19.856 25.3691 21.6668 27.2114 21.6668 29.1843Z" stroke="#88898B" stroke-width="3"/>
<path d="M26.4749 24.2863H6.8062C-1.89829 23.6789 3.17933 18.4649 6.8062 15.9339C6.24822 11.2514 7.47577 1.81063 16.8498 1.5069C26.2238 1.20318 27.7304 10.9983 27.3119 15.9339C29.1253 17.1994 32.5848 20.186 31.9152 22.0084C31.2456 23.8307 28.0093 24.2863 26.4749 24.2863Z" stroke="#88898B" stroke-width="3"/>
</svg>
