<svg width="23" height="23" viewBox="0 0 23 23" fill="none" xmlns="http://www.w3.org/2000/svg">
<g clip-path="url(#clip0_12757_3192)">
<path d="M23 8.2207C23 7.7245 22.594 7.32227 22.0977 7.32227C21.6015 7.32227 21.1993 7.7245 21.1993 8.2207V16.9249C20.7916 16.7303 20.336 16.6211 19.8555 16.6211H3.32489C2.48234 16.6211 1.79688 15.9473 1.79688 15.0488C1.79688 14.1504 2.48234 13.4766 3.32489 13.4766H4.98633C5.48254 13.4766 5.88477 13.0743 5.88477 12.5781V4.62772H11.9043C12.4005 4.62772 12.8027 4.22549 12.8027 3.72928C12.8027 3.23307 12.4005 2.83084 11.9043 2.83084H5.88477V0.898438C5.88477 0.402231 5.48254 0 4.98633 0H3.32489C1.49154 0 0 1.49154 0 3.32489V15.0931C0 16.9264 1.49154 18.418 3.32489 18.418H16.8457V22.1016C16.8457 22.5978 17.2479 23 17.7441 23H19.8555C21.5894 23 23 21.5894 23 19.8555C23 19.8428 23 8.2207 23 8.2207ZM1.79688 3.32489C1.79688 2.48234 2.48234 1.79688 3.32489 1.79688H4.08789V11.6797H3.32489C2.77433 11.6797 2.25467 11.8145 1.79688 12.0529V3.32489ZM19.8555 21.2031H18.6426V18.418H19.8555C20.5662 18.418 21.1498 18.9772 21.1993 19.6833V19.9453C21.1993 19.9466 21.1995 19.9479 21.1995 19.9492C21.1512 20.6487 20.567 21.2031 19.8555 21.2031ZM12.3843 10.5102C12.5557 10.686 12.7886 10.7813 13.0274 10.7813C13.1074 10.7813 13.188 10.7706 13.2672 10.7486L16.8935 9.74414C17.0427 9.70281 17.1788 9.62357 17.2884 9.51418L22.2106 4.60121C23.2615 3.55031 23.2615 1.8404 22.2106 0.789457C21.1597 -0.2614 19.4497 -0.26149 18.3996 0.788738L13.4669 5.71038C13.3622 5.81491 13.2848 5.94366 13.2418 6.08525L12.1677 9.62173C12.0724 9.93524 12.1555 10.2757 12.3843 10.5102ZM19.6694 2.06003C20.0197 1.70973 20.5897 1.70973 20.9399 2.06003C21.2903 2.41033 21.2903 2.9803 20.9406 3.33001L20.7665 3.50373L19.4959 2.23311L19.6694 2.06003ZM14.8957 6.82314L18.2239 3.50233L19.4947 4.77313L16.1862 8.07552L14.3618 8.58089L14.8957 6.82314Z" fill="#88898B"/>
</g>
<defs>
<clipPath id="clip0_12757_3192">
<rect width="23" height="23" fill="white"/>
</clipPath>
</defs>
</svg>
