<svg width="32" height="32" viewBox="0 0 32 32" fill="none" xmlns="http://www.w3.org/2000/svg">
<g clip-path="url(#clip0_12272_348)">
<path d="M17.1299 18.0808C17.6224 18.0808 18.0216 17.6816 18.0216 17.1892V13.6226C18.0216 13.1302 17.6224 12.731 17.1299 12.731C16.6375 12.731 16.2383 13.1302 16.2383 13.6226V17.1892C16.2383 17.6816 16.6375 18.0808 17.1299 18.0808Z" fill="black"/>
<path d="M6.43071 18.0808C6.92313 18.0808 7.32235 17.6816 7.32235 17.1892V13.6226C7.32235 13.1302 6.92313 12.731 6.43071 12.731C5.93828 12.731 5.53906 13.1302 5.53906 13.6226V17.1892C5.53906 17.6816 5.93828 18.0808 6.43071 18.0808Z" fill="black"/>
<path d="M31.1542 15.6692L29.6733 11.9668C28.9923 10.2645 27.3675 9.1644 25.5339 9.1644H25.2737V7.38111H27.9486C28.4411 7.38111 28.8403 6.9819 28.8403 6.48947C28.8403 5.99705 28.4411 5.59783 27.9486 5.59783H18.3189C18.0207 5.59783 17.7423 5.74679 17.577 5.99491L16.2397 8.00087C15.6964 7.13936 14.8222 6.50629 13.797 6.2816C13.4116 3.87535 11.3211 2.03125 8.808 2.03125C6.29487 2.03125 4.20444 3.87535 3.81901 6.28154C2.085 6.66162 0.783203 8.20969 0.783203 10.056V15.4059C0.783203 15.5819 0.835275 15.754 0.93294 15.9005L3.57536 19.8641H1.67485C1.18242 19.8641 0.783203 20.2634 0.783203 20.7558V26.7001C0.783203 27.1925 1.18242 27.5917 1.67485 27.5917H3.95983C4.45059 28.9754 5.77207 29.9694 7.32193 29.9694C8.87178 29.9694 10.1932 28.9754 10.684 27.5917H21.3172C21.8079 28.9754 23.1294 29.9694 24.6793 29.9694C26.2291 29.9694 27.5505 28.9754 28.0414 27.5917H30.3263C30.8188 27.5917 31.218 27.1925 31.218 26.7001V16.0003C31.218 15.8869 31.1964 15.7745 31.1542 15.6692ZM25.2737 10.9477H25.5339C26.6341 10.9477 27.609 11.6077 28.0176 12.6292L29.0094 15.1087H25.2737V10.9477ZM4.64699 7.97554C5.13942 7.97554 5.53864 7.57633 5.53864 7.0839C5.53864 5.28117 7.00527 3.81454 8.808 3.81454C10.6107 3.81454 12.0774 5.28117 12.0774 7.0839C12.0774 7.57633 12.4766 7.97554 12.969 7.97554C13.7973 7.97554 14.5138 8.46214 14.8484 9.1644H2.76765C3.10219 8.46214 3.81872 7.97554 4.64699 7.97554ZM2.56649 15.1359V10.9477H15.9412V10.9471C16.2337 10.9471 16.5146 10.8033 16.683 10.5506L18.796 7.38111H23.4904V9.1644H20.6966C20.2042 9.1644 19.8049 9.56362 19.8049 10.056V19.8641H5.71863L2.56649 15.1359ZM7.32193 28.1861C6.33862 28.1861 5.53864 27.3862 5.53864 26.4029C5.53864 25.4195 6.33862 24.6196 7.32193 24.6196C8.30523 24.6196 9.10522 25.4195 9.10522 26.4029C9.10522 27.3862 8.30523 28.1861 7.32193 28.1861ZM24.6793 28.1861C23.696 28.1861 22.896 27.3862 22.896 26.4029C22.896 25.4195 23.696 24.6196 24.6793 24.6196C25.6626 24.6196 26.4626 25.4195 26.4626 26.4029C26.4626 27.3862 25.6626 28.1861 24.6793 28.1861ZM29.4347 25.8084H28.1954C27.9114 24.1239 26.4433 22.8363 24.6793 22.8363C22.9152 22.8363 21.4471 24.1239 21.1632 25.8084H10.838C10.5541 24.1239 9.08596 22.8363 7.32193 22.8363C5.5579 22.8363 4.08978 24.1239 3.80582 25.8084H2.56649V21.6474H29.4347V25.8084ZM29.4347 19.8641H21.5882V10.9477H23.4904V16.0003C23.4904 16.4928 23.8896 16.892 24.3821 16.892H29.4347V19.8641Z" fill="black"/>
<path d="M13.5635 18.0808C14.0559 18.0808 14.4552 17.6816 14.4552 17.1892V13.6226C14.4552 13.1302 14.0559 12.731 13.5635 12.731C13.0711 12.731 12.6719 13.1302 12.6719 13.6226V17.1892C12.6719 17.6816 13.0711 18.0808 13.5635 18.0808Z" fill="black"/>
<path d="M9.99711 18.0808C10.4895 18.0808 10.8888 17.6816 10.8888 17.1892V13.6226C10.8888 13.1302 10.4895 12.731 9.99711 12.731C9.50469 12.731 9.10547 13.1302 9.10547 13.6226V17.1892C9.10547 17.6816 9.50469 18.0808 9.99711 18.0808Z" fill="black"/>
</g>
<defs>
<clipPath id="clip0_12272_348">
<rect width="30.4348" height="30.4348" fill="white" transform="translate(0.783203 0.782715)"/>
</clipPath>
</defs>
</svg>
