<svg width="33" height="36" viewBox="0 0 33 36" fill="none" xmlns="http://www.w3.org/2000/svg">
<path fill-rule="evenodd" clip-rule="evenodd" d="M16.8338 8.02641H7.4242C4.48192 8.01509 2.07009 10.359 2.00078 13.3013V28.6478C1.95127 31.5477 4.26125 33.9397 7.16251 33.9906C7.24879 33.9906 7.3365 33.9906 7.4242 33.9878H18.7237C21.6504 33.9581 24.0042 31.5746 24 28.6478V15.4924L16.8338 8.02641Z" stroke="#88898B" stroke-width="2.5" stroke-linecap="round" stroke-linejoin="round"/>
<path d="M16.4629 8.00977V12.1247C16.4629 14.1334 18.0882 15.7615 20.0969 15.7672H23.9926" stroke="#88898B" stroke-width="2.5" stroke-linecap="round" stroke-linejoin="round"/>
<path fill-rule="evenodd" clip-rule="evenodd" d="M23.8338 2.02641H14.4242C11.4819 2.01509 9.07009 4.35901 9.00078 7.3013V22.6478C8.95127 25.5477 11.2612 27.9397 14.1625 27.9906C14.2488 27.9906 14.3365 27.9906 14.4242 27.9878H25.7237C28.6504 27.9581 31.0042 25.5746 31 22.6478V9.49245L23.8338 2.02641Z" fill="white" stroke="#88898B" stroke-width="2.5" stroke-linecap="round" stroke-linejoin="round"/>
<path fill-rule="evenodd" clip-rule="evenodd" d="M23.4629 2.00977V6.12472C23.4629 8.13339 25.0882 9.76155 27.0969 9.7672H30.9926" fill="white"/>
<path d="M23.4629 2.00977V6.12472C23.4629 8.13339 25.0882 9.76155 27.0969 9.7672H30.9926" stroke="#88898B" stroke-width="2.5" stroke-linecap="round" stroke-linejoin="round"/>
<path d="M24.8779 15.1098H22.7179L22.4179 16.9098H24.5979L24.2779 18.8498H22.0779L21.5579 22.0098H19.5179L20.0379 18.8498H17.9979L17.4779 22.0098H15.4579L15.9779 18.8498H13.7979L14.1179 16.9098H16.3179L16.6179 15.1098H14.3979L14.7179 13.1498H16.9379L17.4579 10.0098H19.4779L18.9579 13.1498H20.9979L21.5179 10.0098H23.5579L23.0379 13.1498H25.1979L24.8779 15.1098ZM20.3779 16.9098L20.6779 15.1098H18.6379L18.3379 16.9098H20.3779Z" fill="#88898B"/>
</svg>
