<svg width="23" height="19" viewBox="0 0 23 19" fill="none" xmlns="http://www.w3.org/2000/svg">
<mask id="mask0_12190_2502" style="mask-type:alpha" maskUnits="userSpaceOnUse" x="0" y="0" width="23" height="19">
<rect y="0.299805" width="23" height="18.4" fill="#D9D9D9"/>
</mask>
<g mask="url(#mask0_12190_2502)">
<path d="M2.3 18.6998C1.6675 18.6998 1.12623 18.4748 0.6762 18.0248C0.2254 17.574 0 17.0323 0 16.3998V11.7998C0.6325 11.7998 1.17415 11.5744 1.62495 11.1236C2.07498 10.6736 2.3 10.1323 2.3 9.4998C2.3 8.8673 2.07498 8.32565 1.62495 7.87485C1.17415 7.42482 0.6325 7.1998 0 7.1998V2.5998C0 1.9673 0.2254 1.42604 0.6762 0.976004C1.12623 0.525204 1.6675 0.299805 2.3 0.299805H20.7C21.3325 0.299805 21.8741 0.525204 22.3249 0.976004C22.775 1.42604 23 1.9673 23 2.5998V7.1998C22.3675 7.1998 21.8258 7.42482 21.375 7.87485C20.925 8.32565 20.7 8.8673 20.7 9.4998C20.7 10.1323 20.925 10.6736 21.375 11.1236C21.8258 11.5744 22.3675 11.7998 23 11.7998V16.3998C23 17.0323 22.775 17.574 22.3249 18.0248C21.8741 18.4748 21.3325 18.6998 20.7 18.6998H2.3ZM2.3 16.3998H20.7V13.4673C19.9908 13.0456 19.4304 12.4852 19.0187 11.786C18.6062 11.086 18.4 10.324 18.4 9.4998C18.4 8.67564 18.6062 7.91357 19.0187 7.2136C19.4304 6.5144 19.9908 5.95397 20.7 5.5323V2.5998H2.3V5.5323C3.00917 5.95397 3.56998 6.5144 3.98245 7.2136C4.39415 7.91357 4.6 8.67564 4.6 9.4998C4.6 10.324 4.39415 11.086 3.98245 11.786C3.56998 12.4852 3.00917 13.0456 2.3 13.4673V16.3998ZM11.5 15.2498C11.8258 15.2498 12.0991 15.1394 12.32 14.9186C12.54 14.6986 12.65 14.4256 12.65 14.0998C12.65 13.774 12.54 13.5007 12.32 13.2799C12.0991 13.0598 11.8258 12.9498 11.5 12.9498C11.1742 12.9498 10.9012 13.0598 10.6812 13.2799C10.4604 13.5007 10.35 13.774 10.35 14.0998C10.35 14.4256 10.4604 14.6986 10.6812 14.9186C10.9012 15.1394 11.1742 15.2498 11.5 15.2498ZM11.5 10.6498C11.8258 10.6498 12.0991 10.5394 12.32 10.3186C12.54 10.0986 12.65 9.82564 12.65 9.4998C12.65 9.17397 12.54 8.90065 12.32 8.67985C12.0991 8.45982 11.8258 8.3498 11.5 8.3498C11.1742 8.3498 10.9012 8.45982 10.6812 8.67985C10.4604 8.90065 10.35 9.17397 10.35 9.4998C10.35 9.82564 10.4604 10.0986 10.6812 10.3186C10.9012 10.5394 11.1742 10.6498 11.5 10.6498ZM11.5 6.0498C11.8258 6.0498 12.0991 5.9394 12.32 5.7186C12.54 5.49857 12.65 5.22564 12.65 4.8998C12.65 4.57397 12.54 4.30065 12.32 4.07985C12.0991 3.85982 11.8258 3.7498 11.5 3.7498C11.1742 3.7498 10.9012 3.85982 10.6812 4.07985C10.4604 4.30065 10.35 4.57397 10.35 4.8998C10.35 5.22564 10.4604 5.49857 10.6812 5.7186C10.9012 5.9394 11.1742 6.0498 11.5 6.0498Z" fill="#88898B"/>
</g>
</svg>
