<svg width="25" height="25" viewBox="0 0 25 25" fill="none" xmlns="http://www.w3.org/2000/svg">
<path d="M12.4998 12.4614C10.804 12.4614 9.4165 11.9218 8.33734 10.8427C7.25817 9.76351 6.71859 8.37601 6.71859 6.68018C6.71859 4.98434 7.25817 3.59684 8.33734 2.51768C9.4165 1.43851 10.804 0.898926 12.4998 0.898926C14.1957 0.898926 15.5832 1.43851 16.6623 2.51768C17.7415 3.59684 18.2811 4.98434 18.2811 6.68018C18.2811 8.37601 17.7415 9.76351 16.6623 10.8427C15.5832 11.9218 14.1957 12.4614 12.4998 12.4614ZM0.166504 24.8333V21.2104C0.166504 20.234 0.410601 19.3989 0.898795 18.7052C1.38699 18.0114 2.0165 17.4847 2.78734 17.125C4.50886 16.3541 6.15973 15.776 7.73994 15.3906C9.32015 15.0052 10.9068 14.8125 12.4998 14.8125C14.0929 14.8125 15.6731 15.0116 17.2405 15.4099C18.8078 15.8081 20.4523 16.3798 22.1738 17.125C22.9703 17.4847 23.6127 18.0114 24.1009 18.7052C24.5891 19.3989 24.8332 20.234 24.8332 21.2104V24.8333H0.166504ZM2.479 22.5208H22.5207V21.2104C22.5207 20.7993 22.3986 20.4074 22.1545 20.0349C21.9104 19.6623 21.6085 19.3861 21.2488 19.2062C19.6043 18.4097 18.1012 17.8637 16.7394 17.5682C15.3776 17.2727 13.9644 17.125 12.4998 17.125C11.0353 17.125 9.60921 17.2727 8.22171 17.5682C6.83421 17.8637 5.33109 18.4097 3.71234 19.2062C3.35262 19.3861 3.05713 19.6623 2.82588 20.0349C2.59463 20.4074 2.479 20.7993 2.479 21.2104V22.5208ZM12.4998 10.1489C13.5019 10.1489 14.3306 9.82132 14.9858 9.16611C15.641 8.5109 15.9686 7.68226 15.9686 6.68018C15.9686 5.67809 15.641 4.84945 14.9858 4.19424C14.3306 3.53903 13.5019 3.21143 12.4998 3.21143C11.4978 3.21143 10.6691 3.53903 10.0139 4.19424C9.35869 4.84945 9.03109 5.67809 9.03109 6.68018C9.03109 7.68226 9.35869 8.5109 10.0139 9.16611C10.6691 9.82132 11.4978 10.1489 12.4998 10.1489Z" fill="black"/>
</svg>
