<svg width="45" height="45" viewBox="0 0 45 45" fill="none" xmlns="http://www.w3.org/2000/svg">
<circle cx="22.5" cy="22.5" r="22.5" fill="#D7C9EC"/>
<path d="M23.671 27.3006C23.775 27.5682 23.931 27.8262 24.139 28.0747C24.3557 28.3232 24.464 28.5191 24.464 28.6624V28.7198C24.464 28.9205 24.3557 29.0208 24.139 29.0208H20.356C20.1393 29.0208 20.031 28.9205 20.031 28.7198V28.6624C20.031 28.5669 20.07 28.4665 20.148 28.3614C20.2347 28.2563 20.3213 28.1655 20.408 28.089C20.5033 28.003 20.577 27.8931 20.629 27.7593C20.681 27.616 20.681 27.4631 20.629 27.3006L20.421 26.6412H17.379L17.171 27.3006C17.119 27.4631 17.119 27.616 17.171 27.7593C17.223 27.8931 17.2923 28.003 17.379 28.089C17.4743 28.1655 17.561 28.2563 17.639 28.3614C17.7257 28.4665 17.769 28.5669 17.769 28.6624V28.7198C17.769 28.9205 17.6607 29.0208 17.444 29.0208H15.325C15.1083 29.0208 15 28.9205 15 28.7198V28.6624C15 28.5191 15.1083 28.328 15.325 28.089C15.5417 27.8501 15.6977 27.5873 15.793 27.3006L18.107 20.6922C18.185 20.4628 18.12 20.1761 17.912 19.8321C17.7127 19.488 17.613 19.2778 17.613 19.2013V19.144C17.613 18.9433 17.7213 18.843 17.938 18.843H19.862C20.3127 18.843 20.6333 19.0914 20.824 19.5884L23.671 27.3006ZM17.769 25.4371H20.057L18.939 21.8103L17.769 25.4371Z" fill="#4B00BC"/>
<path d="M28.8947 21.9967C29.3973 21.9967 29.874 22.1161 30.3247 22.355C30.784 22.5844 31.174 22.9714 31.4947 23.5162C31.8153 24.0513 31.9757 24.6964 31.9757 25.4514C31.9757 26.56 31.668 27.4583 31.0527 28.1464C30.446 28.8249 29.7267 29.1642 28.8947 29.1642C28.288 29.1642 27.7983 28.9826 27.4257 28.6194C27.4257 28.887 27.3 29.0208 27.0487 29.0208H24.8647C24.648 29.0208 24.5397 28.9205 24.5397 28.7198V28.6624C24.5397 28.5382 24.6263 28.3471 24.7997 28.089C24.9817 27.8215 25.0727 27.5586 25.0727 27.3006V21.1796C25.0727 20.9789 25.0163 20.8021 24.9037 20.6492C24.791 20.4963 24.6783 20.3625 24.5657 20.2478C24.453 20.1236 24.3967 20.0041 24.3967 19.8894V19.8321C24.3967 19.7365 24.4227 19.6601 24.4747 19.6027C24.5267 19.5358 24.6307 19.4641 24.7867 19.3877L27.0487 18.2409C27.222 18.1358 27.378 18.1167 27.5167 18.1836C27.6553 18.2505 27.7247 18.389 27.7247 18.5993V22.312C28.028 22.1018 28.418 21.9967 28.8947 21.9967ZM28.6737 28.4044C29.159 28.4044 29.4017 27.9075 29.4017 26.9136C29.4017 26.3688 29.3713 25.805 29.3107 25.222C29.2587 24.6391 29.1417 24.0848 28.9597 23.5592C28.7777 23.024 28.5523 22.7564 28.2837 22.7564C27.911 22.7564 27.7247 23.1339 27.7247 23.8889V26.7989C27.7247 27.2098 27.82 27.5825 28.0107 27.917C28.21 28.2419 28.431 28.4044 28.6737 28.4044Z" fill="#4B00BC"/>
</svg>
