<svg width="15" height="15" viewBox="0 0 15 15" fill="none" xmlns="http://www.w3.org/2000/svg">
<mask id="mask0_2992_1203" style="mask-type:alpha" maskUnits="userSpaceOnUse" x="0" y="0" width="15" height="15">
<rect width="15" height="15" fill="#D9D9D9"/>
</mask>
<g mask="url(#mask0_2992_1203)">
<path d="M6.875 10.625H8.125V8.125H10.625V6.875H8.125V4.375H6.875V6.875H4.375V8.125H6.875V10.625ZM7.5 13.75C6.63542 13.75 5.82292 13.5858 5.0625 13.2575C4.30208 12.9296 3.64062 12.4844 3.07813 11.9219C2.51563 11.3594 2.07042 10.6979 1.7425 9.9375C1.41417 9.17708 1.25 8.36458 1.25 7.5C1.25 6.63542 1.41417 5.82292 1.7425 5.0625C2.07042 4.30208 2.51563 3.64062 3.07813 3.07813C3.64062 2.51563 4.30208 2.07021 5.0625 1.74187C5.82292 1.41396 6.63542 1.25 7.5 1.25C8.36458 1.25 9.17708 1.41396 9.9375 1.74187C10.6979 2.07021 11.3594 2.51563 11.9219 3.07813C12.4844 3.64062 12.9296 4.30208 13.2575 5.0625C13.5858 5.82292 13.75 6.63542 13.75 7.5C13.75 8.36458 13.5858 9.17708 13.2575 9.9375C12.9296 10.6979 12.4844 11.3594 11.9219 11.9219C11.3594 12.4844 10.6979 12.9296 9.9375 13.2575C9.17708 13.5858 8.36458 13.75 7.5 13.75ZM7.5 12.5C8.89583 12.5 10.0781 12.0156 11.0469 11.0469C12.0156 10.0781 12.5 8.89583 12.5 7.5C12.5 6.10417 12.0156 4.92187 11.0469 3.95312C10.0781 2.98437 8.89583 2.5 7.5 2.5C6.10417 2.5 4.92187 2.98437 3.95312 3.95312C2.98437 4.92187 2.5 6.10417 2.5 7.5C2.5 8.89583 2.98437 10.0781 3.95312 11.0469C4.92187 12.0156 6.10417 12.5 7.5 12.5Z" fill="#111727"/>
</g>
</svg>
