<svg width="34" height="34" viewBox="0 0 34 34" fill="none" xmlns="http://www.w3.org/2000/svg">
<circle cx="17" cy="17" r="17" fill="#FDD7E4"/>
<path d="M20.6068 10.0132C20.9356 10.203 21.0663 10.6043 20.9263 10.9461L20.8813 11.0377L14.0724 22.831C13.8653 23.1898 13.4066 23.3127 13.0479 23.1056C12.7191 22.9157 12.5884 22.5145 12.7284 22.1726L12.7734 22.081L19.5823 10.2877C19.7894 9.92898 20.2481 9.80608 20.6068 10.0132Z" fill="black"/>
<path d="M20.0365 9.93805C20.4011 9.83942 20.7755 10.0275 20.9207 10.3642L20.9571 10.4696L22.4403 16.0563C22.5465 16.4567 22.3082 16.8674 21.9078 16.9736C21.5439 17.0703 21.1714 16.882 21.0268 16.5462L20.9905 16.4412L19.7007 11.5822L14.8482 12.895C14.4847 12.9933 14.1114 12.8068 13.9652 12.4716L13.9285 12.3668C13.8302 12.0033 14.0167 11.6299 14.3518 11.4838L14.4567 11.447L20.0365 9.93805Z" fill="black"/>
</svg>
