<svg width="32" height="32" viewBox="0 0 32 32" fill="none" xmlns="http://www.w3.org/2000/svg">
<circle cx="16" cy="16" r="16" fill="#F73333"/>
<path d="M9.645 20H7.695L7.149 18.362H3.522L2.976 20H1.039L4.224 10.9H6.447L9.645 20ZM5.342 12.967L4.094 16.685H6.59L5.342 12.967ZM13.9147 13.5V15.112H12.4457V17.816C12.4457 18.0413 12.502 18.206 12.6147 18.31C12.7274 18.414 12.892 18.4747 13.1087 18.492C13.3254 18.5007 13.594 18.4963 13.9147 18.479V20C12.7794 20.13 11.969 20.026 11.4837 19.688C11.007 19.3413 10.7687 18.7173 10.7687 17.816V15.112H9.63769V13.5H10.7687V12.187L12.4457 11.68V13.5H13.9147ZM20.432 19.194C19.7733 19.8527 18.9586 20.182 17.988 20.182C17.0173 20.182 16.2026 19.8527 15.544 19.194C14.8853 18.5353 14.556 17.7207 14.556 16.75C14.556 15.788 14.8853 14.9777 15.544 14.319C16.2113 13.6517 17.026 13.318 17.988 13.318C18.95 13.318 19.7646 13.6517 20.432 14.319C21.0993 14.9863 21.433 15.7967 21.433 16.75C21.433 17.712 21.0993 18.5267 20.432 19.194ZM16.727 18.037C17.065 18.375 17.4853 18.544 17.988 18.544C18.4906 18.544 18.911 18.375 19.249 18.037C19.587 17.699 19.756 17.27 19.756 16.75C19.756 16.23 19.587 15.801 19.249 15.463C18.911 15.125 18.4906 14.956 17.988 14.956C17.4853 14.956 17.065 15.125 16.727 15.463C16.3976 15.8097 16.233 16.2387 16.233 16.75C16.233 17.2613 16.3976 17.6903 16.727 18.037ZM27.0067 20.182C25.646 20.182 24.515 19.727 23.6137 18.817C22.721 17.9157 22.2747 16.7933 22.2747 15.45C22.2747 14.098 22.721 12.9757 23.6137 12.083C24.515 11.173 25.646 10.718 27.0067 10.718C27.83 10.718 28.5884 10.913 29.2817 11.303C29.9837 11.6843 30.5297 12.2043 30.9197 12.863L29.3727 13.76C29.1474 13.3527 28.8267 13.0363 28.4107 12.811C27.9947 12.577 27.5267 12.46 27.0067 12.46C26.1227 12.46 25.4077 12.7373 24.8617 13.292C24.3244 13.8553 24.0557 14.5747 24.0557 15.45C24.0557 16.3167 24.3244 17.0317 24.8617 17.595C25.4077 18.1497 26.1227 18.427 27.0067 18.427C27.5267 18.427 27.9947 18.3143 28.4107 18.089C28.8354 17.855 29.156 17.5387 29.3727 17.14L30.9197 18.037C30.5297 18.6957 29.9837 19.22 29.2817 19.61C28.5884 19.9913 27.83 20.182 27.0067 20.182Z" fill="black"/>
</svg>
