<svg width="256" height="371" viewBox="0 0 256 371" fill="none" xmlns="http://www.w3.org/2000/svg">
<path d="M0 36C0 19.0294 0 10.5442 5.27208 5.27208C10.5442 0 19.0294 0 36 0H46.7731C55.443 0 59.7779 0 63.8835 1.19458C67.989 2.38915 71.6473 4.71489 78.9637 9.36635L81.845 11.1981C89.1614 15.8496 92.8196 18.1753 96.9252 19.3699C101.031 20.5645 105.366 20.5645 114.036 20.5645H142.427C151.096 20.5645 155.431 20.5645 159.537 19.3699C163.642 18.1753 167.301 15.8496 174.617 11.1981L177.498 9.36635C184.815 4.71489 188.473 2.38915 192.579 1.19458C196.684 0 201.019 0 209.689 0H220C236.971 0 245.456 0 250.728 5.27208C256 10.5442 256 19.0294 256 36V335C256 351.971 256 360.456 250.728 365.728C245.456 371 236.971 371 220 371H36C19.0294 371 10.5442 371 5.27208 365.728C0 360.456 0 351.971 0 335V36Z" fill="#CAEAFF"/>
<path d="M0.5 36C0.5 27.5006 0.501062 21.1763 1.15455 16.3157C1.80611 11.4695 3.09798 8.15329 5.62563 5.62563C8.15329 3.09798 11.4695 1.80611 16.3157 1.15455C21.1763 0.501062 27.5006 0.5 36 0.5H46.7731C55.4709 0.5 59.7224 0.504573 63.7438 1.67467C67.7652 2.84476 71.3554 5.12184 78.6954 9.7883L81.5767 11.6201L81.6581 11.6718C88.8973 16.2742 92.6114 18.6355 96.7855 19.85C100.96 21.0645 105.361 21.0645 113.939 21.0645H114.036H142.427H142.523C151.101 21.0645 155.503 21.0645 159.677 19.85C163.851 18.6355 167.565 16.2743 174.804 11.6719L174.885 11.6201L177.767 9.7883C185.107 5.12183 188.697 2.84476 192.718 1.67467C196.74 0.504573 200.991 0.5 209.689 0.5H220C228.499 0.5 234.824 0.501062 239.684 1.15455C244.53 1.80611 247.847 3.09798 250.374 5.62563C252.902 8.15329 254.194 11.4695 254.845 16.3157C255.499 21.1763 255.5 27.5006 255.5 36V335C255.5 343.499 255.499 349.824 254.845 354.684C254.194 359.53 252.902 362.847 250.374 365.374C247.847 367.902 244.53 369.194 239.684 369.845C234.824 370.499 228.499 370.5 220 370.5H36C27.5006 370.5 21.1763 370.499 16.3157 369.845C11.4695 369.194 8.15329 367.902 5.62563 365.374C3.09798 362.847 1.80611 359.53 1.15455 354.684C0.501062 349.824 0.5 343.499 0.5 335V36Z" stroke="black" stroke-opacity="0.08"/>
</svg>
