<svg width="256" height="370" viewBox="0 0 256 370" fill="none" xmlns="http://www.w3.org/2000/svg">
<path d="M0.5 36C0.5 27.5006 0.501062 21.1763 1.15455 16.3157C1.80611 11.4695 3.09798 8.15329 5.62563 5.62563C8.15329 3.09798 11.4695 1.80611 16.3157 1.15455C21.1763 0.501062 27.5006 0.5 36 0.5H46.8129C55.4911 0.5 59.733 0.504553 63.7463 1.66964C67.7597 2.83473 71.3446 5.10232 78.6738 9.74934L81.5994 11.6043L81.6806 11.6558C88.9092 16.239 92.6178 18.5904 96.7835 19.7998C100.949 21.0091 105.34 21.0091 113.9 21.0091H113.996H142.466H142.563C151.122 21.0091 155.513 21.0091 159.679 19.7998C163.844 18.5905 167.553 16.2391 174.781 11.6559L174.863 11.6043L177.788 9.74934C185.117 5.10232 188.702 2.83473 192.716 1.66964C196.729 0.504553 200.971 0.5 209.649 0.5H220C228.499 0.5 234.824 0.501062 239.684 1.15455C244.53 1.80611 247.847 3.09798 250.374 5.62563C252.902 8.15329 254.194 11.4695 254.845 16.3157C255.499 21.1763 255.5 27.5006 255.5 36V334C255.5 342.499 255.499 348.824 254.845 353.684C254.194 358.53 252.902 361.847 250.374 364.374C247.847 366.902 244.53 368.194 239.684 368.845C234.824 369.499 228.499 369.5 220 369.5H36C27.5006 369.5 21.1763 369.499 16.3157 368.845C11.4695 368.194 8.15329 366.902 5.62563 364.374C3.09798 361.847 1.80611 358.53 1.15455 353.684C0.501062 348.824 0.5 342.499 0.5 334V36Z" fill="#FAFAFA" stroke="#ECECEC"/>
</svg>
