<svg width="23" height="24" viewBox="0 0 23 24" fill="none" xmlns="http://www.w3.org/2000/svg">
<g clip-path="url(#clip0_17341_10023)">
<path d="M6.22168 11.8652H5.77246C5.27625 11.8652 4.87402 12.2675 4.87402 12.7637C4.87402 13.2599 5.27625 13.6621 5.77246 13.6621H6.22168C6.71789 13.6621 7.12012 13.2599 7.12012 12.7637C7.12012 12.2675 6.71789 11.8652 6.22168 11.8652Z" fill="black"/>
<path d="M15.0713 8.27148H9.36621C8.87 8.27148 8.46777 8.67371 8.46777 9.16992C8.46777 9.66613 8.87 10.0684 9.36621 10.0684H15.0713C15.5675 10.0684 15.9697 9.66613 15.9697 9.16992C15.9697 8.67371 15.5675 8.27148 15.0713 8.27148Z" fill="black"/>
<path d="M13.7417 21.2H4.90688C3.90702 21.2 3.83333 20.897 3.83333 19.9062V4.09375C3.83333 3.10295 3.90702 2.8 4.90688 2.8H16.0537C17.0535 2.8 17.867 3.10295 17.867 4.09375V9.16992C17.867 9.66613 18.2729 10.0684 18.7736 10.0684C19.2744 10.0684 19.6803 9.66613 19.6803 9.16992V4.09375C19.6803 2.11216 18.0534 0.5 16.0537 0.5H4.90688C2.90717 0.5 1.28027 2.11216 1.28027 4.09375V19.9062C1.28027 21.8878 2.90717 23.5 4.90688 23.5H13.7417C14.2424 23.5 14.6484 23.0978 14.6484 22.6016C14.6484 22.1054 14.2424 21.2 13.7417 21.2Z" fill="black"/>
<path d="M6.22168 15.459H5.77246C5.27625 15.459 4.87402 15.8612 4.87402 16.3574C4.87402 16.8536 5.27625 17.2559 5.77246 17.2559H6.22168C6.71789 17.2559 7.12012 16.8536 7.12012 16.3574C7.12012 15.8612 6.71789 15.459 6.22168 15.459Z" fill="black"/>
<path d="M15.0713 4.67773H9.36621C8.87 4.67773 8.46777 5.07996 8.46777 5.57617C8.46777 6.07238 8.87 6.47461 9.36621 6.47461H15.0713C15.5675 6.47461 15.9697 6.07238 15.9697 5.57617C15.9697 5.07996 15.5675 4.67773 15.0713 4.67773Z" fill="black"/>
<path d="M19.1875 16.6698H18.3643C17.9616 16.6698 17.6341 16.3364 17.6341 15.9266V15.8052C17.6341 15.4029 17.948 15.0996 18.3643 15.0996H19.1428C19.3716 15.0996 19.6082 15.2528 19.6082 15.5091C19.6082 16.0053 20.0105 16.4076 20.5067 16.4076C21.0029 16.4076 21.4051 16.0053 21.4051 15.5091C21.4051 14.4324 20.61 13.5339 19.5624 13.3414V12.7637C19.5624 12.2675 19.1602 11.8652 18.664 11.8652C18.1678 11.8652 17.7655 12.2675 17.7655 12.7637V13.3723C17.3209 13.4772 16.9136 13.6989 16.5832 14.0222C16.1021 14.4929 15.8372 15.1262 15.8372 15.8052V15.9266C15.8372 17.3272 16.9708 18.4667 18.3643 18.4667H19.1875C19.5929 18.4667 19.9227 18.7951 19.9227 19.1987V19.6254C19.9227 20.016 19.6067 20.3105 19.1875 20.3105H17.8496C17.5963 20.3105 17.4053 20.1292 17.4053 19.8888C17.4053 19.3926 17.003 18.9903 16.5068 18.9903C16.0106 18.9903 15.6084 19.3926 15.6084 19.8888C15.6084 20.4905 15.8442 21.0522 16.2725 21.4703C16.6735 21.8618 17.201 22.0852 17.7655 22.1054V22.6016C17.7655 23.0978 18.1678 23.5 18.664 23.5C19.1602 23.5 19.5624 23.0978 19.5624 22.6016V22.0812C20.7983 21.9086 21.7196 20.8921 21.7196 19.6254V19.1987C21.7196 17.8043 20.5837 16.6698 19.1875 16.6698Z" fill="black"/>
<path d="M13.2744 17.2559C13.7706 17.2559 14.1729 16.8536 14.1729 16.3574C14.1729 15.8612 13.7706 15.459 13.2744 15.459H9.36621C8.87 15.459 8.46777 15.8612 8.46777 16.3574C8.46777 16.8536 8.87 17.2559 9.36621 17.2559H13.2744Z" fill="black"/>
<path d="M6.22168 8.27148H5.77246C5.27625 8.27148 4.87402 8.67371 4.87402 9.16992C4.87402 9.66613 5.27625 10.0684 5.77246 10.0684H6.22168C6.71789 10.0684 7.12012 9.66613 7.12012 9.16992C7.12012 8.67371 6.71789 8.27148 6.22168 8.27148Z" fill="black"/>
<path d="M15.9697 12.7637C15.9697 12.2675 15.5675 11.8652 15.0713 11.8652H9.36621C8.87 11.8652 8.46777 12.2675 8.46777 12.7637C8.46777 13.2599 8.87 13.6621 9.36621 13.6621H15.0713C15.5675 13.6621 15.9697 13.2599 15.9697 12.7637Z" fill="black"/>
<path d="M6.22168 4.67773H5.77246C5.27625 4.67773 4.87402 5.07996 4.87402 5.57617C4.87402 6.07238 5.27625 6.47461 5.77246 6.47461H6.22168C6.71789 6.47461 7.12012 6.07238 7.12012 5.57617C7.12012 5.07996 6.71789 4.67773 6.22168 4.67773Z" fill="black"/>
</g>
<defs>
<clipPath id="clip0_17341_10023">
<rect width="23" height="23" fill="white" transform="translate(0 0.5)"/>
</clipPath>
</defs>
</svg>
