<svg width="15" height="15" viewBox="0 0 15 15" fill="none" xmlns="http://www.w3.org/2000/svg">
<g clip-path="url(#clip0_16256_2058)">
<path d="M4.05762 7.41211H3.76465C3.44104 7.41211 3.17871 7.67443 3.17871 7.99805C3.17871 8.32166 3.44104 8.58398 3.76465 8.58398H4.05762C4.38123 8.58398 4.64355 8.32166 4.64355 7.99805C4.64355 7.67443 4.38123 7.41211 4.05762 7.41211Z" fill="#68696D"/>
<path d="M9.8291 5.06836H6.1084C5.78479 5.06836 5.52246 5.33068 5.52246 5.6543C5.52246 5.97791 5.78479 6.24023 6.1084 6.24023H9.8291C10.1527 6.24023 10.415 5.97791 10.415 5.6543C10.415 5.33068 10.1527 5.06836 9.8291 5.06836Z" fill="#68696D"/>
<path d="M8.96198 13.5H3.20014C2.54806 13.5 2.5 13.3024 2.5 12.6562V2.34375C2.5 1.69758 2.54806 1.5 3.20014 1.5H10.4698C11.1219 1.5 11.6524 1.69758 11.6524 2.34375V5.6543C11.6524 5.97791 11.9171 6.24023 12.2437 6.24023C12.5702 6.24023 12.835 5.97791 12.835 5.6543V2.34375C12.835 1.05141 11.7739 0 10.4698 0H3.20014C1.89598 0 0.834961 1.05141 0.834961 2.34375V12.6562C0.834961 13.9486 1.89598 15 3.20014 15H8.96198C9.28855 15 9.55328 14.7377 9.55328 14.4141C9.55328 14.0904 9.28855 13.5 8.96198 13.5Z" fill="#68696D"/>
<path d="M4.05762 9.75586H3.76465C3.44104 9.75586 3.17871 10.0182 3.17871 10.3418C3.17871 10.6654 3.44104 10.9277 3.76465 10.9277H4.05762C4.38123 10.9277 4.64355 10.6654 4.64355 10.3418C4.64355 10.0182 4.38123 9.75586 4.05762 9.75586Z" fill="#68696D"/>
<path d="M9.8291 2.72461H6.1084C5.78479 2.72461 5.52246 2.98693 5.52246 3.31055C5.52246 3.63416 5.78479 3.89648 6.1084 3.89648H9.8291C10.1527 3.89648 10.415 3.63416 10.415 3.31055C10.415 2.98693 10.1527 2.72461 9.8291 2.72461Z" fill="#68696D"/>
<path d="M12.5139 10.5455H11.977C11.7144 10.5455 11.5008 10.3281 11.5008 10.0608V9.98162C11.5008 9.7193 11.7055 9.52148 11.977 9.52148H12.4847C12.6339 9.52148 12.7883 9.62139 12.7883 9.78855C12.7883 10.1122 13.0506 10.3745 13.3742 10.3745C13.6978 10.3745 13.9602 10.1122 13.9602 9.78855C13.9602 9.08634 13.4416 8.50037 12.7584 8.37483V7.99805C12.7584 7.67443 12.4961 7.41211 12.1725 7.41211C11.8488 7.41211 11.5865 7.67443 11.5865 7.99805V8.39496C11.2965 8.4634 11.0309 8.60798 10.8155 8.8188C10.5017 9.1258 10.3289 9.5388 10.3289 9.98162V10.0608C10.3289 10.9743 11.0682 11.7174 11.977 11.7174H12.5139C12.7783 11.7174 12.9934 11.9316 12.9934 12.1948V12.4731C12.9934 12.7278 12.7873 12.9199 12.5139 12.9199H11.6413C11.4761 12.9199 11.3516 12.8017 11.3516 12.6449C11.3516 12.3212 11.0892 12.0589 10.7656 12.0589C10.442 12.0589 10.1797 12.3212 10.1797 12.6449C10.1797 13.0373 10.3335 13.4036 10.6128 13.6763C10.8743 13.9316 11.2184 14.0773 11.5865 14.0905V14.4141C11.5865 14.7377 11.8488 15 12.1725 15C12.4961 15 12.7584 14.7377 12.7584 14.4141V14.0747C13.5644 13.9621 14.1652 13.2992 14.1652 12.4731V12.1948C14.1652 11.2854 13.4245 10.5455 12.5139 10.5455Z" fill="#68696D"/>
<path d="M8.65723 10.9277C8.98084 10.9277 9.24316 10.6654 9.24316 10.3418C9.24316 10.0182 8.98084 9.75586 8.65723 9.75586H6.1084C5.78479 9.75586 5.52246 10.0182 5.52246 10.3418C5.52246 10.6654 5.78479 10.9277 6.1084 10.9277H8.65723Z" fill="#68696D"/>
<path d="M4.05762 5.06836H3.76465C3.44104 5.06836 3.17871 5.33068 3.17871 5.6543C3.17871 5.97791 3.44104 6.24023 3.76465 6.24023H4.05762C4.38123 6.24023 4.64355 5.97791 4.64355 5.6543C4.64355 5.33068 4.38123 5.06836 4.05762 5.06836Z" fill="#68696D"/>
<path d="M10.415 7.99805C10.415 7.67443 10.1527 7.41211 9.8291 7.41211H6.1084C5.78479 7.41211 5.52246 7.67443 5.52246 7.99805C5.52246 8.32166 5.78479 8.58398 6.1084 8.58398H9.8291C10.1527 8.58398 10.415 8.32166 10.415 7.99805Z" fill="#68696D"/>
<path d="M4.05762 2.72461H3.76465C3.44104 2.72461 3.17871 2.98693 3.17871 3.31055C3.17871 3.63416 3.44104 3.89648 3.76465 3.89648H4.05762C4.38123 3.89648 4.64355 3.63416 4.64355 3.31055C4.64355 2.98693 4.38123 2.72461 4.05762 2.72461Z" fill="#68696D"/>
</g>
<defs>
<clipPath id="clip0_16256_2058">
<rect width="15" height="15" fill="white"/>
</clipPath>
</defs>
</svg>
