<svg width="23" height="23" viewBox="0 0 23 23" fill="none" xmlns="http://www.w3.org/2000/svg">
<path d="M6.22168 11.3652H5.77246C5.27625 11.3652 4.87402 11.7675 4.87402 12.2637C4.87402 12.7599 5.27625 13.1621 5.77246 13.1621H6.22168C6.71789 13.1621 7.12012 12.7599 7.12012 12.2637C7.12012 11.7675 6.71789 11.3652 6.22168 11.3652Z" fill="black"/>
<path d="M15.0713 7.77148H9.36621C8.87 7.77148 8.46777 8.17371 8.46777 8.66992C8.46777 9.16613 8.87 9.56836 9.36621 9.56836H15.0713C15.5675 9.56836 15.9697 9.16613 15.9697 8.66992C15.9697 8.17371 15.5675 7.77148 15.0713 7.77148Z" fill="black"/>
<path d="M13.7417 20.7H4.90688C3.90702 20.7 3.83333 20.397 3.83333 19.4062V3.59375C3.83333 2.60295 3.90702 2.3 4.90688 2.3H16.0537C17.0535 2.3 17.867 2.60295 17.867 3.59375V8.66992C17.867 9.16613 18.2729 9.56836 18.7736 9.56836C19.2744 9.56836 19.6803 9.16613 19.6803 8.66992V3.59375C19.6803 1.61216 18.0534 0 16.0537 0H4.90688C2.90717 0 1.28027 1.61216 1.28027 3.59375V19.4062C1.28027 21.3878 2.90717 23 4.90688 23H13.7417C14.2424 23 14.6484 22.5978 14.6484 22.1016C14.6484 21.6054 14.2424 20.7 13.7417 20.7Z" fill="black"/>
<path d="M6.22168 14.959H5.77246C5.27625 14.959 4.87402 15.3612 4.87402 15.8574C4.87402 16.3536 5.27625 16.7559 5.77246 16.7559H6.22168C6.71789 16.7559 7.12012 16.3536 7.12012 15.8574C7.12012 15.3612 6.71789 14.959 6.22168 14.959Z" fill="black"/>
<path d="M15.0713 4.17773H9.36621C8.87 4.17773 8.46777 4.57996 8.46777 5.07617C8.46777 5.57238 8.87 5.97461 9.36621 5.97461H15.0713C15.5675 5.97461 15.9697 5.57238 15.9697 5.07617C15.9697 4.57996 15.5675 4.17773 15.0713 4.17773Z" fill="black"/>
<path d="M19.1875 16.1698H18.3643C17.9616 16.1698 17.6341 15.8364 17.6341 15.4266V15.3052C17.6341 14.9029 17.948 14.5996 18.3643 14.5996H19.1428C19.3716 14.5996 19.6082 14.7528 19.6082 15.0091C19.6082 15.5053 20.0105 15.9076 20.5067 15.9076C21.0029 15.9076 21.4051 15.5053 21.4051 15.0091C21.4051 13.9324 20.61 13.0339 19.5624 12.8414V12.2637C19.5624 11.7675 19.1602 11.3652 18.664 11.3652C18.1678 11.3652 17.7655 11.7675 17.7655 12.2637V12.8723C17.3209 12.9772 16.9136 13.1989 16.5832 13.5222C16.1021 13.9929 15.8372 14.6262 15.8372 15.3052V15.4266C15.8372 16.8272 16.9708 17.9667 18.3643 17.9667H19.1875C19.5929 17.9667 19.9227 18.2951 19.9227 18.6987V19.1254C19.9227 19.516 19.6067 19.8105 19.1875 19.8105H17.8496C17.5963 19.8105 17.4053 19.6292 17.4053 19.3888C17.4053 18.8926 17.003 18.4903 16.5068 18.4903C16.0106 18.4903 15.6084 18.8926 15.6084 19.3888C15.6084 19.9905 15.8442 20.5522 16.2725 20.9703C16.6735 21.3618 17.201 21.5852 17.7655 21.6054V22.1016C17.7655 22.5978 18.1678 23 18.664 23C19.1602 23 19.5624 22.5978 19.5624 22.1016V21.5812C20.7983 21.4086 21.7196 20.3921 21.7196 19.1254V18.6987C21.7196 17.3043 20.5837 16.1698 19.1875 16.1698Z" fill="black"/>
<path d="M13.2744 16.7559C13.7706 16.7559 14.1729 16.3536 14.1729 15.8574C14.1729 15.3612 13.7706 14.959 13.2744 14.959H9.36621C8.87 14.959 8.46777 15.3612 8.46777 15.8574C8.46777 16.3536 8.87 16.7559 9.36621 16.7559H13.2744Z" fill="black"/>
<path d="M6.22168 7.77148H5.77246C5.27625 7.77148 4.87402 8.17371 4.87402 8.66992C4.87402 9.16613 5.27625 9.56836 5.77246 9.56836H6.22168C6.71789 9.56836 7.12012 9.16613 7.12012 8.66992C7.12012 8.17371 6.71789 7.77148 6.22168 7.77148Z" fill="black"/>
<path d="M15.9697 12.2637C15.9697 11.7675 15.5675 11.3652 15.0713 11.3652H9.36621C8.87 11.3652 8.46777 11.7675 8.46777 12.2637C8.46777 12.7599 8.87 13.1621 9.36621 13.1621H15.0713C15.5675 13.1621 15.9697 12.7599 15.9697 12.2637Z" fill="black"/>
<path d="M6.22168 4.17773H5.77246C5.27625 4.17773 4.87402 4.57996 4.87402 5.07617C4.87402 5.57238 5.27625 5.97461 5.77246 5.97461H6.22168C6.71789 5.97461 7.12012 5.57238 7.12012 5.07617C7.12012 4.57996 6.71789 4.17773 6.22168 4.17773Z" fill="black"/>
</svg>
