<svg width="13" height="14" viewBox="0 0 13 14" fill="none" xmlns="http://www.w3.org/2000/svg">
<path fill-rule="evenodd" clip-rule="evenodd" d="M11.7208 5.59091H0.529036C0.269082 5.59091 0.0581055 5.37993 0.0581055 5.11998C0.0581055 4.86002 0.269082 4.64905 0.529036 4.64905H11.7208C11.9808 4.64905 12.1918 4.86002 12.1918 5.11998C12.1918 5.37993 11.9808 5.59091 11.7208 5.59091" fill="#68696D"/>
<path fill-rule="evenodd" clip-rule="evenodd" d="M8.66136 3.0083C8.40141 3.0083 8.19043 2.79732 8.19043 2.53737V0.47093C8.19043 0.210977 8.40141 0 8.66136 0C8.92131 0 9.13229 0.210977 9.13229 0.47093V2.53737C9.13229 2.79732 8.92131 3.0083 8.66136 3.0083" fill="#68696D"/>
<path fill-rule="evenodd" clip-rule="evenodd" d="M3.58861 3.0083C3.32865 3.0083 3.11768 2.79732 3.11768 2.53737V0.47093C3.11768 0.210977 3.32865 0 3.58861 0C3.84856 0 4.05954 0.210977 4.05954 0.47093V2.53737C4.05954 2.79732 3.84856 3.0083 3.58861 3.0083" fill="#68696D"/>
<mask id="mask0_247_713" style="mask-type:alpha" maskUnits="userSpaceOnUse" x="0" y="0" width="13" height="14">
<path fill-rule="evenodd" clip-rule="evenodd" d="M0 0.991455H12.2442V13.4999H0V0.991455Z" fill="white"/>
</mask>
<g mask="url(#mask0_247_713)">
<path fill-rule="evenodd" clip-rule="evenodd" d="M3.46653 1.93321C1.83837 1.93321 0.941718 2.80161 0.941718 4.37828V10.0602C0.941718 11.6714 1.83837 12.558 3.46653 12.558H8.77737C10.4055 12.558 11.3022 11.6877 11.3022 10.1079V4.37828C11.3047 3.60282 11.0962 3.00003 10.6824 2.58561C10.2567 2.15863 9.60055 1.93321 8.78302 1.93321H3.46653ZM8.77751 13.5H3.46667C1.32865 13.5 0 12.182 0 10.0603V4.37839C0 2.28871 1.32865 0.991455 3.46667 0.991455H8.78316C9.85625 0.991455 10.7435 1.31294 11.3494 1.92013C11.9378 2.51099 12.2473 3.36055 12.2442 4.37964V10.108C12.2442 12.2002 10.9155 13.5 8.77751 13.5V13.5Z" fill="#68696D"/>
</g>
</svg>
