<svg width="14" height="16" viewBox="0 0 14 16" fill="none" xmlns="http://www.w3.org/2000/svg">
<path fill-rule="evenodd" clip-rule="evenodd" d="M0 11.7884V5.86719H14V11.8359C14 14.2773 12.4632 15.7784 10.0044 15.7784H3.98793C1.55214 15.7784 0 14.2462 0 11.7884ZM3.85728 9.87505C3.50382 9.89139 3.21183 9.61061 3.19647 9.25361C3.19647 8.89583 3.47308 8.60028 3.82654 8.58394C4.17232 8.58394 4.45662 8.85694 4.4643 9.20617C4.47967 9.56472 4.20305 9.86028 3.85728 9.87505ZM7.01539 9.87505C6.66193 9.89139 6.36994 9.61061 6.35457 9.25361C6.35457 8.89583 6.63119 8.60028 6.98465 8.58394C7.33042 8.58394 7.61473 8.85694 7.62241 9.20617C7.63778 9.56472 7.36116 9.86028 7.01539 9.87505ZM10.1504 12.7373C9.79695 12.7295 9.51264 12.4339 9.51264 12.0762C9.50496 11.7184 9.78926 11.4236 10.1427 11.4158H10.1504C10.5115 11.4158 10.8035 11.7114 10.8035 12.0762C10.8035 12.4417 10.5115 12.7373 10.1504 12.7373ZM6.35457 12.0762C6.36994 12.4339 6.66193 12.7147 7.01539 12.6984C7.36116 12.6836 7.63778 12.3881 7.62241 12.0303C7.61473 11.6803 7.33042 11.4073 6.98465 11.4073C6.63119 11.4236 6.35457 11.7184 6.35457 12.0762ZM3.18878 12.0762C3.20414 12.4339 3.49613 12.7147 3.84959 12.6984C4.19536 12.6836 4.47198 12.3881 4.45661 12.0303C4.44893 11.6803 4.16463 11.4073 3.81885 11.4073C3.46539 11.4236 3.18878 11.7184 3.18878 12.0762ZM9.52028 9.24582C9.52028 8.88804 9.7969 8.60027 10.1504 8.59249C10.4961 8.59249 10.7727 8.87171 10.7881 9.21471C10.7958 9.57249 10.5192 9.86804 10.1734 9.87504C9.81995 9.88282 9.52796 9.6106 9.52028 9.2536V9.24582Z" fill="#130F26"/>
<path opacity="0.4" d="M0.00268555 5.86728C0.0126746 5.41073 0.0510939 4.50461 0.123322 4.21295C0.492148 2.57261 1.74462 1.53039 3.53496 1.38184H10.4658C12.2408 1.53817 13.5086 2.58739 13.8774 4.21295C13.9489 4.49684 13.9873 5.40995 13.9973 5.86728H0.00268555Z" fill="#130F26"/>
<path d="M4.12602 3.79266C4.46411 3.79266 4.71768 3.53677 4.71768 3.19377V0.822323C4.71768 0.479323 4.46411 0.222656 4.12602 0.222656C3.78793 0.222656 3.53436 0.479323 3.53436 0.822323V3.19377C3.53436 3.53677 3.78793 3.79266 4.12602 3.79266Z" fill="#130F26"/>
<path d="M9.87382 3.79266C10.2042 3.79266 10.4655 3.53677 10.4655 3.19377V0.822323C10.4655 0.479323 10.2042 0.222656 9.87382 0.222656C9.53573 0.222656 9.28217 0.479323 9.28217 0.822323V3.19377C9.28217 3.53677 9.53573 3.79266 9.87382 3.79266Z" fill="#130F26"/>
</svg>
