<svg width="13" height="14" viewBox="0 0 13 14" fill="none" xmlns="http://www.w3.org/2000/svg">
<path fill-rule="evenodd" clip-rule="evenodd" d="M11.721 5.59091H0.529158C0.269204 5.59091 0.0582275 5.37993 0.0582275 5.11998C0.0582275 4.86002 0.269204 4.64905 0.529158 4.64905H11.721C11.9809 4.64905 12.1919 4.86002 12.1919 5.11998C12.1919 5.37993 11.9809 5.59091 11.721 5.59091Z" fill="#586CF5"/>
<path fill-rule="evenodd" clip-rule="evenodd" d="M8.66136 3.0083C8.40141 3.0083 8.19043 2.79732 8.19043 2.53737V0.47093C8.19043 0.210977 8.40141 0 8.66136 0C8.92131 0 9.13229 0.210977 9.13229 0.47093V2.53737C9.13229 2.79732 8.92131 3.0083 8.66136 3.0083Z" fill="#586CF5"/>
<path fill-rule="evenodd" clip-rule="evenodd" d="M3.58836 3.0083C3.32841 3.0083 3.11743 2.79732 3.11743 2.53737V0.47093C3.11743 0.210977 3.32841 0 3.58836 0C3.84832 0 4.05929 0.210977 4.05929 0.47093V2.53737C4.05929 2.79732 3.84832 3.0083 3.58836 3.0083Z" fill="#586CF5"/>
<mask id="mask0_1238_1174" style="mask-type:alpha" maskUnits="userSpaceOnUse" x="0" y="0" width="13" height="14">
<path fill-rule="evenodd" clip-rule="evenodd" d="M0 0.991486H12.2442V13.5H0V0.991486Z" fill="white"/>
</mask>
<g mask="url(#mask0_1238_1174)">
<path fill-rule="evenodd" clip-rule="evenodd" d="M3.46653 1.93325C1.83837 1.93325 0.941718 2.80164 0.941718 4.37831V10.0602C0.941718 11.6715 1.83837 12.5581 3.46653 12.5581H8.77737C10.4055 12.5581 11.3022 11.6878 11.3022 10.108V4.37831C11.3047 3.60285 11.0962 3.00006 10.6824 2.58564C10.2567 2.15866 9.60055 1.93325 8.78302 1.93325H3.46653ZM8.77751 13.5H3.46667C1.32865 13.5 0 12.182 0 10.0603V4.37842C0 2.28874 1.32865 0.991486 3.46667 0.991486H8.78316C9.85625 0.991486 10.7435 1.31297 11.3494 1.92016C11.9378 2.51102 12.2473 3.36058 12.2442 4.37967V10.1081C12.2442 12.2003 10.9155 13.5 8.77751 13.5Z" fill="#586CF5"/>
</g>
</svg>
