<svg width="13" height="13" viewBox="0 0 13 13" fill="none" xmlns="http://www.w3.org/2000/svg">
<path d="M6.60355 5.71976L8.30811 4.01521L8.48479 4.19189L6.78024 5.89645L6.42668 6.25L6.78024 6.60355L8.48479 8.30811L8.30811 8.48479L6.60355 6.78024L6.25 6.42668L5.89645 6.78024L4.19189 8.48479L4.01521 8.30811L5.71976 6.60355L6.07332 6.25L5.71976 5.89645L4.01521 4.19189L4.19189 4.01521L5.89645 5.71976L6.25 6.07332L6.60355 5.71976ZM0.5 6.25C0.5 3.08177 3.08177 0.5 6.25 0.5C9.41823 0.5 12 3.08177 12 6.25C12 9.41823 9.41823 12 6.25 12C3.08177 12 0.5 9.41823 0.5 6.25ZM11.75 6.25C11.75 3.20503 9.29497 0.75 6.25 0.75C3.20503 0.75 0.75 3.20503 0.75 6.25C0.75 9.29497 3.20503 11.75 6.25 11.75C9.29497 11.75 11.75 9.29497 11.75 6.25Z" fill="black" stroke="#F35454"/>
</svg>
