<svg width="19" height="15" viewBox="0 0 19 15" fill="none" xmlns="http://www.w3.org/2000/svg">
                        <path d="M18.25 2.25V12.75C18.25 13.2312 18.0788 13.6434 17.7364 13.9864C17.3934 14.3288 16.9813 14.5 16.5 14.5H2.5C2.01875 14.5 1.60692 14.3288 1.2645 13.9864C0.9215 13.6434 0.75 13.2312 0.75 12.75V2.25C0.75 1.76875 0.9215 1.35692 1.2645 1.0145C1.60692 0.6715 2.01875 0.5 2.5 0.5H16.5C16.9813 0.5 17.3934 0.6715 17.7364 1.0145C18.0788 1.35692 18.25 1.76875 18.25 2.25ZM2.5 4H16.5V2.25H2.5V4ZM2.5 7.5V12.75H16.5V7.5H2.5Z" fill="#68696D"></path>
                        </svg>