<svg width="31" height="25" viewBox="0 0 31 25" fill="none" xmlns="http://www.w3.org/2000/svg">
<rect x="6.17236" y="20.9995" width="7.24138" height="4" fill="#68696D"/>
<path d="M9.79297 21.0005C9.79297 13.4005 9.79297 7.50049 9.79297 5.50049M9.79297 5.50049L12.8964 2.00049L15.9999 5.50049H27.8964H9.79297Z" stroke="#68696D" stroke-width="2"/>
<path d="M26.8623 6.50049V12.5005" stroke="#68696D"/>
<path d="M12.8966 1H6.17241V5H8.75862H2.55172M2.55172 5V2H1V5H2.55172ZM26.8621 12.5L24.7931 15H28.4138H28.931L26.8621 12.5Z" stroke="#68696D"/>
<rect x="18.5864" y="20.0005" width="5.17241" height="5" fill="#68696D"/>
<rect x="18.5864" y="20.0005" width="5.17241" height="5" fill="#68696D"/>
<rect x="18.5864" y="20.0005" width="5.17241" height="5" fill="#68696D"/>
<rect x="23.7588" y="17.0005" width="7.24138" height="8" fill="#68696D"/>
</svg>
