<svg width="43" height="32" viewBox="0 0 43 32" fill="none" xmlns="http://www.w3.org/2000/svg">
<path d="M0.851073 6.42624L6.98216 6.5876C10.1144 6.67003 13.0827 8.21422 15.0978 10.8096L22.3412 20.1391C24.3564 22.7347 27.3249 24.2789 30.4574 24.3612L34.4594 24.4663" stroke="#8C8B8B" stroke-width="3"/>
<path d="M34.4199 30.0254V19.3114" stroke="#8C8B8B" stroke-width="2" stroke-linecap="round"/>
<path d="M34.9199 30.0254L41.2806 25.4822C41.839 25.0833 41.839 24.2535 41.2806 23.8547L34.9199 19.3114" stroke="#8C8B8B" stroke-width="2" stroke-linecap="round"/>
<path d="M34.4204 1.42578V11.4258" stroke="#0D76BB" stroke-width="2" stroke-linecap="round"/>
<path d="M34.9204 1.42578L41.1723 5.59373C41.7661 5.98955 41.7661 6.86201 41.1723 7.25783L34.9204 11.4258" stroke="#0D76BB" stroke-width="2" stroke-linecap="round"/>
<path d="M0.851074 24.4263L3.60298 24.4263C6.92259 24.4263 10.0647 22.9272 12.1532 20.3469L20.1187 10.5058C22.2073 7.9255 25.3493 6.42639 28.6689 6.42639L34.4208 6.42639" stroke="#0D76BB" stroke-width="3"/>
</svg>
