<svg width="409" height="85" viewBox="0 0 409 85" fill="none" xmlns="http://www.w3.org/2000/svg">
<g filter="url(#filter0_d_13438_36)">
<rect x="4" width="401" height="77" rx="6" fill="white" shape-rendering="crispEdges"/>
<rect x="5" y="1" width="399" height="75" rx="5" stroke="#17A1FA" stroke-width="2" shape-rendering="crispEdges"/>
<mask id="mask0_13438_36" style="mask-type:alpha" maskUnits="userSpaceOnUse" x="28" y="21" width="35" height="35">
<rect x="28" y="21" width="35" height="35" fill="#D9D9D9"/>
</mask>
<g mask="url(#mask0_13438_36)">
<path d="M37.7708 47.2503L29.5312 39.0107L31.6094 36.9691L39.849 45.2087L37.7708 47.2503ZM46.0104 47.2503L37.7708 39.0107L39.8125 36.9326L46.0104 43.1305L59.4271 29.7139L61.4688 31.792L46.0104 47.2503ZM46.0104 39.0107L43.9323 36.9691L51.151 29.7503L53.2292 31.792L46.0104 39.0107Z" fill="#88898B"/>
</g>
<path d="M129.326 23L128.654 20.984H124.19L123.518 23H121.134L125.054 11.8H127.79L131.726 23H129.326ZM124.894 18.92H127.966L126.43 14.344L124.894 18.92ZM136.307 23.224C135.101 23.224 134.093 22.8187 133.283 22.008C132.483 21.1973 132.083 20.1947 132.083 19C132.083 17.8053 132.483 16.8027 133.283 15.992C134.093 15.1813 135.101 14.776 136.307 14.776C137.085 14.776 137.795 14.9627 138.435 15.336C139.075 15.7093 139.56 16.2107 139.891 16.84L138.115 17.88C137.955 17.5493 137.709 17.288 137.379 17.096C137.059 16.904 136.696 16.808 136.291 16.808C135.672 16.808 135.16 17.016 134.755 17.432C134.349 17.8373 134.147 18.36 134.147 19C134.147 19.6293 134.349 20.152 134.755 20.568C135.16 20.9733 135.672 21.176 136.291 21.176C136.707 21.176 137.075 21.0853 137.395 20.904C137.725 20.712 137.971 20.4507 138.131 20.12L139.923 21.144C139.571 21.7733 139.075 22.28 138.435 22.664C137.795 23.0373 137.085 23.224 136.307 23.224ZM144.697 23.224C143.492 23.224 142.484 22.8187 141.673 22.008C140.873 21.1973 140.473 20.1947 140.473 19C140.473 17.8053 140.873 16.8027 141.673 15.992C142.484 15.1813 143.492 14.776 144.697 14.776C145.476 14.776 146.185 14.9627 146.825 15.336C147.465 15.7093 147.951 16.2107 148.281 16.84L146.505 17.88C146.345 17.5493 146.1 17.288 145.769 17.096C145.449 16.904 145.087 16.808 144.681 16.808C144.063 16.808 143.551 17.016 143.145 17.432C142.74 17.8373 142.537 18.36 142.537 19C142.537 19.6293 142.74 20.152 143.145 20.568C143.551 20.9733 144.063 21.176 144.681 21.176C145.097 21.176 145.465 21.0853 145.785 20.904C146.116 20.712 146.361 20.4507 146.521 20.12L148.313 21.144C147.961 21.7733 147.465 22.28 146.825 22.664C146.185 23.0373 145.476 23.224 144.697 23.224ZM151.024 19.848C151.301 20.8507 152.053 21.352 153.28 21.352C154.069 21.352 154.667 21.0853 155.072 20.552L156.736 21.512C155.947 22.6533 154.784 23.224 153.248 23.224C151.925 23.224 150.864 22.824 150.064 22.024C149.264 21.224 148.864 20.216 148.864 19C148.864 17.7947 149.259 16.792 150.048 15.992C150.837 15.1813 151.851 14.776 153.088 14.776C154.261 14.776 155.227 15.1813 155.984 15.992C156.752 16.8027 157.136 17.8053 157.136 19C157.136 19.2667 157.109 19.5493 157.056 19.848H151.024ZM150.992 18.248H155.072C154.955 17.704 154.709 17.2987 154.336 17.032C153.973 16.7653 153.557 16.632 153.088 16.632C152.533 16.632 152.075 16.776 151.712 17.064C151.349 17.3413 151.109 17.736 150.992 18.248ZM163.233 14.776C164.31 14.776 165.227 15.1867 165.985 16.008C166.753 16.8187 167.137 17.816 167.137 19C167.137 20.184 166.753 21.1867 165.985 22.008C165.227 22.8187 164.31 23.224 163.233 23.224C162.113 23.224 161.249 22.8347 160.641 22.056V26.2H158.577V15H160.641V15.944C161.249 15.1653 162.113 14.776 163.233 14.776ZM161.265 20.632C161.681 21.048 162.209 21.256 162.849 21.256C163.489 21.256 164.017 21.048 164.433 20.632C164.859 20.2053 165.073 19.6613 165.073 19C165.073 18.3387 164.859 17.8 164.433 17.384C164.017 16.9573 163.489 16.744 162.849 16.744C162.209 16.744 161.681 16.9573 161.265 17.384C160.849 17.8 160.641 18.3387 160.641 19C160.641 19.6613 160.849 20.2053 161.265 20.632ZM172.997 16.984H171.189V20.312C171.189 20.5893 171.258 20.792 171.397 20.92C171.535 21.048 171.738 21.1227 172.005 21.144C172.271 21.1547 172.602 21.1493 172.997 21.128V23C171.578 23.16 170.575 23.0267 169.989 22.6C169.413 22.1733 169.125 21.4107 169.125 20.312V16.984H167.733V15H169.125V13.384L171.189 12.76V15H172.997V16.984ZM175.073 24.6H174.161L180.561 10.2H181.473L175.073 24.6ZM187.496 11.8C189.032 11.8 190.312 12.3387 191.336 13.416C192.37 14.4933 192.888 15.8213 192.888 17.4C192.888 18.9787 192.37 20.3067 191.336 21.384C190.312 22.4613 189.032 23 187.496 23H183.048V11.8H187.496ZM187.496 20.888C188.466 20.888 189.256 20.568 189.864 19.928C190.472 19.2773 190.776 18.4347 190.776 17.4C190.776 16.3653 190.472 15.528 189.864 14.888C189.256 14.2373 188.466 13.912 187.496 13.912H185.256V20.888H187.496ZM196.102 19.848C196.379 20.8507 197.131 21.352 198.358 21.352C199.147 21.352 199.745 21.0853 200.15 20.552L201.814 21.512C201.025 22.6533 199.862 23.224 198.326 23.224C197.003 23.224 195.942 22.824 195.142 22.024C194.342 21.224 193.942 20.216 193.942 19C193.942 17.7947 194.337 16.792 195.126 15.992C195.915 15.1813 196.929 14.776 198.166 14.776C199.339 14.776 200.305 15.1813 201.062 15.992C201.83 16.8027 202.214 17.8053 202.214 19C202.214 19.2667 202.187 19.5493 202.134 19.848H196.102ZM196.07 18.248H200.15C200.033 17.704 199.787 17.2987 199.414 17.032C199.051 16.7653 198.635 16.632 198.166 16.632C197.611 16.632 197.153 16.776 196.79 17.064C196.427 17.3413 196.187 17.736 196.07 18.248ZM207.4 23.224C206.195 23.224 205.187 22.8187 204.376 22.008C203.576 21.1973 203.176 20.1947 203.176 19C203.176 17.8053 203.576 16.8027 204.376 15.992C205.187 15.1813 206.195 14.776 207.4 14.776C208.179 14.776 208.888 14.9627 209.528 15.336C210.168 15.7093 210.654 16.2107 210.984 16.84L209.208 17.88C209.048 17.5493 208.803 17.288 208.472 17.096C208.152 16.904 207.79 16.808 207.384 16.808C206.766 16.808 206.254 17.016 205.848 17.432C205.443 17.8373 205.24 18.36 205.24 19C205.24 19.6293 205.443 20.152 205.848 20.568C206.254 20.9733 206.766 21.176 207.384 21.176C207.8 21.176 208.168 21.0853 208.488 20.904C208.819 20.712 209.064 20.4507 209.224 20.12L211.016 21.144C210.664 21.7733 210.168 22.28 209.528 22.664C208.888 23.0373 208.179 23.224 207.4 23.224ZM212.108 23V11.32H214.172V23H212.108ZM217.085 14.04C216.744 14.04 216.445 13.9173 216.189 13.672C215.944 13.416 215.821 13.1173 215.821 12.776C215.821 12.4347 215.944 12.136 216.189 11.88C216.445 11.624 216.744 11.496 217.085 11.496C217.437 11.496 217.736 11.624 217.981 11.88C218.237 12.136 218.365 12.4347 218.365 12.776C218.365 13.1173 218.237 13.416 217.981 13.672C217.736 13.9173 217.437 14.04 217.085 14.04ZM216.061 23V15H218.125V23H216.061ZM224.462 14.776C225.337 14.776 226.057 15.0693 226.622 15.656C227.198 16.2427 227.486 17.0533 227.486 18.088V23H225.422V18.344C225.422 17.8107 225.278 17.4053 224.99 17.128C224.702 16.84 224.318 16.696 223.838 16.696C223.305 16.696 222.878 16.8613 222.558 17.192C222.238 17.5227 222.078 18.0187 222.078 18.68V23H220.014V15H222.078V15.896C222.58 15.1493 223.374 14.776 224.462 14.776ZM230.993 19.848C231.27 20.8507 232.022 21.352 233.249 21.352C234.038 21.352 234.635 21.0853 235.041 20.552L236.705 21.512C235.915 22.6533 234.753 23.224 233.217 23.224C231.894 23.224 230.833 22.824 230.033 22.024C229.233 21.224 228.833 20.216 228.833 19C228.833 17.7947 229.227 16.792 230.017 15.992C230.806 15.1813 231.819 14.776 233.057 14.776C234.23 14.776 235.195 15.1813 235.953 15.992C236.721 16.8027 237.105 17.8053 237.105 19C237.105 19.2667 237.078 19.5493 237.025 19.848H230.993ZM230.961 18.248H235.041C234.923 17.704 234.678 17.2987 234.305 17.032C233.942 16.7653 233.526 16.632 233.057 16.632C232.502 16.632 232.043 16.776 231.681 17.064C231.318 17.3413 231.078 17.736 230.961 18.248ZM247.122 16.984H245.314V20.312C245.314 20.5893 245.383 20.792 245.522 20.92C245.66 21.048 245.863 21.1227 246.13 21.144C246.396 21.1547 246.727 21.1493 247.122 21.128V23C245.703 23.16 244.7 23.0267 244.114 22.6C243.538 22.1733 243.25 21.4107 243.25 20.312V16.984H241.858V15H243.25V13.384L245.314 12.76V15H247.122V16.984ZM250.766 16.376C250.958 15.864 251.272 15.48 251.71 15.224C252.158 14.968 252.654 14.84 253.198 14.84V17.144C252.568 17.0693 252.003 17.1973 251.502 17.528C251.011 17.8587 250.766 18.408 250.766 19.176V23H248.702V15H250.766V16.376ZM259.685 15H261.749V23H259.685V22.104C259.184 22.8507 258.389 23.224 257.301 23.224C256.426 23.224 255.701 22.9307 255.125 22.344C254.56 21.7573 254.277 20.9467 254.277 19.912V15H256.341V19.656C256.341 20.1893 256.485 20.6 256.773 20.888C257.061 21.1653 257.445 21.304 257.925 21.304C258.458 21.304 258.885 21.1387 259.205 20.808C259.525 20.4773 259.685 19.9813 259.685 19.32V15ZM267.447 23.224C266.242 23.224 265.234 22.8187 264.423 22.008C263.623 21.1973 263.223 20.1947 263.223 19C263.223 17.8053 263.623 16.8027 264.423 15.992C265.234 15.1813 266.242 14.776 267.447 14.776C268.226 14.776 268.935 14.9627 269.575 15.336C270.215 15.7093 270.701 16.2107 271.031 16.84L269.255 17.88C269.095 17.5493 268.85 17.288 268.519 17.096C268.199 16.904 267.837 16.808 267.431 16.808C266.813 16.808 266.301 17.016 265.895 17.432C265.49 17.8373 265.287 18.36 265.287 19C265.287 19.6293 265.49 20.152 265.895 20.568C266.301 20.9733 266.813 21.176 267.431 21.176C267.847 21.176 268.215 21.0853 268.535 20.904C268.866 20.712 269.111 20.4507 269.271 20.12L271.063 21.144C270.711 21.7733 270.215 22.28 269.575 22.664C268.935 23.0373 268.226 23.224 267.447 23.224ZM279.531 23H277.131L274.219 19.368V23H272.155V11.8H274.219V18.52L276.971 15H279.435L276.219 18.952L279.531 23ZM286.625 16.376C286.817 15.864 287.132 15.48 287.569 15.224C288.017 14.968 288.513 14.84 289.057 14.84V17.144C288.428 17.0693 287.863 17.1973 287.361 17.528C286.871 17.8587 286.625 18.408 286.625 19.176V23H284.561V15H286.625V16.376ZM291.711 19.848C291.989 20.8507 292.741 21.352 293.967 21.352C294.757 21.352 295.354 21.0853 295.759 20.552L297.423 21.512C296.634 22.6533 295.471 23.224 293.935 23.224C292.613 23.224 291.551 22.824 290.751 22.024C289.951 21.224 289.551 20.216 289.551 19C289.551 17.7947 289.946 16.792 290.735 15.992C291.525 15.1813 292.538 14.776 293.775 14.776C294.949 14.776 295.914 15.1813 296.671 15.992C297.439 16.8027 297.823 17.8053 297.823 19C297.823 19.2667 297.797 19.5493 297.743 19.848H291.711ZM291.679 18.248H295.759C295.642 17.704 295.397 17.2987 295.023 17.032C294.661 16.7653 294.245 16.632 293.775 16.632C293.221 16.632 292.762 16.776 292.399 17.064C292.037 17.3413 291.797 17.736 291.679 18.248ZM305.266 15H307.33V26.2H305.266V22.056C304.658 22.8347 303.794 23.224 302.674 23.224C301.596 23.224 300.674 22.8187 299.906 22.008C299.148 21.1867 298.77 20.184 298.77 19C298.77 17.816 299.148 16.8187 299.906 16.008C300.674 15.1867 301.596 14.776 302.674 14.776C303.794 14.776 304.658 15.1653 305.266 15.944V15ZM301.458 20.632C301.884 21.048 302.418 21.256 303.058 21.256C303.698 21.256 304.226 21.048 304.642 20.632C305.058 20.2053 305.266 19.6613 305.266 19C305.266 18.3387 305.058 17.8 304.642 17.384C304.226 16.9573 303.698 16.744 303.058 16.744C302.418 16.744 301.884 16.9573 301.458 17.384C301.042 17.8 300.834 18.3387 300.834 19C300.834 19.6613 301.042 20.2053 301.458 20.632ZM314.497 15H316.561V23H314.497V22.104C313.996 22.8507 313.201 23.224 312.113 23.224C311.239 23.224 310.513 22.9307 309.937 22.344C309.372 21.7573 309.089 20.9467 309.089 19.912V15H311.153V19.656C311.153 20.1893 311.297 20.6 311.585 20.888C311.873 21.1653 312.257 21.304 312.737 21.304C313.271 21.304 313.697 21.1387 314.017 20.808C314.337 20.4773 314.497 19.9813 314.497 19.32V15ZM320.196 19.848C320.473 20.8507 321.225 21.352 322.452 21.352C323.241 21.352 323.838 21.0853 324.244 20.552L325.908 21.512C325.118 22.6533 323.956 23.224 322.42 23.224C321.097 23.224 320.036 22.824 319.236 22.024C318.436 21.224 318.036 20.216 318.036 19C318.036 17.7947 318.43 16.792 319.22 15.992C320.009 15.1813 321.022 14.776 322.26 14.776C323.433 14.776 324.398 15.1813 325.156 15.992C325.924 16.8027 326.308 17.8053 326.308 19C326.308 19.2667 326.281 19.5493 326.228 19.848H320.196ZM320.164 18.248H324.244C324.126 17.704 323.881 17.2987 323.508 17.032C323.145 16.7653 322.729 16.632 322.26 16.632C321.705 16.632 321.246 16.776 320.884 17.064C320.521 17.3413 320.281 17.736 320.164 18.248ZM329.34 17.272C329.34 17.4853 329.479 17.6613 329.756 17.8C330.044 17.928 330.391 18.0453 330.796 18.152C331.202 18.248 331.607 18.376 332.012 18.536C332.418 18.6853 332.759 18.9413 333.036 19.304C333.324 19.6667 333.468 20.12 333.468 20.664C333.468 21.4853 333.159 22.12 332.54 22.568C331.932 23.0053 331.17 23.224 330.252 23.224C328.61 23.224 327.49 22.5893 326.892 21.32L328.684 20.312C328.919 21.0053 329.442 21.352 330.252 21.352C330.988 21.352 331.356 21.1227 331.356 20.664C331.356 20.4507 331.212 20.28 330.924 20.152C330.647 20.0133 330.306 19.8907 329.9 19.784C329.495 19.6773 329.09 19.544 328.684 19.384C328.279 19.224 327.932 18.9733 327.644 18.632C327.367 18.28 327.228 17.8427 327.228 17.32C327.228 16.5307 327.516 15.912 328.092 15.464C328.679 15.0053 329.404 14.776 330.268 14.776C330.919 14.776 331.511 14.9253 332.044 15.224C332.578 15.512 332.999 15.928 333.308 16.472L331.548 17.432C331.292 16.888 330.866 16.616 330.268 16.616C330.002 16.616 329.778 16.6747 329.596 16.792C329.426 16.9093 329.34 17.0693 329.34 17.272ZM339.137 16.984H337.329V20.312C337.329 20.5893 337.399 20.792 337.537 20.92C337.676 21.048 337.879 21.1227 338.145 21.144C338.412 21.1547 338.743 21.1493 339.137 21.128V23C337.719 23.16 336.716 23.0267 336.129 22.6C335.553 22.1733 335.265 21.4107 335.265 20.312V16.984H333.873V15H335.265V13.384L337.329 12.76V15H339.137V16.984ZM342.325 17.272C342.325 17.4853 342.463 17.6613 342.741 17.8C343.029 17.928 343.375 18.0453 343.781 18.152C344.186 18.248 344.591 18.376 344.997 18.536C345.402 18.6853 345.743 18.9413 346.021 19.304C346.309 19.6667 346.453 20.12 346.453 20.664C346.453 21.4853 346.143 22.12 345.525 22.568C344.917 23.0053 344.154 23.224 343.237 23.224C341.594 23.224 340.474 22.5893 339.877 21.32L341.669 20.312C341.903 21.0053 342.426 21.352 343.237 21.352C343.973 21.352 344.341 21.1227 344.341 20.664C344.341 20.4507 344.197 20.28 343.909 20.152C343.631 20.0133 343.29 19.8907 342.885 19.784C342.479 19.6773 342.074 19.544 341.669 19.384C341.263 19.224 340.917 18.9733 340.629 18.632C340.351 18.28 340.213 17.8427 340.213 17.32C340.213 16.5307 340.501 15.912 341.077 15.464C341.663 15.0053 342.389 14.776 343.253 14.776C343.903 14.776 344.495 14.9253 345.029 15.224C345.562 15.512 345.983 15.928 346.293 16.472L344.533 17.432C344.277 16.888 343.85 16.616 343.253 16.616C342.986 16.616 342.762 16.6747 342.581 16.792C342.41 16.9093 342.325 17.0693 342.325 17.272Z" fill="black"/>
<path d="M93.7144 47.864H91.8424V58.936H93.7144V60.6H90.1144V46.2H93.7144V47.864ZM99.3753 52.376C100.186 52.568 100.842 52.9467 101.343 53.512C101.855 54.0667 102.111 54.7653 102.111 55.608C102.111 56.728 101.733 57.608 100.975 58.248C100.218 58.888 99.2899 59.208 98.1913 59.208C97.3379 59.208 96.5699 59.0107 95.8873 58.616C95.2153 58.2213 94.7299 57.6453 94.4313 56.888L95.9993 55.976C96.3299 56.936 97.0606 57.416 98.1913 57.416C98.8313 57.416 99.3379 57.256 99.7113 56.936C100.085 56.6053 100.271 56.1627 100.271 55.608C100.271 55.0533 100.085 54.616 99.7113 54.296C99.3379 53.976 98.8313 53.816 98.1913 53.816H97.7753L97.0393 52.712L99.4553 49.528H94.7673V47.8H101.647V49.368L99.3753 52.376ZM106.592 46.2V60.6H102.992V58.936H104.864V47.864H102.992V46.2H106.592ZM116.669 49.256C115.41 49.1387 114.781 49.6667 114.781 50.84V51H116.669V52.664H114.781V59H113.053V52.664H111.837V51H113.053V50.84C113.053 49.7413 113.357 48.9093 113.965 48.344C114.583 47.768 115.485 47.5173 116.669 47.592V49.256ZM121.081 59.208C119.908 59.208 118.91 58.8027 118.089 57.992C117.268 57.1813 116.857 56.184 116.857 55C116.857 53.816 117.268 52.8187 118.089 52.008C118.91 51.1973 119.908 50.792 121.081 50.792C122.265 50.792 123.262 51.1973 124.073 52.008C124.894 52.8187 125.305 53.816 125.305 55C125.305 56.184 124.894 57.1813 124.073 57.992C123.262 58.8027 122.265 59.208 121.081 59.208ZM119.305 56.808C119.785 57.288 120.377 57.528 121.081 57.528C121.785 57.528 122.377 57.288 122.857 56.808C123.337 56.328 123.577 55.7253 123.577 55C123.577 54.2747 123.337 53.672 122.857 53.192C122.377 52.712 121.785 52.472 121.081 52.472C120.377 52.472 119.785 52.712 119.305 53.192C118.825 53.672 118.585 54.2747 118.585 55C118.585 55.7253 118.825 56.328 119.305 56.808ZM128.595 52.344C129.033 51.352 129.854 50.856 131.059 50.856V52.728C130.398 52.6853 129.822 52.8453 129.331 53.208C128.841 53.56 128.595 54.1467 128.595 54.968V59H126.867V51H128.595V52.344ZM140.72 60.728C138.587 60.888 137.52 59.9333 137.52 57.864V55.4C137.52 54.8987 137.408 54.5733 137.184 54.424C136.96 54.264 136.608 54.1947 136.128 54.216V52.536C136.608 52.5573 136.96 52.4933 137.184 52.344C137.408 52.184 137.52 51.8533 137.52 51.352V48.888C137.52 46.8293 138.587 45.88 140.72 46.04V47.704C140.208 47.64 139.835 47.6933 139.6 47.864C139.365 48.0347 139.248 48.376 139.248 48.888V51.352C139.248 52.376 138.901 53.048 138.208 53.368C138.901 53.7093 139.248 54.3867 139.248 55.4V57.864C139.248 58.376 139.365 58.7173 139.6 58.888C139.835 59.0587 140.208 59.1173 140.72 59.064V60.728ZM146.439 60.728C144.306 60.888 143.239 59.9333 143.239 57.864V55.4C143.239 54.8987 143.127 54.5733 142.903 54.424C142.679 54.264 142.327 54.1947 141.847 54.216V52.536C142.327 52.5573 142.679 52.4933 142.903 52.344C143.127 52.184 143.239 51.8533 143.239 51.352V48.888C143.239 46.8293 144.306 45.88 146.439 46.04V47.704C145.927 47.64 145.554 47.6933 145.319 47.864C145.084 48.0347 144.967 48.376 144.967 48.888V51.352C144.967 52.376 144.62 53.048 143.927 53.368C144.62 53.7093 144.967 54.3867 144.967 55.4V57.864C144.967 58.376 145.084 58.7173 145.319 58.888C145.554 59.0587 145.927 59.1173 146.439 59.064V60.728ZM154.526 47.8H156.366V59H154.526V54.152H149.726V59H147.886V47.8H149.726V52.392H154.526V47.8ZM162.268 59.208C161.095 59.208 160.098 58.8027 159.276 57.992C158.455 57.1813 158.044 56.184 158.044 55C158.044 53.816 158.455 52.8187 159.276 52.008C160.098 51.1973 161.095 50.792 162.268 50.792C163.452 50.792 164.45 51.1973 165.26 52.008C166.082 52.8187 166.492 53.816 166.492 55C166.492 56.184 166.082 57.1813 165.26 57.992C164.45 58.8027 163.452 59.208 162.268 59.208ZM160.492 56.808C160.972 57.288 161.564 57.528 162.268 57.528C162.972 57.528 163.564 57.288 164.044 56.808C164.524 56.328 164.764 55.7253 164.764 55C164.764 54.2747 164.524 53.672 164.044 53.192C163.564 52.712 162.972 52.472 162.268 52.472C161.564 52.472 160.972 52.712 160.492 53.192C160.012 53.672 159.772 54.2747 159.772 55C159.772 55.7253 160.012 56.328 160.492 56.808ZM169.451 53.208C169.451 53.4747 169.595 53.688 169.883 53.848C170.181 53.9973 170.539 54.1307 170.955 54.248C171.381 54.3547 171.808 54.4827 172.235 54.632C172.661 54.7813 173.019 55.0373 173.307 55.4C173.605 55.752 173.755 56.2 173.755 56.744C173.755 57.512 173.456 58.1147 172.859 58.552C172.272 58.9893 171.531 59.208 170.635 59.208C169.845 59.208 169.168 59.0427 168.603 58.712C168.037 58.3813 167.627 57.9227 167.371 57.336L168.859 56.472C169.136 57.24 169.728 57.624 170.635 57.624C171.541 57.624 171.995 57.3253 171.995 56.728C171.995 56.472 171.845 56.264 171.547 56.104C171.259 55.944 170.901 55.8107 170.475 55.704C170.059 55.5867 169.637 55.4533 169.211 55.304C168.784 55.1547 168.421 54.9093 168.123 54.568C167.835 54.216 167.691 53.7733 167.691 53.24C167.691 52.504 167.968 51.912 168.523 51.464C169.088 51.016 169.787 50.792 170.619 50.792C171.28 50.792 171.867 50.9413 172.379 51.24C172.901 51.528 173.301 51.9333 173.579 52.456L172.123 53.272C171.845 52.664 171.344 52.36 170.619 52.36C170.288 52.36 170.011 52.4347 169.787 52.584C169.563 52.7227 169.451 52.9307 169.451 53.208ZM179.802 50.792C180.9 50.792 181.839 51.2027 182.618 52.024C183.396 52.8347 183.786 53.8267 183.786 55C183.786 56.184 183.396 57.1813 182.618 57.992C181.839 58.8027 180.9 59.208 179.802 59.208C178.586 59.208 177.652 58.76 177.002 57.864V62.2H175.274V51H177.002V52.152C177.652 51.2453 178.586 50.792 179.802 50.792ZM177.722 56.84C178.202 57.32 178.804 57.56 179.53 57.56C180.255 57.56 180.858 57.32 181.338 56.84C181.818 56.3493 182.058 55.736 182.058 55C182.058 54.264 181.818 53.656 181.338 53.176C180.858 52.6853 180.255 52.44 179.53 52.44C178.804 52.44 178.202 52.6853 177.722 53.176C177.242 53.656 177.002 54.264 177.002 55C177.002 55.736 177.242 56.3493 177.722 56.84ZM186.984 49.48C186.77 49.6933 186.514 49.8 186.216 49.8C185.917 49.8 185.656 49.6933 185.432 49.48C185.218 49.256 185.112 48.9947 185.112 48.696C185.112 48.3973 185.218 48.1413 185.432 47.928C185.645 47.704 185.906 47.592 186.216 47.592C186.525 47.592 186.786 47.704 187 47.928C187.213 48.1413 187.32 48.3973 187.32 48.696C187.32 48.9947 187.208 49.256 186.984 49.48ZM185.352 59V51H187.08V59H185.352ZM193.55 52.664H191.566V56.504C191.566 56.8347 191.641 57.0747 191.79 57.224C191.939 57.3627 192.158 57.4427 192.446 57.464C192.745 57.4747 193.113 57.4693 193.55 57.448V59C192.227 59.16 191.278 59.048 190.702 58.664C190.126 58.2693 189.838 57.5493 189.838 56.504V52.664H188.366V51H189.838V49.272L191.566 48.76V51H193.55V52.664ZM201.125 51H202.853V59H201.125V57.848C200.475 58.7547 199.541 59.208 198.325 59.208C197.227 59.208 196.288 58.8027 195.509 57.992C194.731 57.1707 194.341 56.1733 194.341 55C194.341 53.816 194.731 52.8187 195.509 52.008C196.288 51.1973 197.227 50.792 198.325 50.792C199.541 50.792 200.475 51.24 201.125 52.136V51ZM196.789 56.84C197.269 57.32 197.872 57.56 198.597 57.56C199.323 57.56 199.925 57.32 200.405 56.84C200.885 56.3493 201.125 55.736 201.125 55C201.125 54.264 200.885 53.656 200.405 53.176C199.925 52.6853 199.323 52.44 198.597 52.44C197.872 52.44 197.269 52.6853 196.789 53.176C196.309 53.656 196.069 54.264 196.069 55C196.069 55.736 196.309 56.3493 196.789 56.84ZM204.867 59V47.32H206.595V59H204.867ZM218.01 59.208C216.324 59.208 214.927 58.6533 213.818 57.544C212.708 56.424 212.154 55.0427 212.154 53.4C212.154 51.7573 212.708 50.3813 213.818 49.272C214.927 48.152 216.324 47.592 218.01 47.592C219.023 47.592 219.956 47.832 220.81 48.312C221.674 48.792 222.346 49.4427 222.826 50.264L221.226 51.192C220.927 50.6373 220.49 50.2 219.914 49.88C219.348 49.5493 218.714 49.384 218.01 49.384C216.815 49.384 215.844 49.7627 215.098 50.52C214.362 51.2773 213.994 52.2373 213.994 53.4C213.994 54.5627 214.362 55.5227 215.098 56.28C215.844 57.0373 216.815 57.416 218.01 57.416C218.714 57.416 219.354 57.256 219.93 56.936C220.506 56.6053 220.938 56.1627 221.226 55.608L222.826 56.52C222.356 57.3413 221.69 57.9973 220.826 58.488C219.972 58.968 219.034 59.208 218.01 59.208ZM228.003 59.208C226.829 59.208 225.832 58.8027 225.011 57.992C224.189 57.1813 223.779 56.184 223.779 55C223.779 53.816 224.189 52.8187 225.011 52.008C225.832 51.1973 226.829 50.792 228.003 50.792C229.187 50.792 230.184 51.1973 230.995 52.008C231.816 52.8187 232.227 53.816 232.227 55C232.227 56.184 231.816 57.1813 230.995 57.992C230.184 58.8027 229.187 59.208 228.003 59.208ZM226.227 56.808C226.707 57.288 227.299 57.528 228.003 57.528C228.707 57.528 229.299 57.288 229.779 56.808C230.259 56.328 230.499 55.7253 230.499 55C230.499 54.2747 230.259 53.672 229.779 53.192C229.299 52.712 228.707 52.472 228.003 52.472C227.299 52.472 226.707 52.712 226.227 53.192C225.747 53.672 225.507 54.2747 225.507 55C225.507 55.7253 225.747 56.328 226.227 56.808ZM237.997 50.792C238.915 50.792 239.656 51.0853 240.221 51.672C240.787 52.2587 241.069 53.064 241.069 54.088V59H239.341V54.264C239.341 53.6667 239.181 53.208 238.861 52.888C238.541 52.568 238.104 52.408 237.549 52.408C236.941 52.408 236.451 52.6 236.077 52.984C235.704 53.3573 235.517 53.9333 235.517 54.712V59H233.789V51H235.517V52.024C236.04 51.2027 236.867 50.792 237.997 50.792ZM244.482 53.208C244.482 53.4747 244.626 53.688 244.914 53.848C245.213 53.9973 245.57 54.1307 245.986 54.248C246.413 54.3547 246.839 54.4827 247.266 54.632C247.693 54.7813 248.05 55.0373 248.338 55.4C248.637 55.752 248.786 56.2 248.786 56.744C248.786 57.512 248.487 58.1147 247.89 58.552C247.303 58.9893 246.562 59.208 245.666 59.208C244.877 59.208 244.199 59.0427 243.634 58.712C243.069 58.3813 242.658 57.9227 242.402 57.336L243.89 56.472C244.167 57.24 244.759 57.624 245.666 57.624C246.573 57.624 247.026 57.3253 247.026 56.728C247.026 56.472 246.877 56.264 246.578 56.104C246.29 55.944 245.933 55.8107 245.506 55.704C245.09 55.5867 244.669 55.4533 244.242 55.304C243.815 55.1547 243.453 54.9093 243.154 54.568C242.866 54.216 242.722 53.7733 242.722 53.24C242.722 52.504 242.999 51.912 243.554 51.464C244.119 51.016 244.818 50.792 245.65 50.792C246.311 50.792 246.898 50.9413 247.41 51.24C247.933 51.528 248.333 51.9333 248.61 52.456L247.154 53.272C246.877 52.664 246.375 52.36 245.65 52.36C245.319 52.36 245.042 52.4347 244.818 52.584C244.594 52.7227 244.482 52.9307 244.482 53.208ZM254.456 52.664H252.472V56.504C252.472 56.8347 252.547 57.0747 252.696 57.224C252.846 57.3627 253.064 57.4427 253.352 57.464C253.651 57.4747 254.019 57.4693 254.456 57.448V59C253.134 59.16 252.184 59.048 251.608 58.664C251.032 58.2693 250.744 57.5493 250.744 56.504V52.664H249.272V51H250.744V49.272L252.472 48.76V51H254.456V52.664ZM257.83 52.344C258.267 51.352 259.088 50.856 260.294 50.856V52.728C259.632 52.6853 259.056 52.8453 258.566 53.208C258.075 53.56 257.83 54.1467 257.83 54.968V59H256.102V51H257.83V52.344ZM266.963 51H268.691V59H266.963V57.976C266.44 58.7973 265.613 59.208 264.483 59.208C263.565 59.208 262.824 58.9147 262.259 58.328C261.693 57.7413 261.411 56.936 261.411 55.912V51H263.139V55.736C263.139 56.3333 263.299 56.792 263.619 57.112C263.939 57.432 264.376 57.592 264.931 57.592C265.539 57.592 266.029 57.4053 266.403 57.032C266.776 56.648 266.963 56.0667 266.963 55.288V51ZM274.487 59.208C273.282 59.208 272.274 58.8027 271.463 57.992C270.663 57.1813 270.263 56.184 270.263 55C270.263 53.8053 270.663 52.808 271.463 52.008C272.274 51.1973 273.282 50.792 274.487 50.792C275.266 50.792 275.975 50.9787 276.615 51.352C277.255 51.7253 277.735 52.2267 278.055 52.856L276.567 53.72C276.386 53.336 276.108 53.0373 275.735 52.824C275.372 52.6 274.951 52.488 274.471 52.488C273.767 52.488 273.175 52.728 272.695 53.208C272.226 53.688 271.991 54.2853 271.991 55C271.991 55.7147 272.226 56.312 272.695 56.792C273.175 57.272 273.767 57.512 274.471 57.512C274.94 57.512 275.362 57.4 275.735 57.176C276.119 56.952 276.407 56.6533 276.599 56.28L278.087 57.128C277.746 57.768 277.255 58.2747 276.615 58.648C275.975 59.0213 275.266 59.208 274.487 59.208ZM283.8 52.664H281.816V56.504C281.816 56.8347 281.891 57.0747 282.04 57.224C282.189 57.3627 282.408 57.4427 282.696 57.464C282.995 57.4747 283.363 57.4693 283.8 57.448V59C282.477 59.16 281.528 59.048 280.952 58.664C280.376 58.2693 280.088 57.5493 280.088 56.504V52.664H278.616V51H280.088V49.272L281.816 48.76V51H283.8V52.664ZM286.999 49.48C286.786 49.6933 286.53 49.8 286.231 49.8C285.933 49.8 285.671 49.6933 285.447 49.48C285.234 49.256 285.127 48.9947 285.127 48.696C285.127 48.3973 285.234 48.1413 285.447 47.928C285.661 47.704 285.922 47.592 286.231 47.592C286.541 47.592 286.802 47.704 287.015 47.928C287.229 48.1413 287.335 48.3973 287.335 48.696C287.335 48.9947 287.223 49.256 286.999 49.48ZM285.367 59V51H287.095V59H285.367ZM292.878 59.208C291.704 59.208 290.707 58.8027 289.886 57.992C289.064 57.1813 288.654 56.184 288.654 55C288.654 53.816 289.064 52.8187 289.886 52.008C290.707 51.1973 291.704 50.792 292.878 50.792C294.062 50.792 295.059 51.1973 295.87 52.008C296.691 52.8187 297.102 53.816 297.102 55C297.102 56.184 296.691 57.1813 295.87 57.992C295.059 58.8027 294.062 59.208 292.878 59.208ZM291.102 56.808C291.582 57.288 292.174 57.528 292.878 57.528C293.582 57.528 294.174 57.288 294.654 56.808C295.134 56.328 295.374 55.7253 295.374 55C295.374 54.2747 295.134 53.672 294.654 53.192C294.174 52.712 293.582 52.472 292.878 52.472C292.174 52.472 291.582 52.712 291.102 53.192C290.622 53.672 290.382 54.2747 290.382 55C290.382 55.7253 290.622 56.328 291.102 56.808ZM302.872 50.792C303.79 50.792 304.531 51.0853 305.096 51.672C305.662 52.2587 305.944 53.064 305.944 54.088V59H304.216V54.264C304.216 53.6667 304.056 53.208 303.736 52.888C303.416 52.568 302.979 52.408 302.424 52.408C301.816 52.408 301.326 52.6 300.952 52.984C300.579 53.3573 300.392 53.9333 300.392 54.712V59H298.664V51H300.392V52.024C300.915 51.2027 301.742 50.792 302.872 50.792ZM311.117 60.728V59.064C311.629 59.1173 312.002 59.0587 312.237 58.888C312.472 58.7173 312.589 58.376 312.589 57.864V55.4C312.589 54.3867 312.936 53.7093 313.629 53.368C312.936 53.048 312.589 52.376 312.589 51.352V48.888C312.589 48.376 312.472 48.0347 312.237 47.864C312.002 47.6933 311.629 47.64 311.117 47.704V46.04C313.25 45.88 314.317 46.8293 314.317 48.888V51.352C314.317 51.8533 314.429 52.184 314.653 52.344C314.877 52.4933 315.229 52.5573 315.709 52.536V54.216C315.229 54.1947 314.877 54.264 314.653 54.424C314.429 54.5733 314.317 54.8987 314.317 55.4V57.864C314.317 59.9333 313.25 60.888 311.117 60.728ZM316.836 60.728V59.064C317.348 59.1173 317.721 59.0587 317.956 58.888C318.19 58.7173 318.308 58.376 318.308 57.864V55.4C318.308 54.3867 318.654 53.7093 319.348 53.368C318.654 53.048 318.308 52.376 318.308 51.352V48.888C318.308 48.376 318.19 48.0347 317.956 47.864C317.721 47.6933 317.348 47.64 316.836 47.704V46.04C318.969 45.88 320.036 46.8293 320.036 48.888V51.352C320.036 51.8533 320.148 52.184 320.372 52.344C320.596 52.4933 320.948 52.5573 321.428 52.536V54.216C320.948 54.1947 320.596 54.264 320.372 54.424C320.148 54.5733 320.036 54.8987 320.036 55.4V57.864C320.036 59.9333 318.969 60.888 316.836 60.728ZM331.77 50.792C332.869 50.792 333.808 51.2027 334.586 52.024C335.365 52.8347 335.754 53.8267 335.754 55C335.754 56.184 335.365 57.1813 334.586 57.992C333.808 58.8027 332.869 59.208 331.77 59.208C330.554 59.208 329.621 58.76 328.97 57.864V62.2H327.242V51H328.97V52.152C329.621 51.2453 330.554 50.792 331.77 50.792ZM329.69 56.84C330.17 57.32 330.773 57.56 331.498 57.56C332.224 57.56 332.826 57.32 333.306 56.84C333.786 56.3493 334.026 55.736 334.026 55C334.026 54.264 333.786 53.656 333.306 53.176C332.826 52.6853 332.224 52.44 331.498 52.44C330.773 52.44 330.17 52.6853 329.69 53.176C329.21 53.656 328.97 54.264 328.97 55C328.97 55.736 329.21 56.3493 329.69 56.84ZM339.049 52.344C339.486 51.352 340.307 50.856 341.513 50.856V52.728C340.851 52.6853 340.275 52.8453 339.785 53.208C339.294 53.56 339.049 54.1467 339.049 54.968V59H337.321V51H339.049V52.344ZM346.19 59.208C345.017 59.208 344.02 58.8027 343.198 57.992C342.377 57.1813 341.966 56.184 341.966 55C341.966 53.816 342.377 52.8187 343.198 52.008C344.02 51.1973 345.017 50.792 346.19 50.792C347.374 50.792 348.372 51.1973 349.182 52.008C350.004 52.8187 350.414 53.816 350.414 55C350.414 56.184 350.004 57.1813 349.182 57.992C348.372 58.8027 347.374 59.208 346.19 59.208ZM344.414 56.808C344.894 57.288 345.486 57.528 346.19 57.528C346.894 57.528 347.486 57.288 347.966 56.808C348.446 56.328 348.686 55.7253 348.686 55C348.686 54.2747 348.446 53.672 347.966 53.192C347.486 52.712 346.894 52.472 346.19 52.472C345.486 52.472 344.894 52.712 344.414 53.192C343.934 53.672 343.694 54.2747 343.694 55C343.694 55.7253 343.934 56.328 344.414 56.808ZM353.663 49.48C353.449 49.6933 353.193 49.8 352.895 49.8C352.596 49.8 352.335 49.6933 352.111 49.48C351.897 49.256 351.791 48.9947 351.791 48.696C351.791 48.3973 351.897 48.1413 352.111 47.928C352.335 47.704 352.596 47.592 352.895 47.592C353.193 47.592 353.449 47.704 353.663 47.928C353.887 48.1413 353.999 48.3973 353.999 48.696C353.999 48.9947 353.887 49.256 353.663 49.48ZM352.031 59.32V51H353.759V59.32C353.759 61.5387 352.665 62.568 350.479 62.408V60.744C351.012 60.7973 351.401 60.712 351.647 60.488C351.903 60.264 352.031 59.8747 352.031 59.32ZM357.134 55.736C357.262 56.344 357.555 56.8133 358.014 57.144C358.472 57.464 359.032 57.624 359.694 57.624C360.611 57.624 361.299 57.2933 361.758 56.632L363.182 57.464C362.392 58.6267 361.224 59.208 359.678 59.208C358.376 59.208 357.326 58.8133 356.526 58.024C355.726 57.224 355.326 56.216 355.326 55C355.326 53.8053 355.72 52.808 356.51 52.008C357.299 51.1973 358.312 50.792 359.55 50.792C360.723 50.792 361.683 51.2027 362.43 52.024C363.187 52.8453 363.566 53.8427 363.566 55.016C363.566 55.1973 363.544 55.4373 363.502 55.736H357.134ZM357.118 54.328H361.822C361.704 53.6773 361.432 53.1867 361.006 52.856C360.59 52.5253 360.099 52.36 359.534 52.36C358.894 52.36 358.36 52.536 357.934 52.888C357.507 53.24 357.235 53.72 357.118 54.328ZM368.815 59.208C367.61 59.208 366.602 58.8027 365.791 57.992C364.991 57.1813 364.591 56.184 364.591 55C364.591 53.8053 364.991 52.808 365.791 52.008C366.602 51.1973 367.61 50.792 368.815 50.792C369.594 50.792 370.303 50.9787 370.943 51.352C371.583 51.7253 372.063 52.2267 372.383 52.856L370.895 53.72C370.714 53.336 370.437 53.0373 370.063 52.824C369.701 52.6 369.279 52.488 368.799 52.488C368.095 52.488 367.503 52.728 367.023 53.208C366.554 53.688 366.319 54.2853 366.319 55C366.319 55.7147 366.554 56.312 367.023 56.792C367.503 57.272 368.095 57.512 368.799 57.512C369.269 57.512 369.69 57.4 370.063 57.176C370.447 56.952 370.735 56.6533 370.927 56.28L372.415 57.128C372.074 57.768 371.583 58.2747 370.943 58.648C370.303 59.0213 369.594 59.208 368.815 59.208ZM378.128 52.664H376.144V56.504C376.144 56.8347 376.219 57.0747 376.368 57.224C376.518 57.3627 376.736 57.4427 377.024 57.464C377.323 57.4747 377.691 57.4693 378.128 57.448V59C376.806 59.16 375.856 59.048 375.28 58.664C374.704 58.2693 374.416 57.5493 374.416 56.504V52.664H372.944V51H374.416V49.272L376.144 48.76V51H378.128V52.664Z" fill="#68696D"/>
</g>
<defs>
<filter id="filter0_d_13438_36" x="0" y="0" width="409" height="85" filterUnits="userSpaceOnUse" color-interpolation-filters="sRGB">
<feFlood flood-opacity="0" result="BackgroundImageFix"/>
<feColorMatrix in="SourceAlpha" type="matrix" values="0 0 0 0 0 0 0 0 0 0 0 0 0 0 0 0 0 0 127 0" result="hardAlpha"/>
<feOffset dy="4"/>
<feGaussianBlur stdDeviation="2"/>
<feComposite in2="hardAlpha" operator="out"/>
<feColorMatrix type="matrix" values="0 0 0 0 0 0 0 0 0 0 0 0 0 0 0 0 0 0 0.25 0"/>
<feBlend mode="normal" in2="BackgroundImageFix" result="effect1_dropShadow_13438_36"/>
<feBlend mode="normal" in="SourceGraphic" in2="effect1_dropShadow_13438_36" result="shape"/>
</filter>
</defs>
</svg>
