<svg width="17" height="17" viewBox="0 0 17 17" fill="none" xmlns="http://www.w3.org/2000/svg">
<path fill-rule="evenodd" clip-rule="evenodd" d="M15.7817 5.17143L15.2568 4.32857C14.8128 3.61539 13.8286 3.36935 13.0569 3.77857V3.77857C12.6895 3.97883 12.2511 4.03565 11.8384 3.93649C11.4257 3.83734 11.0726 3.59035 10.8569 3.25C10.7182 3.03367 10.6436 2.78727 10.6408 2.53571V2.53571C10.6533 2.13241 10.4889 1.74159 10.1849 1.45229C9.88102 1.16299 9.4635 0.999834 9.02747 1H7.96995C7.54279 0.999996 7.13323 1.15751 6.8319 1.43768C6.53057 1.71785 6.36232 2.09759 6.36437 2.49286V2.49286C6.35171 3.30896 5.63311 3.96437 4.75107 3.96429C4.47922 3.96167 4.21294 3.89268 3.97916 3.76429V3.76429C3.20738 3.35507 2.22327 3.6011 1.7792 4.31429L1.21571 5.17143C0.772175 5.88372 1.03444 6.79379 1.80236 7.20714V7.20714C2.30152 7.47382 2.60902 7.96665 2.60902 8.5C2.60902 9.03335 2.30152 9.52619 1.80236 9.79286V9.79286C1.03541 10.2034 0.772864 11.1113 1.21571 11.8214V11.8214L1.74833 12.6714C1.95639 13.0188 2.30549 13.2752 2.71836 13.3838C3.13124 13.4924 3.57386 13.4442 3.94828 13.25V13.25C4.31635 13.0513 4.75497 12.9968 5.16664 13.0988C5.5783 13.2007 5.9289 13.4506 6.14052 13.7929C6.27927 14.0092 6.35383 14.2556 6.35665 14.5071V14.5071C6.35665 15.3316 7.07895 16 7.96995 16H9.02747C9.91547 16 10.6365 15.336 10.6408 14.5143V14.5143C10.6387 14.1178 10.808 13.7369 11.111 13.4566C11.414 13.1762 11.8256 13.0195 12.2541 13.0214C12.5253 13.0281 12.7905 13.0969 13.026 13.2214V13.2214C13.7958 13.6318 14.7792 13.3892 15.2259 12.6786V12.6786L15.7817 11.8214C15.9968 11.4797 16.0559 11.0728 15.9458 10.6907C15.8357 10.3086 15.5655 9.98291 15.1951 9.78571V9.78571C14.8246 9.58852 14.5545 9.26281 14.4444 8.88072C14.3342 8.49863 14.3933 8.09168 14.6084 7.75C14.7483 7.52399 14.9508 7.33659 15.1951 7.20714V7.20714C15.9584 6.79401 16.22 5.88926 15.7817 5.17857V5.17857V5.17143Z" stroke="white" stroke-width="1.5" stroke-linecap="round" stroke-linejoin="round"/>
<ellipse cx="8.50241" cy="8.5005" rx="2.22311" ry="2.05714" stroke="white" stroke-width="1.5" stroke-linecap="round" stroke-linejoin="round"/>
</svg>
