<svg width="22" height="21" viewBox="0 0 22 21" fill="none" xmlns="http://www.w3.org/2000/svg">
<path d="M2.59337 17.5037C2.72747 17.0921 3.11124 16.8135 3.54419 16.8135H8.37573C8.84623 16.8135 9.2531 17.1415 9.35295 17.6012L10.091 20.9994H1.45459L2.59337 17.5037Z" fill="black"/>
<path d="M6.45459 18.6739C6.45459 12.3485 6.45459 7.43797 6.45459 5.77338M6.45459 5.77338L7.83602 3.92898C8.236 3.39496 9.03682 3.39496 9.4368 3.92898L10.5182 5.37286C10.7071 5.62497 11.0036 5.77338 11.3186 5.77338H19.1819H6.45459Z" stroke="black" stroke-width="3"/>
<path d="M19.1816 3.79102L19.1816 10.3025" stroke="black"/>
<path d="M9.13132 1H5.03536C4.75921 1 4.53536 1.22386 4.53536 1.5V3.6893C4.53536 3.96544 4.75921 4.1893 5.03536 4.1893H6.79489H2.06061M2.06061 4.1893V2.29732C2.06061 2.02118 1.83675 1.79732 1.56061 1.79732H1.5C1.22386 1.79732 1 2.02118 1 2.29732V3.6893C1 3.96544 1.22386 4.1893 1.5 4.1893H2.06061ZM20.0909 12.1625H18.1673C18.0128 12.1625 17.9166 11.9947 17.9948 11.8614L18.7505 10.5726C18.9437 10.2431 19.42 10.2431 19.6131 10.5726L20.3155 11.7704C20.4173 11.944 20.2922 12.1625 20.0909 12.1625V12.1625Z" stroke="black" stroke-width="1.5"/>
<path d="M12.3481 17.543C12.3481 16.9907 12.7959 16.543 13.3481 16.543H15.9532V21.0001H13.3481C12.7959 21.0001 12.3481 20.5524 12.3481 20.0001V17.543Z" fill="black"/>
<path d="M12.3481 17.543C12.3481 16.9907 12.7959 16.543 13.3481 16.543H15.9532V21.0001H13.3481C12.7959 21.0001 12.3481 20.5524 12.3481 20.0001V17.543Z" fill="black"/>
<path d="M12.3481 17.543C12.3481 16.9907 12.7959 16.543 13.3481 16.543H15.9532V21.0001H13.3481C12.7959 21.0001 12.3481 20.5524 12.3481 20.0001V17.543Z" fill="black"/>
<path d="M15.9531 14.8682C15.9531 14.3159 16.4008 13.8682 16.9531 13.8682H20.0002C20.5525 13.8682 21.0002 14.3159 21.0002 14.8682V20.9995H15.9531V14.8682Z" fill="black"/>
</svg>
