<svg width="42" height="28" viewBox="0 0 42 28" fill="none" xmlns="http://www.w3.org/2000/svg">
<rect x="8.06885" y="23.499" width="9.89655" height="4.5" fill="#68696D"/>
<path d="M13.0171 23.501C13.0171 14.951 13.0171 8.31348 13.0171 6.06348M13.0171 6.06348L17.2585 2.12598L21.4998 6.06348H37.7585H13.0171Z" stroke="#68696D" stroke-width="2"/>
<path d="M36.3447 7.18848V13.9385" stroke="#68696D"/>
<path d="M17.2586 1H8.06897V5.5H11.6034H3.12069M3.12069 5.5V2.125H1V5.5H3.12069ZM36.3448 13.9375L33.5172 16.75H38.4655H39.1724L36.3448 13.9375Z" stroke="#68696D"/>
<rect x="25.0342" y="22.376" width="7.06897" height="5.625" fill="#68696D"/>
<rect x="25.0342" y="22.376" width="7.06897" height="5.625" fill="#68696D"/>
<rect x="25.0342" y="22.376" width="7.06897" height="5.625" fill="#68696D"/>
<rect x="32.1035" y="19.001" width="9.89655" height="9" fill="#68696D"/>
</svg>
