<svg width="16" height="15" viewBox="0 0 16 15" fill="none" xmlns="http://www.w3.org/2000/svg">
<path d="M10.8129 5.6217C10.8129 6.24737 10.2427 6.83031 9.4416 6.83031C8.64049 6.83031 8.07031 6.24737 8.07031 5.6217C8.07031 4.99603 8.64049 4.41309 9.4416 4.41309C10.2427 4.41309 10.8129 4.99603 10.8129 5.6217Z" stroke="white"/>
<path d="M12.2913 10.3177C12.1508 10.38 11.9162 10.4396 11.5947 10.485C10.8797 10.586 9.98011 10.5868 9.44141 10.5868C8.90273 10.5868 7.95548 10.586 7.21596 10.4847C6.94465 10.4476 6.73945 10.4013 6.60192 10.354C6.84777 10.0357 7.31578 9.53225 7.85049 9.07783C8.16263 8.81257 8.48192 8.57753 8.77571 8.41148C9.08174 8.23851 9.3056 8.17188 9.44141 8.17188C9.58941 8.17188 9.82483 8.23681 10.1344 8.39642C10.4333 8.55052 10.7577 8.77002 11.0702 9.02172C11.3819 9.27275 11.6714 9.5476 11.9022 9.80586C12.0823 10.0074 12.212 10.1829 12.2913 10.3177ZM6.4401 10.2781C6.44018 10.2781 6.44121 10.2789 6.44295 10.2805C6.44089 10.279 6.44002 10.2782 6.4401 10.2781Z" stroke="white"/>
<rect x="3.17871" y="0.75" width="12.0711" height="13.5" rx="2.25" stroke="white" stroke-width="1.5"/>
<path d="M1 3.26074H5.28561" stroke="white" stroke-linecap="round"/>
<path d="M1 5.86914H5.28561" stroke="white" stroke-linecap="round"/>
<path d="M1 9.78223H5.28561" stroke="white" stroke-linecap="round"/>
<path d="M1 12.3916H5.28561" stroke="white" stroke-linecap="round"/>
</svg>
