<svg width="17" height="17" viewBox="0 0 17 17" fill="none" xmlns="http://www.w3.org/2000/svg">
<mask id="mask0_2_8310" style="mask-type:alpha" maskUnits="userSpaceOnUse" x="-2" y="-2" width="21" height="21">
<rect x="-2" y="-2" width="21" height="21" fill="#D9D9D9"/>
</mask>
<g mask="url(#mask0_2_8310)">
<path d="M5.35 12.875L8.5 9.725L11.65 12.875L12.875 11.65L9.725 8.5L12.875 5.35L11.65 4.125L8.5 7.275L5.35 4.125L4.125 5.35L7.275 8.5L4.125 11.65L5.35 12.875ZM2.375 16.375C1.89375 16.375 1.48162 16.2038 1.13862 15.8614C0.796208 15.5184 0.625 15.1062 0.625 14.625V2.375C0.625 1.89375 0.796208 1.48162 1.13862 1.13862C1.48162 0.796208 1.89375 0.625 2.375 0.625H14.625C15.1062 0.625 15.5184 0.796208 15.8614 1.13862C16.2038 1.48162 16.375 1.89375 16.375 2.375V14.625C16.375 15.1062 16.2038 15.5184 15.8614 15.8614C15.5184 16.2038 15.1062 16.375 14.625 16.375H2.375ZM2.375 14.625H14.625V2.375H2.375V14.625Z" fill="#88898B"/>
</g>
</svg>
