<svg width="16" height="16" viewBox="0 0 16 16" fill="none" xmlns="http://www.w3.org/2000/svg">
<path fill-rule="evenodd" clip-rule="evenodd" d="M6.48986 10.5952C3.52886 10.5952 1 11.0428 1 12.836C1 14.6292 3.51346 15.0929 6.48986 15.0929C9.45162 15.0929 11.9797 14.6446 11.9797 12.8522C11.9797 11.0597 9.46703 10.5952 6.48986 10.5952Z" stroke="#111727" stroke-width="1.5" stroke-linecap="round" stroke-linejoin="round"/>
<path fill-rule="evenodd" clip-rule="evenodd" d="M6.49011 8.03737C8.43355 8.03737 10.0088 6.46213 10.0088 4.51868C10.0088 2.57524 8.43355 1 6.49011 1C4.54743 1 2.97219 2.57524 2.97219 4.51868C2.96526 6.45519 4.52895 8.03044 6.46623 8.03737H6.49011Z" stroke="#111727" stroke-width="1.5" stroke-linecap="round" stroke-linejoin="round"/>
<path d="M13.6742 5.55957V8.64843" stroke="#111727" stroke-width="1.5" stroke-linecap="round" stroke-linejoin="round"/>
<path d="M15.2506 7.10414H12.1001" stroke="#111727" stroke-width="1.5" stroke-linecap="round" stroke-linejoin="round"/>
</svg>
