<svg width="8" height="16" viewBox="0 0 8 16" fill="none" xmlns="http://www.w3.org/2000/svg">
<path d="M7.21703 10.115C7.21703 11.169 6.95333 12.019 6.42593 12.665C5.89854 13.311 5.17221 13.6963 4.24694 13.821V15.3H3.27542V13.838C2.46119 13.77 1.76725 13.498 1.19359 13.022C0.629177 12.5347 0.231315 11.883 0 11.067L2.15123 9.588C2.36404 10.3247 2.73877 10.778 3.27542 10.948V8.925L3.15051 8.874C2.36404 8.52267 1.71173 8.10333 1.19359 7.616C0.610672 7.038 0.319215 6.205 0.319215 5.117C0.319215 4.04033 0.596793 3.19033 1.15195 2.567C1.71636 1.90967 2.42418 1.54133 3.27542 1.462V0H4.24694V1.496C5.57932 1.67733 6.52309 2.51033 7.07824 3.995L4.96865 5.44C4.82986 4.90733 4.58929 4.56733 4.24694 4.42V6.426H4.26082L4.64943 6.613L5.07968 6.817C5.21847 6.885 5.35263 6.95867 5.48217 7.038C5.67647 7.14 5.92629 7.32133 6.23163 7.582C6.2964 7.62733 6.34729 7.67267 6.3843 7.718C6.43056 7.76333 6.4722 7.81433 6.50921 7.871C6.55547 7.91633 6.58785 7.96167 6.60636 8.007C6.63412 8.041 6.6665 8.09767 6.70351 8.177C6.74978 8.245 6.78679 8.30167 6.81454 8.347C7.08287 8.74367 7.21703 9.333 7.21703 10.115ZM2.73414 5.134C2.73414 5.42867 2.91457 5.68367 3.27542 5.899V4.352C2.91457 4.46533 2.73414 4.726 2.73414 5.134ZM4.24694 9.401V10.931C4.61705 10.8177 4.8021 10.5627 4.8021 10.166C4.8021 9.86 4.61705 9.605 4.24694 9.401Z" fill="#5368FE"/>
</svg>
