<svg width="15" height="15" viewBox="0 0 15 15" fill="none" xmlns="http://www.w3.org/2000/svg">
<g clip-path="url(#clip0_21261_4413)">
<circle cx="7.7334" cy="4" r="2.25" stroke="#68696D" stroke-width="1.5"/>
<path d="M1 13.7839L1.578 12.4675C1.78621 11.9933 2.03604 11.5385 2.32454 11.1085L2.64304 10.6337C3.12602 9.91371 3.7567 9.30477 4.49317 8.84734L4.54076 8.81778C4.95036 8.56337 5.39074 8.36223 5.85123 8.21922V8.21922C6.94693 7.87894 8.12005 7.87894 9.21575 8.21922L9.37579 8.26892C9.73068 8.37913 10.0744 8.5225 10.4024 8.69714V8.69714C11.4363 9.24756 12.2838 10.0922 12.8376 11.1242L13.176 11.7548L14.067 13.7839" stroke="#68696D" stroke-width="1.5" stroke-linecap="round"/>
<path d="M4.1123 13.7838L4.41075 13.135C4.52267 12.8917 4.65646 12.659 4.81045 12.4399L4.96141 12.2251C5.22202 11.8543 5.55838 11.543 5.94824 11.3118L5.96061 11.3045C6.17945 11.1748 6.4135 11.0726 6.65742 11.0003V11.0003C7.2299 10.8306 7.83932 10.8306 8.4118 11.0003L8.50806 11.0288C8.68837 11.0823 8.86343 11.152 9.03109 11.2372V11.2372C9.57678 11.5145 10.0281 11.9473 10.3281 12.4808L10.4902 12.7693L10.9569 13.7838" stroke="#68696D" stroke-linecap="round"/>
<path d="M7.37481 13.933C7.23663 14.0682 7.23663 14.2873 7.37481 14.4225C7.51299 14.5577 7.73701 14.5577 7.87519 14.4225L7.37481 13.933ZM7.87519 14.4225L10.0751 12.2704L9.57475 11.7809L7.37481 13.933L7.87519 14.4225Z" fill="#68696D"/>
<path d="M5.13672 12.0249L7.33666 14.177" stroke="#68696D" stroke-width="0.7" stroke-linecap="round"/>
<ellipse cx="7.53394" cy="14.0874" rx="0.933356" ry="0.913063" fill="#68696D"/>
</g>
<defs>
<clipPath id="clip0_21261_4413">
<rect width="15" height="15" fill="white"/>
</clipPath>
</defs>
</svg>
