<svg width="45" height="29" viewBox="0 0 45 29" fill="none" xmlns="http://www.w3.org/2000/svg">
<circle cx="22" cy="15" r="5.25" stroke="#68696D" stroke-width="1.5"/>
<circle cx="22" cy="15" r="8.25" stroke="#68696D" stroke-width="1.5"/>
<path d="M42 28H3C1.89543 28 1 27.1046 1 26V5.7931C1 4.68853 1.89543 3.7931 3 3.7931H9.9014C10.365 3.7931 10.8141 3.63207 11.1721 3.33754L13.4595 1.45557C13.8174 1.16103 14.2666 1 14.7302 1H29.7868C30.1995 1 30.6021 1.12769 30.9394 1.36557L33.8632 3.42754C34.2005 3.66541 34.6031 3.7931 35.0159 3.7931H42C43.1046 3.7931 44 4.68853 44 5.7931V26C44 27.1046 43.1046 28 42 28Z" stroke="#68696D" stroke-width="2"/>
<line x1="7.5" y1="6" x2="7.5" y2="10" stroke="#68696D" stroke-width="3"/>
<line x1="4" y1="8" x2="11" y2="8" stroke="#68696D" stroke-width="2"/>
</svg>
