<svg width="23" height="24" viewBox="0 0 23 24" fill="none" xmlns="http://www.w3.org/2000/svg">
<g clip-path="url(#clip0_21260_4356)">
<circle cx="11.5" cy="6" r="3.25" stroke="black" stroke-width="2.5"/>
<path d="M1 22.5L1.93496 20.3234C2.26556 19.5537 2.66294 18.8145 3.12252 18.1142L3.65712 17.2995C4.42238 16.1334 5.42719 15.1436 6.6047 14.396L6.69996 14.3355C7.35179 13.9217 8.05442 13.5938 8.79035 13.3602V13.3602C10.5534 12.8005 12.4466 12.8005 14.2096 13.3602L14.448 13.4359C15.0268 13.6196 15.5867 13.8583 16.1201 14.1485V14.1485C17.7755 15.0494 19.1267 16.421 20.0028 18.0897L20.5682 19.1667L22 22.5" stroke="black" stroke-width="2.5" stroke-linecap="round"/>
<path d="M6 22.5L6.48295 21.4268C6.66063 21.0319 6.87339 20.6539 7.11867 20.2971L7.37339 19.9266C7.78641 19.3258 8.32243 18.8197 8.9459 18.4419L8.9752 18.4241C9.32369 18.2129 9.6973 18.0463 10.0873 17.9281V17.9281C11.0084 17.649 11.9916 17.649 12.9127 17.9281L13.0581 17.9722C13.3521 18.0612 13.6372 18.1773 13.9097 18.3189V18.3189C14.7836 18.7729 15.5033 19.4757 15.9779 20.3385L16.25 20.8333L17 22.5" stroke="black" stroke-width="1.5" stroke-linecap="round"/>
<path d="M11.2929 22.7929C11.0977 22.9882 11.0977 23.3048 11.2929 23.5C11.4882 23.6953 11.8048 23.6953 12 23.5L11.2929 22.7929ZM12 23.5L15.5356 19.9645L14.8285 19.2574L11.2929 22.7929L12 23.5Z" fill="black"/>
<path d="M7.64648 19.6113L11.182 23.1469" stroke="black" stroke-linecap="round"/>
<circle cx="11.5" cy="23" r="1.5" fill="black"/>
</g>
<defs>
<clipPath id="clip0_21260_4356">
<rect width="23" height="23" fill="white" transform="translate(0 0.5)"/>
</clipPath>
</defs>
</svg>
