<svg width="26" height="26" viewBox="0 0 26 26" fill="none" xmlns="http://www.w3.org/2000/svg">
<path d="M13 18.4844C8.85589 18.4844 5.48438 21.8559 5.48438 26H7.51562C7.51562 24.8542 7.86906 23.7894 8.47234 22.9087L10.8344 25.2708C10.7572 25.4999 10.7148 25.7449 10.7148 26H15.2852C15.2852 25.7449 15.2428 25.4999 15.1656 25.2707L17.5277 22.9086C18.1309 23.7894 18.4844 24.8542 18.4844 26H20.5156C20.5156 21.8559 17.1441 18.4844 13 18.4844ZM12.2707 23.8344L9.90864 21.4723C10.7894 20.8691 11.8542 20.5156 13 20.5156C14.1458 20.5156 15.2106 20.8691 16.0913 21.4723L13.7292 23.8344C13.5001 23.7573 13.2551 23.7148 13 23.7148C12.7449 23.7148 12.4999 23.7573 12.2707 23.8344V23.8344ZM22.1924 16.8076C20.7765 15.3917 19.0912 14.3435 17.2524 13.709C19.2218 12.3526 20.5156 10.0825 20.5156 7.51562C20.5156 3.37152 17.1441 0 13 0C8.85589 0 5.48438 3.37152 5.48438 7.51562C5.48438 10.0825 6.77823 12.3526 8.74768 13.7091C6.90889 14.3435 5.22356 15.3917 3.80763 16.8076C1.35225 19.263 0 22.5276 0 26H2.03125C2.03125 19.9518 6.9518 15.0312 13 15.0312C19.0482 15.0312 23.9688 19.9518 23.9688 26H26C26 22.5276 24.6477 19.263 22.1924 16.8076ZM7.51562 7.51562C7.51562 4.49155 9.97588 2.03125 13 2.03125C16.0241 2.03125 18.4844 4.49155 18.4844 7.51562C18.4844 10.5397 16.0241 13 13 13C9.97588 13 7.51562 10.5397 7.51562 7.51562V7.51562Z" fill="black"/>
</svg>
