<svg width="21" height="22" viewBox="0 0 21 22" fill="none" xmlns="http://www.w3.org/2000/svg">
<mask id="mask0_17222_3451" style="mask-type:alpha" maskUnits="userSpaceOnUse" x="0" y="0" width="21" height="22">
<rect y="0.500488" width="21" height="21" fill="#D9D9D9"/>
</mask>
<g mask="url(#mask0_17222_3451)">
<path d="M4.375 17.125H5.6L13.1469 9.57812L11.9219 8.35313L4.375 15.9V17.125ZM16.8875 8.30938L13.1687 4.63437L14.3938 3.40938C14.7292 3.07396 15.1413 2.90625 15.6301 2.90625C16.1184 2.90625 16.5302 3.07396 16.8656 3.40938L18.0906 4.63437C18.426 4.96979 18.601 5.37462 18.6156 5.84888C18.6302 6.32254 18.4698 6.72708 18.1344 7.0625L16.8875 8.30938ZM15.6188 9.6L6.34375 18.875H2.625V15.1562L11.9 5.88125L15.6188 9.6Z" fill="#88898B"/>
</g>
</svg>
