<svg width="22" height="21" viewBox="0 0 22 21" fill="none" xmlns="http://www.w3.org/2000/svg">
<path d="M21.08 8.61665L17.832 2.99425C17.0928 1.71737 15.7264 0.911133 14.2479 0.911133H7.75192C6.27348 0.911133 4.90708 1.69521 4.16784 2.99425L0.919879 8.61665C0.180679 9.89353 0.180679 11.4839 0.919879 12.7607L4.16784 18.3831C4.90704 19.6599 6.27348 20.4662 7.75192 20.4662H14.2479C15.7264 20.4662 17.0928 19.6821 17.832 18.3831L21.08 12.7831C21.8192 11.484 21.8192 9.91585 21.08 8.61665ZM15.7488 10.3413V13.8357C15.7488 15.4262 14.4496 16.7252 12.8592 16.7252L9.79048 16.7254C8.73768 16.7254 7.81924 16.1654 7.3264 15.3366H7.30406L5.08642 10.9686C4.9072 10.6102 5.06407 10.1622 5.44485 9.98297C5.82563 9.80375 6.27361 9.93812 6.45281 10.2966L7.14717 11.663C7.28155 11.9094 7.66233 11.8198 7.66233 11.5509V5.99573C7.66233 5.59261 7.99827 5.25653 8.42389 5.25653C8.84951 5.25653 9.18545 5.59247 9.18545 5.99573V9.93809C9.18545 10.1173 9.34233 10.274 9.52139 10.274C9.72295 10.274 9.87982 10.1171 9.87982 9.93809L9.87998 5.39089C9.87998 4.98777 10.2159 4.65169 10.6415 4.65169C11.0672 4.65169 11.4031 4.98763 11.4031 5.39089V9.96049C11.4031 10.1621 11.56 10.2964 11.739 10.2964C11.9406 10.2964 12.0975 10.1395 12.0975 9.96049L12.0976 5.99565C12.0976 5.59253 12.4336 5.25645 12.8592 5.25645C13.2848 5.25645 13.6207 5.59239 13.6207 5.99565V9.98285C13.6207 10.1844 13.7776 10.3188 13.9567 10.3188C14.1582 10.3188 14.3151 10.1619 14.3151 9.98285V7.04849C14.3151 6.66771 14.6511 6.33161 15.0767 6.33161C15.5023 6.33161 15.8382 6.6452 15.8382 7.04849L15.8384 10.3413L15.7488 10.3413Z" fill="black"/>
</svg>
