<svg width="17" height="13" viewBox="0 0 17 13" fill="none" xmlns="http://www.w3.org/2000/svg">
<path d="M0.0665048 2.6222V2.36653C0.0672749 1.75673 0.309723 1.17211 0.740963 0.740987C1.17208 0.309737 1.75671 0.067284 2.3665 0.0665283H14.6334C15.2432 0.0672984 15.8278 0.309747 16.2589 0.740987C16.6902 1.17211 16.9326 1.75673 16.9334 2.36653V2.6222L8.49995 6.13627L0.0665048 2.6222ZM8.79467 7.67398V7.67411C8.606 7.75292 8.39346 7.75292 8.20479 7.67411L0.0664062 4.28325V10.0333C0.0671764 10.643 0.309625 11.2277 0.740865 11.6588C1.17198 12.09 1.75661 12.3325 2.36641 12.3333H14.6333C15.2431 12.3325 15.8277 12.09 16.2588 11.6588C16.6901 11.2277 16.9325 10.643 16.9333 10.0333V4.28325L8.79467 7.67398Z" fill="#88898B"/>
</svg>
