<svg width="495" height="290" viewBox="0 0 495 290" fill="none" xmlns="http://www.w3.org/2000/svg">
<rect width="495" height="290" rx="10" fill="#FFEBF6"/>
<rect x="5.08105" y="55" width="483.716" height="230" rx="8" fill="white"/>
<path d="M75.1997 228C75.1997 228 91.403 185.334 134.451 185.334C177.499 185.334 165.062 228 193.702 228C222.343 228 241.219 159 286.599 159C320.749 159 333.207 208.153 382.311 208.153C423.093 208.153 414.532 164.364 443.068 164.364" stroke="#A0D7E7" stroke-width="2" stroke-linecap="round"/>
<path d="M75.1997 228C75.1997 228 99.7414 193.558 131.795 193.558C163.848 193.558 160.345 214.374 193.078 214.374C225.812 214.374 239.991 134 286.599 134C333.207 134 343.217 208.24 382.311 208.24C412.768 208.24 420.557 181 443.068 181" stroke="#6C5DD3" stroke-width="2" stroke-linecap="round"/>
<path d="M64.1705 269.182C63.2559 269.182 62.4719 268.967 61.8185 268.538C61.1745 268.109 60.7219 267.521 60.4605 266.774L61.5805 266.13C61.9632 267.315 62.8359 267.908 64.1985 267.908C64.8705 267.908 65.3839 267.773 65.7385 267.502C66.0932 267.222 66.2705 266.853 66.2705 266.396C66.2705 265.929 66.0932 265.579 65.7385 265.346C65.3839 265.113 64.7912 264.865 63.9605 264.604C63.5499 264.473 63.2372 264.371 63.0225 264.296C62.8079 264.212 62.5372 264.091 62.2105 263.932C61.8932 263.764 61.6552 263.596 61.4965 263.428C61.3379 263.251 61.1932 263.022 61.0625 262.742C60.9412 262.462 60.8805 262.145 60.8805 261.79C60.8805 260.941 61.1792 260.269 61.7765 259.774C62.3739 259.27 63.1019 259.018 63.9605 259.018C64.7352 259.018 65.4072 259.214 65.9765 259.606C66.5552 259.998 66.9892 260.516 67.2785 261.16L66.1865 261.79C65.7665 260.782 65.0245 260.278 63.9605 260.278C63.4285 260.278 62.9992 260.409 62.6725 260.67C62.3459 260.931 62.1825 261.286 62.1825 261.734C62.1825 262.163 62.3365 262.49 62.6445 262.714C62.9525 262.938 63.4845 263.171 64.2405 263.414C64.5112 263.498 64.7025 263.559 64.8145 263.596C64.9265 263.633 65.0992 263.699 65.3325 263.792C65.5752 263.885 65.7525 263.96 65.8645 264.016C65.9765 264.072 66.1259 264.151 66.3125 264.254C66.5085 264.357 66.6532 264.455 66.7465 264.548C66.8399 264.641 66.9472 264.758 67.0685 264.898C67.1992 265.029 67.2925 265.164 67.3485 265.304C67.4045 265.444 67.4512 265.607 67.4885 265.794C67.5352 265.971 67.5585 266.163 67.5585 266.368C67.5585 267.227 67.2459 267.913 66.6205 268.426C65.9952 268.93 65.1785 269.182 64.1705 269.182ZM69.9924 266.06C70.1137 266.685 70.3984 267.171 70.8464 267.516C71.3037 267.861 71.8637 268.034 72.5264 268.034C73.4504 268.034 74.1224 267.693 74.5424 267.012L75.5784 267.6C74.897 268.655 73.8704 269.182 72.4984 269.182C71.3877 269.182 70.4824 268.837 69.7824 268.146C69.0917 267.446 68.7464 266.564 68.7464 265.5C68.7464 264.445 69.087 263.568 69.7684 262.868C70.4497 262.168 71.3317 261.818 72.4144 261.818C73.441 261.818 74.2764 262.182 74.9204 262.91C75.5737 263.629 75.9004 264.497 75.9004 265.514C75.9004 265.691 75.8864 265.873 75.8584 266.06H69.9924ZM72.4144 262.966C71.761 262.966 71.2197 263.153 70.7904 263.526C70.361 263.89 70.095 264.38 69.9924 264.996H74.6684C74.5657 264.333 74.3044 263.829 73.8844 263.484C73.4644 263.139 72.9744 262.966 72.4144 262.966ZM81.1645 261.818C82.1445 261.818 82.9798 262.177 83.6705 262.896C84.3611 263.605 84.7065 264.473 84.7065 265.5C84.7065 266.527 84.3611 267.399 83.6705 268.118C82.9798 268.827 82.1445 269.182 81.1645 269.182C80.0071 269.182 79.1251 268.72 78.5185 267.796V271.8H77.3005V262H78.5185V263.204C79.1251 262.28 80.0071 261.818 81.1645 261.818ZM81.0105 268.006C81.7105 268.006 82.2985 267.768 82.7745 267.292C83.2505 266.807 83.4885 266.209 83.4885 265.5C83.4885 264.791 83.2505 264.198 82.7745 263.722C82.2985 263.237 81.7105 262.994 81.0105 262.994C80.3011 262.994 79.7085 263.237 79.2325 263.722C78.7565 264.198 78.5185 264.791 78.5185 265.5C78.5185 266.209 78.7565 266.807 79.2325 267.292C79.7085 267.768 80.3011 268.006 81.0105 268.006ZM89.8174 263.176H87.9554V266.97C87.9554 267.315 88.0208 267.563 88.1514 267.712C88.2914 267.852 88.5014 267.927 88.7814 267.936C89.0614 267.936 89.4068 267.927 89.8174 267.908V269C88.7534 269.14 87.9741 269.056 87.4794 268.748C86.9848 268.431 86.7374 267.838 86.7374 266.97V263.176H85.3514V262H86.7374V260.404L87.9554 260.04V262H89.8174V263.176Z" fill="#88898B"/>
<path d="M129.111 267.698C128.131 268.687 126.932 269.182 125.513 269.182C124.094 269.182 122.895 268.687 121.915 267.698C120.935 266.709 120.445 265.509 120.445 264.1C120.445 262.681 120.935 261.482 121.915 260.502C122.895 259.513 124.094 259.018 125.513 259.018C126.932 259.018 128.131 259.513 129.111 260.502C130.1 261.482 130.595 262.681 130.595 264.1C130.595 265.509 130.1 266.709 129.111 267.698ZM122.811 266.816C123.539 267.544 124.44 267.908 125.513 267.908C126.586 267.908 127.482 267.544 128.201 266.816C128.929 266.079 129.293 265.173 129.293 264.1C129.293 263.017 128.929 262.112 128.201 261.384C127.482 260.647 126.586 260.278 125.513 260.278C124.44 260.278 123.539 260.647 122.811 261.384C122.092 262.112 121.733 263.017 121.733 264.1C121.733 265.173 122.092 266.079 122.811 266.816ZM135.324 269.182C134.269 269.182 133.392 268.832 132.692 268.132C131.992 267.423 131.642 266.545 131.642 265.5C131.642 264.455 131.992 263.582 132.692 262.882C133.392 262.173 134.269 261.818 135.324 261.818C136.015 261.818 136.635 261.986 137.186 262.322C137.737 262.649 138.147 263.092 138.418 263.652L137.396 264.24C137.219 263.867 136.943 263.568 136.57 263.344C136.206 263.12 135.791 263.008 135.324 263.008C134.624 263.008 134.036 263.246 133.56 263.722C133.093 264.198 132.86 264.791 132.86 265.5C132.86 266.2 133.093 266.788 133.56 267.264C134.036 267.74 134.624 267.978 135.324 267.978C135.791 267.978 136.211 267.871 136.584 267.656C136.957 267.432 137.242 267.133 137.438 266.76L138.474 267.362C138.175 267.913 137.746 268.356 137.186 268.692C136.626 269.019 136.005 269.182 135.324 269.182ZM143.485 263.176H141.623V266.97C141.623 267.315 141.688 267.563 141.819 267.712C141.959 267.852 142.169 267.927 142.449 267.936C142.729 267.936 143.074 267.927 143.485 267.908V269C142.421 269.14 141.641 269.056 141.147 268.748C140.652 268.431 140.405 267.838 140.405 266.97V263.176H139.019V262H140.405V260.404L141.623 260.04V262H143.485V263.176Z" fill="#88898B"/>
<path d="M188.025 259.2H189.327V269H188.277L183.237 261.678V269H181.935V259.2H182.985L188.025 266.508V259.2ZM197.206 268.118C196.487 268.827 195.614 269.182 194.588 269.182C193.561 269.182 192.688 268.827 191.97 268.118C191.26 267.409 190.906 266.536 190.906 265.5C190.906 264.464 191.26 263.591 191.97 262.882C192.688 262.173 193.561 261.818 194.588 261.818C195.614 261.818 196.487 262.173 197.206 262.882C197.924 263.591 198.284 264.464 198.284 265.5C198.284 266.536 197.924 267.409 197.206 268.118ZM194.588 267.992C195.288 267.992 195.876 267.754 196.352 267.278C196.828 266.802 197.066 266.209 197.066 265.5C197.066 264.791 196.828 264.198 196.352 263.722C195.876 263.246 195.288 263.008 194.588 263.008C193.897 263.008 193.314 263.246 192.838 263.722C192.362 264.198 192.124 264.791 192.124 265.5C192.124 266.209 192.362 266.802 192.838 267.278C193.314 267.754 193.897 267.992 194.588 267.992ZM204.346 262H205.662L202.862 269H201.434L198.634 262H199.95L202.148 267.698L204.346 262Z" fill="#88898B"/>
<path d="M239.617 259.2C240.951 259.2 242.057 259.676 242.935 260.628C243.821 261.571 244.265 262.728 244.265 264.1C244.265 265.472 243.821 266.634 242.935 267.586C242.057 268.529 240.951 269 239.617 269H235.795V259.2H239.617ZM239.617 267.768C240.615 267.768 241.432 267.418 242.067 266.718C242.701 266.018 243.019 265.145 243.019 264.1C243.019 263.055 242.701 262.182 242.067 261.482C241.432 260.782 240.615 260.432 239.617 260.432H237.097V267.768H239.617ZM246.572 266.06C246.693 266.685 246.978 267.171 247.426 267.516C247.883 267.861 248.443 268.034 249.106 268.034C250.03 268.034 250.702 267.693 251.122 267.012L252.158 267.6C251.476 268.655 250.45 269.182 249.078 269.182C247.967 269.182 247.062 268.837 246.362 268.146C245.671 267.446 245.326 266.564 245.326 265.5C245.326 264.445 245.666 263.568 246.348 262.868C247.029 262.168 247.911 261.818 248.994 261.818C250.02 261.818 250.856 262.182 251.5 262.91C252.153 263.629 252.48 264.497 252.48 265.514C252.48 265.691 252.466 265.873 252.438 266.06H246.572ZM248.994 262.966C248.34 262.966 247.799 263.153 247.37 263.526C246.94 263.89 246.674 264.38 246.572 264.996H251.248C251.145 264.333 250.884 263.829 250.464 263.484C250.044 263.139 249.554 262.966 248.994 262.966ZM257.156 269.182C256.101 269.182 255.224 268.832 254.524 268.132C253.824 267.423 253.474 266.545 253.474 265.5C253.474 264.455 253.824 263.582 254.524 262.882C255.224 262.173 256.101 261.818 257.156 261.818C257.847 261.818 258.467 261.986 259.018 262.322C259.569 262.649 259.979 263.092 260.25 263.652L259.228 264.24C259.051 263.867 258.775 263.568 258.402 263.344C258.038 263.12 257.623 263.008 257.156 263.008C256.456 263.008 255.868 263.246 255.392 263.722C254.925 264.198 254.692 264.791 254.692 265.5C254.692 266.2 254.925 266.788 255.392 267.264C255.868 267.74 256.456 267.978 257.156 267.978C257.623 267.978 258.043 267.871 258.416 267.656C258.789 267.432 259.074 267.133 259.27 266.76L260.306 267.362C260.007 267.913 259.578 268.356 259.018 268.692C258.458 269.019 257.837 269.182 257.156 269.182Z" fill="#88898B"/>
<path d="M299.315 269.182C298.606 269.182 297.981 269.033 297.439 268.734C296.898 268.435 296.501 268.001 296.249 267.432L297.355 266.788C297.645 267.535 298.298 267.908 299.315 267.908C299.941 267.908 300.431 267.759 300.785 267.46C301.14 267.161 301.317 266.718 301.317 266.13V259.2H302.605V266.13C302.605 267.11 302.293 267.866 301.667 268.398C301.051 268.921 300.267 269.182 299.315 269.182ZM310.176 262H311.394V269H310.176V267.796C309.569 268.72 308.687 269.182 307.53 269.182C306.55 269.182 305.714 268.827 305.024 268.118C304.333 267.399 303.988 266.527 303.988 265.5C303.988 264.473 304.333 263.605 305.024 262.896C305.714 262.177 306.55 261.818 307.53 261.818C308.687 261.818 309.569 262.28 310.176 263.204V262ZM307.684 268.006C308.393 268.006 308.986 267.768 309.462 267.292C309.938 266.807 310.176 266.209 310.176 265.5C310.176 264.791 309.938 264.198 309.462 263.722C308.986 263.237 308.393 262.994 307.684 262.994C306.984 262.994 306.396 263.237 305.92 263.722C305.444 264.198 305.206 264.791 305.206 265.5C305.206 266.209 305.444 266.807 305.92 267.292C306.396 267.768 306.984 268.006 307.684 268.006ZM316.725 261.818C317.546 261.818 318.204 262.079 318.699 262.602C319.194 263.115 319.441 263.815 319.441 264.702V269H318.223V264.772C318.223 264.203 318.069 263.764 317.761 263.456C317.453 263.139 317.028 262.98 316.487 262.98C315.88 262.98 315.39 263.171 315.017 263.554C314.644 263.927 314.457 264.506 314.457 265.29V269H313.239V262H314.457V263.008C314.952 262.215 315.708 261.818 316.725 261.818Z" fill="#88898B"/>
<path d="M363.382 260.432H359.042V263.61H363.2V264.842H359.042V269H357.74V259.2H363.382V260.432ZM365.687 266.06C365.808 266.685 366.093 267.171 366.541 267.516C366.998 267.861 367.558 268.034 368.221 268.034C369.145 268.034 369.817 267.693 370.237 267.012L371.273 267.6C370.591 268.655 369.565 269.182 368.193 269.182C367.082 269.182 366.177 268.837 365.477 268.146C364.786 267.446 364.441 266.564 364.441 265.5C364.441 264.445 364.781 263.568 365.463 262.868C366.144 262.168 367.026 261.818 368.109 261.818C369.135 261.818 369.971 262.182 370.615 262.91C371.268 263.629 371.595 264.497 371.595 265.514C371.595 265.691 371.581 265.873 371.553 266.06H365.687ZM368.109 262.966C367.455 262.966 366.914 263.153 366.485 263.526C366.055 263.89 365.789 264.38 365.687 264.996H370.363C370.26 264.333 369.999 263.829 369.579 263.484C369.159 263.139 368.669 262.966 368.109 262.966ZM376.859 261.818C377.839 261.818 378.674 262.177 379.365 262.896C380.055 263.605 380.401 264.473 380.401 265.5C380.401 266.527 380.055 267.399 379.365 268.118C378.674 268.827 377.839 269.182 376.859 269.182C375.701 269.182 374.819 268.72 374.213 267.796V269H372.995V259.2H374.213V263.204C374.819 262.28 375.701 261.818 376.859 261.818ZM376.705 268.006C377.405 268.006 377.993 267.768 378.469 267.292C378.945 266.807 379.183 266.209 379.183 265.5C379.183 264.791 378.945 264.198 378.469 263.722C377.993 263.237 377.405 262.994 376.705 262.994C375.995 262.994 375.403 263.237 374.927 263.722C374.451 264.198 374.213 264.791 374.213 265.5C374.213 266.209 374.451 266.807 374.927 267.292C375.403 267.768 375.995 268.006 376.705 268.006Z" fill="#88898B"/>
<path d="M427.883 259.2V269H426.595V261.342L423.389 266.676H423.221L420.015 261.356V269H418.713V259.2H420.183L423.305 264.38L426.413 259.2H427.883ZM435.648 262H436.866V269H435.648V267.796C435.042 268.72 434.16 269.182 433.002 269.182C432.022 269.182 431.187 268.827 430.496 268.118C429.806 267.399 429.46 266.527 429.46 265.5C429.46 264.473 429.806 263.605 430.496 262.896C431.187 262.177 432.022 261.818 433.002 261.818C434.16 261.818 435.042 262.28 435.648 263.204V262ZM433.156 268.006C433.866 268.006 434.458 267.768 434.934 267.292C435.41 266.807 435.648 266.209 435.648 265.5C435.648 264.791 435.41 264.198 434.934 263.722C434.458 263.237 433.866 262.994 433.156 262.994C432.456 262.994 431.868 263.237 431.392 263.722C430.916 264.198 430.678 264.791 430.678 265.5C430.678 266.209 430.916 266.807 431.392 267.292C431.868 267.768 432.456 268.006 433.156 268.006ZM439.93 263.176C440.331 262.308 441.059 261.874 442.114 261.874V263.148C441.516 263.12 441.003 263.279 440.574 263.624C440.144 263.969 439.93 264.525 439.93 265.29V269H438.712V262H439.93V263.176Z" fill="#88898B"/>
<path d="M32.8206 33.544C31.69 34.664 30.314 35.224 28.6926 35.224C27.0713 35.224 25.6953 34.664 24.5646 33.544C23.4446 32.4133 22.8846 31.032 22.8846 29.4C22.8846 27.768 23.4446 26.392 24.5646 25.272C25.6953 24.1413 27.0713 23.576 28.6926 23.576C30.314 23.576 31.69 24.1413 32.8206 25.272C33.9513 26.392 34.5166 27.768 34.5166 29.4C34.5166 31.032 33.9513 32.4133 32.8206 33.544ZM26.1166 32.04C26.81 32.7227 27.6686 33.064 28.6926 33.064C29.7166 33.064 30.5753 32.7227 31.2686 32.04C31.962 31.3467 32.3086 30.4667 32.3086 29.4C32.3086 28.3333 31.962 27.4533 31.2686 26.76C30.5753 26.0667 29.7166 25.72 28.6926 25.72C27.6686 25.72 26.81 26.0667 26.1166 26.76C25.4233 27.4533 25.0766 28.3333 25.0766 29.4C25.0766 30.4667 25.4233 31.3467 26.1166 32.04ZM40.6285 26.776C41.7058 26.776 42.6232 27.1867 43.3805 28.008C44.1485 28.8187 44.5325 29.816 44.5325 31C44.5325 32.184 44.1485 33.1867 43.3805 34.008C42.6232 34.8187 41.7058 35.224 40.6285 35.224C39.5085 35.224 38.6445 34.8347 38.0365 34.056V38.2H35.9725V27H38.0365V27.944C38.6445 27.1653 39.5085 26.776 40.6285 26.776ZM38.6605 32.632C39.0765 33.048 39.6045 33.256 40.2445 33.256C40.8845 33.256 41.4125 33.048 41.8285 32.632C42.2552 32.2053 42.4685 31.6613 42.4685 31C42.4685 30.3387 42.2552 29.8 41.8285 29.384C41.4125 28.9573 40.8845 28.744 40.2445 28.744C39.6045 28.744 39.0765 28.9573 38.6605 29.384C38.2445 29.8 38.0365 30.3387 38.0365 31C38.0365 31.6613 38.2445 32.2053 38.6605 32.632ZM47.7321 31.848C48.0095 32.8507 48.7615 33.352 49.9881 33.352C50.7775 33.352 51.3748 33.0853 51.7801 32.552L53.4441 33.512C52.6548 34.6533 51.4921 35.224 49.9561 35.224C48.6335 35.224 47.5721 34.824 46.7721 34.024C45.9721 33.224 45.5721 32.216 45.5721 31C45.5721 29.7947 45.9668 28.792 46.7561 27.992C47.5455 27.1813 48.5588 26.776 49.7961 26.776C50.9695 26.776 51.9348 27.1813 52.6921 27.992C53.4601 28.8027 53.8441 29.8053 53.8441 31C53.8441 31.2667 53.8175 31.5493 53.7641 31.848H47.7321ZM47.7001 30.248H51.7801C51.6628 29.704 51.4175 29.2987 51.0441 29.032C50.6815 28.7653 50.2655 28.632 49.7961 28.632C49.2415 28.632 48.7828 28.776 48.4201 29.064C48.0575 29.3413 47.8175 29.736 47.7001 30.248ZM59.733 26.776C60.6077 26.776 61.3277 27.0693 61.893 27.656C62.469 28.2427 62.757 29.0533 62.757 30.088V35H60.693V30.344C60.693 29.8107 60.549 29.4053 60.261 29.128C59.973 28.84 59.589 28.696 59.109 28.696C58.5757 28.696 58.149 28.8613 57.829 29.192C57.509 29.5227 57.349 30.0187 57.349 30.68V35H55.285V27H57.349V27.896C57.8503 27.1493 58.645 26.776 59.733 26.776ZM78.0074 34.36L76.2474 35.368L75.2234 34.264C74.3594 34.904 73.3567 35.224 72.2154 35.224C71.0634 35.224 70.1194 34.9253 69.3834 34.328C68.658 33.72 68.2954 32.9093 68.2954 31.896C68.2954 31.2347 68.4554 30.6213 68.7754 30.056C69.0954 29.4907 69.5594 29.032 70.1674 28.68C69.8047 28.104 69.6234 27.48 69.6234 26.808C69.6234 25.8587 69.954 25.0853 70.6154 24.488C71.2767 23.88 72.114 23.576 73.1274 23.576C73.9274 23.576 74.642 23.784 75.2714 24.2C75.9114 24.6053 76.386 25.1973 76.6954 25.976L74.8074 27.064C74.498 26.168 73.9487 25.72 73.1594 25.72C72.7754 25.72 72.4554 25.832 72.1994 26.056C71.954 26.28 71.8314 26.5627 71.8314 26.904C71.8314 27.2027 71.9007 27.4747 72.0394 27.72C72.1887 27.9653 72.4234 28.2587 72.7434 28.6L75.1434 31.224C75.378 30.7227 75.5594 30.104 75.6874 29.368L77.5434 30.424C77.3407 31.288 77.0154 32.072 76.5674 32.776L78.0074 34.36ZM72.3594 33.192C72.914 33.192 73.41 33.0587 73.8474 32.792L71.4314 30.168C71.41 30.1467 71.3994 30.1307 71.3994 30.12C70.8127 30.4827 70.5194 31 70.5194 31.672C70.5194 32.1307 70.674 32.4987 70.9834 32.776C71.3034 33.0533 71.762 33.192 72.3594 33.192ZM87.829 23.8C89.365 23.8 90.645 24.3387 91.669 25.416C92.7037 26.4933 93.221 27.8213 93.221 29.4C93.221 30.9787 92.7037 32.3067 91.669 33.384C90.645 34.4613 89.365 35 87.829 35H83.381V23.8H87.829ZM87.829 32.888C88.7997 32.888 89.589 32.568 90.197 31.928C90.805 31.2773 91.109 30.4347 91.109 29.4C91.109 28.3653 90.805 27.528 90.197 26.888C89.589 26.2373 88.7997 25.912 87.829 25.912H85.589V32.888H87.829ZM95.7153 26.04C95.3739 26.04 95.0753 25.9173 94.8193 25.672C94.5739 25.416 94.4513 25.1173 94.4513 24.776C94.4513 24.4347 94.5739 24.136 94.8193 23.88C95.0753 23.624 95.3739 23.496 95.7153 23.496C96.0673 23.496 96.3659 23.624 96.6113 23.88C96.8673 24.136 96.9953 24.4347 96.9953 24.776C96.9953 25.1173 96.8673 25.416 96.6113 25.672C96.3659 25.9173 96.0673 26.04 95.7153 26.04ZM94.6913 35V27H96.7553V35H94.6913ZM100.486 29.272C100.486 29.4853 100.625 29.6613 100.902 29.8C101.19 29.928 101.537 30.0453 101.942 30.152C102.347 30.248 102.753 30.376 103.158 30.536C103.563 30.6853 103.905 30.9413 104.182 31.304C104.47 31.6667 104.614 32.12 104.614 32.664C104.614 33.4853 104.305 34.12 103.686 34.568C103.078 35.0053 102.315 35.224 101.398 35.224C99.7552 35.224 98.6352 34.5893 98.0379 33.32L99.8299 32.312C100.065 33.0053 100.587 33.352 101.398 33.352C102.134 33.352 102.502 33.1227 102.502 32.664C102.502 32.4507 102.358 32.28 102.07 32.152C101.793 32.0133 101.451 31.8907 101.046 31.784C100.641 31.6773 100.235 31.544 99.8299 31.384C99.4245 31.224 99.0779 30.9733 98.7899 30.632C98.5125 30.28 98.3739 29.8427 98.3739 29.32C98.3739 28.5307 98.6619 27.912 99.2379 27.464C99.8245 27.0053 100.55 26.776 101.414 26.776C102.065 26.776 102.657 26.9253 103.19 27.224C103.723 27.512 104.145 27.928 104.454 28.472L102.694 29.432C102.438 28.888 102.011 28.616 101.414 28.616C101.147 28.616 100.923 28.6747 100.742 28.792C100.571 28.9093 100.486 29.0693 100.486 29.272ZM110.675 26.776C111.753 26.776 112.67 27.1867 113.427 28.008C114.195 28.8187 114.579 29.816 114.579 31C114.579 32.184 114.195 33.1867 113.427 34.008C112.67 34.8187 111.753 35.224 110.675 35.224C109.555 35.224 108.691 34.8347 108.083 34.056V38.2H106.019V27H108.083V27.944C108.691 27.1653 109.555 26.776 110.675 26.776ZM108.707 32.632C109.123 33.048 109.651 33.256 110.291 33.256C110.931 33.256 111.459 33.048 111.875 32.632C112.302 32.2053 112.515 31.6613 112.515 31C112.515 30.3387 112.302 29.8 111.875 29.384C111.459 28.9573 110.931 28.744 110.291 28.744C109.651 28.744 109.123 28.9573 108.707 29.384C108.291 29.8 108.083 30.3387 108.083 31C108.083 31.6613 108.291 32.2053 108.707 32.632ZM122.115 27H124.179V35H122.115V34.056C121.496 34.8347 120.627 35.224 119.507 35.224C118.44 35.224 117.523 34.8187 116.755 34.008C115.998 33.1867 115.619 32.184 115.619 31C115.619 29.816 115.998 28.8187 116.755 28.008C117.523 27.1867 118.44 26.776 119.507 26.776C120.627 26.776 121.496 27.1653 122.115 27.944V27ZM118.307 32.632C118.723 33.048 119.251 33.256 119.891 33.256C120.531 33.256 121.059 33.048 121.475 32.632C121.902 32.2053 122.115 31.6613 122.115 31C122.115 30.3387 121.902 29.8 121.475 29.384C121.059 28.9573 120.531 28.744 119.891 28.744C119.251 28.744 118.723 28.9573 118.307 29.384C117.891 29.8 117.683 30.3387 117.683 31C117.683 31.6613 117.891 32.2053 118.307 32.632ZM130.627 28.984H128.819V32.312C128.819 32.5893 128.888 32.792 129.027 32.92C129.165 33.048 129.368 33.1227 129.635 33.144C129.901 33.1547 130.232 33.1493 130.627 33.128V35C129.208 35.16 128.205 35.0267 127.619 34.6C127.043 34.1733 126.755 33.4107 126.755 32.312V28.984H125.363V27H126.755V25.384L128.819 24.76V27H130.627V28.984ZM135.64 35.224C134.435 35.224 133.427 34.8187 132.616 34.008C131.816 33.1973 131.416 32.1947 131.416 31C131.416 29.8053 131.816 28.8027 132.616 27.992C133.427 27.1813 134.435 26.776 135.64 26.776C136.419 26.776 137.128 26.9627 137.768 27.336C138.408 27.7093 138.893 28.2107 139.224 28.84L137.448 29.88C137.288 29.5493 137.043 29.288 136.712 29.096C136.392 28.904 136.029 28.808 135.624 28.808C135.005 28.808 134.493 29.016 134.088 29.432C133.683 29.8373 133.48 30.36 133.48 31C133.48 31.6293 133.683 32.152 134.088 32.568C134.493 32.9733 135.005 33.176 135.624 33.176C136.04 33.176 136.408 33.0853 136.728 32.904C137.059 32.712 137.304 32.4507 137.464 32.12L139.256 33.144C138.904 33.7733 138.408 34.28 137.768 34.664C137.128 35.0373 136.419 35.224 135.64 35.224ZM144.796 26.776C145.67 26.776 146.39 27.0693 146.956 27.656C147.532 28.2427 147.82 29.0533 147.82 30.088V35H145.756V30.344C145.756 29.8107 145.612 29.4053 145.324 29.128C145.036 28.84 144.652 28.696 144.172 28.696C143.638 28.696 143.212 28.8613 142.892 29.192C142.572 29.5227 142.412 30.0187 142.412 30.68V35H140.348V23.8H142.412V27.896C142.913 27.1493 143.708 26.776 144.796 26.776ZM151.326 31.848C151.603 32.8507 152.355 33.352 153.582 33.352C154.371 33.352 154.969 33.0853 155.374 32.552L157.038 33.512C156.249 34.6533 155.086 35.224 153.55 35.224C152.227 35.224 151.166 34.824 150.366 34.024C149.566 33.224 149.166 32.216 149.166 31C149.166 29.7947 149.561 28.792 150.35 27.992C151.139 27.1813 152.153 26.776 153.39 26.776C154.563 26.776 155.529 27.1813 156.286 27.992C157.054 28.8027 157.438 29.8053 157.438 31C157.438 31.2667 157.411 31.5493 157.358 31.848H151.326ZM151.294 30.248H155.374C155.257 29.704 155.011 29.2987 154.638 29.032C154.275 28.7653 153.859 28.632 153.39 28.632C152.835 28.632 152.377 28.776 152.014 29.064C151.651 29.3413 151.411 29.736 151.294 30.248ZM164.88 23.8H166.944V35H164.88V34.056C164.272 34.8347 163.408 35.224 162.288 35.224C161.211 35.224 160.288 34.8187 159.52 34.008C158.763 33.1867 158.384 32.184 158.384 31C158.384 29.816 158.763 28.8187 159.52 28.008C160.288 27.1867 161.211 26.776 162.288 26.776C163.408 26.776 164.272 27.1653 164.88 27.944V23.8ZM161.072 32.632C161.499 33.048 162.032 33.256 162.672 33.256C163.312 33.256 163.84 33.048 164.256 32.632C164.672 32.2053 164.88 31.6613 164.88 31C164.88 30.3387 164.672 29.8 164.256 29.384C163.84 28.9573 163.312 28.744 162.672 28.744C162.032 28.744 161.499 28.9573 161.072 29.384C160.656 29.8 160.448 30.3387 160.448 31C160.448 31.6613 160.656 32.2053 161.072 32.632ZM177.408 28.984H175.6V32.312C175.6 32.5893 175.669 32.792 175.808 32.92C175.947 33.048 176.149 33.1227 176.416 33.144C176.683 33.1547 177.013 33.1493 177.408 33.128V35C175.989 35.16 174.987 35.0267 174.4 34.6C173.824 34.1733 173.536 33.4107 173.536 32.312V28.984H172.144V27H173.536V25.384L175.6 24.76V27H177.408V28.984ZM179.887 26.04C179.546 26.04 179.247 25.9173 178.991 25.672C178.746 25.416 178.623 25.1173 178.623 24.776C178.623 24.4347 178.746 24.136 178.991 23.88C179.247 23.624 179.546 23.496 179.887 23.496C180.239 23.496 180.538 23.624 180.783 23.88C181.039 24.136 181.167 24.4347 181.167 24.776C181.167 25.1173 181.039 25.416 180.783 25.672C180.538 25.9173 180.239 26.04 179.887 26.04ZM178.863 35V27H180.927V35H178.863ZM186.624 35.224C185.419 35.224 184.411 34.8187 183.6 34.008C182.8 33.1973 182.4 32.1947 182.4 31C182.4 29.8053 182.8 28.8027 183.6 27.992C184.411 27.1813 185.419 26.776 186.624 26.776C187.403 26.776 188.112 26.9627 188.752 27.336C189.392 27.7093 189.878 28.2107 190.208 28.84L188.432 29.88C188.272 29.5493 188.027 29.288 187.696 29.096C187.376 28.904 187.014 28.808 186.608 28.808C185.99 28.808 185.478 29.016 185.072 29.432C184.667 29.8373 184.464 30.36 184.464 31C184.464 31.6293 184.667 32.152 185.072 32.568C185.478 32.9733 185.99 33.176 186.608 33.176C187.024 33.176 187.392 33.0853 187.712 32.904C188.043 32.712 188.288 32.4507 188.448 32.12L190.24 33.144C189.888 33.7733 189.392 34.28 188.752 34.664C188.112 35.0373 187.403 35.224 186.624 35.224ZM198.708 35H196.308L193.396 31.368V35H191.332V23.8H193.396V30.52L196.148 27H198.612L195.396 30.952L198.708 35ZM200.904 31.848C201.181 32.8507 201.933 33.352 203.16 33.352C203.949 33.352 204.547 33.0853 204.952 32.552L206.616 33.512C205.827 34.6533 204.664 35.224 203.128 35.224C201.805 35.224 200.744 34.824 199.944 34.024C199.144 33.224 198.744 32.216 198.744 31C198.744 29.7947 199.139 28.792 199.928 27.992C200.717 27.1813 201.731 26.776 202.968 26.776C204.141 26.776 205.107 27.1813 205.864 27.992C206.632 28.8027 207.016 29.8053 207.016 31C207.016 31.2667 206.989 31.5493 206.936 31.848H200.904ZM200.872 30.248H204.952C204.835 29.704 204.589 29.2987 204.216 29.032C203.853 28.7653 203.437 28.632 202.968 28.632C202.413 28.632 201.955 28.776 201.592 29.064C201.229 29.3413 200.989 29.736 200.872 30.248ZM212.799 28.984H210.991V32.312C210.991 32.5893 211.06 32.792 211.199 32.92C211.337 33.048 211.54 33.1227 211.807 33.144C212.073 33.1547 212.404 33.1493 212.799 33.128V35C211.38 35.16 210.377 35.0267 209.791 34.6C209.215 34.1733 208.927 33.4107 208.927 32.312V28.984H207.535V27H208.927V25.384L210.991 24.76V27H212.799V28.984ZM215.986 29.272C215.986 29.4853 216.125 29.6613 216.402 29.8C216.69 29.928 217.037 30.0453 217.442 30.152C217.847 30.248 218.253 30.376 218.658 30.536C219.063 30.6853 219.405 30.9413 219.682 31.304C219.97 31.6667 220.114 32.12 220.114 32.664C220.114 33.4853 219.805 34.12 219.186 34.568C218.578 35.0053 217.815 35.224 216.898 35.224C215.255 35.224 214.135 34.5893 213.538 33.32L215.33 32.312C215.565 33.0053 216.087 33.352 216.898 33.352C217.634 33.352 218.002 33.1227 218.002 32.664C218.002 32.4507 217.858 32.28 217.57 32.152C217.293 32.0133 216.951 31.8907 216.546 31.784C216.141 31.6773 215.735 31.544 215.33 31.384C214.925 31.224 214.578 30.9733 214.29 30.632C214.013 30.28 213.874 29.8427 213.874 29.32C213.874 28.5307 214.162 27.912 214.738 27.464C215.325 27.0053 216.05 26.776 216.914 26.776C217.565 26.776 218.157 26.9253 218.69 27.224C219.223 27.512 219.645 27.928 219.954 28.472L218.194 29.432C217.938 28.888 217.511 28.616 216.914 28.616C216.647 28.616 216.423 28.6747 216.242 28.792C216.071 28.9093 215.986 29.0693 215.986 29.272Z" fill="#282D40"/>
<path d="M22.0578 87.588C23.0378 87.588 23.8451 87.896 24.4798 88.512C25.1145 89.1187 25.4318 89.9073 25.4318 90.878C25.4318 91.8487 25.1145 92.642 24.4798 93.258C23.8451 93.874 23.0378 94.182 22.0578 94.182C21.0685 94.182 20.2565 93.874 19.6218 93.258C18.9965 92.642 18.6838 91.8487 18.6838 90.878C18.6838 90.122 18.8798 89.4687 19.2718 88.918L22.4218 84.2H23.9058L21.5958 87.616C21.8011 87.5973 21.9551 87.588 22.0578 87.588ZM20.5458 92.376C20.9378 92.7493 21.4418 92.936 22.0578 92.936C22.6738 92.936 23.1731 92.7493 23.5558 92.376C23.9478 91.9933 24.1438 91.494 24.1438 90.878C24.1438 90.262 23.9478 89.7673 23.5558 89.394C23.1731 89.0207 22.6738 88.834 22.0578 88.834C21.4325 88.834 20.9285 89.0207 20.5458 89.394C20.1631 89.7673 19.9718 90.262 19.9718 90.878C19.9718 91.494 20.1631 91.9933 20.5458 92.376ZM33.021 92.796C32.3583 93.72 31.4297 94.182 30.235 94.182C29.0403 94.182 28.1117 93.72 27.449 92.796C26.7863 91.872 26.455 90.64 26.455 89.1C26.455 87.56 26.7863 86.328 27.449 85.404C28.1117 84.48 29.0403 84.018 30.235 84.018C31.4297 84.018 32.3583 84.48 33.021 85.404C33.6837 86.328 34.015 87.56 34.015 89.1C34.015 90.64 33.6837 91.872 33.021 92.796ZM28.401 91.914C28.8303 92.5767 29.4417 92.908 30.235 92.908C31.0283 92.908 31.6397 92.5767 32.069 91.914C32.5077 91.2513 32.727 90.3133 32.727 89.1C32.727 87.8867 32.5077 86.9487 32.069 86.286C31.6397 85.614 31.0283 85.278 30.235 85.278C29.4417 85.278 28.8303 85.6093 28.401 86.272C27.9717 86.9347 27.757 87.8773 27.757 89.1C27.757 90.3133 27.9717 91.2513 28.401 91.914ZM41.8394 92.796C41.1767 93.72 40.248 94.182 39.0534 94.182C37.8587 94.182 36.93 93.72 36.2674 92.796C35.6047 91.872 35.2734 90.64 35.2734 89.1C35.2734 87.56 35.6047 86.328 36.2674 85.404C36.93 84.48 37.8587 84.018 39.0534 84.018C40.248 84.018 41.1767 84.48 41.8394 85.404C42.502 86.328 42.8334 87.56 42.8334 89.1C42.8334 90.64 42.502 91.872 41.8394 92.796ZM37.2194 91.914C37.6487 92.5767 38.26 92.908 39.0534 92.908C39.8467 92.908 40.458 92.5767 40.8874 91.914C41.326 91.2513 41.5454 90.3133 41.5454 89.1C41.5454 87.8867 41.326 86.9487 40.8874 86.286C40.458 85.614 39.8467 85.278 39.0534 85.278C38.26 85.278 37.6487 85.6093 37.2194 86.272C36.79 86.9347 36.5754 87.8773 36.5754 89.1C36.5754 90.3133 36.79 91.2513 37.2194 91.914Z" fill="#88898B"/>
<path d="M26.1178 139.92V141.138H24.9278V143H23.6258V141.138H18.6278V139.92L22.1418 133.2H23.5418L20.0278 139.92H23.6258V137.148H24.9278V139.92H26.1178ZM33.6089 141.796C32.9462 142.72 32.0176 143.182 30.8229 143.182C29.6282 143.182 28.6996 142.72 28.0369 141.796C27.3742 140.872 27.0429 139.64 27.0429 138.1C27.0429 136.56 27.3742 135.328 28.0369 134.404C28.6996 133.48 29.6282 133.018 30.8229 133.018C32.0176 133.018 32.9462 133.48 33.6089 134.404C34.2716 135.328 34.6029 136.56 34.6029 138.1C34.6029 139.64 34.2716 140.872 33.6089 141.796ZM28.9889 140.914C29.4182 141.577 30.0296 141.908 30.8229 141.908C31.6162 141.908 32.2276 141.577 32.6569 140.914C33.0956 140.251 33.3149 139.313 33.3149 138.1C33.3149 136.887 33.0956 135.949 32.6569 135.286C32.2276 134.614 31.6162 134.278 30.8229 134.278C30.0296 134.278 29.4182 134.609 28.9889 135.272C28.5596 135.935 28.3449 136.877 28.3449 138.1C28.3449 139.313 28.5596 140.251 28.9889 140.914ZM42.4273 141.796C41.7646 142.72 40.8359 143.182 39.6413 143.182C38.4466 143.182 37.5179 142.72 36.8553 141.796C36.1926 140.872 35.8613 139.64 35.8613 138.1C35.8613 136.56 36.1926 135.328 36.8553 134.404C37.5179 133.48 38.4466 133.018 39.6413 133.018C40.8359 133.018 41.7646 133.48 42.4273 134.404C43.0899 135.328 43.4213 136.56 43.4213 138.1C43.4213 139.64 43.0899 140.872 42.4273 141.796ZM37.8073 140.914C38.2366 141.577 38.8479 141.908 39.6413 141.908C40.4346 141.908 41.0459 141.577 41.4753 140.914C41.9139 140.251 42.1333 139.313 42.1333 138.1C42.1333 136.887 41.9139 135.949 41.4753 135.286C41.0459 134.614 40.4346 134.278 39.6413 134.278C38.8479 134.278 38.2366 134.609 37.8073 135.272C37.3779 135.935 37.1633 136.877 37.1633 138.1C37.1633 139.313 37.3779 140.251 37.8073 140.914Z" fill="#88898B"/>
<path d="M18.7958 193V191.936L22.2538 188.408C23.1778 187.484 23.6398 186.691 23.6398 186.028C23.6398 185.477 23.4718 185.048 23.1358 184.74C22.7998 184.432 22.3891 184.278 21.9038 184.278C20.9798 184.278 20.3078 184.717 19.8878 185.594L18.7958 184.95C19.1038 184.315 19.5285 183.835 20.0698 183.508C20.6205 183.181 21.2271 183.018 21.8898 183.018C22.7111 183.018 23.4251 183.289 24.0318 183.83C24.6385 184.371 24.9418 185.099 24.9418 186.014C24.9418 187.003 24.3585 188.081 23.1918 189.248L20.6858 191.74H25.1238V193H18.7958ZM32.7339 191.796C32.0712 192.72 31.1426 193.182 29.9479 193.182C28.7532 193.182 27.8246 192.72 27.1619 191.796C26.4992 190.872 26.1679 189.64 26.1679 188.1C26.1679 186.56 26.4992 185.328 27.1619 184.404C27.8246 183.48 28.7532 183.018 29.9479 183.018C31.1426 183.018 32.0712 183.48 32.7339 184.404C33.3966 185.328 33.7279 186.56 33.7279 188.1C33.7279 189.64 33.3966 190.872 32.7339 191.796ZM28.1139 190.914C28.5432 191.577 29.1546 191.908 29.9479 191.908C30.7412 191.908 31.3526 191.577 31.7819 190.914C32.2206 190.251 32.4399 189.313 32.4399 188.1C32.4399 186.887 32.2206 185.949 31.7819 185.286C31.3526 184.614 30.7412 184.278 29.9479 184.278C29.1546 184.278 28.5432 184.609 28.1139 185.272C27.6846 185.935 27.4699 186.877 27.4699 188.1C27.4699 189.313 27.6846 190.251 28.1139 190.914ZM41.5523 191.796C40.8896 192.72 39.9609 193.182 38.7663 193.182C37.5716 193.182 36.6429 192.72 35.9803 191.796C35.3176 190.872 34.9863 189.64 34.9863 188.1C34.9863 186.56 35.3176 185.328 35.9803 184.404C36.6429 183.48 37.5716 183.018 38.7663 183.018C39.9609 183.018 40.8896 183.48 41.5523 184.404C42.2149 185.328 42.5463 186.56 42.5463 188.1C42.5463 189.64 42.2149 190.872 41.5523 191.796ZM36.9323 190.914C37.3616 191.577 37.9729 191.908 38.7663 191.908C39.5596 191.908 40.1709 191.577 40.6003 190.914C41.0389 190.251 41.2583 189.313 41.2583 188.1C41.2583 186.887 41.0389 185.949 40.6003 185.286C40.1709 184.614 39.5596 184.278 38.7663 184.278C37.9729 184.278 37.3616 184.609 36.9323 185.272C36.5029 185.935 36.2883 186.877 36.2883 188.1C36.2883 189.313 36.5029 190.251 36.9323 190.914Z" fill="#88898B"/>
<path d="M25.4878 250.796C24.8251 251.72 23.8965 252.182 22.7018 252.182C21.5071 252.182 20.5785 251.72 19.9158 250.796C19.2531 249.872 18.9218 248.64 18.9218 247.1C18.9218 245.56 19.2531 244.328 19.9158 243.404C20.5785 242.48 21.5071 242.018 22.7018 242.018C23.8965 242.018 24.8251 242.48 25.4878 243.404C26.1505 244.328 26.4818 245.56 26.4818 247.1C26.4818 248.64 26.1505 249.872 25.4878 250.796ZM20.8678 249.914C21.2971 250.577 21.9085 250.908 22.7018 250.908C23.4951 250.908 24.1065 250.577 24.5358 249.914C24.9745 249.251 25.1938 248.313 25.1938 247.1C25.1938 245.887 24.9745 244.949 24.5358 244.286C24.1065 243.614 23.4951 243.278 22.7018 243.278C21.9085 243.278 21.2971 243.609 20.8678 244.272C20.4385 244.935 20.2238 245.877 20.2238 247.1C20.2238 248.313 20.4385 249.251 20.8678 249.914Z" fill="#88898B"/>
<rect opacity="0.2" x="295.717" y="70" width="24.3891" height="180" fill="#E4E4E4"/>
<g clip-path="url(#clip0_87_979)">
<circle cx="307.458" cy="130" r="4" fill="#6C5DD3"/>
<circle cx="307.458" cy="130" r="2" fill="white"/>
<path d="M303.458 114L306.044 116.586C306.825 117.367 308.091 117.367 308.872 116.586L311.458 114H303.458Z" fill="#1B1D21"/>
<rect x="279.458" y="86" width="57" height="28" rx="6" fill="#1B1D21"/>
<path d="M294.32 103.246V101.884L298.331 95.5455H299.467V97.4844H298.775L296.074 101.764V101.838H301.674V103.246H294.32ZM298.83 105V102.83L298.848 102.221V95.5455H300.464V105H298.83ZM303.149 105V103.763L306.431 100.545C306.745 100.228 307.007 99.9465 307.216 99.7003C307.425 99.4541 307.582 99.2156 307.687 98.9847C307.791 98.7539 307.844 98.5077 307.844 98.2461C307.844 97.9476 307.776 97.6921 307.641 97.4798C307.505 97.2643 307.319 97.0981 307.082 96.9812C306.845 96.8642 306.576 96.8058 306.274 96.8058C305.963 96.8058 305.691 96.8704 305.457 96.9996C305.223 97.1258 305.041 97.3059 304.912 97.5398C304.786 97.7737 304.723 98.0522 304.723 98.3754H303.093C303.093 97.7752 303.23 97.2536 303.504 96.8104C303.778 96.3672 304.155 96.024 304.635 95.7809C305.118 95.5378 305.672 95.4162 306.297 95.4162C306.931 95.4162 307.488 95.5347 307.968 95.7717C308.448 96.0086 308.821 96.3333 309.086 96.7457C309.353 97.1581 309.487 97.629 309.487 98.1584C309.487 98.5123 309.419 98.8601 309.284 99.2017C309.149 99.5433 308.91 99.9219 308.568 100.337C308.23 100.753 307.754 101.256 307.142 101.847L305.512 103.504V103.569H309.63V105H303.149ZM312.271 105.102C311.991 105.102 311.751 105.003 311.551 104.806C311.351 104.609 311.252 104.369 311.255 104.086C311.252 103.809 311.351 103.572 311.551 103.375C311.751 103.178 311.991 103.08 312.271 103.08C312.542 103.08 312.777 103.178 312.977 103.375C313.18 103.572 313.283 103.809 313.287 104.086C313.283 104.274 313.234 104.444 313.139 104.598C313.046 104.752 312.923 104.875 312.769 104.968C312.619 105.057 312.452 105.102 312.271 105.102ZM318.166 105.129C317.551 105.129 317 105.014 316.513 104.783C316.027 104.549 315.641 104.229 315.355 103.823C315.072 103.417 314.921 102.952 314.902 102.429H316.564C316.595 102.816 316.763 103.133 317.067 103.38C317.372 103.623 317.738 103.744 318.166 103.744C318.502 103.744 318.8 103.667 319.062 103.513C319.323 103.36 319.53 103.146 319.68 102.872C319.831 102.598 319.905 102.286 319.902 101.935C319.905 101.578 319.83 101.261 319.676 100.984C319.522 100.707 319.311 100.49 319.043 100.333C318.776 100.173 318.468 100.093 318.12 100.093C317.837 100.09 317.558 100.142 317.284 100.25C317.01 100.357 316.793 100.499 316.633 100.674L315.087 100.42L315.581 95.5455H321.065V96.9766H316.998L316.726 99.4833H316.781C316.957 99.2771 317.204 99.1063 317.524 98.9709C317.845 98.8324 318.195 98.7631 318.577 98.7631C319.149 98.7631 319.66 98.8986 320.11 99.1694C320.559 99.4371 320.913 99.8065 321.171 100.277C321.43 100.748 321.559 101.287 321.559 101.893C321.559 102.518 321.415 103.075 321.125 103.564C320.839 104.051 320.441 104.434 319.93 104.714C319.422 104.991 318.834 105.129 318.166 105.129Z" fill="white"/>
</g>
<defs>
<clipPath id="clip0_87_979">
<rect width="56.9078" height="48" fill="white" transform="translate(279.458 86)"/>
</clipPath>
</defs>
</svg>
