<svg width="439" height="370" viewBox="0 0 439 370" fill="none" xmlns="http://www.w3.org/2000/svg">
<line x1="439" y1="340.5" x2="39" y2="340.5" stroke="#ECECEC"/>
<line x1="439" y1="292.5" x2="39" y2="292.5" stroke="#ECECEC"/>
<line x1="439" y1="244.5" x2="39" y2="244.5" stroke="#ECECEC"/>
<line x1="439" y1="196.5" x2="39" y2="196.5" stroke="#ECECEC"/>
<line x1="439" y1="148.5" x2="39" y2="148.5" stroke="#ECECEC"/>
<line x1="439" y1="100.5" x2="39" y2="100.5" stroke="#ECECEC"/>
<line x1="439" y1="52.5" x2="39" y2="52.5" stroke="#ECECEC"/>
<line x1="439" y1="4.5" x2="39" y2="4.5" stroke="#ECECEC"/>
<path d="M17.0309 346.71C16.3109 347.7 15.3009 348.195 14.0009 348.195C12.7109 348.195 11.6959 347.7 10.9559 346.71C10.2359 345.72 9.87588 344.4 9.87588 342.75C9.87588 341.1 10.2359 339.78 10.9559 338.79C11.6959 337.8 12.7109 337.305 14.0009 337.305C15.3009 337.305 16.3109 337.8 17.0309 338.79C17.7609 339.77 18.1259 341.09 18.1259 342.75C18.1259 344.41 17.7609 345.73 17.0309 346.71ZM14.0009 346.515C14.7809 346.515 15.3759 346.19 15.7859 345.54C16.1959 344.89 16.4009 343.96 16.4009 342.75C16.4009 341.54 16.1959 340.61 15.7859 339.96C15.3759 339.31 14.7809 338.985 14.0009 338.985C13.2309 338.985 12.6359 339.31 12.2159 339.96C11.8059 340.61 11.6009 341.54 11.6009 342.75C11.6009 343.96 11.8059 344.89 12.2159 345.54C12.6359 346.19 13.2309 346.515 14.0009 346.515Z" fill="#68696D"/>
<path d="M2.45623 288.475L5.21623 287.5H6.71623V298H4.99123V289.345L2.87623 289.945L2.45623 288.475ZM15.5973 296.71C14.8773 297.7 13.8673 298.195 12.5673 298.195C11.2773 298.195 10.2623 297.7 9.52229 296.71C8.80229 295.72 8.44229 294.4 8.44229 292.75C8.44229 291.1 8.80229 289.78 9.52229 288.79C10.2623 287.8 11.2773 287.305 12.5673 287.305C13.8673 287.305 14.8773 287.8 15.5973 288.79C16.3273 289.77 16.6923 291.09 16.6923 292.75C16.6923 294.41 16.3273 295.73 15.5973 296.71ZM12.5673 296.515C13.3473 296.515 13.9423 296.19 14.3523 295.54C14.7623 294.89 14.9673 293.96 14.9673 292.75C14.9673 291.54 14.7623 290.61 14.3523 289.96C13.9423 289.31 13.3473 288.985 12.5673 288.985C11.7973 288.985 11.2023 289.31 10.7823 289.96C10.3723 290.61 10.1673 291.54 10.1673 292.75C10.1673 293.96 10.3723 294.89 10.7823 295.54C11.2023 296.19 11.7973 296.515 12.5673 296.515ZM25.0455 296.71C24.3255 297.7 23.3155 298.195 22.0155 298.195C20.7255 298.195 19.7105 297.7 18.9705 296.71C18.2505 295.72 17.8905 294.4 17.8905 292.75C17.8905 291.1 18.2505 289.78 18.9705 288.79C19.7105 287.8 20.7255 287.305 22.0155 287.305C23.3155 287.305 24.3255 287.8 25.0455 288.79C25.7755 289.77 26.1405 291.09 26.1405 292.75C26.1405 294.41 25.7755 295.73 25.0455 296.71ZM22.0155 296.515C22.7955 296.515 23.3905 296.19 23.8005 295.54C24.2105 294.89 24.4155 293.96 24.4155 292.75C24.4155 291.54 24.2105 290.61 23.8005 289.96C23.3905 289.31 22.7955 288.985 22.0155 288.985C21.2455 288.985 20.6505 289.31 20.2305 289.96C19.8205 290.61 19.6155 291.54 19.6155 292.75C19.6155 293.96 19.8205 294.89 20.2305 295.54C20.6505 296.19 21.2455 296.515 22.0155 296.515Z" fill="#68696D"/>
<path d="M8.53527 249H1.62027V247.65L5.28027 243.915C6.17027 243.025 6.61527 242.255 6.61527 241.605C6.61527 241.105 6.46527 240.71 6.16527 240.42C5.86527 240.13 5.47527 239.985 4.99527 239.985C4.11527 239.985 3.46527 240.42 3.04527 241.29L1.59027 240.435C1.91027 239.745 2.37027 239.22 2.97027 238.86C3.57027 238.49 4.24027 238.305 4.98027 238.305C5.91027 238.305 6.70027 238.595 7.35027 239.175C8.01027 239.765 8.34027 240.555 8.34027 241.545C8.34027 242.605 7.74527 243.745 6.55527 244.965L4.18527 247.335H8.53527V249ZM16.7032 247.71C15.9832 248.7 14.9732 249.195 13.6732 249.195C12.3832 249.195 11.3682 248.7 10.6282 247.71C9.90824 246.72 9.54824 245.4 9.54824 243.75C9.54824 242.1 9.90824 240.78 10.6282 239.79C11.3682 238.8 12.3832 238.305 13.6732 238.305C14.9732 238.305 15.9832 238.8 16.7032 239.79C17.4332 240.77 17.7982 242.09 17.7982 243.75C17.7982 245.41 17.4332 246.73 16.7032 247.71ZM13.6732 247.515C14.4532 247.515 15.0482 247.19 15.4582 246.54C15.8682 245.89 16.0732 244.96 16.0732 243.75C16.0732 242.54 15.8682 241.61 15.4582 240.96C15.0482 240.31 14.4532 239.985 13.6732 239.985C12.9032 239.985 12.3082 240.31 11.8882 240.96C11.4782 241.61 11.2732 242.54 11.2732 243.75C11.2732 244.96 11.4782 245.89 11.8882 246.54C12.3082 247.19 12.9032 247.515 13.6732 247.515ZM26.1515 247.71C25.4315 248.7 24.4215 249.195 23.1215 249.195C21.8315 249.195 20.8165 248.7 20.0765 247.71C19.3565 246.72 18.9965 245.4 18.9965 243.75C18.9965 242.1 19.3565 240.78 20.0765 239.79C20.8165 238.8 21.8315 238.305 23.1215 238.305C24.4215 238.305 25.4315 238.8 26.1515 239.79C26.8815 240.77 27.2465 242.09 27.2465 243.75C27.2465 245.41 26.8815 246.73 26.1515 247.71ZM23.1215 247.515C23.9015 247.515 24.4965 247.19 24.9065 246.54C25.3165 245.89 25.5215 244.96 25.5215 243.75C25.5215 242.54 25.3165 241.61 24.9065 240.96C24.4965 240.31 23.9015 239.985 23.1215 239.985C22.3515 239.985 21.7565 240.31 21.3365 240.96C20.9265 241.61 20.7215 242.54 20.7215 243.75C20.7215 244.96 20.9265 245.89 21.3365 246.54C21.7565 247.19 22.3515 247.515 23.1215 247.515Z" fill="#68696D"/>
<path d="M8.14147 195.97L6.01147 198.79C6.79147 198.97 7.41147 199.33 7.87147 199.87C8.34146 200.4 8.57646 201.05 8.57646 201.82C8.57646 202.87 8.22146 203.695 7.51147 204.295C6.81147 204.895 5.94147 205.195 4.90147 205.195C4.08146 205.195 3.35646 205.01 2.72646 204.64C2.09646 204.26 1.64646 203.72 1.37646 203.02L2.84646 202.165C3.15647 203.065 3.84147 203.515 4.90147 203.515C5.50147 203.515 5.97647 203.365 6.32647 203.065C6.67647 202.755 6.85147 202.34 6.85147 201.82C6.85147 201.3 6.67647 200.89 6.32647 200.59C5.97647 200.29 5.50147 200.14 4.90147 200.14H4.51147L3.82146 199.105L6.08647 196.12H1.69146V194.5H8.14147V195.97ZM16.8571 203.71C16.1371 204.7 15.1271 205.195 13.8271 205.195C12.5371 205.195 11.5221 204.7 10.7821 203.71C10.0621 202.72 9.70205 201.4 9.70205 199.75C9.70205 198.1 10.0621 196.78 10.7821 195.79C11.5221 194.8 12.5371 194.305 13.8271 194.305C15.1271 194.305 16.1371 194.8 16.8571 195.79C17.5871 196.77 17.9521 198.09 17.9521 199.75C17.9521 201.41 17.5871 202.73 16.8571 203.71ZM13.8271 203.515C14.6071 203.515 15.2021 203.19 15.6121 202.54C16.0221 201.89 16.2271 200.96 16.2271 199.75C16.2271 198.54 16.0221 197.61 15.6121 196.96C15.2021 196.31 14.6071 195.985 13.8271 195.985C13.0571 195.985 12.4621 196.31 12.0421 196.96C11.6321 197.61 11.4271 198.54 11.4271 199.75C11.4271 200.96 11.6321 201.89 12.0421 202.54C12.4621 203.19 13.0571 203.515 13.8271 203.515ZM26.3053 203.71C25.5853 204.7 24.5753 205.195 23.2753 205.195C21.9853 205.195 20.9703 204.7 20.2303 203.71C19.5103 202.72 19.1503 201.4 19.1503 199.75C19.1503 198.1 19.5103 196.78 20.2303 195.79C20.9703 194.8 21.9853 194.305 23.2753 194.305C24.5753 194.305 25.5853 194.8 26.3053 195.79C27.0353 196.77 27.4003 198.09 27.4003 199.75C27.4003 201.41 27.0353 202.73 26.3053 203.71ZM23.2753 203.515C24.0553 203.515 24.6503 203.19 25.0603 202.54C25.4703 201.89 25.6753 200.96 25.6753 199.75C25.6753 198.54 25.4703 197.61 25.0603 196.96C24.6503 196.31 24.0553 195.985 23.2753 195.985C22.5053 195.985 21.9103 196.31 21.4903 196.96C21.0803 197.61 20.8753 198.54 20.8753 199.75C20.8753 200.96 21.0803 201.89 21.4903 202.54C21.9103 203.19 22.5053 203.515 23.2753 203.515Z" fill="#68696D"/>
<path d="M7.44617 151.505H8.64617V153.11H7.44617V155H5.70617V153.11H0.546172V151.505L4.16117 144.5H6.03617L2.42117 151.505H5.70617V148.775H7.44617V151.505ZM16.6573 153.71C15.9373 154.7 14.9273 155.195 13.6273 155.195C12.3373 155.195 11.3223 154.7 10.5823 153.71C9.86234 152.72 9.50234 151.4 9.50234 149.75C9.50234 148.1 9.86234 146.78 10.5823 145.79C11.3223 144.8 12.3373 144.305 13.6273 144.305C14.9273 144.305 15.9373 144.8 16.6573 145.79C17.3873 146.77 17.7523 148.09 17.7523 149.75C17.7523 151.41 17.3873 152.73 16.6573 153.71ZM13.6273 153.515C14.4073 153.515 15.0023 153.19 15.4123 152.54C15.8223 151.89 16.0273 150.96 16.0273 149.75C16.0273 148.54 15.8223 147.61 15.4123 146.96C15.0023 146.31 14.4073 145.985 13.6273 145.985C12.8573 145.985 12.2623 146.31 11.8423 146.96C11.4323 147.61 11.2273 148.54 11.2273 149.75C11.2273 150.96 11.4323 151.89 11.8423 152.54C12.2623 153.19 12.8573 153.515 13.6273 153.515ZM26.1056 153.71C25.3856 154.7 24.3756 155.195 23.0756 155.195C21.7856 155.195 20.7706 154.7 20.0306 153.71C19.3106 152.72 18.9506 151.4 18.9506 149.75C18.9506 148.1 19.3106 146.78 20.0306 145.79C20.7706 144.8 21.7856 144.305 23.0756 144.305C24.3756 144.305 25.3856 144.8 26.1056 145.79C26.8356 146.77 27.2006 148.09 27.2006 149.75C27.2006 151.41 26.8356 152.73 26.1056 153.71ZM23.0756 153.515C23.8556 153.515 24.4506 153.19 24.8606 152.54C25.2706 151.89 25.4756 150.96 25.4756 149.75C25.4756 148.54 25.2706 147.61 24.8606 146.96C24.4506 146.31 23.8556 145.985 23.0756 145.985C22.3056 145.985 21.7106 146.31 21.2906 146.96C20.8806 147.61 20.6756 148.54 20.6756 149.75C20.6756 150.96 20.8806 151.89 21.2906 152.54C21.7106 153.19 22.3056 153.515 23.0756 153.515Z" fill="#68696D"/>
<path d="M3.88703 100.46H5.20703C6.20703 100.46 7.05203 100.76 7.74203 101.36C8.43203 101.95 8.77703 102.77 8.77703 103.82C8.77703 104.87 8.42203 105.695 7.71203 106.295C7.01203 106.895 6.14203 107.195 5.10203 107.195C4.25203 107.195 3.51203 107 2.88203 106.61C2.25203 106.22 1.80203 105.665 1.53203 104.945L3.01703 104.09C3.30703 105.04 4.00203 105.515 5.10203 105.515C5.69203 105.515 6.16203 105.365 6.51203 105.065C6.87203 104.755 7.05203 104.34 7.05203 103.82C7.05203 103.31 6.87703 102.905 6.52703 102.605C6.17703 102.295 5.71203 102.14 5.13203 102.14H2.07203L2.47703 96.5H8.32703V98.12H4.06703L3.88703 100.46ZM16.7765 105.71C16.0565 106.7 15.0465 107.195 13.7465 107.195C12.4565 107.195 11.4415 106.7 10.7015 105.71C9.98148 104.72 9.62148 103.4 9.62148 101.75C9.62148 100.1 9.98148 98.78 10.7015 97.79C11.4415 96.8 12.4565 96.305 13.7465 96.305C15.0465 96.305 16.0565 96.8 16.7765 97.79C17.5065 98.77 17.8715 100.09 17.8715 101.75C17.8715 103.41 17.5065 104.73 16.7765 105.71ZM13.7465 105.515C14.5265 105.515 15.1215 105.19 15.5315 104.54C15.9415 103.89 16.1465 102.96 16.1465 101.75C16.1465 100.54 15.9415 99.61 15.5315 98.96C15.1215 98.31 14.5265 97.985 13.7465 97.985C12.9765 97.985 12.3815 98.31 11.9615 98.96C11.5515 99.61 11.3465 100.54 11.3465 101.75C11.3465 102.96 11.5515 103.89 11.9615 104.54C12.3815 105.19 12.9765 105.515 13.7465 105.515ZM26.2247 105.71C25.5047 106.7 24.4947 107.195 23.1947 107.195C21.9047 107.195 20.8897 106.7 20.1497 105.71C19.4297 104.72 19.0697 103.4 19.0697 101.75C19.0697 100.1 19.4297 98.78 20.1497 97.79C20.8897 96.8 21.9047 96.305 23.1947 96.305C24.4947 96.305 25.5047 96.8 26.2247 97.79C26.9547 98.77 27.3197 100.09 27.3197 101.75C27.3197 103.41 26.9547 104.73 26.2247 105.71ZM23.1947 105.515C23.9747 105.515 24.5697 105.19 24.9797 104.54C25.3897 103.89 25.5947 102.96 25.5947 101.75C25.5947 100.54 25.3897 99.61 24.9797 98.96C24.5697 98.31 23.9747 97.985 23.1947 97.985C22.4247 97.985 21.8297 98.31 21.4097 98.96C20.9997 99.61 20.7947 100.54 20.7947 101.75C20.7947 102.96 20.9997 103.89 21.4097 104.54C21.8297 105.19 22.4247 105.515 23.1947 105.515Z" fill="#68696D"/>
<path d="M4.36484 52.025H4.55984C5.65984 52.025 6.54984 52.36 7.22984 53.03C7.91984 53.69 8.26484 54.55 8.26484 55.61C8.26484 56.66 7.91984 57.525 7.22984 58.205C6.53984 58.865 5.64984 59.195 4.55984 59.195C3.45984 59.195 2.56484 58.865 1.87484 58.205C1.18484 57.525 0.839844 56.66 0.839844 55.61C0.839844 54.81 1.04984 54.105 1.46984 53.495L4.79984 48.5H6.76484L4.36484 52.025ZM4.55984 57.56C5.13984 57.56 5.61484 57.385 5.98484 57.035C6.35484 56.675 6.53984 56.2 6.53984 55.61C6.53984 55.02 6.35484 54.55 5.98484 54.2C5.61484 53.84 5.13984 53.66 4.55984 53.66C3.95984 53.66 3.47484 53.84 3.10484 54.2C2.74484 54.55 2.56484 55.02 2.56484 55.61C2.56484 56.2 2.74484 56.675 3.10484 57.035C3.47484 57.385 3.95984 57.56 4.55984 57.56ZM16.3937 57.71C15.6737 58.7 14.6637 59.195 13.3637 59.195C12.0737 59.195 11.0587 58.7 10.3187 57.71C9.59867 56.72 9.23867 55.4 9.23867 53.75C9.23867 52.1 9.59867 50.78 10.3187 49.79C11.0587 48.8 12.0737 48.305 13.3637 48.305C14.6637 48.305 15.6737 48.8 16.3937 49.79C17.1237 50.77 17.4887 52.09 17.4887 53.75C17.4887 55.41 17.1237 56.73 16.3937 57.71ZM13.3637 57.515C14.1437 57.515 14.7387 57.19 15.1487 56.54C15.5587 55.89 15.7637 54.96 15.7637 53.75C15.7637 52.54 15.5587 51.61 15.1487 50.96C14.7387 50.31 14.1437 49.985 13.3637 49.985C12.5937 49.985 11.9987 50.31 11.5787 50.96C11.1687 51.61 10.9637 52.54 10.9637 53.75C10.9637 54.96 11.1687 55.89 11.5787 56.54C11.9987 57.19 12.5937 57.515 13.3637 57.515ZM25.8419 57.71C25.1219 58.7 24.1119 59.195 22.8119 59.195C21.5219 59.195 20.5069 58.7 19.7669 57.71C19.0469 56.72 18.6869 55.4 18.6869 53.75C18.6869 52.1 19.0469 50.78 19.7669 49.79C20.5069 48.8 21.5219 48.305 22.8119 48.305C24.1119 48.305 25.1219 48.8 25.8419 49.79C26.5719 50.77 26.9369 52.09 26.9369 53.75C26.9369 55.41 26.5719 56.73 25.8419 57.71ZM22.8119 57.515C23.5919 57.515 24.1869 57.19 24.5969 56.54C25.0069 55.89 25.2119 54.96 25.2119 53.75C25.2119 52.54 25.0069 51.61 24.5969 50.96C24.1869 50.31 23.5919 49.985 22.8119 49.985C22.0419 49.985 21.4469 50.31 21.0269 50.96C20.6169 51.61 20.4119 52.54 20.4119 53.75C20.4119 54.96 20.6169 55.89 21.0269 56.54C21.4469 57.19 22.0419 57.515 22.8119 57.515Z" fill="#68696D"/>
<path d="M1.39297 2.15V0.499999H8.06797V2L4.37797 11H2.56297L6.19297 2.15H1.39297ZM15.6905 9.71C14.9705 10.7 13.9605 11.195 12.6605 11.195C11.3705 11.195 10.3555 10.7 9.61555 9.71C8.89555 8.72 8.53555 7.4 8.53555 5.75C8.53555 4.1 8.89555 2.78 9.61555 1.79C10.3555 0.799999 11.3705 0.304999 12.6605 0.304999C13.9605 0.304999 14.9705 0.799999 15.6905 1.79C16.4205 2.77 16.7855 4.09 16.7855 5.75C16.7855 7.41 16.4205 8.73 15.6905 9.71ZM12.6605 9.515C13.4405 9.515 14.0355 9.19 14.4455 8.54C14.8555 7.89 15.0605 6.96 15.0605 5.75C15.0605 4.54 14.8555 3.61 14.4455 2.96C14.0355 2.31 13.4405 1.985 12.6605 1.985C11.8905 1.985 11.2955 2.31 10.8755 2.96C10.4655 3.61 10.2605 4.54 10.2605 5.75C10.2605 6.96 10.4655 7.89 10.8755 8.54C11.2955 9.19 11.8905 9.515 12.6605 9.515ZM25.1388 9.71C24.4188 10.7 23.4088 11.195 22.1088 11.195C20.8188 11.195 19.8038 10.7 19.0638 9.71C18.3438 8.72 17.9838 7.4 17.9838 5.75C17.9838 4.1 18.3438 2.78 19.0638 1.79C19.8038 0.799999 20.8188 0.304999 22.1088 0.304999C23.4088 0.304999 24.4188 0.799999 25.1388 1.79C25.8688 2.77 26.2338 4.09 26.2338 5.75C26.2338 7.41 25.8688 8.73 25.1388 9.71ZM22.1088 9.515C22.8888 9.515 23.4838 9.19 23.8938 8.54C24.3038 7.89 24.5088 6.96 24.5088 5.75C24.5088 4.54 24.3038 3.61 23.8938 2.96C23.4838 2.31 22.8888 1.985 22.1088 1.985C21.3388 1.985 20.7438 2.31 20.3238 2.96C19.9138 3.61 19.7088 4.54 19.7088 5.75C19.7088 6.96 19.9138 7.89 20.3238 8.54C20.7438 9.19 21.3388 9.515 22.1088 9.515Z" fill="#68696D"/>
<path d="M66 89C66 86.2386 68.2386 84 71 84H97C99.7614 84 102 86.2386 102 89V340H66V89Z" fill="#D1D7FF"/>
<path d="M149 51C149 48.2386 151.239 46 154 46H180C182.761 46 185 48.2386 185 51V340H149V51Z" fill="#586CF5"/>
<path d="M228 85C228 82.2386 230.239 80 233 80H259C261.761 80 264 82.2386 264 85V340H228V85Z" fill="#586CF5"/>
<path d="M299 85C299 82.2386 301.239 80 304 80H330C332.761 80 335 82.2386 335 85V340H299V85Z" fill="#586CF5"/>
<path d="M370 26C370 23.2386 372.239 21 375 21H401C403.761 21 406 23.2386 406 26V340H370V26Z" fill="#586CF5"/>
<path d="M79.9639 366H78.1039L77.3689 363.885H72.8989L72.1639 366H70.2889L74.0989 355.5H76.1689L79.9639 366ZM75.1339 357.525L73.4689 362.265H76.7989L75.1339 357.525ZM83.695 364.2L85.78 358.5H87.55L84.625 366H82.75L79.825 358.5H81.595L83.695 364.2ZM94.2529 359.61V358.5H95.8429V365.655C95.8429 366.795 95.4679 367.67 94.7179 368.28C93.9779 368.89 93.0679 369.195 91.9879 369.195C90.2579 369.195 89.0729 368.59 88.4329 367.38L89.8279 366.57C90.2179 367.34 90.9479 367.725 92.0179 367.725C92.7179 367.725 93.2629 367.54 93.6529 367.17C94.0529 366.81 94.2529 366.305 94.2529 365.655V364.74C93.6429 365.61 92.7729 366.045 91.6429 366.045C90.5929 366.045 89.6979 365.67 88.9579 364.92C88.2279 364.16 87.8629 363.245 87.8629 362.175C87.8629 361.095 88.2279 360.185 88.9579 359.445C89.6879 358.685 90.5829 358.305 91.6429 358.305C92.7729 358.305 93.6429 358.74 94.2529 359.61ZM90.1579 363.855C90.6179 364.305 91.1879 364.53 91.8679 364.53C92.5479 364.53 93.1129 364.305 93.5629 363.855C94.0229 363.405 94.2529 362.845 94.2529 362.175C94.2529 361.505 94.0229 360.945 93.5629 360.495C93.1129 360.045 92.5479 359.82 91.8679 359.82C91.1879 359.82 90.6179 360.045 90.1579 360.495C89.7079 360.945 89.4829 361.505 89.4829 362.175C89.4829 362.845 89.7079 363.405 90.1579 363.855Z" fill="#68696D"/>
<path d="M158.097 366.195C156.467 366.195 155.342 365.555 154.722 364.275L156.207 363.405C156.557 364.145 157.192 364.515 158.112 364.515C158.712 364.515 159.172 364.37 159.492 364.08C159.822 363.78 159.987 363.36 159.987 362.82V355.5H161.712V362.82C161.712 363.9 161.372 364.735 160.692 365.325C160.022 365.905 159.157 366.195 158.097 366.195ZM168.664 362.52V358.5H170.284V366H168.664V365.04C168.164 365.81 167.389 366.195 166.339 366.195C165.469 366.195 164.769 365.92 164.239 365.37C163.719 364.81 163.459 364.055 163.459 363.105V358.5H165.079V362.94C165.079 363.5 165.229 363.93 165.529 364.23C165.829 364.53 166.239 364.68 166.759 364.68C167.349 364.68 167.814 364.5 168.154 364.14C168.494 363.77 168.664 363.23 168.664 362.52ZM176.123 358.305C176.993 358.305 177.688 358.585 178.208 359.145C178.738 359.695 179.003 360.445 179.003 361.395V366H177.383V361.56C177.383 361 177.233 360.57 176.933 360.27C176.633 359.97 176.223 359.82 175.703 359.82C175.113 359.82 174.648 360.005 174.308 360.375C173.968 360.735 173.798 361.27 173.798 361.98V366H172.178V358.5H173.798V359.46C174.298 358.69 175.073 358.305 176.123 358.305Z" fill="#68696D"/>
<path d="M239.131 366.195C237.501 366.195 236.376 365.555 235.756 364.275L237.241 363.405C237.591 364.145 238.226 364.515 239.146 364.515C239.746 364.515 240.206 364.37 240.526 364.08C240.856 363.78 241.021 363.36 241.021 362.82V355.5H242.746V362.82C242.746 363.9 242.406 364.735 241.726 365.325C241.056 365.905 240.191 366.195 239.131 366.195ZM249.698 362.52V358.5H251.318V366H249.698V365.04C249.198 365.81 248.423 366.195 247.373 366.195C246.503 366.195 245.803 365.92 245.273 365.37C244.753 364.81 244.493 364.055 244.493 363.105V358.5H246.113V362.94C246.113 363.5 246.263 363.93 246.563 364.23C246.863 364.53 247.273 364.68 247.793 364.68C248.383 364.68 248.848 364.5 249.188 364.14C249.528 363.77 249.698 363.23 249.698 362.52ZM254.833 366H253.213V355.05H254.833V366Z" fill="#68696D"/>
<path d="M313.871 366H312.011L311.276 363.885H306.806L306.071 366H304.196L308.006 355.5H310.076L313.871 366ZM309.041 357.525L307.376 362.265H310.706L309.041 357.525ZM319.862 362.52V358.5H321.482V366H319.862V365.04C319.362 365.81 318.587 366.195 317.537 366.195C316.667 366.195 315.967 365.92 315.437 365.37C314.917 364.81 314.657 364.055 314.657 363.105V358.5H316.277V362.94C316.277 363.5 316.427 363.93 316.727 364.23C317.027 364.53 317.437 364.68 317.957 364.68C318.547 364.68 319.012 364.5 319.352 364.14C319.692 363.77 319.862 363.23 319.862 362.52ZM329.346 359.61V358.5H330.936V365.655C330.936 366.795 330.561 367.67 329.811 368.28C329.071 368.89 328.161 369.195 327.081 369.195C325.351 369.195 324.166 368.59 323.526 367.38L324.921 366.57C325.311 367.34 326.041 367.725 327.111 367.725C327.811 367.725 328.356 367.54 328.746 367.17C329.146 366.81 329.346 366.305 329.346 365.655V364.74C328.736 365.61 327.866 366.045 326.736 366.045C325.686 366.045 324.791 365.67 324.051 364.92C323.321 364.16 322.956 363.245 322.956 362.175C322.956 361.095 323.321 360.185 324.051 359.445C324.781 358.685 325.676 358.305 326.736 358.305C327.866 358.305 328.736 358.74 329.346 359.61ZM325.251 363.855C325.711 364.305 326.281 364.53 326.961 364.53C327.641 364.53 328.206 364.305 328.656 363.855C329.116 363.405 329.346 362.845 329.346 362.175C329.346 361.505 329.116 360.945 328.656 360.495C328.206 360.045 327.641 359.82 326.961 359.82C326.281 359.82 325.711 360.045 325.251 360.495C324.801 360.945 324.576 361.505 324.576 362.175C324.576 362.845 324.801 363.405 325.251 363.855Z" fill="#68696D"/>
<path d="M386.003 366.195C384.993 366.195 384.133 365.97 383.423 365.52C382.723 365.06 382.233 364.425 381.953 363.615L383.438 362.745C383.858 363.925 384.728 364.515 386.048 364.515C386.688 364.515 387.173 364.39 387.503 364.14C387.833 363.89 387.998 363.555 387.998 363.135C387.998 362.715 387.823 362.39 387.473 362.16C387.123 361.93 386.503 361.68 385.613 361.41C384.703 361.14 383.968 360.82 383.408 360.45C382.728 359.97 382.388 359.265 382.388 358.335C382.388 357.405 382.718 356.67 383.378 356.13C384.028 355.58 384.823 355.305 385.763 355.305C386.593 355.305 387.323 355.51 387.953 355.92C388.593 356.32 389.083 356.885 389.423 357.615L387.968 358.455C387.528 357.475 386.793 356.985 385.763 356.985C385.263 356.985 384.863 357.105 384.563 357.345C384.263 357.575 384.113 357.89 384.113 358.29C384.113 358.68 384.263 358.99 384.563 359.22C384.863 359.44 385.418 359.675 386.228 359.925C386.728 360.095 387.018 360.195 387.098 360.225C387.228 360.265 387.488 360.365 387.878 360.525C388.198 360.655 388.453 360.795 388.643 360.945C389.423 361.555 389.783 362.275 389.723 363.105C389.723 364.055 389.378 364.81 388.688 365.37C388.018 365.92 387.123 366.195 386.003 366.195ZM398.554 362.94H392.584C392.704 363.5 392.974 363.935 393.394 364.245C393.824 364.555 394.354 364.71 394.984 364.71C395.834 364.71 396.479 364.4 396.919 363.78L398.254 364.56C397.524 365.65 396.429 366.195 394.969 366.195C393.759 366.195 392.774 365.825 392.014 365.085C391.264 364.335 390.889 363.39 390.889 362.25C390.889 361.14 391.259 360.205 391.999 359.445C392.729 358.685 393.679 358.305 394.849 358.305C395.939 358.305 396.839 358.69 397.549 359.46C398.259 360.23 398.614 361.165 398.614 362.265C398.614 362.465 398.594 362.69 398.554 362.94ZM392.569 361.62H396.979C396.869 361.03 396.619 360.575 396.229 360.255C395.849 359.935 395.384 359.775 394.834 359.775C394.234 359.775 393.734 359.94 393.334 360.27C392.934 360.6 392.679 361.05 392.569 361.62ZM404.284 358.305C405.304 358.305 406.184 358.69 406.924 359.46C407.654 360.22 408.019 361.15 408.019 362.25C408.019 363.36 407.654 364.295 406.924 365.055C406.194 365.815 405.314 366.195 404.284 366.195C403.154 366.195 402.279 365.775 401.659 364.935V369H400.039V358.5H401.659V359.58C402.269 358.73 403.144 358.305 404.284 358.305ZM402.334 363.975C402.784 364.425 403.349 364.65 404.029 364.65C404.709 364.65 405.274 364.425 405.724 363.975C406.174 363.515 406.399 362.94 406.399 362.25C406.399 361.56 406.174 360.99 405.724 360.54C405.274 360.08 404.709 359.85 404.029 359.85C403.349 359.85 402.784 360.08 402.334 360.54C401.884 360.99 401.659 361.56 401.659 362.25C401.659 362.93 401.884 363.505 402.334 363.975Z" fill="#68696D"/>
</svg>
