<svg width="330" height="196" viewBox="0 0 330 196" fill="none" xmlns="http://www.w3.org/2000/svg">
<line x1="26" y1="169.5" x2="292" y2="169.5" stroke="#ECECEC"/>
<line x1="26.5" y1="-2.95783e-08" x2="26.5" y2="165" stroke="#ECECEC"/>
<path d="M214.307 195.168C212.987 195.168 212.063 194.636 211.535 193.572L212.963 192.756C213.227 193.284 213.675 193.548 214.307 193.548C214.739 193.548 215.063 193.448 215.279 193.248C215.503 193.04 215.615 192.752 215.615 192.384V186.6H217.259V192.384C217.259 193.264 216.983 193.948 216.431 194.436C215.887 194.924 215.179 195.168 214.307 195.168ZM222.639 192.24V189H224.187V195H222.639V194.328C222.271 194.888 221.675 195.168 220.851 195.168C220.195 195.168 219.651 194.948 219.219 194.508C218.795 194.06 218.583 193.452 218.583 192.684V189H220.131V192.492C220.131 192.884 220.235 193.188 220.443 193.404C220.659 193.62 220.951 193.728 221.319 193.728C221.727 193.728 222.047 193.604 222.279 193.356C222.519 193.1 222.639 192.728 222.639 192.24ZM227.152 195H225.604V186.24H227.152V195Z" fill="black"/>
<path d="M87.3262 195.168C86.0062 195.168 85.0822 194.636 84.5542 193.572L85.9822 192.756C86.2462 193.284 86.6942 193.548 87.3262 193.548C87.7582 193.548 88.0822 193.448 88.2982 193.248C88.5222 193.04 88.6342 192.752 88.6342 192.384V186.6H90.2782V192.384C90.2782 193.264 90.0022 193.948 89.4502 194.436C88.9062 194.924 88.1982 195.168 87.3262 195.168ZM95.6582 192.24V189H97.2062V195H95.6582V194.328C95.2902 194.888 94.6942 195.168 93.8702 195.168C93.2142 195.168 92.6702 194.948 92.2382 194.508C91.8142 194.06 91.6022 193.452 91.6022 192.684V189H93.1502V192.492C93.1502 192.884 93.2542 193.188 93.4622 193.404C93.6782 193.62 93.9702 193.728 94.3382 193.728C94.7462 193.728 95.0662 193.604 95.2982 193.356C95.5382 193.1 95.6582 192.728 95.6582 192.24ZM101.96 188.832C102.624 188.832 103.164 189.052 103.58 189.492C104.012 189.94 104.228 190.548 104.228 191.316V195H102.68V191.508C102.68 191.116 102.572 190.812 102.356 190.596C102.148 190.38 101.86 190.272 101.492 190.272C101.084 190.272 100.76 190.4 100.52 190.656C100.288 190.904 100.172 191.272 100.172 191.76V195H98.624V189H100.172V189.672C100.54 189.112 101.136 188.832 101.96 188.832Z" fill="black"/>
<path d="M316.751 125H314.951L314.447 123.488H311.099L310.595 125H308.807L311.747 116.6H313.799L316.751 125ZM312.779 118.508L311.627 121.94H313.931L312.779 118.508ZM319.745 123.2L321.209 119H322.913L320.633 125H318.869L316.589 119H318.293L319.745 123.2ZM328.021 119.744V119H329.533V124.712C329.533 125.632 329.225 126.34 328.609 126.836C328.001 127.324 327.265 127.568 326.401 127.568C325.041 127.568 324.093 127.08 323.557 126.104L324.877 125.348C325.173 125.908 325.697 126.188 326.449 126.188C326.937 126.188 327.321 126.06 327.601 125.804C327.881 125.548 328.021 125.184 328.021 124.712V124.064C327.565 124.672 326.925 124.976 326.101 124.976C325.253 124.976 324.541 124.68 323.965 124.088C323.397 123.48 323.113 122.752 323.113 121.904C323.113 121.056 323.401 120.332 323.977 119.732C324.553 119.132 325.261 118.832 326.101 118.832C326.925 118.832 327.565 119.136 328.021 119.744ZM327.541 123.092C327.861 122.78 328.021 122.384 328.021 121.904C328.021 121.424 327.861 121.036 327.541 120.74C327.229 120.428 326.829 120.272 326.341 120.272C325.861 120.272 325.457 120.428 325.129 120.74C324.817 121.036 324.661 121.424 324.661 121.904C324.661 122.384 324.817 122.78 325.129 123.092C325.449 123.396 325.853 123.548 326.341 123.548C326.829 123.548 327.229 123.396 327.541 123.092Z" fill="black"/>
<path d="M9.5318 131H3.9158V129.764L6.7838 126.812C7.4238 126.132 7.7438 125.572 7.7438 125.132C7.7438 124.804 7.6398 124.54 7.4318 124.34C7.2318 124.14 6.9718 124.04 6.6518 124.04C6.0118 124.04 5.5438 124.368 5.2478 125.024L3.8558 124.208C4.1118 123.64 4.4838 123.204 4.9718 122.9C5.4678 122.588 6.0198 122.432 6.6278 122.432C7.3878 122.432 8.0398 122.672 8.5838 123.152C9.1278 123.624 9.3998 124.264 9.3998 125.072C9.3998 125.944 8.9398 126.84 8.0198 127.76L6.3758 129.404H9.5318V131ZM13.6296 131.168C12.5816 131.168 11.7576 130.772 11.1576 129.98C10.5656 129.172 10.2696 128.112 10.2696 126.8C10.2696 125.488 10.5656 124.432 11.1576 123.632C11.7576 122.832 12.5816 122.432 13.6296 122.432C14.6936 122.432 15.5176 122.832 16.1016 123.632C16.6936 124.432 16.9896 125.488 16.9896 126.8C16.9896 128.112 16.6936 129.172 16.1016 129.98C15.5176 130.772 14.6936 131.168 13.6296 131.168ZM15.3456 126.8C15.3456 125.904 15.1976 125.22 14.9016 124.748C14.6136 124.276 14.1896 124.04 13.6296 124.04C13.0696 124.04 12.6456 124.276 12.3576 124.748C12.0696 125.22 11.9256 125.904 11.9256 126.8C11.9256 127.696 12.0696 128.38 12.3576 128.852C12.6456 129.316 13.0696 129.548 13.6296 129.548C14.1896 129.548 14.6136 129.312 14.9016 128.84C15.1976 128.368 15.3456 127.688 15.3456 126.8Z" fill="black"/>
<path d="M9.06655 65.632C9.84255 66.096 10.2305 66.772 10.2305 67.66C10.2305 68.436 9.95855 69.048 9.41455 69.496C8.87855 69.944 8.14655 70.168 7.21855 70.168C6.28255 70.168 5.54655 69.944 5.01055 69.496C4.47455 69.048 4.20655 68.436 4.20655 67.66C4.20655 66.78 4.59055 66.104 5.35855 65.632C4.77455 65.216 4.48255 64.636 4.48255 63.892C4.48255 63.116 4.74255 62.512 5.26255 62.08C5.79055 61.648 6.44255 61.432 7.21855 61.432C8.00255 61.432 8.65055 61.648 9.16255 62.08C9.68255 62.512 9.94255 63.116 9.94255 63.892C9.94255 64.636 9.65055 65.216 9.06655 65.632ZM8.29855 63.976C8.29855 63.672 8.19855 63.432 7.99855 63.256C7.79855 63.08 7.53855 62.992 7.21855 62.992C6.89855 62.992 6.63855 63.08 6.43855 63.256C6.23855 63.432 6.13855 63.672 6.13855 63.976C6.13855 64.288 6.23855 64.532 6.43855 64.708C6.63855 64.884 6.89855 64.972 7.21855 64.972C7.53855 64.972 7.79855 64.884 7.99855 64.708C8.19855 64.532 8.29855 64.288 8.29855 63.976ZM8.21455 68.296C8.46255 68.088 8.58655 67.804 8.58655 67.444C8.58655 67.084 8.46255 66.804 8.21455 66.604C7.96655 66.396 7.63455 66.292 7.21855 66.292C6.80255 66.292 6.47055 66.396 6.22255 66.604C5.97455 66.804 5.85055 67.084 5.85055 67.444C5.85055 67.804 5.97455 68.088 6.22255 68.296C6.47055 68.504 6.80255 68.608 7.21855 68.608C7.63455 68.608 7.96655 68.504 8.21455 68.296ZM14.4109 70.168C13.3629 70.168 12.5389 69.772 11.9389 68.98C11.3469 68.172 11.0509 67.112 11.0509 65.8C11.0509 64.488 11.3469 63.432 11.9389 62.632C12.5389 61.832 13.3629 61.432 14.4109 61.432C15.4749 61.432 16.2989 61.832 16.8829 62.632C17.4749 63.432 17.7709 64.488 17.7709 65.8C17.7709 67.112 17.4749 68.172 16.8829 68.98C16.2989 69.772 15.4749 70.168 14.4109 70.168ZM16.1269 65.8C16.1269 64.904 15.9789 64.22 15.6829 63.748C15.3949 63.276 14.9709 63.04 14.4109 63.04C13.8509 63.04 13.4269 63.276 13.1389 63.748C12.8509 64.22 12.7069 64.904 12.7069 65.8C12.7069 66.696 12.8509 67.38 13.1389 67.852C13.4269 68.316 13.8509 68.548 14.4109 68.548C14.9709 68.548 15.3949 68.312 15.6829 67.84C15.9789 67.368 16.1269 66.688 16.1269 65.8Z" fill="black"/>
<path d="M0.753094 10.38L2.96109 9.6H4.40109V18H2.74509V11.352L1.16109 11.796L0.753094 10.38ZM9.04172 18.168C7.99372 18.168 7.16972 17.772 6.56972 16.98C5.97772 16.172 5.68172 15.112 5.68172 13.8C5.68172 12.488 5.97772 11.432 6.56972 10.632C7.16972 9.832 7.99372 9.432 9.04172 9.432C10.1057 9.432 10.9297 9.832 11.5137 10.632C12.1057 11.432 12.4017 12.488 12.4017 13.8C12.4017 15.112 12.1057 16.172 11.5137 16.98C10.9297 17.772 10.1057 18.168 9.04172 18.168ZM10.7577 13.8C10.7577 12.904 10.6097 12.22 10.3137 11.748C10.0257 11.276 9.60172 11.04 9.04172 11.04C8.48172 11.04 8.05772 11.276 7.76972 11.748C7.48172 12.22 7.33772 12.904 7.33772 13.8C7.33772 14.696 7.48172 15.38 7.76972 15.852C8.05772 16.316 8.48172 16.548 9.04172 16.548C9.60172 16.548 10.0257 16.312 10.3137 15.84C10.6097 15.368 10.7577 14.688 10.7577 13.8ZM16.6003 18.168C15.5523 18.168 14.7283 17.772 14.1283 16.98C13.5363 16.172 13.2403 15.112 13.2403 13.8C13.2403 12.488 13.5363 11.432 14.1283 10.632C14.7283 9.832 15.5523 9.432 16.6003 9.432C17.6643 9.432 18.4883 9.832 19.0723 10.632C19.6643 11.432 19.9603 12.488 19.9603 13.8C19.9603 15.112 19.6643 16.172 19.0723 16.98C18.4883 17.772 17.6643 18.168 16.6003 18.168ZM18.3163 13.8C18.3163 12.904 18.1683 12.22 17.8723 11.748C17.5843 11.276 17.1603 11.04 16.6003 11.04C16.0403 11.04 15.6163 11.276 15.3283 11.748C15.0403 12.22 14.8963 12.904 14.8963 13.8C14.8963 14.696 15.0403 15.38 15.3283 15.852C15.6163 16.316 16.0403 16.548 16.6003 16.548C17.1603 16.548 17.5843 16.312 17.8723 15.84C18.1683 15.368 18.3163 14.688 18.3163 13.8Z" fill="black"/>
<rect x="85" y="93" width="18" height="76" rx="2" fill="#CAEAFF"/>
<rect x="210" y="86" width="18" height="85" rx="2" fill="#CAEAFF"/>
<line x1="26" y1="122.5" x2="292" y2="122.5" stroke="#111727"/>
</svg>
