<svg width="519" height="372" viewBox="0 0 519 372" fill="none" xmlns="http://www.w3.org/2000/svg">
<line x1="439" y1="342.5" x2="39" y2="342.5" stroke="#ECECEC"/>
<line x1="468" y1="82.5" x2="39" y2="82.5" stroke="black"/>
<line x1="39.5" y1="-2.18557e-08" x2="39.5" y2="340" stroke="#ECECEC"/>
<path d="M17.0309 348.71C16.3109 349.7 15.3009 350.195 14.0009 350.195C12.7109 350.195 11.6959 349.7 10.9559 348.71C10.2359 347.72 9.87588 346.4 9.87588 344.75C9.87588 343.1 10.2359 341.78 10.9559 340.79C11.6959 339.8 12.7109 339.305 14.0009 339.305C15.3009 339.305 16.3109 339.8 17.0309 340.79C17.7609 341.77 18.1259 343.09 18.1259 344.75C18.1259 346.41 17.7609 347.73 17.0309 348.71ZM14.0009 348.515C14.7809 348.515 15.3759 348.19 15.7859 347.54C16.1959 346.89 16.4009 345.96 16.4009 344.75C16.4009 343.54 16.1959 342.61 15.7859 341.96C15.3759 341.31 14.7809 340.985 14.0009 340.985C13.2309 340.985 12.6359 341.31 12.2159 341.96C11.8059 342.61 11.6009 343.54 11.6009 344.75C11.6009 345.96 11.8059 346.89 12.2159 347.54C12.6359 348.19 13.2309 348.515 14.0009 348.515Z" fill="#68696D"/>
<path d="M2.45623 290.475L5.21623 289.5H6.71623V300H4.99123V291.345L2.87623 291.945L2.45623 290.475ZM15.5973 298.71C14.8773 299.7 13.8673 300.195 12.5673 300.195C11.2773 300.195 10.2623 299.7 9.52229 298.71C8.80229 297.72 8.44229 296.4 8.44229 294.75C8.44229 293.1 8.80229 291.78 9.52229 290.79C10.2623 289.8 11.2773 289.305 12.5673 289.305C13.8673 289.305 14.8773 289.8 15.5973 290.79C16.3273 291.77 16.6923 293.09 16.6923 294.75C16.6923 296.41 16.3273 297.73 15.5973 298.71ZM12.5673 298.515C13.3473 298.515 13.9423 298.19 14.3523 297.54C14.7623 296.89 14.9673 295.96 14.9673 294.75C14.9673 293.54 14.7623 292.61 14.3523 291.96C13.9423 291.31 13.3473 290.985 12.5673 290.985C11.7973 290.985 11.2023 291.31 10.7823 291.96C10.3723 292.61 10.1673 293.54 10.1673 294.75C10.1673 295.96 10.3723 296.89 10.7823 297.54C11.2023 298.19 11.7973 298.515 12.5673 298.515ZM25.0455 298.71C24.3255 299.7 23.3155 300.195 22.0155 300.195C20.7255 300.195 19.7105 299.7 18.9705 298.71C18.2505 297.72 17.8905 296.4 17.8905 294.75C17.8905 293.1 18.2505 291.78 18.9705 290.79C19.7105 289.8 20.7255 289.305 22.0155 289.305C23.3155 289.305 24.3255 289.8 25.0455 290.79C25.7755 291.77 26.1405 293.09 26.1405 294.75C26.1405 296.41 25.7755 297.73 25.0455 298.71ZM22.0155 298.515C22.7955 298.515 23.3905 298.19 23.8005 297.54C24.2105 296.89 24.4155 295.96 24.4155 294.75C24.4155 293.54 24.2105 292.61 23.8005 291.96C23.3905 291.31 22.7955 290.985 22.0155 290.985C21.2455 290.985 20.6505 291.31 20.2305 291.96C19.8205 292.61 19.6155 293.54 19.6155 294.75C19.6155 295.96 19.8205 296.89 20.2305 297.54C20.6505 298.19 21.2455 298.515 22.0155 298.515Z" fill="#68696D"/>
<path d="M8.53527 251H1.62027V249.65L5.28027 245.915C6.17027 245.025 6.61527 244.255 6.61527 243.605C6.61527 243.105 6.46527 242.71 6.16527 242.42C5.86527 242.13 5.47527 241.985 4.99527 241.985C4.11527 241.985 3.46527 242.42 3.04527 243.29L1.59027 242.435C1.91027 241.745 2.37027 241.22 2.97027 240.86C3.57027 240.49 4.24027 240.305 4.98027 240.305C5.91027 240.305 6.70027 240.595 7.35027 241.175C8.01027 241.765 8.34027 242.555 8.34027 243.545C8.34027 244.605 7.74527 245.745 6.55527 246.965L4.18527 249.335H8.53527V251ZM16.7032 249.71C15.9832 250.7 14.9732 251.195 13.6732 251.195C12.3832 251.195 11.3682 250.7 10.6282 249.71C9.90824 248.72 9.54824 247.4 9.54824 245.75C9.54824 244.1 9.90824 242.78 10.6282 241.79C11.3682 240.8 12.3832 240.305 13.6732 240.305C14.9732 240.305 15.9832 240.8 16.7032 241.79C17.4332 242.77 17.7982 244.09 17.7982 245.75C17.7982 247.41 17.4332 248.73 16.7032 249.71ZM13.6732 249.515C14.4532 249.515 15.0482 249.19 15.4582 248.54C15.8682 247.89 16.0732 246.96 16.0732 245.75C16.0732 244.54 15.8682 243.61 15.4582 242.96C15.0482 242.31 14.4532 241.985 13.6732 241.985C12.9032 241.985 12.3082 242.31 11.8882 242.96C11.4782 243.61 11.2732 244.54 11.2732 245.75C11.2732 246.96 11.4782 247.89 11.8882 248.54C12.3082 249.19 12.9032 249.515 13.6732 249.515ZM26.1515 249.71C25.4315 250.7 24.4215 251.195 23.1215 251.195C21.8315 251.195 20.8165 250.7 20.0765 249.71C19.3565 248.72 18.9965 247.4 18.9965 245.75C18.9965 244.1 19.3565 242.78 20.0765 241.79C20.8165 240.8 21.8315 240.305 23.1215 240.305C24.4215 240.305 25.4315 240.8 26.1515 241.79C26.8815 242.77 27.2465 244.09 27.2465 245.75C27.2465 247.41 26.8815 248.73 26.1515 249.71ZM23.1215 249.515C23.9015 249.515 24.4965 249.19 24.9065 248.54C25.3165 247.89 25.5215 246.96 25.5215 245.75C25.5215 244.54 25.3165 243.61 24.9065 242.96C24.4965 242.31 23.9015 241.985 23.1215 241.985C22.3515 241.985 21.7565 242.31 21.3365 242.96C20.9265 243.61 20.7215 244.54 20.7215 245.75C20.7215 246.96 20.9265 247.89 21.3365 248.54C21.7565 249.19 22.3515 249.515 23.1215 249.515Z" fill="#68696D"/>
<path d="M8.14147 197.97L6.01147 200.79C6.79147 200.97 7.41147 201.33 7.87147 201.87C8.34146 202.4 8.57646 203.05 8.57646 203.82C8.57646 204.87 8.22146 205.695 7.51147 206.295C6.81147 206.895 5.94147 207.195 4.90147 207.195C4.08146 207.195 3.35646 207.01 2.72646 206.64C2.09646 206.26 1.64646 205.72 1.37646 205.02L2.84646 204.165C3.15647 205.065 3.84147 205.515 4.90147 205.515C5.50147 205.515 5.97647 205.365 6.32647 205.065C6.67647 204.755 6.85147 204.34 6.85147 203.82C6.85147 203.3 6.67647 202.89 6.32647 202.59C5.97647 202.29 5.50147 202.14 4.90147 202.14H4.51147L3.82146 201.105L6.08647 198.12H1.69146V196.5H8.14147V197.97ZM16.8571 205.71C16.1371 206.7 15.1271 207.195 13.8271 207.195C12.5371 207.195 11.5221 206.7 10.7821 205.71C10.0621 204.72 9.70205 203.4 9.70205 201.75C9.70205 200.1 10.0621 198.78 10.7821 197.79C11.5221 196.8 12.5371 196.305 13.8271 196.305C15.1271 196.305 16.1371 196.8 16.8571 197.79C17.5871 198.77 17.9521 200.09 17.9521 201.75C17.9521 203.41 17.5871 204.73 16.8571 205.71ZM13.8271 205.515C14.6071 205.515 15.2021 205.19 15.6121 204.54C16.0221 203.89 16.2271 202.96 16.2271 201.75C16.2271 200.54 16.0221 199.61 15.6121 198.96C15.2021 198.31 14.6071 197.985 13.8271 197.985C13.0571 197.985 12.4621 198.31 12.0421 198.96C11.6321 199.61 11.4271 200.54 11.4271 201.75C11.4271 202.96 11.6321 203.89 12.0421 204.54C12.4621 205.19 13.0571 205.515 13.8271 205.515ZM26.3053 205.71C25.5853 206.7 24.5753 207.195 23.2753 207.195C21.9853 207.195 20.9703 206.7 20.2303 205.71C19.5103 204.72 19.1503 203.4 19.1503 201.75C19.1503 200.1 19.5103 198.78 20.2303 197.79C20.9703 196.8 21.9853 196.305 23.2753 196.305C24.5753 196.305 25.5853 196.8 26.3053 197.79C27.0353 198.77 27.4003 200.09 27.4003 201.75C27.4003 203.41 27.0353 204.73 26.3053 205.71ZM23.2753 205.515C24.0553 205.515 24.6503 205.19 25.0603 204.54C25.4703 203.89 25.6753 202.96 25.6753 201.75C25.6753 200.54 25.4703 199.61 25.0603 198.96C24.6503 198.31 24.0553 197.985 23.2753 197.985C22.5053 197.985 21.9103 198.31 21.4903 198.96C21.0803 199.61 20.8753 200.54 20.8753 201.75C20.8753 202.96 21.0803 203.89 21.4903 204.54C21.9103 205.19 22.5053 205.515 23.2753 205.515Z" fill="#68696D"/>
<path d="M7.44617 153.505H8.64617V155.11H7.44617V157H5.70617V155.11H0.546172V153.505L4.16117 146.5H6.03617L2.42117 153.505H5.70617V150.775H7.44617V153.505ZM16.6573 155.71C15.9373 156.7 14.9273 157.195 13.6273 157.195C12.3373 157.195 11.3223 156.7 10.5823 155.71C9.86234 154.72 9.50234 153.4 9.50234 151.75C9.50234 150.1 9.86234 148.78 10.5823 147.79C11.3223 146.8 12.3373 146.305 13.6273 146.305C14.9273 146.305 15.9373 146.8 16.6573 147.79C17.3873 148.77 17.7523 150.09 17.7523 151.75C17.7523 153.41 17.3873 154.73 16.6573 155.71ZM13.6273 155.515C14.4073 155.515 15.0023 155.19 15.4123 154.54C15.8223 153.89 16.0273 152.96 16.0273 151.75C16.0273 150.54 15.8223 149.61 15.4123 148.96C15.0023 148.31 14.4073 147.985 13.6273 147.985C12.8573 147.985 12.2623 148.31 11.8423 148.96C11.4323 149.61 11.2273 150.54 11.2273 151.75C11.2273 152.96 11.4323 153.89 11.8423 154.54C12.2623 155.19 12.8573 155.515 13.6273 155.515ZM26.1056 155.71C25.3856 156.7 24.3756 157.195 23.0756 157.195C21.7856 157.195 20.7706 156.7 20.0306 155.71C19.3106 154.72 18.9506 153.4 18.9506 151.75C18.9506 150.1 19.3106 148.78 20.0306 147.79C20.7706 146.8 21.7856 146.305 23.0756 146.305C24.3756 146.305 25.3856 146.8 26.1056 147.79C26.8356 148.77 27.2006 150.09 27.2006 151.75C27.2006 153.41 26.8356 154.73 26.1056 155.71ZM23.0756 155.515C23.8556 155.515 24.4506 155.19 24.8606 154.54C25.2706 153.89 25.4756 152.96 25.4756 151.75C25.4756 150.54 25.2706 149.61 24.8606 148.96C24.4506 148.31 23.8556 147.985 23.0756 147.985C22.3056 147.985 21.7106 148.31 21.2906 148.96C20.8806 149.61 20.6756 150.54 20.6756 151.75C20.6756 152.96 20.8806 153.89 21.2906 154.54C21.7106 155.19 22.3056 155.515 23.0756 155.515Z" fill="#68696D"/>
<path d="M3.88703 102.46H5.20703C6.20703 102.46 7.05203 102.76 7.74203 103.36C8.43203 103.95 8.77703 104.77 8.77703 105.82C8.77703 106.87 8.42203 107.695 7.71203 108.295C7.01203 108.895 6.14203 109.195 5.10203 109.195C4.25203 109.195 3.51203 109 2.88203 108.61C2.25203 108.22 1.80203 107.665 1.53203 106.945L3.01703 106.09C3.30703 107.04 4.00203 107.515 5.10203 107.515C5.69203 107.515 6.16203 107.365 6.51203 107.065C6.87203 106.755 7.05203 106.34 7.05203 105.82C7.05203 105.31 6.87703 104.905 6.52703 104.605C6.17703 104.295 5.71203 104.14 5.13203 104.14H2.07203L2.47703 98.5H8.32703V100.12H4.06703L3.88703 102.46ZM16.7765 107.71C16.0565 108.7 15.0465 109.195 13.7465 109.195C12.4565 109.195 11.4415 108.7 10.7015 107.71C9.98148 106.72 9.62148 105.4 9.62148 103.75C9.62148 102.1 9.98148 100.78 10.7015 99.79C11.4415 98.8 12.4565 98.305 13.7465 98.305C15.0465 98.305 16.0565 98.8 16.7765 99.79C17.5065 100.77 17.8715 102.09 17.8715 103.75C17.8715 105.41 17.5065 106.73 16.7765 107.71ZM13.7465 107.515C14.5265 107.515 15.1215 107.19 15.5315 106.54C15.9415 105.89 16.1465 104.96 16.1465 103.75C16.1465 102.54 15.9415 101.61 15.5315 100.96C15.1215 100.31 14.5265 99.985 13.7465 99.985C12.9765 99.985 12.3815 100.31 11.9615 100.96C11.5515 101.61 11.3465 102.54 11.3465 103.75C11.3465 104.96 11.5515 105.89 11.9615 106.54C12.3815 107.19 12.9765 107.515 13.7465 107.515ZM26.2247 107.71C25.5047 108.7 24.4947 109.195 23.1947 109.195C21.9047 109.195 20.8897 108.7 20.1497 107.71C19.4297 106.72 19.0697 105.4 19.0697 103.75C19.0697 102.1 19.4297 100.78 20.1497 99.79C20.8897 98.8 21.9047 98.305 23.1947 98.305C24.4947 98.305 25.5047 98.8 26.2247 99.79C26.9547 100.77 27.3197 102.09 27.3197 103.75C27.3197 105.41 26.9547 106.73 26.2247 107.71ZM23.1947 107.515C23.9747 107.515 24.5697 107.19 24.9797 106.54C25.3897 105.89 25.5947 104.96 25.5947 103.75C25.5947 102.54 25.3897 101.61 24.9797 100.96C24.5697 100.31 23.9747 99.985 23.1947 99.985C22.4247 99.985 21.8297 100.31 21.4097 100.96C20.9997 101.61 20.7947 102.54 20.7947 103.75C20.7947 104.96 20.9997 105.89 21.4097 106.54C21.8297 107.19 22.4247 107.515 23.1947 107.515Z" fill="#68696D"/>
<path d="M4.36484 54.025H4.55984C5.65984 54.025 6.54984 54.36 7.22984 55.03C7.91984 55.69 8.26484 56.55 8.26484 57.61C8.26484 58.66 7.91984 59.525 7.22984 60.205C6.53984 60.865 5.64984 61.195 4.55984 61.195C3.45984 61.195 2.56484 60.865 1.87484 60.205C1.18484 59.525 0.839844 58.66 0.839844 57.61C0.839844 56.81 1.04984 56.105 1.46984 55.495L4.79984 50.5H6.76484L4.36484 54.025ZM4.55984 59.56C5.13984 59.56 5.61484 59.385 5.98484 59.035C6.35484 58.675 6.53984 58.2 6.53984 57.61C6.53984 57.02 6.35484 56.55 5.98484 56.2C5.61484 55.84 5.13984 55.66 4.55984 55.66C3.95984 55.66 3.47484 55.84 3.10484 56.2C2.74484 56.55 2.56484 57.02 2.56484 57.61C2.56484 58.2 2.74484 58.675 3.10484 59.035C3.47484 59.385 3.95984 59.56 4.55984 59.56ZM16.3937 59.71C15.6737 60.7 14.6637 61.195 13.3637 61.195C12.0737 61.195 11.0587 60.7 10.3187 59.71C9.59867 58.72 9.23867 57.4 9.23867 55.75C9.23867 54.1 9.59867 52.78 10.3187 51.79C11.0587 50.8 12.0737 50.305 13.3637 50.305C14.6637 50.305 15.6737 50.8 16.3937 51.79C17.1237 52.77 17.4887 54.09 17.4887 55.75C17.4887 57.41 17.1237 58.73 16.3937 59.71ZM13.3637 59.515C14.1437 59.515 14.7387 59.19 15.1487 58.54C15.5587 57.89 15.7637 56.96 15.7637 55.75C15.7637 54.54 15.5587 53.61 15.1487 52.96C14.7387 52.31 14.1437 51.985 13.3637 51.985C12.5937 51.985 11.9987 52.31 11.5787 52.96C11.1687 53.61 10.9637 54.54 10.9637 55.75C10.9637 56.96 11.1687 57.89 11.5787 58.54C11.9987 59.19 12.5937 59.515 13.3637 59.515ZM25.8419 59.71C25.1219 60.7 24.1119 61.195 22.8119 61.195C21.5219 61.195 20.5069 60.7 19.7669 59.71C19.0469 58.72 18.6869 57.4 18.6869 55.75C18.6869 54.1 19.0469 52.78 19.7669 51.79C20.5069 50.8 21.5219 50.305 22.8119 50.305C24.1119 50.305 25.1219 50.8 25.8419 51.79C26.5719 52.77 26.9369 54.09 26.9369 55.75C26.9369 57.41 26.5719 58.73 25.8419 59.71ZM22.8119 59.515C23.5919 59.515 24.1869 59.19 24.5969 58.54C25.0069 57.89 25.2119 56.96 25.2119 55.75C25.2119 54.54 25.0069 53.61 24.5969 52.96C24.1869 52.31 23.5919 51.985 22.8119 51.985C22.0419 51.985 21.4469 52.31 21.0269 52.96C20.6169 53.61 20.4119 54.54 20.4119 55.75C20.4119 56.96 20.6169 57.89 21.0269 58.54C21.4469 59.19 22.0419 59.515 22.8119 59.515Z" fill="#68696D"/>
<path d="M1.39297 4.15V2.5H8.06797V4L4.37797 13H2.56297L6.19297 4.15H1.39297ZM15.6905 11.71C14.9705 12.7 13.9605 13.195 12.6605 13.195C11.3705 13.195 10.3555 12.7 9.61555 11.71C8.89555 10.72 8.53555 9.4 8.53555 7.75C8.53555 6.1 8.89555 4.78 9.61555 3.79C10.3555 2.8 11.3705 2.305 12.6605 2.305C13.9605 2.305 14.9705 2.8 15.6905 3.79C16.4205 4.77 16.7855 6.09 16.7855 7.75C16.7855 9.41 16.4205 10.73 15.6905 11.71ZM12.6605 11.515C13.4405 11.515 14.0355 11.19 14.4455 10.54C14.8555 9.89 15.0605 8.96 15.0605 7.75C15.0605 6.54 14.8555 5.61 14.4455 4.96C14.0355 4.31 13.4405 3.985 12.6605 3.985C11.8905 3.985 11.2955 4.31 10.8755 4.96C10.4655 5.61 10.2605 6.54 10.2605 7.75C10.2605 8.96 10.4655 9.89 10.8755 10.54C11.2955 11.19 11.8905 11.515 12.6605 11.515ZM25.1388 11.71C24.4188 12.7 23.4088 13.195 22.1088 13.195C20.8188 13.195 19.8038 12.7 19.0638 11.71C18.3438 10.72 17.9838 9.4 17.9838 7.75C17.9838 6.1 18.3438 4.78 19.0638 3.79C19.8038 2.8 20.8188 2.305 22.1088 2.305C23.4088 2.305 24.4188 2.8 25.1388 3.79C25.8688 4.77 26.2338 6.09 26.2338 7.75C26.2338 9.41 25.8688 10.73 25.1388 11.71ZM22.1088 11.515C22.8888 11.515 23.4838 11.19 23.8938 10.54C24.3038 9.89 24.5088 8.96 24.5088 7.75C24.5088 6.54 24.3038 5.61 23.8938 4.96C23.4838 4.31 22.8888 3.985 22.1088 3.985C21.3388 3.985 20.7438 4.31 20.3238 4.96C19.9138 5.61 19.7088 6.54 19.7088 7.75C19.7088 8.96 19.9138 9.89 20.3238 10.54C20.7438 11.19 21.3388 11.515 22.1088 11.515Z" fill="#68696D"/>
<path d="M69 53C69 50.2386 71.2386 48 74 48H100C102.761 48 105 50.2386 105 53V342H69V53Z" fill="#FFF8B8"/>
<path d="M181 87C181 84.2386 183.239 82 186 82H212C214.761 82 217 84.2386 217 87V342H181V87Z" fill="#FFF8B8"/>
<path d="M290 85C290 82.2386 292.239 80 295 80H321C323.761 80 326 82.2386 326 85V340H290V85Z" fill="#FFF8B8"/>
<path d="M395 26C395 23.2386 397.239 21 400 21H426C428.761 21 431 23.2386 431 26V340H395V26Z" fill="#FFF8B8"/>
<path d="M502.964 88H501.104L500.369 85.885H495.899L495.164 88H493.289L497.099 77.5H499.169L502.964 88ZM498.134 79.525L496.469 84.265H499.799L498.134 79.525ZM506.695 86.2L508.78 80.5H510.55L507.625 88H505.75L502.825 80.5H504.595L506.695 86.2ZM517.253 81.61V80.5H518.843V87.655C518.843 88.795 518.468 89.67 517.718 90.28C516.978 90.89 516.068 91.195 514.988 91.195C513.258 91.195 512.073 90.59 511.433 89.38L512.828 88.57C513.218 89.34 513.948 89.725 515.018 89.725C515.718 89.725 516.263 89.54 516.653 89.17C517.053 88.81 517.253 88.305 517.253 87.655V86.74C516.643 87.61 515.773 88.045 514.643 88.045C513.593 88.045 512.698 87.67 511.958 86.92C511.228 86.16 510.863 85.245 510.863 84.175C510.863 83.095 511.228 82.185 511.958 81.445C512.688 80.685 513.583 80.305 514.643 80.305C515.773 80.305 516.643 80.74 517.253 81.61ZM513.158 85.855C513.618 86.305 514.188 86.53 514.868 86.53C515.548 86.53 516.113 86.305 516.563 85.855C517.023 85.405 517.253 84.845 517.253 84.175C517.253 83.505 517.023 82.945 516.563 82.495C516.113 82.045 515.548 81.82 514.868 81.82C514.188 81.82 513.618 82.045 513.158 82.495C512.708 82.945 512.483 83.505 512.483 84.175C512.483 84.845 512.708 85.405 513.158 85.855Z" fill="#68696D"/>
<path d="M77.0973 370.195C75.4673 370.195 74.3423 369.555 73.7223 368.275L75.2073 367.405C75.5573 368.145 76.1923 368.515 77.1123 368.515C77.7123 368.515 78.1723 368.37 78.4923 368.08C78.8223 367.78 78.9873 367.36 78.9873 366.82V359.5H80.7123V366.82C80.7123 367.9 80.3723 368.735 79.6923 369.325C79.0223 369.905 78.1573 370.195 77.0973 370.195ZM87.6641 366.52V362.5H89.2841V370H87.6641V369.04C87.1641 369.81 86.3891 370.195 85.3391 370.195C84.4691 370.195 83.7691 369.92 83.2391 369.37C82.7191 368.81 82.4591 368.055 82.4591 367.105V362.5H84.0791V366.94C84.0791 367.5 84.2291 367.93 84.5291 368.23C84.8291 368.53 85.2391 368.68 85.7591 368.68C86.3491 368.68 86.8141 368.5 87.1541 368.14C87.4941 367.77 87.6641 367.23 87.6641 366.52ZM95.1234 362.305C95.9934 362.305 96.6884 362.585 97.2084 363.145C97.7384 363.695 98.0034 364.445 98.0034 365.395V370H96.3834V365.56C96.3834 365 96.2334 364.57 95.9334 364.27C95.6334 363.97 95.2234 363.82 94.7034 363.82C94.1134 363.82 93.6484 364.005 93.3084 364.375C92.9684 364.735 92.7984 365.27 92.7984 365.98V370H91.1784V362.5H92.7984V363.46C93.2984 362.69 94.0734 362.305 95.1234 362.305Z" fill="#68696D"/>
<path d="M191.131 368.195C189.501 368.195 188.376 367.555 187.756 366.275L189.241 365.405C189.591 366.145 190.226 366.515 191.146 366.515C191.746 366.515 192.206 366.37 192.526 366.08C192.856 365.78 193.021 365.36 193.021 364.82V357.5H194.746V364.82C194.746 365.9 194.406 366.735 193.726 367.325C193.056 367.905 192.191 368.195 191.131 368.195ZM201.698 364.52V360.5H203.318V368H201.698V367.04C201.198 367.81 200.423 368.195 199.373 368.195C198.503 368.195 197.803 367.92 197.273 367.37C196.753 366.81 196.493 366.055 196.493 365.105V360.5H198.113V364.94C198.113 365.5 198.263 365.93 198.563 366.23C198.863 366.53 199.273 366.68 199.793 366.68C200.383 366.68 200.848 366.5 201.188 366.14C201.528 365.77 201.698 365.23 201.698 364.52ZM206.833 368H205.213V357.05H206.833V368Z" fill="#68696D"/>
<path d="M308.871 368H307.011L306.276 365.885H301.806L301.071 368H299.196L303.006 357.5H305.076L308.871 368ZM304.041 359.525L302.376 364.265H305.706L304.041 359.525ZM314.862 364.52V360.5H316.482V368H314.862V367.04C314.362 367.81 313.587 368.195 312.537 368.195C311.667 368.195 310.967 367.92 310.437 367.37C309.917 366.81 309.657 366.055 309.657 365.105V360.5H311.277V364.94C311.277 365.5 311.427 365.93 311.727 366.23C312.027 366.53 312.437 366.68 312.957 366.68C313.547 366.68 314.012 366.5 314.352 366.14C314.692 365.77 314.862 365.23 314.862 364.52ZM324.346 361.61V360.5H325.936V367.655C325.936 368.795 325.561 369.67 324.811 370.28C324.071 370.89 323.161 371.195 322.081 371.195C320.351 371.195 319.166 370.59 318.526 369.38L319.921 368.57C320.311 369.34 321.041 369.725 322.111 369.725C322.811 369.725 323.356 369.54 323.746 369.17C324.146 368.81 324.346 368.305 324.346 367.655V366.74C323.736 367.61 322.866 368.045 321.736 368.045C320.686 368.045 319.791 367.67 319.051 366.92C318.321 366.16 317.956 365.245 317.956 364.175C317.956 363.095 318.321 362.185 319.051 361.445C319.781 360.685 320.676 360.305 321.736 360.305C322.866 360.305 323.736 360.74 324.346 361.61ZM320.251 365.855C320.711 366.305 321.281 366.53 321.961 366.53C322.641 366.53 323.206 366.305 323.656 365.855C324.116 365.405 324.346 364.845 324.346 364.175C324.346 363.505 324.116 362.945 323.656 362.495C323.206 362.045 322.641 361.82 321.961 361.82C321.281 361.82 320.711 362.045 320.251 362.495C319.801 362.945 319.576 363.505 319.576 364.175C319.576 364.845 319.801 365.405 320.251 365.855Z" fill="#68696D"/>
<path d="M404.003 368.195C402.993 368.195 402.133 367.97 401.423 367.52C400.723 367.06 400.233 366.425 399.953 365.615L401.438 364.745C401.858 365.925 402.728 366.515 404.048 366.515C404.688 366.515 405.173 366.39 405.503 366.14C405.833 365.89 405.998 365.555 405.998 365.135C405.998 364.715 405.823 364.39 405.473 364.16C405.123 363.93 404.503 363.68 403.613 363.41C402.703 363.14 401.968 362.82 401.408 362.45C400.728 361.97 400.388 361.265 400.388 360.335C400.388 359.405 400.718 358.67 401.378 358.13C402.028 357.58 402.823 357.305 403.763 357.305C404.593 357.305 405.323 357.51 405.953 357.92C406.593 358.32 407.083 358.885 407.423 359.615L405.968 360.455C405.528 359.475 404.793 358.985 403.763 358.985C403.263 358.985 402.863 359.105 402.563 359.345C402.263 359.575 402.113 359.89 402.113 360.29C402.113 360.68 402.263 360.99 402.563 361.22C402.863 361.44 403.418 361.675 404.228 361.925C404.728 362.095 405.018 362.195 405.098 362.225C405.228 362.265 405.488 362.365 405.878 362.525C406.198 362.655 406.453 362.795 406.643 362.945C407.423 363.555 407.783 364.275 407.723 365.105C407.723 366.055 407.378 366.81 406.688 367.37C406.018 367.92 405.123 368.195 404.003 368.195ZM416.554 364.94H410.584C410.704 365.5 410.974 365.935 411.394 366.245C411.824 366.555 412.354 366.71 412.984 366.71C413.834 366.71 414.479 366.4 414.919 365.78L416.254 366.56C415.524 367.65 414.429 368.195 412.969 368.195C411.759 368.195 410.774 367.825 410.014 367.085C409.264 366.335 408.889 365.39 408.889 364.25C408.889 363.14 409.259 362.205 409.999 361.445C410.729 360.685 411.679 360.305 412.849 360.305C413.939 360.305 414.839 360.69 415.549 361.46C416.259 362.23 416.614 363.165 416.614 364.265C416.614 364.465 416.594 364.69 416.554 364.94ZM410.569 363.62H414.979C414.869 363.03 414.619 362.575 414.229 362.255C413.849 361.935 413.384 361.775 412.834 361.775C412.234 361.775 411.734 361.94 411.334 362.27C410.934 362.6 410.679 363.05 410.569 363.62ZM422.284 360.305C423.304 360.305 424.184 360.69 424.924 361.46C425.654 362.22 426.019 363.15 426.019 364.25C426.019 365.36 425.654 366.295 424.924 367.055C424.194 367.815 423.314 368.195 422.284 368.195C421.154 368.195 420.279 367.775 419.659 366.935V371H418.039V360.5H419.659V361.58C420.269 360.73 421.144 360.305 422.284 360.305ZM420.334 365.975C420.784 366.425 421.349 366.65 422.029 366.65C422.709 366.65 423.274 366.425 423.724 365.975C424.174 365.515 424.399 364.94 424.399 364.25C424.399 363.56 424.174 362.99 423.724 362.54C423.274 362.08 422.709 361.85 422.029 361.85C421.349 361.85 420.784 362.08 420.334 362.54C419.884 362.99 419.659 363.56 419.659 364.25C419.659 364.93 419.884 365.505 420.334 365.975Z" fill="#68696D"/>
</svg>
