<svg width="519" height="401" viewBox="0 0 519 401" fill="none" xmlns="http://www.w3.org/2000/svg">
<rect width="519" height="401" rx="10" fill="white"/>
<path d="M181.783 371.132C181.233 371.132 180.749 371.018 180.331 370.791C179.913 370.564 179.616 370.237 179.44 369.812L180.089 369.427C180.331 370.065 180.896 370.384 181.783 370.384C182.333 370.384 182.762 370.252 183.07 369.988C183.385 369.724 183.543 369.335 183.543 368.822V363.3H184.313V368.822C184.313 369.57 184.071 370.142 183.587 370.538C183.11 370.934 182.509 371.132 181.783 371.132ZM189.722 368.382V365.5H190.448V371H189.722V370.142C189.311 370.802 188.695 371.132 187.874 371.132C187.214 371.132 186.69 370.93 186.301 370.527C185.912 370.116 185.718 369.566 185.718 368.877V365.5H186.444V368.877C186.444 369.368 186.572 369.75 186.829 370.021C187.093 370.292 187.463 370.428 187.94 370.428C188.49 370.428 188.923 370.256 189.238 369.911C189.561 369.566 189.722 369.057 189.722 368.382ZM194.558 365.368C195.218 365.368 195.742 365.573 196.131 365.984C196.52 366.387 196.714 366.934 196.714 367.623V371H195.988V367.623C195.988 367.132 195.856 366.75 195.592 366.479C195.335 366.208 194.969 366.072 194.492 366.072C193.942 366.072 193.506 366.244 193.183 366.589C192.868 366.934 192.71 367.443 192.71 368.118V371H191.984V365.5H192.71V366.358C193.121 365.698 193.737 365.368 194.558 365.368ZM200.659 365.368C201.48 365.368 202.136 365.658 202.628 366.237C203.134 366.809 203.387 367.487 203.387 368.272C203.387 368.309 203.379 368.422 203.365 368.613H198.536C198.609 369.163 198.844 369.603 199.24 369.933C199.636 370.263 200.131 370.428 200.725 370.428C201.561 370.428 202.151 370.116 202.496 369.493L203.134 369.867C202.892 370.263 202.558 370.575 202.133 370.802C201.715 371.022 201.242 371.132 200.714 371.132C199.848 371.132 199.144 370.861 198.602 370.318C198.059 369.775 197.788 369.086 197.788 368.25C197.788 367.421 198.055 366.736 198.591 366.193C199.126 365.643 199.815 365.368 200.659 365.368ZM200.659 366.072C200.087 366.072 199.606 366.241 199.218 366.578C198.836 366.915 198.609 367.359 198.536 367.909H202.639C202.558 367.322 202.334 366.871 201.968 366.556C201.586 366.233 201.15 366.072 200.659 366.072Z" fill="black"/>
<path d="M102.963 364.3H103.92V372H103.15V365.466L100.455 369.976H100.345L97.65 365.466V372H96.88V364.3H97.837L100.4 368.59L102.963 364.3ZM110.298 367.578V366.5H111.024V372H110.298V370.922C109.792 371.729 109.051 372.132 108.076 372.132C107.291 372.132 106.62 371.853 106.063 371.296C105.513 370.739 105.238 370.057 105.238 369.25C105.238 368.443 105.513 367.761 106.063 367.204C106.62 366.647 107.291 366.368 108.076 366.368C109.051 366.368 109.792 366.771 110.298 367.578ZM106.591 370.801C107.009 371.219 107.522 371.428 108.131 371.428C108.74 371.428 109.253 371.219 109.671 370.801C110.089 370.368 110.298 369.851 110.298 369.25C110.298 368.641 110.089 368.128 109.671 367.71C109.253 367.285 108.74 367.072 108.131 367.072C107.522 367.072 107.009 367.285 106.591 367.71C106.173 368.128 105.964 368.641 105.964 369.25C105.964 369.851 106.173 370.368 106.591 370.801ZM114.739 371.109L116.521 366.5H117.291L114.937 372.506C114.717 373.063 114.409 373.492 114.013 373.793C113.624 374.101 113.192 374.237 112.715 374.2V373.518C113.375 373.599 113.877 373.217 114.222 372.374L114.365 372.033L111.901 366.5H112.671L114.739 371.109Z" fill="black"/>
<path d="M278.783 371.132C278.233 371.132 277.749 371.018 277.331 370.791C276.913 370.564 276.616 370.237 276.44 369.812L277.089 369.427C277.331 370.065 277.896 370.384 278.783 370.384C279.333 370.384 279.762 370.252 280.07 369.988C280.385 369.724 280.543 369.335 280.543 368.822V363.3H281.313V368.822C281.313 369.57 281.071 370.142 280.587 370.538C280.11 370.934 279.509 371.132 278.783 371.132ZM286.722 368.382V365.5H287.448V371H286.722V370.142C286.311 370.802 285.695 371.132 284.874 371.132C284.214 371.132 283.69 370.93 283.301 370.527C282.912 370.116 282.718 369.566 282.718 368.877V365.5H283.444V368.877C283.444 369.368 283.572 369.75 283.829 370.021C284.093 370.292 284.463 370.428 284.94 370.428C285.49 370.428 285.923 370.256 286.238 369.911C286.561 369.566 286.722 369.057 286.722 368.382ZM289.71 371H288.984V362.97H289.71V371ZM293.428 370.109L295.21 365.5H295.98L293.626 371.506C293.406 372.063 293.098 372.492 292.702 372.793C292.314 373.101 291.881 373.237 291.404 373.2V372.518C292.064 372.599 292.567 372.217 292.911 371.374L293.054 371.033L290.59 365.5H291.36L293.428 370.109Z" fill="black"/>
<path d="M385.315 371H383.665L383.203 369.614H380.134L379.672 371H378.033L380.728 363.3H382.609L385.315 371ZM381.674 365.049L380.618 368.195H382.73L381.674 365.049ZM389.573 368.47V365.5H390.992V371H389.573V370.384C389.236 370.897 388.689 371.154 387.934 371.154C387.333 371.154 386.834 370.952 386.438 370.549C386.049 370.138 385.855 369.581 385.855 368.877V365.5H387.274V368.701C387.274 369.06 387.369 369.339 387.56 369.537C387.758 369.735 388.026 369.834 388.363 369.834C388.737 369.834 389.03 369.72 389.243 369.493C389.463 369.258 389.573 368.917 389.573 368.47ZM396.505 366.182V365.5H397.891V370.736C397.891 371.579 397.608 372.228 397.044 372.683C396.486 373.13 395.812 373.354 395.02 373.354C393.773 373.354 392.904 372.907 392.413 372.012L393.623 371.319C393.894 371.832 394.374 372.089 395.064 372.089C395.511 372.089 395.863 371.972 396.12 371.737C396.376 371.502 396.505 371.169 396.505 370.736V370.142C396.087 370.699 395.5 370.978 394.745 370.978C393.967 370.978 393.315 370.707 392.787 370.164C392.266 369.607 392.006 368.939 392.006 368.162C392.006 367.385 392.27 366.721 392.798 366.171C393.326 365.621 393.975 365.346 394.745 365.346C395.5 365.346 396.087 365.625 396.505 366.182ZM396.065 369.251C396.358 368.965 396.505 368.602 396.505 368.162C396.505 367.722 396.358 367.366 396.065 367.095C395.779 366.809 395.412 366.666 394.965 366.666C394.525 366.666 394.154 366.809 393.854 367.095C393.568 367.366 393.425 367.722 393.425 368.162C393.425 368.602 393.568 368.965 393.854 369.251C394.147 369.53 394.517 369.669 394.965 369.669C395.412 369.669 395.779 369.53 396.065 369.251Z" fill="black"/>
<path d="M443.82 189H443.006L442.291 187.108H438.639L437.924 189H437.11L440.069 181.3H440.861L443.82 189ZM440.465 182.257L438.914 186.382H442.016L440.465 182.257ZM446.519 188.241L448.444 183.5H449.214L446.959 189H446.079L443.824 183.5H444.594L446.519 188.241ZM454.606 184.578V183.5H455.332V188.78C455.332 189.572 455.061 190.195 454.518 190.65C453.976 191.105 453.327 191.332 452.571 191.332C451.288 191.332 450.419 190.885 449.964 189.99L450.602 189.627C450.932 190.294 451.589 190.628 452.571 190.628C453.202 190.628 453.697 190.463 454.056 190.133C454.423 189.803 454.606 189.352 454.606 188.78V187.922C454.1 188.729 453.36 189.132 452.384 189.132C451.6 189.132 450.929 188.853 450.371 188.296C449.821 187.739 449.546 187.057 449.546 186.25C449.546 185.443 449.821 184.761 450.371 184.204C450.929 183.647 451.6 183.368 452.384 183.368C453.36 183.368 454.1 183.771 454.606 184.578ZM450.899 187.801C451.317 188.219 451.831 188.428 452.439 188.428C453.048 188.428 453.561 188.219 453.979 187.801C454.397 187.368 454.606 186.851 454.606 186.25C454.606 185.641 454.397 185.128 453.979 184.71C453.561 184.285 453.048 184.072 452.439 184.072C451.831 184.072 451.317 184.285 450.899 184.71C450.481 185.128 450.272 185.641 450.272 186.25C450.272 186.851 450.481 187.368 450.899 187.801Z" fill="black"/>
<line x1="70.5" y1="386" x2="70.5" y2="62" stroke="#ECECEC"/>
<path d="M45.617 311.402H46.915C47.641 311.402 48.2497 311.615 48.741 312.04C49.247 312.458 49.5 313.034 49.5 313.767C49.5 314.493 49.247 315.072 48.741 315.505C48.2497 315.923 47.641 316.132 46.915 316.132C46.321 316.132 45.7967 315.989 45.342 315.703C44.8947 315.41 44.594 315.006 44.44 314.493L45.089 314.119C45.199 314.522 45.4153 314.834 45.738 315.054C46.0607 315.274 46.453 315.384 46.915 315.384C47.4577 315.384 47.894 315.241 48.224 314.955C48.5613 314.662 48.73 314.266 48.73 313.767C48.73 313.268 48.5613 312.876 48.224 312.59C47.894 312.297 47.4577 312.15 46.915 312.15H44.825L45.1 308.3H49.225V309.026H45.782L45.617 311.402ZM55.3356 315.054C54.8296 315.773 54.1146 316.132 53.1906 316.132C52.2739 316.132 51.5553 315.773 51.0346 315.054C50.5286 314.328 50.2756 313.36 50.2756 312.15C50.2756 310.933 50.5286 309.968 51.0346 309.257C51.5553 308.531 52.2739 308.168 53.1906 308.168C54.1146 308.168 54.8296 308.531 55.3356 309.257C55.8489 309.968 56.1056 310.933 56.1056 312.15C56.1056 313.367 55.8489 314.335 55.3356 315.054ZM51.6066 314.537C51.9953 315.102 52.5233 315.384 53.1906 315.384C53.8653 315.384 54.3896 315.102 54.7636 314.537C55.1449 313.98 55.3356 313.184 55.3356 312.15C55.3356 311.116 55.1449 310.32 54.7636 309.763C54.3896 309.198 53.8653 308.916 53.1906 308.916C52.5233 308.916 51.9953 309.198 51.6066 309.763C51.2326 310.328 51.0456 311.123 51.0456 312.15C51.0456 313.177 51.2326 313.972 51.6066 314.537Z" fill="black"/>
<path d="M192.115 317.734H193.105V318.46H192.115V320H191.345V318.46H187.275V317.734L190.135 312.3H190.982L188.122 317.734H191.345V315.38H192.115V317.734ZM194.998 315.402H196.296C197.022 315.402 197.631 315.615 198.122 316.04C198.628 316.458 198.881 317.034 198.881 317.767C198.881 318.493 198.628 319.072 198.122 319.505C197.631 319.923 197.022 320.132 196.296 320.132C195.702 320.132 195.178 319.989 194.723 319.703C194.276 319.41 193.975 319.006 193.821 318.493L194.47 318.119C194.58 318.522 194.796 318.834 195.119 319.054C195.442 319.274 195.834 319.384 196.296 319.384C196.839 319.384 197.275 319.241 197.605 318.955C197.942 318.662 198.111 318.266 198.111 317.767C198.111 317.268 197.942 316.876 197.605 316.59C197.275 316.297 196.839 316.15 196.296 316.15H194.206L194.481 312.3H198.606V313.026H195.163L194.998 315.402Z" fill="black"/>
<path d="M105.5 267.709C105.5 268.288 105.342 268.802 105.027 269.249L102.508 273H101.639L103.531 270.184C103.333 270.228 103.128 270.25 102.915 270.25C102.152 270.25 101.533 270.015 101.056 269.546C100.572 269.077 100.33 268.464 100.33 267.709C100.33 266.968 100.572 266.36 101.056 265.883C101.547 265.406 102.167 265.168 102.915 265.168C103.663 265.168 104.283 265.406 104.774 265.883C105.258 266.36 105.5 266.968 105.5 267.709ZM101.595 266.411C101.265 266.741 101.1 267.174 101.1 267.709C101.1 268.244 101.265 268.677 101.595 269.007C101.94 269.337 102.38 269.502 102.915 269.502C103.458 269.502 103.894 269.337 104.224 269.007C104.561 268.677 104.73 268.244 104.73 267.709C104.73 267.174 104.561 266.741 104.224 266.411C103.894 266.081 103.458 265.916 102.915 265.916C102.38 265.916 101.94 266.081 101.595 266.411ZM111.333 267.709C111.333 268.288 111.175 268.802 110.86 269.249L108.341 273H107.472L109.364 270.184C109.166 270.228 108.961 270.25 108.748 270.25C107.985 270.25 107.366 270.015 106.889 269.546C106.405 269.077 106.163 268.464 106.163 267.709C106.163 266.968 106.405 266.36 106.889 265.883C107.38 265.406 108 265.168 108.748 265.168C109.496 265.168 110.116 265.406 110.607 265.883C111.091 266.36 111.333 266.968 111.333 267.709ZM107.428 266.411C107.098 266.741 106.933 267.174 106.933 267.709C106.933 268.244 107.098 268.677 107.428 269.007C107.773 269.337 108.213 269.502 108.748 269.502C109.291 269.502 109.727 269.337 110.057 269.007C110.394 268.677 110.563 268.244 110.563 267.709C110.563 267.174 110.394 266.741 110.057 266.411C109.727 266.081 109.291 265.916 108.748 265.916C108.213 265.916 107.773 266.081 107.428 266.411Z" fill="black"/>
<path d="M283.335 111H278.44V110.307L281.212 107.513C282.004 106.721 282.4 106.043 282.4 105.478C282.4 105.001 282.25 104.624 281.949 104.345C281.656 104.059 281.289 103.916 280.849 103.916C280.064 103.916 279.489 104.279 279.122 105.005L278.473 104.62C278.708 104.151 279.034 103.791 279.452 103.542C279.87 103.293 280.336 103.168 280.849 103.168C281.465 103.168 282.004 103.377 282.466 103.795C282.935 104.198 283.17 104.759 283.17 105.478C283.17 105.903 283.053 106.321 282.818 106.732C282.583 107.135 282.224 107.579 281.74 108.063L279.54 110.252H283.335V111ZM285.343 106.402H286.641C287.367 106.402 287.975 106.615 288.467 107.04C288.973 107.458 289.226 108.034 289.226 108.767C289.226 109.493 288.973 110.072 288.467 110.505C287.975 110.923 287.367 111.132 286.641 111.132C286.047 111.132 285.522 110.989 285.068 110.703C284.62 110.41 284.32 110.006 284.166 109.493L284.815 109.119C284.925 109.522 285.141 109.834 285.464 110.054C285.786 110.274 286.179 110.384 286.641 110.384C287.183 110.384 287.62 110.241 287.95 109.955C288.287 109.662 288.456 109.266 288.456 108.767C288.456 108.268 288.287 107.876 287.95 107.59C287.62 107.297 287.183 107.15 286.641 107.15H284.551L284.826 103.3H288.951V104.026H285.508L285.343 106.402ZM291.068 106.402H292.366C293.092 106.402 293.701 106.615 294.192 107.04C294.698 107.458 294.951 108.034 294.951 108.767C294.951 109.493 294.698 110.072 294.192 110.505C293.701 110.923 293.092 111.132 292.366 111.132C291.772 111.132 291.248 110.989 290.793 110.703C290.346 110.41 290.045 110.006 289.891 109.493L290.54 109.119C290.65 109.522 290.867 109.834 291.189 110.054C291.512 110.274 291.904 110.384 292.366 110.384C292.909 110.384 293.345 110.241 293.675 109.955C294.013 109.662 294.181 109.266 294.181 108.767C294.181 108.268 294.013 107.876 293.675 107.59C293.345 107.297 292.909 107.15 292.366 107.15H290.276L290.551 103.3H294.676V104.026H291.233L291.068 106.402Z" fill="black"/>
<path d="M472.412 189H467.341V188.01L470.025 185.271C470.678 184.618 471.004 184.054 471.004 183.577C471.004 183.21 470.894 182.921 470.674 182.708C470.454 182.495 470.168 182.389 469.816 182.389C469.171 182.389 468.694 182.708 468.386 183.346L467.319 182.719C467.554 182.213 467.891 181.828 468.331 181.564C468.771 181.293 469.262 181.157 469.805 181.157C470.487 181.157 471.066 181.37 471.543 181.795C472.027 182.228 472.269 182.807 472.269 183.533C472.269 184.31 471.833 185.146 470.96 186.041L469.222 187.779H472.412V189ZM478.402 188.054C477.874 188.78 477.133 189.143 476.18 189.143C475.234 189.143 474.49 188.78 473.947 188.054C473.419 187.328 473.155 186.36 473.155 185.15C473.155 183.94 473.419 182.972 473.947 182.246C474.49 181.52 475.234 181.157 476.18 181.157C477.133 181.157 477.874 181.52 478.402 182.246C478.937 182.965 479.205 183.933 479.205 185.15C479.205 186.367 478.937 187.335 478.402 188.054ZM476.18 187.911C476.752 187.911 477.188 187.673 477.489 187.196C477.79 186.719 477.94 186.037 477.94 185.15C477.94 184.263 477.79 183.581 477.489 183.104C477.188 182.627 476.752 182.389 476.18 182.389C475.615 182.389 475.179 182.627 474.871 183.104C474.57 183.581 474.42 184.263 474.42 185.15C474.42 186.037 474.57 186.719 474.871 187.196C475.179 187.673 475.615 187.911 476.18 187.911ZM484.894 189H479.823V188.01L482.507 185.271C483.16 184.618 483.486 184.054 483.486 183.577C483.486 183.21 483.376 182.921 483.156 182.708C482.936 182.495 482.65 182.389 482.298 182.389C481.653 182.389 481.176 182.708 480.868 183.346L479.801 182.719C480.036 182.213 480.373 181.828 480.813 181.564C481.253 181.293 481.745 181.157 482.287 181.157C482.969 181.157 483.549 181.37 484.025 181.795C484.509 182.228 484.751 182.807 484.751 183.533C484.751 184.31 484.315 185.146 483.442 186.041L481.704 187.779H484.894V189Z" fill="#060B23"/>
<path d="M380.143 193.015L382.167 192.3H383.267V200H382.002V193.653L380.451 194.093L380.143 193.015ZM386.15 195.204H387.118C387.851 195.204 388.471 195.424 388.977 195.864C389.483 196.297 389.736 196.898 389.736 197.668C389.736 198.438 389.475 199.043 388.955 199.483C388.441 199.923 387.803 200.143 387.041 200.143C386.417 200.143 385.875 200 385.413 199.714C384.951 199.428 384.621 199.021 384.423 198.493L385.512 197.866C385.724 198.563 386.234 198.911 387.041 198.911C387.473 198.911 387.818 198.801 388.075 198.581C388.339 198.354 388.471 198.049 388.471 197.668C388.471 197.294 388.342 196.997 388.086 196.777C387.829 196.55 387.488 196.436 387.063 196.436H384.819L385.116 192.3H389.406V193.488H386.282L386.15 195.204ZM395.602 199.054C395.074 199.78 394.333 200.143 393.38 200.143C392.434 200.143 391.69 199.78 391.147 199.054C390.619 198.328 390.355 197.36 390.355 196.15C390.355 194.94 390.619 193.972 391.147 193.246C391.69 192.52 392.434 192.157 393.38 192.157C394.333 192.157 395.074 192.52 395.602 193.246C396.137 193.965 396.405 194.933 396.405 196.15C396.405 197.367 396.137 198.335 395.602 199.054ZM393.38 198.911C393.952 198.911 394.388 198.673 394.689 198.196C394.99 197.719 395.14 197.037 395.14 196.15C395.14 195.263 394.99 194.581 394.689 194.104C394.388 193.627 393.952 193.389 393.38 193.389C392.815 193.389 392.379 193.627 392.071 194.104C391.77 194.581 391.62 195.263 391.62 196.15C391.62 197.037 391.77 197.719 392.071 198.196C392.379 198.673 392.815 198.911 393.38 198.911Z" fill="black"/>
<path d="M39.165 267.004L41.2 266.3H41.86V274H41.09V267.147L39.363 267.664L39.165 267.004ZM48.3483 273.054C47.8423 273.773 47.1273 274.132 46.2033 274.132C45.2866 274.132 44.5679 273.773 44.0473 273.054C43.5413 272.328 43.2883 271.36 43.2883 270.15C43.2883 268.933 43.5413 267.968 44.0473 267.257C44.5679 266.531 45.2866 266.168 46.2033 266.168C47.1273 266.168 47.8423 266.531 48.3483 267.257C48.8616 267.968 49.1183 268.933 49.1183 270.15C49.1183 271.367 48.8616 272.335 48.3483 273.054ZM44.6193 272.537C45.0079 273.102 45.5359 273.384 46.2033 273.384C46.8779 273.384 47.4023 273.102 47.7763 272.537C48.1576 271.98 48.3483 271.184 48.3483 270.15C48.3483 269.116 48.1576 268.32 47.7763 267.763C47.4023 267.198 46.8779 266.916 46.2033 266.916C45.5359 266.916 45.0079 267.198 44.6193 267.763C44.2453 268.328 44.0583 269.123 44.0583 270.15C44.0583 271.177 44.2453 271.972 44.6193 272.537ZM55.277 273.054C54.771 273.773 54.056 274.132 53.132 274.132C52.2153 274.132 51.4967 273.773 50.976 273.054C50.47 272.328 50.217 271.36 50.217 270.15C50.217 268.933 50.47 267.968 50.976 267.257C51.4967 266.531 52.2153 266.168 53.132 266.168C54.056 266.168 54.771 266.531 55.277 267.257C55.7903 267.968 56.047 268.933 56.047 270.15C56.047 271.367 55.7903 272.335 55.277 273.054ZM51.548 272.537C51.9367 273.102 52.4647 273.384 53.132 273.384C53.8067 273.384 54.331 273.102 54.705 272.537C55.0863 271.98 55.277 271.184 55.277 270.15C55.277 269.116 55.0863 268.32 54.705 267.763C54.331 267.198 53.8067 266.916 53.132 266.916C52.4647 266.916 51.9367 267.198 51.548 267.763C51.174 268.328 50.987 269.123 50.987 270.15C50.987 271.177 51.174 271.972 51.548 272.537Z" fill="black"/>
<path d="M39.165 225.004L41.2 224.3H41.86V232H41.09V225.147L39.363 225.664L39.165 225.004ZM44.3553 227.402H45.6533C46.3793 227.402 46.9879 227.615 47.4793 228.04C47.9853 228.458 48.2383 229.034 48.2383 229.767C48.2383 230.493 47.9853 231.072 47.4793 231.505C46.9879 231.923 46.3793 232.132 45.6533 232.132C45.0593 232.132 44.5349 231.989 44.0803 231.703C43.6329 231.41 43.3323 231.006 43.1783 230.493L43.8273 230.119C43.9373 230.522 44.1536 230.834 44.4763 231.054C44.7989 231.274 45.1913 231.384 45.6533 231.384C46.1959 231.384 46.6323 231.241 46.9623 230.955C47.2996 230.662 47.4683 230.266 47.4683 229.767C47.4683 229.268 47.2996 228.876 46.9623 228.59C46.6323 228.297 46.1959 228.15 45.6533 228.15H43.5633L43.8383 224.3H47.9633V225.026H44.5203L44.3553 227.402ZM54.0739 231.054C53.5679 231.773 52.8529 232.132 51.9289 232.132C51.0122 232.132 50.2935 231.773 49.7729 231.054C49.2669 230.328 49.0139 229.36 49.0139 228.15C49.0139 226.933 49.2669 225.968 49.7729 225.257C50.2935 224.531 51.0122 224.168 51.9289 224.168C52.8529 224.168 53.5679 224.531 54.0739 225.257C54.5872 225.968 54.8439 226.933 54.8439 228.15C54.8439 229.367 54.5872 230.335 54.0739 231.054ZM50.3449 230.537C50.7335 231.102 51.2615 231.384 51.9289 231.384C52.6035 231.384 53.1279 231.102 53.5019 230.537C53.8832 229.98 54.0739 229.184 54.0739 228.15C54.0739 227.116 53.8832 226.32 53.5019 225.763C53.1279 225.198 52.6035 224.916 51.9289 224.916C51.2615 224.916 50.7335 225.198 50.3449 225.763C49.9709 226.328 49.7839 227.123 49.7839 228.15C49.7839 229.177 49.9709 229.972 50.3449 230.537Z" fill="black"/>
<path d="M42.335 190H37.44V189.307L40.212 186.513C41.004 185.721 41.4 185.043 41.4 184.478C41.4 184.001 41.2497 183.624 40.949 183.345C40.6557 183.059 40.289 182.916 39.849 182.916C39.0643 182.916 38.4887 183.279 38.122 184.005L37.473 183.62C37.7077 183.151 38.034 182.791 38.452 182.542C38.87 182.293 39.3357 182.168 39.849 182.168C40.465 182.168 41.004 182.377 41.466 182.795C41.9353 183.198 42.17 183.759 42.17 184.478C42.17 184.903 42.0527 185.321 41.818 185.732C41.5833 186.135 41.224 186.579 40.74 187.063L38.54 189.252H42.335V190ZM48.2819 189.054C47.7759 189.773 47.0609 190.132 46.1369 190.132C45.2202 190.132 44.5015 189.773 43.9809 189.054C43.4749 188.328 43.2219 187.36 43.2219 186.15C43.2219 184.933 43.4749 183.968 43.9809 183.257C44.5015 182.531 45.2202 182.168 46.1369 182.168C47.0609 182.168 47.7759 182.531 48.2819 183.257C48.7952 183.968 49.0519 184.933 49.0519 186.15C49.0519 187.367 48.7952 188.335 48.2819 189.054ZM44.5529 188.537C44.9415 189.102 45.4695 189.384 46.1369 189.384C46.8115 189.384 47.3359 189.102 47.7099 188.537C48.0912 187.98 48.2819 187.184 48.2819 186.15C48.2819 185.116 48.0912 184.32 47.7099 183.763C47.3359 183.198 46.8115 182.916 46.1369 182.916C45.4695 182.916 44.9415 183.198 44.5529 183.763C44.1789 184.328 43.9919 185.123 43.9919 186.15C43.9919 187.177 44.1789 187.972 44.5529 188.537ZM55.2106 189.054C54.7046 189.773 53.9896 190.132 53.0656 190.132C52.1489 190.132 51.4303 189.773 50.9096 189.054C50.4036 188.328 50.1506 187.36 50.1506 186.15C50.1506 184.933 50.4036 183.968 50.9096 183.257C51.4303 182.531 52.1489 182.168 53.0656 182.168C53.9896 182.168 54.7046 182.531 55.2106 183.257C55.7239 183.968 55.9806 184.933 55.9806 186.15C55.9806 187.367 55.7239 188.335 55.2106 189.054ZM51.4816 188.537C51.8703 189.102 52.3983 189.384 53.0656 189.384C53.7403 189.384 54.2646 189.102 54.6386 188.537C55.0199 187.98 55.2106 187.184 55.2106 186.15C55.2106 185.116 55.0199 184.32 54.6386 183.763C54.2646 183.198 53.7403 182.916 53.0656 182.916C52.3983 182.916 51.8703 183.198 51.4816 183.763C51.1076 184.328 50.9206 185.123 50.9206 186.15C50.9206 187.177 51.1076 187.972 51.4816 188.537Z" fill="black"/>
<path d="M42.335 148H37.44V147.307L40.212 144.513C41.004 143.721 41.4 143.043 41.4 142.478C41.4 142.001 41.2497 141.624 40.949 141.345C40.6557 141.059 40.289 140.916 39.849 140.916C39.0643 140.916 38.4887 141.279 38.122 142.005L37.473 141.62C37.7077 141.151 38.034 140.791 38.452 140.542C38.87 140.293 39.3357 140.168 39.849 140.168C40.465 140.168 41.004 140.377 41.466 140.795C41.9353 141.198 42.17 141.759 42.17 142.478C42.17 142.903 42.0527 143.321 41.818 143.732C41.5833 144.135 41.224 144.579 40.74 145.063L38.54 147.252H42.335V148ZM44.3426 143.402H45.6406C46.3666 143.402 46.9753 143.615 47.4666 144.04C47.9726 144.458 48.2256 145.034 48.2256 145.767C48.2256 146.493 47.9726 147.072 47.4666 147.505C46.9753 147.923 46.3666 148.132 45.6406 148.132C45.0466 148.132 44.5223 147.989 44.0676 147.703C43.6203 147.41 43.3196 147.006 43.1656 146.493L43.8146 146.119C43.9246 146.522 44.1409 146.834 44.4636 147.054C44.7863 147.274 45.1786 147.384 45.6406 147.384C46.1833 147.384 46.6196 147.241 46.9496 146.955C47.2869 146.662 47.4556 146.266 47.4556 145.767C47.4556 145.268 47.2869 144.876 46.9496 144.59C46.6196 144.297 46.1833 144.15 45.6406 144.15H43.5506L43.8256 140.3H47.9506V141.026H44.5076L44.3426 143.402ZM54.0612 147.054C53.5552 147.773 52.8402 148.132 51.9162 148.132C50.9995 148.132 50.2808 147.773 49.7602 147.054C49.2542 146.328 49.0012 145.36 49.0012 144.15C49.0012 142.933 49.2542 141.968 49.7602 141.257C50.2808 140.531 50.9995 140.168 51.9162 140.168C52.8402 140.168 53.5552 140.531 54.0612 141.257C54.5745 141.968 54.8312 142.933 54.8312 144.15C54.8312 145.367 54.5745 146.335 54.0612 147.054ZM50.3322 146.537C50.7208 147.102 51.2488 147.384 51.9162 147.384C52.5908 147.384 53.1152 147.102 53.4892 146.537C53.8705 145.98 54.0612 145.184 54.0612 144.15C54.0612 143.116 53.8705 142.32 53.4892 141.763C53.1152 141.198 52.5908 140.916 51.9162 140.916C51.2488 140.916 50.7208 141.198 50.3322 141.763C49.9582 142.328 49.7712 143.123 49.7712 144.15C49.7712 145.177 49.9582 145.972 50.3322 146.537Z" fill="black"/>
<path d="M42.06 99.026L40.267 101.501C40.8757 101.574 41.3817 101.813 41.785 102.216C42.1883 102.597 42.39 103.114 42.39 103.767C42.39 104.493 42.137 105.072 41.631 105.505C41.1397 105.923 40.531 106.132 39.805 106.132C39.2257 106.132 38.7123 106 38.265 105.736C37.8177 105.465 37.506 105.087 37.33 104.603L37.968 104.229C38.0927 104.603 38.3127 104.889 38.628 105.087C38.9507 105.285 39.343 105.384 39.805 105.384C40.3477 105.384 40.784 105.241 41.114 104.955C41.4513 104.662 41.62 104.266 41.62 103.767C41.62 103.268 41.4513 102.876 41.114 102.59C40.784 102.297 40.3477 102.15 39.805 102.15V102.139L39.794 102.15H39.585L39.255 101.644L41.169 99.026H37.55V98.3H42.06V99.026ZM48.443 105.054C47.937 105.773 47.222 106.132 46.298 106.132C45.3813 106.132 44.6627 105.773 44.142 105.054C43.636 104.328 43.383 103.36 43.383 102.15C43.383 100.933 43.636 99.9683 44.142 99.257C44.6627 98.531 45.3813 98.168 46.298 98.168C47.222 98.168 47.937 98.531 48.443 99.257C48.9563 99.9683 49.213 100.933 49.213 102.15C49.213 103.367 48.9563 104.335 48.443 105.054ZM44.714 104.537C45.1027 105.102 45.6307 105.384 46.298 105.384C46.9727 105.384 47.497 105.102 47.871 104.537C48.2523 103.98 48.443 103.184 48.443 102.15C48.443 101.116 48.2523 100.32 47.871 99.763C47.497 99.1983 46.9727 98.916 46.298 98.916C45.6307 98.916 45.1027 99.1983 44.714 99.763C44.34 100.328 44.153 101.123 44.153 102.15C44.153 103.177 44.34 103.972 44.714 104.537ZM55.3717 105.054C54.8657 105.773 54.1507 106.132 53.2267 106.132C52.3101 106.132 51.5914 105.773 51.0707 105.054C50.5647 104.328 50.3117 103.36 50.3117 102.15C50.3117 100.933 50.5647 99.9683 51.0707 99.257C51.5914 98.531 52.3101 98.168 53.2267 98.168C54.1507 98.168 54.8657 98.531 55.3717 99.257C55.8851 99.9683 56.1417 100.933 56.1417 102.15C56.1417 103.367 55.8851 104.335 55.3717 105.054ZM51.6427 104.537C52.0314 105.102 52.5594 105.384 53.2267 105.384C53.9014 105.384 54.4257 105.102 54.7997 104.537C55.1811 103.98 55.3717 103.184 55.3717 102.15C55.3717 101.116 55.1811 100.32 54.7997 99.763C54.4257 99.1983 53.9014 98.916 53.2267 98.916C52.5594 98.916 52.0314 99.1983 51.6427 99.763C51.2687 100.328 51.0817 101.123 51.0817 102.15C51.0817 103.177 51.2687 103.972 51.6427 104.537Z" fill="black"/>
<path d="M182 333C182 331.343 183.343 330 185 330H204C205.657 330 207 331.343 207 333V357H182V333Z" fill="#FFF8B8"/>
<path d="M96 283C96 281.343 97.3431 280 99 280H118C119.657 280 121 281.343 121 283V357H96V283Z" fill="#FFF8B8"/>
<path d="M275 123C275 121.343 276.343 120 278 120H297C298.657 120 300 121.343 300 123V356H275V123Z" fill="#FFF8B8"/>
<path d="M376 210C376 208.343 377.343 207 379 207H398C399.657 207 401 208.343 401 210V357H376V210Z" fill="#FFF8B8"/>
<path d="M160.16 33H163V47H160.26V37.92L156.32 44.42H156L152.06 37.94V47H149.3V33H152.14L156.16 39.62L160.16 33ZM174.009 45.76C172.995 46.7733 171.742 47.28 170.249 47.28C168.755 47.28 167.502 46.7733 166.489 45.76C165.475 44.7467 164.969 43.4933 164.969 42C164.969 40.52 165.475 39.2733 166.489 38.26C167.515 37.2333 168.769 36.72 170.249 36.72C171.729 36.72 172.982 37.2333 174.009 38.26C175.035 39.2867 175.549 40.5333 175.549 42C175.549 43.48 175.035 44.7333 174.009 45.76ZM168.309 43.98C168.829 44.5 169.475 44.76 170.249 44.76C171.022 44.76 171.669 44.5 172.189 43.98C172.709 43.46 172.969 42.8 172.969 42C172.969 41.2 172.709 40.54 172.189 40.02C171.669 39.5 171.022 39.24 170.249 39.24C169.475 39.24 168.829 39.5 168.309 40.02C167.802 40.5533 167.549 41.2133 167.549 42C167.549 42.7867 167.802 43.4467 168.309 43.98ZM182.924 36.72C184.03 36.72 184.93 37.0867 185.624 37.82C186.344 38.5667 186.704 39.58 186.704 40.86V47H184.124V41.18C184.124 40.5267 183.944 40.02 183.584 39.66C183.237 39.3 182.757 39.12 182.144 39.12C181.464 39.12 180.924 39.3333 180.524 39.76C180.137 40.1733 179.944 40.7867 179.944 41.6V47H177.364V37H179.944V38.12C180.557 37.1867 181.55 36.72 182.924 36.72ZM194.627 37V39.48H192.367V43.64C192.367 43.9867 192.453 44.24 192.627 44.4C192.8 44.56 193.053 44.6533 193.387 44.68C193.72 44.6933 194.133 44.6867 194.627 44.66V47C192.88 47.2 191.633 47.04 190.887 46.52C190.153 45.9867 189.787 45.0267 189.787 43.64V39.48H188.047V37H189.787V34.98L192.367 34.2V37H194.627ZM202.006 36.72C203.112 36.72 204.012 37.0867 204.706 37.82C205.426 38.5667 205.786 39.58 205.786 40.86V47H203.206V41.18C203.206 40.5267 203.026 40.02 202.666 39.66C202.319 39.3 201.839 39.12 201.226 39.12C200.546 39.12 200.006 39.3333 199.606 39.76C199.219 40.1733 199.026 40.7867 199.026 41.6V47H196.446V33H199.026V38.12C199.639 37.1867 200.632 36.72 202.006 36.72ZM210.569 47H207.989V32.4H210.569V47ZM217.23 43.72L219.45 37H222.21L218.57 47C218.05 48.44 217.357 49.48 216.49 50.12C215.637 50.7733 214.57 51.0667 213.29 51V48.6C213.97 48.6133 214.517 48.4667 214.93 48.16C215.343 47.8533 215.67 47.36 215.91 46.68L211.81 37H214.63L217.23 43.72ZM235.198 47.28C233.104 47.28 231.364 46.58 229.978 45.18C228.604 43.7933 227.918 42.0667 227.918 40C227.918 37.92 228.604 36.1933 229.978 34.82C231.364 33.42 233.104 32.72 235.198 32.72C236.464 32.72 237.631 33.02 238.698 33.62C239.778 34.2067 240.618 35.0067 241.218 36.02L238.838 37.4C238.491 36.7733 237.998 36.2867 237.358 35.94C236.718 35.58 235.998 35.4 235.198 35.4C233.838 35.4 232.738 35.8267 231.898 36.68C231.071 37.5467 230.658 38.6533 230.658 40C230.658 41.3333 231.071 42.4333 231.898 43.3C232.738 44.1533 233.838 44.58 235.198 44.58C235.998 44.58 236.718 44.4067 237.358 44.06C238.011 43.7 238.504 43.2133 238.838 42.6L241.218 43.98C240.618 44.9933 239.778 45.8 238.698 46.4C237.631 46.9867 236.464 47.28 235.198 47.28ZM245.53 47H242.95V32.4H245.53V47ZM256.411 45.76C255.398 46.7733 254.144 47.28 252.651 47.28C251.158 47.28 249.904 46.7733 248.891 45.76C247.878 44.7467 247.371 43.4933 247.371 42C247.371 40.52 247.878 39.2733 248.891 38.26C249.918 37.2333 251.171 36.72 252.651 36.72C254.131 36.72 255.384 37.2333 256.411 38.26C257.438 39.2867 257.951 40.5333 257.951 42C257.951 43.48 257.438 44.7333 256.411 45.76ZM250.711 43.98C251.231 44.5 251.878 44.76 252.651 44.76C253.424 44.76 254.071 44.5 254.591 43.98C255.111 43.46 255.371 42.8 255.371 42C255.371 41.2 255.111 40.54 254.591 40.02C254.071 39.5 253.424 39.24 252.651 39.24C251.878 39.24 251.231 39.5 250.711 40.02C250.204 40.5533 249.951 41.2133 249.951 42C249.951 42.7867 250.204 43.4467 250.711 43.98ZM261.931 39.84C261.931 40.2667 262.538 40.6333 263.751 40.94C264.178 41.0333 264.564 41.1467 264.911 41.28C265.258 41.4 265.604 41.58 265.951 41.82C266.311 42.0467 266.591 42.3533 266.791 42.74C266.991 43.1267 267.091 43.5733 267.091 44.08C267.091 45.1067 266.704 45.9 265.931 46.46C265.158 47.0067 264.204 47.28 263.071 47.28C261.018 47.28 259.618 46.4867 258.871 44.9L261.111 43.64C261.418 44.5067 262.071 44.94 263.071 44.94C263.991 44.94 264.451 44.6533 264.451 44.08C264.451 43.6533 263.844 43.2867 262.631 42.98C262.178 42.86 261.791 42.74 261.471 42.62C261.151 42.5 260.804 42.3267 260.431 42.1C260.058 41.86 259.771 41.56 259.571 41.2C259.384 40.8267 259.291 40.3933 259.291 39.9C259.291 38.9133 259.651 38.14 260.371 37.58C261.104 37.0067 262.011 36.72 263.091 36.72C263.904 36.72 264.644 36.9067 265.311 37.28C265.978 37.64 266.504 38.16 266.891 38.84L264.691 40.04C264.371 39.36 263.838 39.02 263.091 39.02C262.758 39.02 262.478 39.1 262.251 39.26C262.038 39.4067 261.931 39.6 261.931 39.84ZM278.334 43.06H270.794C271.127 44.3133 272.067 44.94 273.614 44.94C274.6 44.94 275.347 44.6067 275.854 43.94L277.934 45.14C276.947 46.5667 275.494 47.28 273.574 47.28C271.92 47.28 270.594 46.78 269.594 45.78C268.594 44.78 268.094 43.52 268.094 42C268.094 40.5067 268.587 39.2533 269.574 38.24C270.547 37.2267 271.814 36.72 273.374 36.72C274.854 36.72 276.06 37.2267 276.994 38.24C277.954 39.2533 278.434 40.5067 278.434 42C278.434 42.28 278.4 42.6333 278.334 43.06ZM270.754 41.06H275.854C275.707 40.4067 275.407 39.9067 274.954 39.56C274.514 39.2133 273.987 39.04 273.374 39.04C272.68 39.04 272.107 39.22 271.654 39.58C271.2 39.9267 270.9 40.42 270.754 41.06ZM287.737 38.18V33H290.317V47H287.737V45.82C286.977 46.7933 285.897 47.28 284.497 47.28C283.15 47.28 281.997 46.7733 281.037 45.76C280.09 44.7333 279.617 43.48 279.617 42C279.617 40.5333 280.09 39.2867 281.037 38.26C281.997 37.2333 283.15 36.72 284.497 36.72C285.897 36.72 286.977 37.2067 287.737 38.18ZM282.977 44.04C283.523 44.56 284.19 44.82 284.977 44.82C285.777 44.82 286.437 44.56 286.957 44.04C287.477 43.5067 287.737 42.8267 287.737 42C287.737 41.1733 287.477 40.5 286.957 39.98C286.437 39.4467 285.777 39.18 284.977 39.18C284.177 39.18 283.51 39.4467 282.977 39.98C282.457 40.5 282.197 41.1733 282.197 42C282.197 42.8267 282.457 43.5067 282.977 44.04ZM303.396 37V39.48H301.136V43.64C301.136 43.9867 301.223 44.24 301.396 44.4C301.569 44.56 301.823 44.6533 302.156 44.68C302.489 44.6933 302.903 44.6867 303.396 44.66V47C301.649 47.2 300.403 47.04 299.656 46.52C298.923 45.9867 298.556 45.0267 298.556 43.64V39.48H296.816V37H298.556V34.98L301.136 34.2V37H303.396ZM306.495 35.8C306.068 35.8 305.695 35.6467 305.375 35.34C305.068 35.02 304.915 34.6467 304.915 34.22C304.915 33.7933 305.068 33.42 305.375 33.1C305.695 32.78 306.068 32.62 306.495 32.62C306.935 32.62 307.308 32.78 307.615 33.1C307.935 33.42 308.095 33.7933 308.095 34.22C308.095 34.6467 307.935 35.02 307.615 35.34C307.308 35.6467 306.935 35.8 306.495 35.8ZM307.795 47H305.215V37H307.795V47ZM314.917 47.28C313.41 47.28 312.15 46.7733 311.137 45.76C310.137 44.7467 309.637 43.4933 309.637 42C309.637 40.5067 310.137 39.2533 311.137 38.24C312.15 37.2267 313.41 36.72 314.917 36.72C315.89 36.72 316.777 36.9533 317.577 37.42C318.377 37.8867 318.983 38.5133 319.397 39.3L317.177 40.6C316.977 40.1867 316.67 39.86 316.257 39.62C315.857 39.38 315.403 39.26 314.897 39.26C314.123 39.26 313.483 39.52 312.977 40.04C312.47 40.5467 312.217 41.2 312.217 42C312.217 42.7733 312.47 43.4267 312.977 43.96C313.483 44.4667 314.123 44.72 314.897 44.72C315.417 44.72 315.877 44.6067 316.277 44.38C316.69 44.14 316.997 43.8133 317.197 43.4L319.437 44.68C318.997 45.48 318.37 46.1133 317.557 46.58C316.757 47.0467 315.877 47.28 314.917 47.28ZM325.881 41.94L330.021 47H327.021L323.381 42.46V47H320.801V33H323.381V41.4L326.821 37H329.901L325.881 41.94ZM340.306 43.06H332.766C333.1 44.3133 334.04 44.94 335.586 44.94C336.573 44.94 337.32 44.6067 337.826 43.94L339.906 45.14C338.92 46.5667 337.466 47.28 335.546 47.28C333.893 47.28 332.566 46.78 331.566 45.78C330.566 44.78 330.066 43.52 330.066 42C330.066 40.5067 330.56 39.2533 331.546 38.24C332.52 37.2267 333.786 36.72 335.346 36.72C336.826 36.72 338.033 37.2267 338.966 38.24C339.926 39.2533 340.406 40.5067 340.406 42C340.406 42.28 340.373 42.6333 340.306 43.06ZM332.726 41.06H337.826C337.68 40.4067 337.38 39.9067 336.926 39.56C336.486 39.2133 335.96 39.04 335.346 39.04C334.653 39.04 334.08 39.22 333.626 39.58C333.173 39.9267 332.873 40.42 332.726 41.06ZM347.634 37V39.48H345.374V43.64C345.374 43.9867 345.461 44.24 345.634 44.4C345.808 44.56 346.061 44.6533 346.394 44.68C346.728 44.6933 347.141 44.6867 347.634 44.66V47C345.888 47.2 344.641 47.04 343.894 46.52C343.161 45.9867 342.794 45.0267 342.794 43.64V39.48H341.054V37H342.794V34.98L345.374 34.2V37H347.634ZM351.619 39.84C351.619 40.2667 352.225 40.6333 353.439 40.94C353.865 41.0333 354.252 41.1467 354.599 41.28C354.945 41.4 355.292 41.58 355.639 41.82C355.999 42.0467 356.279 42.3533 356.479 42.74C356.679 43.1267 356.779 43.5733 356.779 44.08C356.779 45.1067 356.392 45.9 355.619 46.46C354.845 47.0067 353.892 47.28 352.759 47.28C350.705 47.28 349.305 46.4867 348.559 44.9L350.799 43.64C351.105 44.5067 351.759 44.94 352.759 44.94C353.679 44.94 354.139 44.6533 354.139 44.08C354.139 43.6533 353.532 43.2867 352.319 42.98C351.865 42.86 351.479 42.74 351.159 42.62C350.839 42.5 350.492 42.3267 350.119 42.1C349.745 41.86 349.459 41.56 349.259 41.2C349.072 40.8267 348.979 40.3933 348.979 39.9C348.979 38.9133 349.339 38.14 350.059 37.58C350.792 37.0067 351.699 36.72 352.779 36.72C353.592 36.72 354.332 36.9067 354.999 37.28C355.665 37.64 356.192 38.16 356.579 38.84L354.379 40.04C354.059 39.36 353.525 39.02 352.779 39.02C352.445 39.02 352.165 39.1 351.939 39.26C351.725 39.4067 351.619 39.6 351.619 39.84Z" fill="#111727"/>
<line x1="31" y1="356.5" x2="462" y2="356.5" stroke="#ECECEC"/>
<line x1="425" y1="185.5" x2="72.0001" y2="185.461" stroke="black"/>
</svg>
