<svg width="496" height="290" viewBox="0 0 496 290" fill="none" xmlns="http://www.w3.org/2000/svg">
<rect x="0.644287" width="495.356" height="290" rx="10" fill="#CFC8FF"/>
<rect x="5.74048" y="55" width="485.163" height="230" rx="8" fill="white"/>
<path d="M76.069 228C76.069 228 92.3207 185.334 135.498 185.334C178.674 185.334 166.2 228 194.926 228C223.652 228 242.585 159 288.101 159C322.352 159 334.848 208.153 384.099 208.153C425.003 208.153 416.416 164.364 445.038 164.364" stroke="#A0D7E7" stroke-width="2" stroke-linecap="round"/>
<path d="M76.069 228C76.069 228 100.684 193.558 132.833 193.558C164.983 193.558 161.469 214.374 194.3 214.374C227.131 214.374 241.354 134 288.101 134C334.848 134 344.888 208.24 384.099 208.24C414.647 208.24 422.459 181 445.038 181" stroke="#6C5DD3" stroke-width="2" stroke-linecap="round"/>
<path d="M64.9943 269.182C64.0796 269.182 63.2956 268.967 62.6423 268.538C61.9983 268.109 61.5456 267.521 61.2843 266.774L62.4043 266.13C62.7869 267.315 63.6596 267.908 65.0223 267.908C65.6943 267.908 66.2076 267.773 66.5623 267.502C66.9169 267.222 67.0943 266.853 67.0943 266.396C67.0943 265.929 66.9169 265.579 66.5623 265.346C66.2076 265.113 65.6149 264.865 64.7843 264.604C64.3736 264.473 64.0609 264.371 63.8463 264.296C63.6316 264.212 63.3609 264.091 63.0343 263.932C62.7169 263.764 62.4789 263.596 62.3203 263.428C62.1616 263.251 62.0169 263.022 61.8863 262.742C61.7649 262.462 61.7043 262.145 61.7043 261.79C61.7043 260.941 62.0029 260.269 62.6003 259.774C63.1976 259.27 63.9256 259.018 64.7843 259.018C65.5589 259.018 66.2309 259.214 66.8003 259.606C67.3789 259.998 67.8129 260.516 68.1023 261.16L67.0103 261.79C66.5903 260.782 65.8483 260.278 64.7843 260.278C64.2523 260.278 63.8229 260.409 63.4963 260.67C63.1696 260.931 63.0063 261.286 63.0063 261.734C63.0063 262.163 63.1603 262.49 63.4683 262.714C63.7763 262.938 64.3083 263.171 65.0643 263.414C65.3349 263.498 65.5263 263.559 65.6383 263.596C65.7503 263.633 65.9229 263.699 66.1563 263.792C66.3989 263.885 66.5763 263.96 66.6883 264.016C66.8003 264.072 66.9496 264.151 67.1363 264.254C67.3323 264.357 67.4769 264.455 67.5703 264.548C67.6636 264.641 67.7709 264.758 67.8923 264.898C68.0229 265.029 68.1163 265.164 68.1723 265.304C68.2283 265.444 68.2749 265.607 68.3123 265.794C68.3589 265.971 68.3823 266.163 68.3823 266.368C68.3823 267.227 68.0696 267.913 67.4443 268.426C66.8189 268.93 66.0023 269.182 64.9943 269.182ZM70.8161 266.06C70.9374 266.685 71.2221 267.171 71.6701 267.516C72.1274 267.861 72.6874 268.034 73.3501 268.034C74.2741 268.034 74.9461 267.693 75.3661 267.012L76.4021 267.6C75.7208 268.655 74.6941 269.182 73.3221 269.182C72.2114 269.182 71.3061 268.837 70.6061 268.146C69.9154 267.446 69.5701 266.564 69.5701 265.5C69.5701 264.445 69.9108 263.568 70.5921 262.868C71.2734 262.168 72.1554 261.818 73.2381 261.818C74.2648 261.818 75.1001 262.182 75.7441 262.91C76.3974 263.629 76.7241 264.497 76.7241 265.514C76.7241 265.691 76.7101 265.873 76.6821 266.06H70.8161ZM73.2381 262.966C72.5848 262.966 72.0434 263.153 71.6141 263.526C71.1848 263.89 70.9188 264.38 70.8161 264.996H75.4921C75.3894 264.333 75.1281 263.829 74.7081 263.484C74.2881 263.139 73.7981 262.966 73.2381 262.966ZM81.9882 261.818C82.9682 261.818 83.8035 262.177 84.4942 262.896C85.1849 263.605 85.5302 264.473 85.5302 265.5C85.5302 266.527 85.1849 267.399 84.4942 268.118C83.8035 268.827 82.9682 269.182 81.9882 269.182C80.8309 269.182 79.9489 268.72 79.3422 267.796V271.8H78.1242V262H79.3422V263.204C79.9489 262.28 80.8309 261.818 81.9882 261.818ZM81.8342 268.006C82.5342 268.006 83.1222 267.768 83.5982 267.292C84.0742 266.807 84.3122 266.209 84.3122 265.5C84.3122 264.791 84.0742 264.198 83.5982 263.722C83.1222 263.237 82.5342 262.994 81.8342 262.994C81.1249 262.994 80.5322 263.237 80.0562 263.722C79.5802 264.198 79.3422 264.791 79.3422 265.5C79.3422 266.209 79.5802 266.807 80.0562 267.292C80.5322 267.768 81.1249 268.006 81.8342 268.006ZM90.6412 263.176H88.7792V266.97C88.7792 267.315 88.8445 267.563 88.9752 267.712C89.1152 267.852 89.3252 267.927 89.6052 267.936C89.8852 267.936 90.2305 267.927 90.6412 267.908V269C89.5772 269.14 88.7978 269.056 88.3032 268.748C87.8085 268.431 87.5612 267.838 87.5612 266.97V263.176H86.1752V262H87.5612V260.404L88.7792 260.04V262H90.6412V263.176Z" fill="#88898B"/>
<path d="M130.114 267.698C129.134 268.687 127.934 269.182 126.516 269.182C125.097 269.182 123.898 268.687 122.918 267.698C121.938 266.709 121.448 265.509 121.448 264.1C121.448 262.681 121.938 261.482 122.918 260.502C123.898 259.513 125.097 259.018 126.516 259.018C127.934 259.018 129.134 259.513 130.114 260.502C131.103 261.482 131.598 262.681 131.598 264.1C131.598 265.509 131.103 266.709 130.114 267.698ZM123.814 266.816C124.542 267.544 125.442 267.908 126.516 267.908C127.589 267.908 128.485 267.544 129.204 266.816C129.932 266.079 130.296 265.173 130.296 264.1C130.296 263.017 129.932 262.112 129.204 261.384C128.485 260.647 127.589 260.278 126.516 260.278C125.442 260.278 124.542 260.647 123.814 261.384C123.095 262.112 122.736 263.017 122.736 264.1C122.736 265.173 123.095 266.079 123.814 266.816ZM136.327 269.182C135.272 269.182 134.395 268.832 133.695 268.132C132.995 267.423 132.645 266.545 132.645 265.5C132.645 264.455 132.995 263.582 133.695 262.882C134.395 262.173 135.272 261.818 136.327 261.818C137.018 261.818 137.638 261.986 138.189 262.322C138.74 262.649 139.15 263.092 139.421 263.652L138.399 264.24C138.222 263.867 137.946 263.568 137.573 263.344C137.209 263.12 136.794 263.008 136.327 263.008C135.627 263.008 135.039 263.246 134.563 263.722C134.096 264.198 133.863 264.791 133.863 265.5C133.863 266.2 134.096 266.788 134.563 267.264C135.039 267.74 135.627 267.978 136.327 267.978C136.794 267.978 137.214 267.871 137.587 267.656C137.96 267.432 138.245 267.133 138.441 266.76L139.477 267.362C139.178 267.913 138.749 268.356 138.189 268.692C137.629 269.019 137.008 269.182 136.327 269.182ZM144.488 263.176H142.626V266.97C142.626 267.315 142.691 267.563 142.822 267.712C142.962 267.852 143.172 267.927 143.452 267.936C143.732 267.936 144.077 267.927 144.488 267.908V269C143.424 269.14 142.644 269.056 142.15 268.748C141.655 268.431 141.408 267.838 141.408 266.97V263.176H140.022V262H141.408V260.404L142.626 260.04V262H144.488V263.176Z" fill="#88898B"/>
<path d="M189.211 259.2H190.513V269H189.463L184.423 261.678V269H183.121V259.2H184.171L189.211 266.508V259.2ZM198.391 268.118C197.672 268.827 196.8 269.182 195.773 269.182C194.746 269.182 193.874 268.827 193.155 268.118C192.446 267.409 192.091 266.536 192.091 265.5C192.091 264.464 192.446 263.591 193.155 262.882C193.874 262.173 194.746 261.818 195.773 261.818C196.8 261.818 197.672 262.173 198.391 262.882C199.11 263.591 199.469 264.464 199.469 265.5C199.469 266.536 199.11 267.409 198.391 268.118ZM195.773 267.992C196.473 267.992 197.061 267.754 197.537 267.278C198.013 266.802 198.251 266.209 198.251 265.5C198.251 264.791 198.013 264.198 197.537 263.722C197.061 263.246 196.473 263.008 195.773 263.008C195.082 263.008 194.499 263.246 194.023 263.722C193.547 264.198 193.309 264.791 193.309 265.5C193.309 266.209 193.547 266.802 194.023 267.278C194.499 267.754 195.082 267.992 195.773 267.992ZM205.532 262H206.848L204.048 269H202.62L199.82 262H201.136L203.334 267.698L205.532 262Z" fill="#88898B"/>
<path d="M240.963 259.2C242.298 259.2 243.404 259.676 244.281 260.628C245.168 261.571 245.611 262.728 245.611 264.1C245.611 265.472 245.168 266.634 244.281 267.586C243.404 268.529 242.298 269 240.963 269H237.141V259.2H240.963ZM240.963 267.768C241.962 267.768 242.778 267.418 243.413 266.718C244.048 266.018 244.365 265.145 244.365 264.1C244.365 263.055 244.048 262.182 243.413 261.482C242.778 260.782 241.962 260.432 240.963 260.432H238.443V267.768H240.963ZM247.918 266.06C248.039 266.685 248.324 267.171 248.772 267.516C249.229 267.861 249.789 268.034 250.452 268.034C251.376 268.034 252.048 267.693 252.468 267.012L253.504 267.6C252.823 268.655 251.796 269.182 250.424 269.182C249.313 269.182 248.408 268.837 247.708 268.146C247.017 267.446 246.672 266.564 246.672 265.5C246.672 264.445 247.013 263.568 247.694 262.868C248.375 262.168 249.257 261.818 250.34 261.818C251.367 261.818 252.202 262.182 252.846 262.91C253.499 263.629 253.826 264.497 253.826 265.514C253.826 265.691 253.812 265.873 253.784 266.06H247.918ZM250.34 262.966C249.687 262.966 249.145 263.153 248.716 263.526C248.287 263.89 248.021 264.38 247.918 264.996H252.594C252.491 264.333 252.23 263.829 251.81 263.484C251.39 263.139 250.9 262.966 250.34 262.966ZM258.502 269.182C257.448 269.182 256.57 268.832 255.87 268.132C255.17 267.423 254.82 266.545 254.82 265.5C254.82 264.455 255.17 263.582 255.87 262.882C256.57 262.173 257.448 261.818 258.502 261.818C259.193 261.818 259.814 261.986 260.364 262.322C260.915 262.649 261.326 263.092 261.596 263.652L260.574 264.24C260.397 263.867 260.122 263.568 259.748 263.344C259.384 263.12 258.969 263.008 258.502 263.008C257.802 263.008 257.214 263.246 256.738 263.722C256.272 264.198 256.038 264.791 256.038 265.5C256.038 266.2 256.272 266.788 256.738 267.264C257.214 267.74 257.802 267.978 258.502 267.978C258.969 267.978 259.389 267.871 259.762 267.656C260.136 267.432 260.42 267.133 260.616 266.76L261.652 267.362C261.354 267.913 260.924 268.356 260.364 268.692C259.804 269.019 259.184 269.182 258.502 269.182Z" fill="#88898B"/>
<path d="M300.844 269.182C300.135 269.182 299.509 269.033 298.968 268.734C298.427 268.435 298.03 268.001 297.778 267.432L298.884 266.788C299.173 267.535 299.827 267.908 300.844 267.908C301.469 267.908 301.959 267.759 302.314 267.46C302.669 267.161 302.846 266.718 302.846 266.13V259.2H304.134V266.13C304.134 267.11 303.821 267.866 303.196 268.398C302.58 268.921 301.796 269.182 300.844 269.182ZM311.704 262H312.922V269H311.704V267.796C311.098 268.72 310.216 269.182 309.058 269.182C308.078 269.182 307.243 268.827 306.552 268.118C305.862 267.399 305.516 266.527 305.516 265.5C305.516 264.473 305.862 263.605 306.552 262.896C307.243 262.177 308.078 261.818 309.058 261.818C310.216 261.818 311.098 262.28 311.704 263.204V262ZM309.212 268.006C309.922 268.006 310.514 267.768 310.99 267.292C311.466 266.807 311.704 266.209 311.704 265.5C311.704 264.791 311.466 264.198 310.99 263.722C310.514 263.237 309.922 262.994 309.212 262.994C308.512 262.994 307.924 263.237 307.448 263.722C306.972 264.198 306.734 264.791 306.734 265.5C306.734 266.209 306.972 266.807 307.448 267.292C307.924 267.768 308.512 268.006 309.212 268.006ZM318.254 261.818C319.075 261.818 319.733 262.079 320.228 262.602C320.722 263.115 320.97 263.815 320.97 264.702V269H319.752V264.772C319.752 264.203 319.598 263.764 319.29 263.456C318.982 263.139 318.557 262.98 318.016 262.98C317.409 262.98 316.919 263.171 316.546 263.554C316.172 263.927 315.986 264.506 315.986 265.29V269H314.768V262H315.986V263.008C316.48 262.215 317.236 261.818 318.254 261.818Z" fill="#88898B"/>
<path d="M365.093 260.432H360.753V263.61H364.911V264.842H360.753V269H359.451V259.2H365.093V260.432ZM367.398 266.06C367.519 266.685 367.804 267.171 368.252 267.516C368.709 267.861 369.269 268.034 369.932 268.034C370.856 268.034 371.528 267.693 371.948 267.012L372.984 267.6C372.303 268.655 371.276 269.182 369.904 269.182C368.793 269.182 367.888 268.837 367.188 268.146C366.497 267.446 366.152 266.564 366.152 265.5C366.152 264.445 366.493 263.568 367.174 262.868C367.855 262.168 368.737 261.818 369.82 261.818C370.847 261.818 371.682 262.182 372.326 262.91C372.979 263.629 373.306 264.497 373.306 265.514C373.306 265.691 373.292 265.873 373.264 266.06H367.398ZM369.82 262.966C369.167 262.966 368.625 263.153 368.196 263.526C367.767 263.89 367.501 264.38 367.398 264.996H372.074C371.971 264.333 371.71 263.829 371.29 263.484C370.87 263.139 370.38 262.966 369.82 262.966ZM378.57 261.818C379.55 261.818 380.385 262.177 381.076 262.896C381.767 263.605 382.112 264.473 382.112 265.5C382.112 266.527 381.767 267.399 381.076 268.118C380.385 268.827 379.55 269.182 378.57 269.182C377.413 269.182 376.531 268.72 375.924 267.796V269H374.706V259.2H375.924V263.204C376.531 262.28 377.413 261.818 378.57 261.818ZM378.416 268.006C379.116 268.006 379.704 267.768 380.18 267.292C380.656 266.807 380.894 266.209 380.894 265.5C380.894 264.791 380.656 264.198 380.18 263.722C379.704 263.237 379.116 262.994 378.416 262.994C377.707 262.994 377.114 263.237 376.638 263.722C376.162 264.198 375.924 264.791 375.924 265.5C375.924 266.209 376.162 266.807 376.638 267.292C377.114 267.768 377.707 268.006 378.416 268.006Z" fill="#88898B"/>
<path d="M429.776 259.2V269H428.488V261.342L425.282 266.676H425.114L421.908 261.356V269H420.606V259.2H422.076L425.198 264.38L428.306 259.2H429.776ZM437.542 262H438.76V269H437.542V267.796C436.935 268.72 436.053 269.182 434.896 269.182C433.916 269.182 433.08 268.827 432.39 268.118C431.699 267.399 431.354 266.527 431.354 265.5C431.354 264.473 431.699 263.605 432.39 262.896C433.08 262.177 433.916 261.818 434.896 261.818C436.053 261.818 436.935 262.28 437.542 263.204V262ZM435.05 268.006C435.759 268.006 436.352 267.768 436.828 267.292C437.304 266.807 437.542 266.209 437.542 265.5C437.542 264.791 437.304 264.198 436.828 263.722C436.352 263.237 435.759 262.994 435.05 262.994C434.35 262.994 433.762 263.237 433.286 263.722C432.81 264.198 432.572 264.791 432.572 265.5C432.572 266.209 432.81 266.807 433.286 267.292C433.762 267.768 434.35 268.006 435.05 268.006ZM441.823 263.176C442.224 262.308 442.952 261.874 444.007 261.874V263.148C443.41 263.12 442.896 263.279 442.467 263.624C442.038 263.969 441.823 264.525 441.823 265.29V269H440.605V262H441.823V263.176Z" fill="#88898B"/>
<path d="M30.2519 35L27.9959 31.112H26.3159V35H24.1079V23.8H28.5879C29.6225 23.8 30.5025 24.1627 31.2279 24.888C31.9532 25.6133 32.3159 26.488 32.3159 27.512C32.3159 28.2053 32.1185 28.8507 31.7239 29.448C31.3292 30.0347 30.8065 30.4773 30.1559 30.776L32.6359 35H30.2519ZM26.3159 25.864V29.176H28.5879C29.0039 29.176 29.3612 29.016 29.6599 28.696C29.9585 28.3653 30.1079 27.9707 30.1079 27.512C30.1079 27.0533 29.9585 26.664 29.6599 26.344C29.3612 26.024 29.0039 25.864 28.5879 25.864H26.3159ZM35.1777 31.848C35.4551 32.8507 36.2071 33.352 37.4337 33.352C38.2231 33.352 38.8204 33.0853 39.2257 32.552L40.8897 33.512C40.1004 34.6533 38.9377 35.224 37.4017 35.224C36.0791 35.224 35.0177 34.824 34.2177 34.024C33.4177 33.224 33.0177 32.216 33.0177 31C33.0177 29.7947 33.4124 28.792 34.2017 27.992C34.9911 27.1813 36.0044 26.776 37.2417 26.776C38.4151 26.776 39.3804 27.1813 40.1377 27.992C40.9057 28.8027 41.2897 29.8053 41.2897 31C41.2897 31.2667 41.2631 31.5493 41.2097 31.848H35.1777ZM35.1457 30.248H39.2257C39.1084 29.704 38.8631 29.2987 38.4897 29.032C38.1271 28.7653 37.7111 28.632 37.2417 28.632C36.6871 28.632 36.2284 28.776 35.8657 29.064C35.5031 29.3413 35.2631 29.736 35.1457 30.248ZM48.7321 27H50.7961V38.2H48.7321V34.056C48.1241 34.8347 47.2601 35.224 46.1401 35.224C45.0628 35.224 44.1401 34.8187 43.3721 34.008C42.6148 33.1867 42.2361 32.184 42.2361 31C42.2361 29.816 42.6148 28.8187 43.3721 28.008C44.1401 27.1867 45.0628 26.776 46.1401 26.776C47.2601 26.776 48.1241 27.1653 48.7321 27.944V27ZM44.9241 32.632C45.3508 33.048 45.8841 33.256 46.5241 33.256C47.1641 33.256 47.6921 33.048 48.1081 32.632C48.5241 32.2053 48.7321 31.6613 48.7321 31C48.7321 30.3387 48.5241 29.8 48.1081 29.384C47.6921 28.9573 47.1641 28.744 46.5241 28.744C45.8841 28.744 45.3508 28.9573 44.9241 29.384C44.5081 29.8 44.3001 30.3387 44.3001 31C44.3001 31.6613 44.5081 32.2053 44.9241 32.632ZM57.9637 27H60.0277V35H57.9637V34.104C57.4624 34.8507 56.6677 35.224 55.5797 35.224C54.7051 35.224 53.9797 34.9307 53.4037 34.344C52.8384 33.7573 52.5557 32.9467 52.5557 31.912V27H54.6197V31.656C54.6197 32.1893 54.7637 32.6 55.0517 32.888C55.3397 33.1653 55.7237 33.304 56.2037 33.304C56.7371 33.304 57.1637 33.1387 57.4837 32.808C57.8037 32.4773 57.9637 31.9813 57.9637 31.32V27ZM63.6621 31.848C63.9395 32.8507 64.6915 33.352 65.9181 33.352C66.7075 33.352 67.3048 33.0853 67.7101 32.552L69.3741 33.512C68.5848 34.6533 67.4221 35.224 65.8861 35.224C64.5635 35.224 63.5021 34.824 62.7021 34.024C61.9021 33.224 61.5021 32.216 61.5021 31C61.5021 29.7947 61.8968 28.792 62.6861 27.992C63.4755 27.1813 64.4888 26.776 65.7261 26.776C66.8995 26.776 67.8648 27.1813 68.6221 27.992C69.3901 28.8027 69.7741 29.8053 69.7741 31C69.7741 31.2667 69.7475 31.5493 69.6941 31.848H63.6621ZM63.6301 30.248H67.7101C67.5928 29.704 67.3475 29.2987 66.9741 29.032C66.6115 28.7653 66.1955 28.632 65.7261 28.632C65.1715 28.632 64.7128 28.776 64.3501 29.064C63.9875 29.3413 63.7475 29.736 63.6301 30.248ZM72.8065 29.272C72.8065 29.4853 72.9452 29.6613 73.2225 29.8C73.5105 29.928 73.8572 30.0453 74.2625 30.152C74.6678 30.248 75.0732 30.376 75.4785 30.536C75.8838 30.6853 76.2252 30.9413 76.5025 31.304C76.7905 31.6667 76.9345 32.12 76.9345 32.664C76.9345 33.4853 76.6252 34.12 76.0065 34.568C75.3985 35.0053 74.6358 35.224 73.7185 35.224C72.0758 35.224 70.9558 34.5893 70.3585 33.32L72.1505 32.312C72.3852 33.0053 72.9078 33.352 73.7185 33.352C74.4545 33.352 74.8225 33.1227 74.8225 32.664C74.8225 32.4507 74.6785 32.28 74.3905 32.152C74.1132 32.0133 73.7718 31.8907 73.3665 31.784C72.9612 31.6773 72.5558 31.544 72.1505 31.384C71.7452 31.224 71.3985 30.9733 71.1105 30.632C70.8332 30.28 70.6945 29.8427 70.6945 29.32C70.6945 28.5307 70.9825 27.912 71.5585 27.464C72.1452 27.0053 72.8705 26.776 73.7345 26.776C74.3852 26.776 74.9772 26.9253 75.5105 27.224C76.0438 27.512 76.4652 27.928 76.7745 28.472L75.0145 29.432C74.7585 28.888 74.3318 28.616 73.7345 28.616C73.4678 28.616 73.2438 28.6747 73.0625 28.792C72.8918 28.9093 72.8065 29.0693 72.8065 29.272ZM82.6035 28.984H80.7955V32.312C80.7955 32.5893 80.8648 32.792 81.0035 32.92C81.1422 33.048 81.3448 33.1227 81.6115 33.144C81.8782 33.1547 82.2088 33.1493 82.6035 33.128V35C81.1848 35.16 80.1822 35.0267 79.5955 34.6C79.0195 34.1733 78.7315 33.4107 78.7315 32.312V28.984H77.3395V27H78.7315V25.384L80.7955 24.76V27H82.6035V28.984ZM97.6717 34.36L95.9117 35.368L94.8877 34.264C94.0237 34.904 93.0211 35.224 91.8797 35.224C90.7277 35.224 89.7837 34.9253 89.0477 34.328C88.3224 33.72 87.9597 32.9093 87.9597 31.896C87.9597 31.2347 88.1197 30.6213 88.4397 30.056C88.7597 29.4907 89.2237 29.032 89.8317 28.68C89.4691 28.104 89.2877 27.48 89.2877 26.808C89.2877 25.8587 89.6184 25.0853 90.2797 24.488C90.9411 23.88 91.7784 23.576 92.7917 23.576C93.5917 23.576 94.3064 23.784 94.9357 24.2C95.5757 24.6053 96.0504 25.1973 96.3597 25.976L94.4717 27.064C94.1624 26.168 93.6131 25.72 92.8237 25.72C92.4397 25.72 92.1197 25.832 91.8637 26.056C91.6184 26.28 91.4957 26.5627 91.4957 26.904C91.4957 27.2027 91.5651 27.4747 91.7037 27.72C91.8531 27.9653 92.0877 28.2587 92.4077 28.6L94.8077 31.224C95.0424 30.7227 95.2237 30.104 95.3517 29.368L97.2077 30.424C97.0051 31.288 96.6797 32.072 96.2317 32.776L97.6717 34.36ZM92.0237 33.192C92.5784 33.192 93.0744 33.0587 93.5117 32.792L91.0957 30.168C91.0744 30.1467 91.0637 30.1307 91.0637 30.12C90.4771 30.4827 90.1837 31 90.1837 31.672C90.1837 32.1307 90.3384 32.4987 90.6477 32.776C90.9677 33.0533 91.4264 33.192 92.0237 33.192ZM108.357 35.224C106.672 35.224 105.28 34.664 104.181 33.544C103.083 32.424 102.533 31.0427 102.533 29.4C102.533 27.7467 103.083 26.3653 104.181 25.256C105.28 24.136 106.672 23.576 108.357 23.576C109.371 23.576 110.304 23.816 111.157 24.296C112.021 24.7653 112.693 25.4053 113.173 26.216L111.269 27.32C110.992 26.8187 110.597 26.4293 110.085 26.152C109.573 25.864 108.997 25.72 108.357 25.72C107.269 25.72 106.389 26.0613 105.717 26.744C105.056 27.4267 104.725 28.312 104.725 29.4C104.725 30.4773 105.056 31.3573 105.717 32.04C106.389 32.7227 107.269 33.064 108.357 33.064C108.997 33.064 109.573 32.9253 110.085 32.648C110.608 32.36 111.003 31.9707 111.269 31.48L113.173 32.584C112.693 33.3947 112.027 34.04 111.173 34.52C110.32 34.9893 109.381 35.224 108.357 35.224ZM114.559 35V23.32H116.623V35H114.559ZM125.328 34.008C124.507 34.8187 123.504 35.224 122.32 35.224C121.136 35.224 120.133 34.8187 119.312 34.008C118.501 33.1867 118.096 32.184 118.096 31C118.096 29.816 118.501 28.8187 119.312 28.008C120.133 27.1867 121.136 26.776 122.32 26.776C123.504 26.776 124.507 27.1867 125.328 28.008C126.149 28.8187 126.56 29.816 126.56 31C126.56 32.184 126.149 33.1867 125.328 34.008ZM120.768 32.584C121.184 33 121.701 33.208 122.32 33.208C122.939 33.208 123.456 33 123.872 32.584C124.288 32.168 124.496 31.64 124.496 31C124.496 30.36 124.288 29.832 123.872 29.416C123.456 29 122.939 28.792 122.32 28.792C121.701 28.792 121.184 29 120.768 29.416C120.363 29.832 120.16 30.36 120.16 31C120.16 31.64 120.363 32.168 120.768 32.584ZM129.744 29.272C129.744 29.4853 129.883 29.6613 130.16 29.8C130.448 29.928 130.795 30.0453 131.2 30.152C131.605 30.248 132.011 30.376 132.416 30.536C132.821 30.6853 133.163 30.9413 133.44 31.304C133.728 31.6667 133.872 32.12 133.872 32.664C133.872 33.4853 133.563 34.12 132.944 34.568C132.336 35.0053 131.573 35.224 130.656 35.224C129.013 35.224 127.893 34.5893 127.296 33.32L129.088 32.312C129.323 33.0053 129.845 33.352 130.656 33.352C131.392 33.352 131.76 33.1227 131.76 32.664C131.76 32.4507 131.616 32.28 131.328 32.152C131.051 32.0133 130.709 31.8907 130.304 31.784C129.899 31.6773 129.493 31.544 129.088 31.384C128.683 31.224 128.336 30.9733 128.048 30.632C127.771 30.28 127.632 29.8427 127.632 29.32C127.632 28.5307 127.92 27.912 128.496 27.464C129.083 27.0053 129.808 26.776 130.672 26.776C131.323 26.776 131.915 26.9253 132.448 27.224C132.981 27.512 133.403 27.928 133.712 28.472L131.952 29.432C131.696 28.888 131.269 28.616 130.672 28.616C130.405 28.616 130.181 28.6747 130 28.792C129.829 28.9093 129.744 29.0693 129.744 29.272ZM136.834 31.848C137.111 32.8507 137.863 33.352 139.09 33.352C139.879 33.352 140.477 33.0853 140.882 32.552L142.546 33.512C141.757 34.6533 140.594 35.224 139.058 35.224C137.735 35.224 136.674 34.824 135.874 34.024C135.074 33.224 134.674 32.216 134.674 31C134.674 29.7947 135.069 28.792 135.858 27.992C136.647 27.1813 137.661 26.776 138.898 26.776C140.071 26.776 141.037 27.1813 141.794 27.992C142.562 28.8027 142.946 29.8053 142.946 31C142.946 31.2667 142.919 31.5493 142.866 31.848H136.834ZM136.802 30.248H140.882C140.765 29.704 140.519 29.2987 140.146 29.032C139.783 28.7653 139.367 28.632 138.898 28.632C138.343 28.632 137.885 28.776 137.522 29.064C137.159 29.3413 136.919 29.736 136.802 30.248ZM150.388 23.8H152.452V35H150.388V34.056C149.78 34.8347 148.916 35.224 147.796 35.224C146.719 35.224 145.796 34.8187 145.028 34.008C144.271 33.1867 143.892 32.184 143.892 31C143.892 29.816 144.271 28.8187 145.028 28.008C145.796 27.1867 146.719 26.776 147.796 26.776C148.916 26.776 149.78 27.1653 150.388 27.944V23.8ZM146.58 32.632C147.007 33.048 147.54 33.256 148.18 33.256C148.82 33.256 149.348 33.048 149.764 32.632C150.18 32.2053 150.388 31.6613 150.388 31C150.388 30.3387 150.18 29.8 149.764 29.384C149.348 28.9573 148.82 28.744 148.18 28.744C147.54 28.744 147.007 28.9573 146.58 29.384C146.164 29.8 145.956 30.3387 145.956 31C145.956 31.6613 146.164 32.2053 146.58 32.632ZM162.916 28.984H161.108V32.312C161.108 32.5893 161.177 32.792 161.316 32.92C161.455 33.048 161.657 33.1227 161.924 33.144C162.191 33.1547 162.521 33.1493 162.916 33.128V35C161.497 35.16 160.495 35.0267 159.908 34.6C159.332 34.1733 159.044 33.4107 159.044 32.312V28.984H157.652V27H159.044V25.384L161.108 24.76V27H162.916V28.984ZM165.395 26.04C165.054 26.04 164.755 25.9173 164.499 25.672C164.254 25.416 164.131 25.1173 164.131 24.776C164.131 24.4347 164.254 24.136 164.499 23.88C164.755 23.624 165.054 23.496 165.395 23.496C165.747 23.496 166.046 23.624 166.291 23.88C166.547 24.136 166.675 24.4347 166.675 24.776C166.675 25.1173 166.547 25.416 166.291 25.672C166.046 25.9173 165.747 26.04 165.395 26.04ZM164.371 35V27H166.435V35H164.371ZM172.132 35.224C170.927 35.224 169.919 34.8187 169.108 34.008C168.308 33.1973 167.908 32.1947 167.908 31C167.908 29.8053 168.308 28.8027 169.108 27.992C169.919 27.1813 170.927 26.776 172.132 26.776C172.911 26.776 173.62 26.9627 174.26 27.336C174.9 27.7093 175.386 28.2107 175.716 28.84L173.94 29.88C173.78 29.5493 173.535 29.288 173.204 29.096C172.884 28.904 172.522 28.808 172.116 28.808C171.498 28.808 170.986 29.016 170.58 29.432C170.175 29.8373 169.972 30.36 169.972 31C169.972 31.6293 170.175 32.152 170.58 32.568C170.986 32.9733 171.498 33.176 172.116 33.176C172.532 33.176 172.9 33.0853 173.22 32.904C173.551 32.712 173.796 32.4507 173.956 32.12L175.748 33.144C175.396 33.7733 174.9 34.28 174.26 34.664C173.62 35.0373 172.911 35.224 172.132 35.224ZM184.216 35H181.816L178.904 31.368V35H176.84V23.8H178.904V30.52L181.656 27H184.12L180.904 30.952L184.216 35ZM186.412 31.848C186.689 32.8507 187.441 33.352 188.668 33.352C189.457 33.352 190.055 33.0853 190.46 32.552L192.124 33.512C191.335 34.6533 190.172 35.224 188.636 35.224C187.313 35.224 186.252 34.824 185.452 34.024C184.652 33.224 184.252 32.216 184.252 31C184.252 29.7947 184.647 28.792 185.436 27.992C186.225 27.1813 187.239 26.776 188.476 26.776C189.649 26.776 190.615 27.1813 191.372 27.992C192.14 28.8027 192.524 29.8053 192.524 31C192.524 31.2667 192.497 31.5493 192.444 31.848H186.412ZM186.38 30.248H190.46C190.343 29.704 190.097 29.2987 189.724 29.032C189.361 28.7653 188.945 28.632 188.476 28.632C187.921 28.632 187.463 28.776 187.1 29.064C186.737 29.3413 186.497 29.736 186.38 30.248ZM198.307 28.984H196.499V32.312C196.499 32.5893 196.568 32.792 196.707 32.92C196.845 33.048 197.048 33.1227 197.315 33.144C197.581 33.1547 197.912 33.1493 198.307 33.128V35C196.888 35.16 195.885 35.0267 195.299 34.6C194.723 34.1733 194.435 33.4107 194.435 32.312V28.984H193.043V27H194.435V25.384L196.499 24.76V27H198.307V28.984ZM201.494 29.272C201.494 29.4853 201.633 29.6613 201.91 29.8C202.198 29.928 202.545 30.0453 202.95 30.152C203.355 30.248 203.761 30.376 204.166 30.536C204.571 30.6853 204.913 30.9413 205.19 31.304C205.478 31.6667 205.622 32.12 205.622 32.664C205.622 33.4853 205.313 34.12 204.694 34.568C204.086 35.0053 203.323 35.224 202.406 35.224C200.763 35.224 199.643 34.5893 199.046 33.32L200.838 32.312C201.073 33.0053 201.595 33.352 202.406 33.352C203.142 33.352 203.51 33.1227 203.51 32.664C203.51 32.4507 203.366 32.28 203.078 32.152C202.801 32.0133 202.459 31.8907 202.054 31.784C201.649 31.6773 201.243 31.544 200.838 31.384C200.433 31.224 200.086 30.9733 199.798 30.632C199.521 30.28 199.382 29.8427 199.382 29.32C199.382 28.5307 199.67 27.912 200.246 27.464C200.833 27.0053 201.558 26.776 202.422 26.776C203.073 26.776 203.665 26.9253 204.198 27.224C204.731 27.512 205.153 27.928 205.462 28.472L203.702 29.432C203.446 28.888 203.019 28.616 202.422 28.616C202.155 28.616 201.931 28.6747 201.75 28.792C201.579 28.9093 201.494 29.0693 201.494 29.272Z" fill="#282D40"/>
<path d="M22.7567 87.588C23.7367 87.588 24.5441 87.896 25.1787 88.512C25.8134 89.1187 26.1307 89.9073 26.1307 90.878C26.1307 91.8487 25.8134 92.642 25.1787 93.258C24.5441 93.874 23.7367 94.182 22.7567 94.182C21.7674 94.182 20.9554 93.874 20.3207 93.258C19.6954 92.642 19.3827 91.8487 19.3827 90.878C19.3827 90.122 19.5787 89.4687 19.9707 88.918L23.1207 84.2H24.6047L22.2947 87.616C22.5001 87.5973 22.6541 87.588 22.7567 87.588ZM21.2447 92.376C21.6367 92.7493 22.1407 92.936 22.7567 92.936C23.3727 92.936 23.8721 92.7493 24.2547 92.376C24.6467 91.9933 24.8427 91.494 24.8427 90.878C24.8427 90.262 24.6467 89.7673 24.2547 89.394C23.8721 89.0207 23.3727 88.834 22.7567 88.834C22.1314 88.834 21.6274 89.0207 21.2447 89.394C20.8621 89.7673 20.6707 90.262 20.6707 90.878C20.6707 91.494 20.8621 91.9933 21.2447 92.376ZM33.7199 92.796C33.0573 93.72 32.1286 94.182 30.9339 94.182C29.7393 94.182 28.8106 93.72 28.1479 92.796C27.4853 91.872 27.1539 90.64 27.1539 89.1C27.1539 87.56 27.4853 86.328 28.1479 85.404C28.8106 84.48 29.7393 84.018 30.9339 84.018C32.1286 84.018 33.0573 84.48 33.7199 85.404C34.3826 86.328 34.7139 87.56 34.7139 89.1C34.7139 90.64 34.3826 91.872 33.7199 92.796ZM29.0999 91.914C29.5293 92.5767 30.1406 92.908 30.9339 92.908C31.7273 92.908 32.3386 92.5767 32.7679 91.914C33.2066 91.2513 33.4259 90.3133 33.4259 89.1C33.4259 87.8867 33.2066 86.9487 32.7679 86.286C32.3386 85.614 31.7273 85.278 30.9339 85.278C30.1406 85.278 29.5293 85.6093 29.0999 86.272C28.6706 86.9347 28.4559 87.8773 28.4559 89.1C28.4559 90.3133 28.6706 91.2513 29.0999 91.914ZM42.5383 92.796C41.8756 93.72 40.947 94.182 39.7523 94.182C38.5576 94.182 37.629 93.72 36.9663 92.796C36.3036 91.872 35.9723 90.64 35.9723 89.1C35.9723 87.56 36.3036 86.328 36.9663 85.404C37.629 84.48 38.5576 84.018 39.7523 84.018C40.947 84.018 41.8756 84.48 42.5383 85.404C43.201 86.328 43.5323 87.56 43.5323 89.1C43.5323 90.64 43.201 91.872 42.5383 92.796ZM37.9183 91.914C38.3476 92.5767 38.959 92.908 39.7523 92.908C40.5456 92.908 41.157 92.5767 41.5863 91.914C42.025 91.2513 42.2443 90.3133 42.2443 89.1C42.2443 87.8867 42.025 86.9487 41.5863 86.286C41.157 85.614 40.5456 85.278 39.7523 85.278C38.959 85.278 38.3476 85.6093 37.9183 86.272C37.489 86.9347 37.2743 87.8773 37.2743 89.1C37.2743 90.3133 37.489 91.2513 37.9183 91.914Z" fill="#88898B"/>
<path d="M26.8167 139.92V141.138H25.6267V143H24.3247V141.138H19.3267V139.92L22.8407 133.2H24.2407L20.7267 139.92H24.3247V137.148H25.6267V139.92H26.8167ZM34.3078 141.796C33.6451 142.72 32.7165 143.182 31.5218 143.182C30.3271 143.182 29.3985 142.72 28.7358 141.796C28.0731 140.872 27.7418 139.64 27.7418 138.1C27.7418 136.56 28.0731 135.328 28.7358 134.404C29.3985 133.48 30.3271 133.018 31.5218 133.018C32.7165 133.018 33.6451 133.48 34.3078 134.404C34.9705 135.328 35.3018 136.56 35.3018 138.1C35.3018 139.64 34.9705 140.872 34.3078 141.796ZM29.6878 140.914C30.1171 141.577 30.7285 141.908 31.5218 141.908C32.3151 141.908 32.9265 141.577 33.3558 140.914C33.7945 140.251 34.0138 139.313 34.0138 138.1C34.0138 136.887 33.7945 135.949 33.3558 135.286C32.9265 134.614 32.3151 134.278 31.5218 134.278C30.7285 134.278 30.1171 134.609 29.6878 135.272C29.2585 135.935 29.0438 136.877 29.0438 138.1C29.0438 139.313 29.2585 140.251 29.6878 140.914ZM43.1262 141.796C42.4635 142.72 41.5348 143.182 40.3402 143.182C39.1455 143.182 38.2168 142.72 37.5542 141.796C36.8915 140.872 36.5602 139.64 36.5602 138.1C36.5602 136.56 36.8915 135.328 37.5542 134.404C38.2168 133.48 39.1455 133.018 40.3402 133.018C41.5348 133.018 42.4635 133.48 43.1262 134.404C43.7888 135.328 44.1202 136.56 44.1202 138.1C44.1202 139.64 43.7888 140.872 43.1262 141.796ZM38.5062 140.914C38.9355 141.577 39.5468 141.908 40.3402 141.908C41.1335 141.908 41.7448 141.577 42.1742 140.914C42.6128 140.251 42.8322 139.313 42.8322 138.1C42.8322 136.887 42.6128 135.949 42.1742 135.286C41.7448 134.614 41.1335 134.278 40.3402 134.278C39.5468 134.278 38.9355 134.609 38.5062 135.272C38.0768 135.935 37.8622 136.877 37.8622 138.1C37.8622 139.313 38.0768 140.251 38.5062 140.914Z" fill="#88898B"/>
<path d="M19.4947 193V191.936L22.9527 188.408C23.8767 187.484 24.3387 186.691 24.3387 186.028C24.3387 185.477 24.1707 185.048 23.8347 184.74C23.4987 184.432 23.0881 184.278 22.6027 184.278C21.6787 184.278 21.0067 184.717 20.5867 185.594L19.4947 184.95C19.8027 184.315 20.2274 183.835 20.7687 183.508C21.3194 183.181 21.9261 183.018 22.5887 183.018C23.4101 183.018 24.1241 183.289 24.7307 183.83C25.3374 184.371 25.6407 185.099 25.6407 186.014C25.6407 187.003 25.0574 188.081 23.8907 189.248L21.3847 191.74H25.8227V193H19.4947ZM33.4328 191.796C32.7701 192.72 31.8415 193.182 30.6468 193.182C29.4521 193.182 28.5235 192.72 27.8608 191.796C27.1981 190.872 26.8668 189.64 26.8668 188.1C26.8668 186.56 27.1981 185.328 27.8608 184.404C28.5235 183.48 29.4521 183.018 30.6468 183.018C31.8415 183.018 32.7701 183.48 33.4328 184.404C34.0955 185.328 34.4268 186.56 34.4268 188.1C34.4268 189.64 34.0955 190.872 33.4328 191.796ZM28.8128 190.914C29.2421 191.577 29.8535 191.908 30.6468 191.908C31.4401 191.908 32.0515 191.577 32.4808 190.914C32.9195 190.251 33.1388 189.313 33.1388 188.1C33.1388 186.887 32.9195 185.949 32.4808 185.286C32.0515 184.614 31.4401 184.278 30.6468 184.278C29.8535 184.278 29.2421 184.609 28.8128 185.272C28.3835 185.935 28.1688 186.877 28.1688 188.1C28.1688 189.313 28.3835 190.251 28.8128 190.914ZM42.2512 191.796C41.5885 192.72 40.6598 193.182 39.4652 193.182C38.2705 193.182 37.3418 192.72 36.6792 191.796C36.0165 190.872 35.6852 189.64 35.6852 188.1C35.6852 186.56 36.0165 185.328 36.6792 184.404C37.3418 183.48 38.2705 183.018 39.4652 183.018C40.6598 183.018 41.5885 183.48 42.2512 184.404C42.9138 185.328 43.2452 186.56 43.2452 188.1C43.2452 189.64 42.9138 190.872 42.2512 191.796ZM37.6312 190.914C38.0605 191.577 38.6718 191.908 39.4652 191.908C40.2585 191.908 40.8698 191.577 41.2992 190.914C41.7378 190.251 41.9572 189.313 41.9572 188.1C41.9572 186.887 41.7378 185.949 41.2992 185.286C40.8698 184.614 40.2585 184.278 39.4652 184.278C38.6718 184.278 38.0605 184.609 37.6312 185.272C37.2018 185.935 36.9872 186.877 36.9872 188.1C36.9872 189.313 37.2018 190.251 37.6312 190.914Z" fill="#88898B"/>
<path d="M26.1867 250.796C25.5241 251.72 24.5954 252.182 23.4007 252.182C22.2061 252.182 21.2774 251.72 20.6147 250.796C19.9521 249.872 19.6207 248.64 19.6207 247.1C19.6207 245.56 19.9521 244.328 20.6147 243.404C21.2774 242.48 22.2061 242.018 23.4007 242.018C24.5954 242.018 25.5241 242.48 26.1867 243.404C26.8494 244.328 27.1807 245.56 27.1807 247.1C27.1807 248.64 26.8494 249.872 26.1867 250.796ZM21.5667 249.914C21.9961 250.577 22.6074 250.908 23.4007 250.908C24.1941 250.908 24.8054 250.577 25.2347 249.914C25.6734 249.251 25.8927 248.313 25.8927 247.1C25.8927 245.887 25.6734 244.949 25.2347 244.286C24.8054 243.614 24.1941 243.278 23.4007 243.278C22.6074 243.278 21.9961 243.609 21.5667 244.272C21.1374 244.935 20.9227 245.877 20.9227 247.1C20.9227 248.313 21.1374 249.251 21.5667 249.914Z" fill="#88898B"/>
<rect opacity="0.2" x="297.246" y="70" width="24.462" height="180" fill="#E4E4E4"/>
<g clip-path="url(#clip0_87_1000)">
<circle cx="309.938" cy="130" r="4" fill="#6C5DD3"/>
<circle cx="309.938" cy="130" r="2" fill="white"/>
<path d="M305.938 114L308.524 116.586C309.305 117.367 310.571 117.367 311.352 116.586L313.938 114H305.938Z" fill="#1B1D21"/>
<rect x="281.938" y="86" width="57" height="28" rx="6" fill="#1B1D21"/>
<path d="M296.8 103.246V101.884L300.812 95.5455H301.947V97.4844H301.255L298.554 101.764V101.838H304.154V103.246H296.8ZM301.31 105V102.83L301.329 102.221V95.5455H302.945V105H301.31ZM305.629 105V103.763L308.911 100.545C309.225 100.228 309.487 99.9465 309.696 99.7003C309.905 99.4541 310.062 99.2156 310.167 98.9847C310.272 98.7539 310.324 98.5077 310.324 98.2461C310.324 97.9476 310.256 97.6921 310.121 97.4798C309.985 97.2643 309.799 97.0981 309.562 96.9812C309.325 96.8642 309.056 96.8058 308.754 96.8058C308.444 96.8058 308.171 96.8704 307.937 96.9996C307.703 97.1258 307.522 97.3059 307.393 97.5398C307.266 97.7737 307.203 98.0522 307.203 98.3754H305.574C305.574 97.7752 305.711 97.2536 305.984 96.8104C306.258 96.3672 306.635 96.024 307.116 95.7809C307.599 95.5378 308.153 95.4162 308.777 95.4162C309.411 95.4162 309.969 95.5347 310.449 95.7717C310.929 96.0086 311.301 96.3333 311.566 96.7457C311.834 97.1581 311.967 97.629 311.967 98.1584C311.967 98.5123 311.9 98.8601 311.764 99.2017C311.629 99.5433 311.39 99.9219 311.049 100.337C310.71 100.753 310.235 101.256 309.622 101.847L307.993 103.504V103.569H312.111V105H305.629ZM314.751 105.102C314.471 105.102 314.231 105.003 314.031 104.806C313.831 104.609 313.732 104.369 313.736 104.086C313.732 103.809 313.831 103.572 314.031 103.375C314.231 103.178 314.471 103.08 314.751 103.08C315.022 103.08 315.257 103.178 315.457 103.375C315.661 103.572 315.764 103.809 315.767 104.086C315.764 104.274 315.714 104.444 315.619 104.598C315.527 104.752 315.404 104.875 315.25 104.968C315.099 105.057 314.933 105.102 314.751 105.102ZM320.646 105.129C320.031 105.129 319.48 105.014 318.994 104.783C318.507 104.549 318.121 104.229 317.835 103.823C317.552 103.417 317.401 102.952 317.383 102.429H319.045C319.075 102.816 319.243 103.133 319.548 103.38C319.852 103.623 320.219 103.744 320.646 103.744C320.982 103.744 321.28 103.667 321.542 103.513C321.804 103.36 322.01 103.146 322.161 102.872C322.311 102.598 322.385 102.286 322.382 101.935C322.385 101.578 322.31 101.261 322.156 100.984C322.002 100.707 321.791 100.49 321.524 100.333C321.256 100.173 320.948 100.093 320.6 100.093C320.317 100.09 320.039 100.142 319.765 100.25C319.491 100.357 319.274 100.499 319.114 100.674L317.567 100.42L318.061 95.5455H323.546V96.9766H319.478L319.206 99.4833H319.261C319.437 99.2771 319.685 99.1063 320.005 98.9709C320.325 98.8324 320.676 98.7631 321.057 98.7631C321.63 98.7631 322.141 98.8986 322.59 99.1694C323.039 99.4371 323.393 99.8065 323.652 100.277C323.91 100.748 324.04 101.287 324.04 101.893C324.04 102.518 323.895 103.075 323.606 103.564C323.319 104.051 322.921 104.434 322.41 104.714C321.902 104.991 321.314 105.129 320.646 105.129Z" fill="white"/>
</g>
<defs>
<clipPath id="clip0_87_1000">
<rect width="57.078" height="48" fill="white" transform="translate(280.938 86)"/>
</clipPath>
</defs>
</svg>
