<svg width="603" height="300" viewBox="0 0 603 300" fill="none" xmlns="http://www.w3.org/2000/svg">
<rect x="0.5" y="0.5" width="602" height="299" rx="9.5" fill="white" stroke="#E1E1E1"/>
<circle cx="247" cy="26" r="5" fill="#FF8DB4"/>
<circle cx="337" cy="26" r="5" fill="#998DEA"/>
<path d="M265.65 25.918C266.098 26.1327 266.453 26.4407 266.714 26.842C266.985 27.2433 267.12 27.7053 267.12 28.228C267.12 29.012 266.845 29.67 266.294 30.202C265.743 30.734 265.071 31 264.278 31H260.05V21.2H263.97C264.735 21.2 265.384 21.4567 265.916 21.97C266.448 22.4833 266.714 23.118 266.714 23.874C266.714 24.742 266.359 25.4233 265.65 25.918ZM263.97 22.418H261.352V25.414H263.97C264.381 25.414 264.726 25.2693 265.006 24.98C265.286 24.6907 265.426 24.336 265.426 23.916C265.426 23.5053 265.281 23.1553 264.992 22.866C264.712 22.5673 264.371 22.418 263.97 22.418ZM264.278 29.782C264.717 29.782 265.085 29.628 265.384 29.32C265.683 29.012 265.832 28.634 265.832 28.186C265.832 27.7473 265.678 27.374 265.37 27.066C265.071 26.758 264.707 26.604 264.278 26.604H261.352V29.782H264.278ZM269.153 22.726C268.92 22.726 268.724 22.6467 268.565 22.488C268.407 22.3293 268.327 22.138 268.327 21.914C268.327 21.69 268.407 21.4987 268.565 21.34C268.724 21.172 268.92 21.088 269.153 21.088C269.377 21.088 269.569 21.172 269.727 21.34C269.886 21.4987 269.965 21.69 269.965 21.914C269.965 22.138 269.886 22.3293 269.727 22.488C269.569 22.6467 269.377 22.726 269.153 22.726ZM268.537 31V24H269.755V31H268.537ZM271.613 31V20.78H272.831V31H271.613ZM274.69 31V20.78H275.908V31H274.69ZM278.382 22.726C278.148 22.726 277.952 22.6467 277.794 22.488C277.635 22.3293 277.556 22.138 277.556 21.914C277.556 21.69 277.635 21.4987 277.794 21.34C277.952 21.172 278.148 21.088 278.382 21.088C278.606 21.088 278.797 21.172 278.956 21.34C279.114 21.4987 279.194 21.69 279.194 21.914C279.194 22.138 279.114 22.3293 278.956 22.488C278.797 22.6467 278.606 22.726 278.382 22.726ZM277.766 31V24H278.984V31H277.766ZM284.328 23.818C285.149 23.818 285.807 24.0793 286.302 24.602C286.797 25.1153 287.044 25.8153 287.044 26.702V31H285.826V26.772C285.826 26.2027 285.672 25.764 285.364 25.456C285.056 25.1387 284.631 24.98 284.09 24.98C283.483 24.98 282.993 25.1713 282.62 25.554C282.247 25.9273 282.06 26.506 282.06 27.29V31H280.842V24H282.06V25.008C282.555 24.2147 283.311 23.818 284.328 23.818ZM294.554 24H295.758V30.706C295.758 31.742 295.408 32.5447 294.708 33.114C294.008 33.6927 293.168 33.982 292.188 33.982C291.404 33.982 290.728 33.8327 290.158 33.534C289.589 33.2447 289.16 32.8247 288.87 32.274L289.934 31.672C290.317 32.456 291.078 32.848 292.216 32.848C292.944 32.848 293.514 32.6567 293.924 32.274C294.344 31.8913 294.554 31.3687 294.554 30.706V29.712C293.938 30.6453 293.061 31.112 291.922 31.112C290.924 31.112 290.079 30.7573 289.388 30.048C288.698 29.3387 288.352 28.4753 288.352 27.458C288.352 26.4407 288.698 25.582 289.388 24.882C290.079 24.1727 290.924 23.818 291.922 23.818C293.07 23.818 293.948 24.28 294.554 25.204V24ZM290.284 29.236C290.76 29.712 291.353 29.95 292.062 29.95C292.772 29.95 293.364 29.712 293.84 29.236C294.316 28.76 294.554 28.1673 294.554 27.458C294.554 26.758 294.316 26.17 293.84 25.694C293.364 25.218 292.772 24.98 292.062 24.98C291.353 24.98 290.76 25.218 290.284 25.694C289.808 26.17 289.57 26.758 289.57 27.458C289.57 28.1673 289.808 28.76 290.284 29.236ZM298.64 25.89C298.64 26.1607 298.775 26.38 299.046 26.548C299.317 26.7067 299.643 26.8373 300.026 26.94C300.409 27.0333 300.791 27.1453 301.174 27.276C301.557 27.3973 301.883 27.612 302.154 27.92C302.425 28.2187 302.56 28.606 302.56 29.082C302.56 29.7167 302.313 30.2253 301.818 30.608C301.333 30.9907 300.707 31.182 299.942 31.182C299.261 31.182 298.677 31.0327 298.192 30.734C297.707 30.4353 297.361 30.0387 297.156 29.544L298.206 28.942C298.318 29.278 298.528 29.544 298.836 29.74C299.144 29.936 299.513 30.034 299.942 30.034C300.343 30.034 300.675 29.9593 300.936 29.81C301.197 29.6513 301.328 29.4087 301.328 29.082C301.328 28.8113 301.193 28.5967 300.922 28.438C300.651 28.27 300.325 28.1393 299.942 28.046C299.559 27.9433 299.177 27.8267 298.794 27.696C298.411 27.5653 298.085 27.3507 297.814 27.052C297.543 26.7533 297.408 26.3707 297.408 25.904C297.408 25.2973 297.641 24.798 298.108 24.406C298.584 24.014 299.177 23.818 299.886 23.818C300.455 23.818 300.959 23.9487 301.398 24.21C301.846 24.462 302.182 24.8167 302.406 25.274L301.384 25.848C301.132 25.2507 300.633 24.952 299.886 24.952C299.541 24.952 299.247 25.036 299.004 25.204C298.761 25.3627 298.64 25.5913 298.64 25.89Z" fill="#88898B"/>
<path d="M350.05 21.2H351.352V31H350.05V21.2ZM356.814 23.818C357.636 23.818 358.294 24.0793 358.788 24.602C359.283 25.1153 359.53 25.8153 359.53 26.702V31H358.312V26.772C358.312 26.2027 358.158 25.764 357.85 25.456C357.542 25.1387 357.118 24.98 356.576 24.98C355.97 24.98 355.48 25.1713 355.106 25.554C354.733 25.9273 354.546 26.506 354.546 27.29V31H353.328V24H354.546V25.008C355.041 24.2147 355.797 23.818 356.814 23.818ZM366.035 24H367.351L364.551 31H363.123L360.323 24H361.639L363.837 29.698L366.035 24ZM374.016 30.118C373.297 30.8273 372.424 31.182 371.398 31.182C370.371 31.182 369.498 30.8273 368.78 30.118C368.07 29.4087 367.716 28.536 367.716 27.5C367.716 26.464 368.07 25.5913 368.78 24.882C369.498 24.1727 370.371 23.818 371.398 23.818C372.424 23.818 373.297 24.1727 374.016 24.882C374.734 25.5913 375.094 26.464 375.094 27.5C375.094 28.536 374.734 29.4087 374.016 30.118ZM371.398 29.992C372.098 29.992 372.686 29.754 373.162 29.278C373.638 28.802 373.876 28.2093 373.876 27.5C373.876 26.7907 373.638 26.198 373.162 25.722C372.686 25.246 372.098 25.008 371.398 25.008C370.707 25.008 370.124 25.246 369.648 25.722C369.172 26.198 368.934 26.7907 368.934 27.5C368.934 28.2093 369.172 28.802 369.648 29.278C370.124 29.754 370.707 29.992 371.398 29.992ZM377.145 22.726C376.912 22.726 376.716 22.6467 376.557 22.488C376.399 22.3293 376.319 22.138 376.319 21.914C376.319 21.69 376.399 21.4987 376.557 21.34C376.716 21.172 376.912 21.088 377.145 21.088C377.369 21.088 377.561 21.172 377.719 21.34C377.878 21.4987 377.957 21.69 377.957 21.914C377.957 22.138 377.878 22.3293 377.719 22.488C377.561 22.6467 377.369 22.726 377.145 22.726ZM376.529 31V24H377.747V31H376.529ZM382.896 31.182C381.841 31.182 380.964 30.832 380.264 30.132C379.564 29.4227 379.214 28.5453 379.214 27.5C379.214 26.4547 379.564 25.582 380.264 24.882C380.964 24.1727 381.841 23.818 382.896 23.818C383.586 23.818 384.207 23.986 384.758 24.322C385.308 24.6487 385.719 25.092 385.99 25.652L384.968 26.24C384.79 25.8667 384.515 25.568 384.142 25.344C383.778 25.12 383.362 25.008 382.896 25.008C382.196 25.008 381.608 25.246 381.132 25.722C380.665 26.198 380.432 26.7907 380.432 27.5C380.432 28.2 380.665 28.788 381.132 29.264C381.608 29.74 382.196 29.978 382.896 29.978C383.362 29.978 383.782 29.8707 384.156 29.656C384.529 29.432 384.814 29.1333 385.01 28.76L386.046 29.362C385.747 29.9127 385.318 30.356 384.758 30.692C384.198 31.0187 383.577 31.182 382.896 31.182ZM387.864 22.726C387.631 22.726 387.435 22.6467 387.276 22.488C387.118 22.3293 387.038 22.138 387.038 21.914C387.038 21.69 387.118 21.4987 387.276 21.34C387.435 21.172 387.631 21.088 387.864 21.088C388.088 21.088 388.28 21.172 388.438 21.34C388.597 21.4987 388.676 21.69 388.676 21.914C388.676 22.138 388.597 22.3293 388.438 22.488C388.28 22.6467 388.088 22.726 387.864 22.726ZM387.248 31V24H388.466V31H387.248ZM393.81 23.818C394.632 23.818 395.29 24.0793 395.784 24.602C396.279 25.1153 396.526 25.8153 396.526 26.702V31H395.308V26.772C395.308 26.2027 395.154 25.764 394.846 25.456C394.538 25.1387 394.114 24.98 393.572 24.98C392.966 24.98 392.476 25.1713 392.102 25.554C391.729 25.9273 391.542 26.506 391.542 27.29V31H390.324V24H391.542V25.008C392.037 24.2147 392.793 23.818 393.81 23.818ZM404.037 24H405.241V30.706C405.241 31.742 404.891 32.5447 404.191 33.114C403.491 33.6927 402.651 33.982 401.671 33.982C400.887 33.982 400.21 33.8327 399.641 33.534C399.071 33.2447 398.642 32.8247 398.353 32.274L399.417 31.672C399.799 32.456 400.56 32.848 401.699 32.848C402.427 32.848 402.996 32.6567 403.407 32.274C403.827 31.8913 404.037 31.3687 404.037 30.706V29.712C403.421 30.6453 402.543 31.112 401.405 31.112C400.406 31.112 399.561 30.7573 398.871 30.048C398.18 29.3387 397.835 28.4753 397.835 27.458C397.835 26.4407 398.18 25.582 398.871 24.882C399.561 24.1727 400.406 23.818 401.405 23.818C402.553 23.818 403.43 24.28 404.037 25.204V24ZM399.767 29.236C400.243 29.712 400.835 29.95 401.545 29.95C402.254 29.95 402.847 29.712 403.323 29.236C403.799 28.76 404.037 28.1673 404.037 27.458C404.037 26.758 403.799 26.17 403.323 25.694C402.847 25.218 402.254 24.98 401.545 24.98C400.835 24.98 400.243 25.218 399.767 25.694C399.291 26.17 399.053 26.758 399.053 27.458C399.053 28.1673 399.291 28.76 399.767 29.236ZM408.122 25.89C408.122 26.1607 408.258 26.38 408.528 26.548C408.799 26.7067 409.126 26.8373 409.508 26.94C409.891 27.0333 410.274 27.1453 410.656 27.276C411.039 27.3973 411.366 27.612 411.636 27.92C411.907 28.2187 412.042 28.606 412.042 29.082C412.042 29.7167 411.795 30.2253 411.3 30.608C410.815 30.9907 410.19 31.182 409.424 31.182C408.743 31.182 408.16 31.0327 407.674 30.734C407.189 30.4353 406.844 30.0387 406.638 29.544L407.688 28.942C407.8 29.278 408.01 29.544 408.318 29.74C408.626 29.936 408.995 30.034 409.424 30.034C409.826 30.034 410.157 29.9593 410.418 29.81C410.68 29.6513 410.81 29.4087 410.81 29.082C410.81 28.8113 410.675 28.5967 410.404 28.438C410.134 28.27 409.807 28.1393 409.424 28.046C409.042 27.9433 408.659 27.8267 408.276 27.696C407.894 27.5653 407.567 27.3507 407.296 27.052C407.026 26.7533 406.89 26.3707 406.89 25.904C406.89 25.2973 407.124 24.798 407.59 24.406C408.066 24.014 408.659 23.818 409.368 23.818C409.938 23.818 410.442 23.9487 410.88 24.21C411.328 24.462 411.664 24.8167 411.888 25.274L410.866 25.848C410.614 25.2507 410.115 24.952 409.368 24.952C409.023 24.952 408.729 25.036 408.486 25.204C408.244 25.3627 408.122 25.5913 408.122 25.89Z" fill="#88898B"/>
<path d="M29.344 24.968C30.08 25.1493 30.6453 25.4907 31.04 25.992C31.4453 26.4933 31.648 27.1173 31.648 27.864C31.648 28.8027 31.328 29.56 30.688 30.136C30.0587 30.712 29.1467 31 27.952 31H23.248V19.64H27.344C28.5493 19.64 29.4667 19.8747 30.096 20.344C30.736 20.8133 31.056 21.5013 31.056 22.408C31.056 22.9627 30.9173 23.4693 30.64 23.928C30.3627 24.3867 29.9307 24.728 29.344 24.952V24.968ZM25.456 21.624V24.296H27.072C27.552 24.296 27.9573 24.184 28.288 23.96C28.6187 23.7253 28.784 23.3893 28.784 22.952C28.784 22.0667 28.1653 21.624 26.928 21.624H25.456ZM27.28 29.016C27.8987 29.016 28.3893 28.8933 28.752 28.648C29.1147 28.4027 29.296 28.0453 29.296 27.576C29.296 27.1173 29.1253 26.76 28.784 26.504C28.4533 26.2373 27.9573 26.104 27.296 26.104H25.456V29.016H27.28ZM34.5986 22.088C34.2466 22.088 33.9426 21.9653 33.6866 21.72C33.4306 21.464 33.3026 21.16 33.3026 20.808C33.3026 20.456 33.4306 20.1573 33.6866 19.912C33.9426 19.656 34.2466 19.528 34.5986 19.528C34.9613 19.528 35.2706 19.656 35.5266 19.912C35.7826 20.1573 35.9106 20.456 35.9106 20.808C35.9106 21.16 35.7826 21.464 35.5266 21.72C35.2706 21.9653 34.9613 22.088 34.5986 22.088ZM33.5426 31V23.192H35.6386V31H33.5426ZM37.9489 31V19.224H40.0449V31H37.9489ZM42.3551 31V19.224H44.4511V31H42.3551ZM47.8174 22.088C47.4654 22.088 47.1614 21.9653 46.9054 21.72C46.6494 21.464 46.5214 21.16 46.5214 20.808C46.5214 20.456 46.6494 20.1573 46.9054 19.912C47.1614 19.656 47.4654 19.528 47.8174 19.528C48.18 19.528 48.4894 19.656 48.7454 19.912C49.0014 20.1573 49.1294 20.456 49.1294 20.808C49.1294 21.16 49.0014 21.464 48.7454 21.72C48.4894 21.9653 48.18 22.088 47.8174 22.088ZM46.7614 31V23.192H48.8574V31H46.7614ZM55.6956 23.064C57.5943 23.064 58.5436 24.1627 58.5436 26.36V31H56.4476V26.888C56.4476 26.1733 56.325 25.672 56.0796 25.384C55.8343 25.0853 55.4556 24.936 54.9436 24.936C54.3996 24.936 53.9676 25.1227 53.6476 25.496C53.3276 25.8587 53.1676 26.3813 53.1676 27.064V31H51.0716V23.192H53.1676V24.2H53.1996C53.8396 23.4427 54.6716 23.064 55.6956 23.064ZM66.0924 23.192H68.1724V30.104C68.1724 32.8987 66.8177 34.296 64.1084 34.296C62.9137 34.296 61.8417 34.0347 60.8924 33.512L61.3884 31.736C62.263 32.2267 63.1057 32.472 63.9164 32.472C64.6204 32.472 65.1644 32.3067 65.5484 31.976C65.943 31.6453 66.1404 31.2293 66.1404 30.728V29.944H66.0924C65.5377 30.552 64.7804 30.856 63.8204 30.856C62.7324 30.856 61.8364 30.4987 61.1324 29.784C60.439 29.0693 60.0924 28.1467 60.0924 27.016C60.0924 25.864 60.4337 24.92 61.1164 24.184C61.799 23.4373 62.663 23.064 63.7084 23.064C64.647 23.064 65.4257 23.3733 66.0444 23.992H66.0924V23.192ZM62.7804 28.424C63.1537 28.7867 63.6284 28.968 64.2044 28.968C64.7804 28.968 65.2497 28.7813 65.6124 28.408C65.9857 28.024 66.1724 27.5333 66.1724 26.936C66.1724 26.3493 65.9857 25.8747 65.6124 25.512C65.239 25.1493 64.7697 24.968 64.2044 24.968C63.6177 24.968 63.1377 25.1547 62.7644 25.528C62.4017 25.8907 62.2204 26.3653 62.2204 26.952C62.2204 27.56 62.407 28.0507 62.7804 28.424ZM81.311 31L80.687 30.2H80.655C79.9083 30.8187 78.943 31.128 77.759 31.128C76.703 31.128 75.8177 30.808 75.103 30.168C74.3883 29.5173 74.031 28.68 74.031 27.656C74.031 26.2373 74.719 25.128 76.095 24.328L74.847 22.728C74.943 21.7787 75.3163 21.0053 75.967 20.408C76.6283 19.8 77.4337 19.496 78.383 19.496C80.0577 19.496 81.263 20.28 81.999 21.848L80.271 22.488C79.887 21.7093 79.327 21.32 78.591 21.32C78.143 21.3093 77.791 21.4267 77.535 21.672C77.2897 21.9173 77.1403 22.2107 77.087 22.552L80.751 27.256H80.767C81.0123 26.68 81.135 26.1147 81.135 25.56L83.103 25.512C83.103 26.8453 82.7723 28.0027 82.111 28.984L83.679 31H81.311ZM76.127 27.528C76.127 28.04 76.2977 28.4507 76.639 28.76C76.991 29.0693 77.439 29.224 77.983 29.224C78.5483 29.224 79.0657 29.0747 79.535 28.776V28.728L77.247 25.784C76.5003 26.1893 76.127 26.7707 76.127 27.528ZM89.578 31V19.64H91.834V31H89.578ZM98.8363 23.064C100.735 23.064 101.684 24.1627 101.684 26.36V31H99.5883V26.888C99.5883 26.1733 99.4656 25.672 99.2203 25.384C98.9749 25.0853 98.5963 24.936 98.0843 24.936C97.5403 24.936 97.1083 25.1227 96.7883 25.496C96.4683 25.8587 96.3083 26.3813 96.3083 27.064V31H94.2122V23.192H96.3083V24.2H96.3403C96.9803 23.4427 97.8123 23.064 98.8363 23.064ZM108.425 23.192H110.649L107.593 31H105.625L102.553 23.192H104.761L106.601 28.44H106.617L108.425 23.192ZM115.222 31.128C113.995 31.128 112.998 30.7493 112.23 29.992C111.462 29.2347 111.078 28.2693 111.078 27.096C111.078 25.9227 111.462 24.9573 112.23 24.2C112.998 23.4427 113.995 23.064 115.222 23.064C116.438 23.064 117.435 23.4373 118.214 24.184C118.992 24.9307 119.382 25.9013 119.382 27.096C119.382 28.2907 118.992 29.2613 118.214 30.008C117.435 30.7547 116.438 31.128 115.222 31.128ZM115.222 29.256C115.798 29.256 116.278 29.0533 116.662 28.648C117.056 28.2427 117.254 27.7253 117.254 27.096C117.254 26.456 117.062 25.9387 116.678 25.544C116.294 25.1387 115.808 24.936 115.222 24.936C114.624 24.936 114.134 25.144 113.75 25.56C113.376 25.9653 113.19 26.4773 113.19 27.096C113.19 27.704 113.382 28.216 113.766 28.632C114.15 29.048 114.635 29.256 115.222 29.256ZM122.208 22.088C121.856 22.088 121.552 21.9653 121.296 21.72C121.04 21.464 120.912 21.16 120.912 20.808C120.912 20.456 121.04 20.1573 121.296 19.912C121.552 19.656 121.856 19.528 122.208 19.528C122.571 19.528 122.88 19.656 123.136 19.912C123.392 20.1573 123.52 20.456 123.52 20.808C123.52 21.16 123.392 21.464 123.136 21.72C122.88 21.9653 122.571 22.088 122.208 22.088ZM121.152 31V23.192H123.248V31H121.152ZM129.062 31.128C127.889 31.128 126.924 30.7547 126.166 30.008C125.42 29.2613 125.046 28.2907 125.046 27.096C125.046 25.9013 125.425 24.9307 126.182 24.184C126.95 23.4373 127.942 23.064 129.158 23.064C129.809 23.064 130.428 23.192 131.014 23.448C131.601 23.704 132.086 24.072 132.47 24.552L131.062 25.768C130.582 25.2133 129.974 24.936 129.238 24.936C128.62 24.936 128.118 25.1387 127.734 25.544C127.35 25.9387 127.158 26.4507 127.158 27.08C127.158 27.72 127.35 28.2427 127.734 28.648C128.129 29.0533 128.636 29.256 129.254 29.256C130.001 29.256 130.609 28.9893 131.078 28.456L132.502 29.72C132.14 30.136 131.66 30.4773 131.062 30.744C130.476 31 129.809 31.128 129.062 31.128ZM135.114 22.088C134.762 22.088 134.458 21.9653 134.202 21.72C133.946 21.464 133.818 21.16 133.818 20.808C133.818 20.456 133.946 20.1573 134.202 19.912C134.458 19.656 134.762 19.528 135.114 19.528C135.477 19.528 135.786 19.656 136.042 19.912C136.298 20.1573 136.426 20.456 136.426 20.808C136.426 21.16 136.298 21.464 136.042 21.72C135.786 21.9653 135.477 22.088 135.114 22.088ZM134.058 31V23.192H136.154V31H134.058ZM142.993 23.064C144.891 23.064 145.841 24.1627 145.841 26.36V31H143.745V26.888C143.745 26.1733 143.622 25.672 143.377 25.384C143.131 25.0853 142.753 24.936 142.241 24.936C141.697 24.936 141.265 25.1227 140.945 25.496C140.625 25.8587 140.465 26.3813 140.465 27.064V31H138.368V23.192H140.465V24.2H140.497C141.137 23.4427 141.969 23.064 142.993 23.064ZM153.389 23.192H155.469V30.104C155.469 32.8987 154.115 34.296 151.405 34.296C150.211 34.296 149.139 34.0347 148.189 33.512L148.685 31.736C149.56 32.2267 150.403 32.472 151.213 32.472C151.917 32.472 152.461 32.3067 152.845 31.976C153.24 31.6453 153.437 31.2293 153.437 30.728V29.944H153.389C152.835 30.552 152.077 30.856 151.117 30.856C150.029 30.856 149.133 30.4987 148.429 29.784C147.736 29.0693 147.389 28.1467 147.389 27.016C147.389 25.864 147.731 24.92 148.413 24.184C149.096 23.4373 149.96 23.064 151.005 23.064C151.944 23.064 152.723 23.3733 153.341 23.992H153.389V23.192ZM150.077 28.424C150.451 28.7867 150.925 28.968 151.501 28.968C152.077 28.968 152.547 28.7813 152.909 28.408C153.283 28.024 153.469 27.5333 153.469 26.936C153.469 26.3493 153.283 25.8747 152.909 25.512C152.536 25.1493 152.067 24.968 151.501 24.968C150.915 24.968 150.435 25.1547 150.061 25.528C149.699 25.8907 149.517 26.3653 149.517 26.952C149.517 27.56 149.704 28.0507 150.077 28.424ZM160.053 31.128C158.826 31.128 157.77 30.7493 156.885 29.992L157.909 28.536C158.549 29.144 159.269 29.448 160.069 29.448C160.367 29.448 160.602 29.3893 160.773 29.272C160.943 29.1547 161.029 29 161.029 28.808C161.029 28.6373 160.927 28.4933 160.725 28.376C160.522 28.2587 160.149 28.1147 159.605 27.944C158.847 27.688 158.255 27.3733 157.829 27C157.413 26.616 157.205 26.0827 157.205 25.4C157.205 24.7067 157.471 24.1467 158.005 23.72C158.538 23.2827 159.21 23.064 160.021 23.064C161.087 23.064 162.037 23.3893 162.869 24.04L161.861 25.576C161.274 25.0213 160.65 24.744 159.989 24.744C159.797 24.744 159.621 24.7973 159.461 24.904C159.301 25 159.221 25.144 159.221 25.336C159.221 25.4853 159.311 25.624 159.493 25.752C159.685 25.8693 159.989 26.008 160.405 26.168C160.831 26.328 161.146 26.4507 161.349 26.536C161.551 26.6107 161.791 26.728 162.069 26.888C162.346 27.0373 162.538 27.1867 162.645 27.336C162.762 27.4747 162.863 27.6613 162.949 27.896C163.045 28.1307 163.093 28.3973 163.093 28.696C163.093 29.4213 162.831 30.008 162.309 30.456C161.797 30.904 161.045 31.128 160.053 31.128Z" fill="#282D40"/>
<path d="M532.932 24.048C534.308 24.048 534.996 24.896 534.996 26.592V30H533.424V26.976C533.424 25.96 533.084 25.452 532.404 25.452C532.06 25.452 531.772 25.596 531.54 25.884C531.316 26.164 531.204 26.56 531.204 27.072V30H529.632V26.976C529.632 25.96 529.288 25.452 528.6 25.452C528.232 25.452 527.932 25.596 527.7 25.884C527.476 26.164 527.364 26.56 527.364 27.072V30H525.792V24.144H527.364V24.924H527.376C527.84 24.34 528.424 24.048 529.128 24.048C529.944 24.048 530.524 24.36 530.868 24.984H530.892C531.38 24.36 532.06 24.048 532.932 24.048ZM539.287 30.096C538.367 30.096 537.619 29.812 537.043 29.244C536.467 28.676 536.179 27.952 536.179 27.072C536.179 26.192 536.467 25.468 537.043 24.9C537.619 24.332 538.367 24.048 539.287 24.048C540.199 24.048 540.947 24.328 541.531 24.888C542.115 25.448 542.407 26.176 542.407 27.072C542.407 27.968 542.115 28.696 541.531 29.256C540.947 29.816 540.199 30.096 539.287 30.096ZM539.287 28.692C539.719 28.692 540.079 28.54 540.367 28.236C540.663 27.932 540.811 27.544 540.811 27.072C540.811 26.592 540.667 26.204 540.379 25.908C540.091 25.604 539.727 25.452 539.287 25.452C538.839 25.452 538.471 25.608 538.183 25.92C537.903 26.224 537.763 26.608 537.763 27.072C537.763 27.528 537.907 27.912 538.195 28.224C538.483 28.536 538.847 28.692 539.287 28.692ZM547.131 24.048C548.555 24.048 549.267 24.872 549.267 26.52V30H547.695V26.916C547.695 26.38 547.603 26.004 547.419 25.788C547.235 25.564 546.951 25.452 546.567 25.452C546.159 25.452 545.835 25.592 545.595 25.872C545.355 26.144 545.235 26.536 545.235 27.048V30H543.663V24.144H545.235V24.9H545.259C545.739 24.332 546.363 24.048 547.131 24.048ZM552.589 30.096C552.069 30.096 551.661 29.932 551.365 29.604C551.069 29.276 550.921 28.792 550.921 28.152V25.44H550.225V24.144H550.921V22.224L552.481 22.056V24.144H554.077V25.44H552.481V27.936C552.481 28.432 552.653 28.68 552.997 28.68C553.221 28.68 553.469 28.612 553.741 28.476L554.149 29.736C553.701 29.976 553.181 30.096 552.589 30.096ZM558.745 24.048C560.185 24.048 560.905 24.86 560.905 26.484V30H559.333V26.88C559.333 26.36 559.237 25.992 559.045 25.776C558.861 25.56 558.577 25.452 558.193 25.452C557.761 25.452 557.421 25.588 557.173 25.86C556.933 26.124 556.813 26.512 556.813 27.024V30H555.241V21.168H556.813V24.852H556.837C557.317 24.316 557.953 24.048 558.745 24.048ZM562.473 30V21.168H564.045V30H562.473ZM569.441 24.144H571.073L567.917 32.376H566.309L567.341 29.64L565.013 24.144H566.645L568.085 27.768H568.097L569.441 24.144Z" fill="#282D40"/>
<path fill-rule="evenodd" clip-rule="evenodd" d="M510.749 24.9998C510.941 24.9998 511.134 25.0728 511.28 25.2208L514.221 28.1738L517.16 25.2208C517.452 24.9268 517.927 24.9268 518.221 25.2188C518.514 25.5108 518.516 25.9848 518.223 26.2788L514.752 29.7658C514.471 30.0488 513.971 30.0488 513.689 29.7658L510.218 26.2788C509.926 25.9848 509.927 25.5108 510.22 25.2188C510.366 25.0728 510.558 24.9998 510.749 24.9998Z" fill="#282D40"/>
<path d="M97.5707 282V281.088L100.535 278.064C101.327 277.272 101.723 276.592 101.723 276.024C101.723 275.552 101.579 275.184 101.291 274.92C101.003 274.656 100.651 274.524 100.235 274.524C99.4427 274.524 98.8667 274.9 98.5067 275.652L97.5707 275.1C97.8347 274.556 98.1987 274.144 98.6627 273.864C99.1347 273.584 99.6547 273.444 100.223 273.444C100.927 273.444 101.539 273.676 102.059 274.14C102.579 274.604 102.839 275.228 102.839 276.012C102.839 276.86 102.339 277.784 101.339 278.784L99.1907 280.92H102.995V282H97.5707ZM105.784 273.6H106.744V282H105.64V274.8L103.852 275.328L103.576 274.368L105.784 273.6ZM108.766 283.2H108.142L112.942 272.4H113.566L108.766 283.2ZM116.401 273.6H117.361V282H116.257V274.8L114.469 275.328L114.193 274.368L116.401 273.6ZM124.471 280.968C123.903 281.76 123.107 282.156 122.083 282.156C121.059 282.156 120.263 281.76 119.695 280.968C119.127 280.176 118.843 279.12 118.843 277.8C118.843 276.48 119.127 275.424 119.695 274.632C120.263 273.84 121.059 273.444 122.083 273.444C123.107 273.444 123.903 273.84 124.471 274.632C125.039 275.424 125.323 276.48 125.323 277.8C125.323 279.12 125.039 280.176 124.471 280.968ZM120.511 280.212C120.879 280.78 121.403 281.064 122.083 281.064C122.763 281.064 123.287 280.78 123.655 280.212C124.031 279.644 124.219 278.84 124.219 277.8C124.219 276.76 124.031 275.956 123.655 275.388C123.287 274.812 122.763 274.524 122.083 274.524C121.403 274.524 120.879 274.808 120.511 275.376C120.143 275.944 119.959 276.752 119.959 277.8C119.959 278.84 120.143 279.644 120.511 280.212Z" fill="#88898B"/>
<path d="M154.028 282V281.088L156.992 278.064C157.784 277.272 158.18 276.592 158.18 276.024C158.18 275.552 158.036 275.184 157.748 274.92C157.46 274.656 157.108 274.524 156.692 274.524C155.9 274.524 155.324 274.9 154.964 275.652L154.028 275.1C154.292 274.556 154.656 274.144 155.12 273.864C155.592 273.584 156.112 273.444 156.68 273.444C157.384 273.444 157.996 273.676 158.516 274.14C159.036 274.604 159.296 275.228 159.296 276.012C159.296 276.86 158.796 277.784 157.796 278.784L155.648 280.92H159.452V282H154.028ZM163.599 277.044C164.239 277.164 164.763 277.44 165.171 277.872C165.579 278.304 165.783 278.852 165.783 279.516C165.783 280.332 165.503 280.976 164.943 281.448C164.383 281.92 163.703 282.156 162.903 282.156C162.263 282.156 161.695 282.012 161.199 281.724C160.703 281.428 160.351 281.004 160.143 280.452L161.079 279.9C161.327 280.676 161.935 281.064 162.903 281.064C163.423 281.064 163.847 280.928 164.175 280.656C164.503 280.384 164.667 280.004 164.667 279.516C164.667 279.028 164.503 278.648 164.175 278.376C163.847 278.096 163.423 277.956 162.903 277.956H162.615L162.171 277.272L164.115 274.644H160.383V273.6H165.423V274.584L163.599 277.044ZM167.309 283.2H166.685L171.485 272.4H172.109L167.309 283.2ZM174.944 273.6H175.904V282H174.8V274.8L173.012 275.328L172.736 274.368L174.944 273.6ZM183.014 280.968C182.446 281.76 181.65 282.156 180.626 282.156C179.602 282.156 178.806 281.76 178.238 280.968C177.67 280.176 177.386 279.12 177.386 277.8C177.386 276.48 177.67 275.424 178.238 274.632C178.806 273.84 179.602 273.444 180.626 273.444C181.65 273.444 182.446 273.84 183.014 274.632C183.582 275.424 183.866 276.48 183.866 277.8C183.866 279.12 183.582 280.176 183.014 280.968ZM179.054 280.212C179.422 280.78 179.946 281.064 180.626 281.064C181.306 281.064 181.83 280.78 182.198 280.212C182.574 279.644 182.762 278.84 182.762 277.8C182.762 276.76 182.574 275.956 182.198 275.388C181.83 274.812 181.306 274.524 180.626 274.524C179.946 274.524 179.422 274.808 179.054 275.376C178.686 275.944 178.502 276.752 178.502 277.8C178.502 278.84 178.686 279.644 179.054 280.212Z" fill="#88898B"/>
<path d="M210.969 282V281.088L213.933 278.064C214.725 277.272 215.121 276.592 215.121 276.024C215.121 275.552 214.977 275.184 214.689 274.92C214.401 274.656 214.049 274.524 213.633 274.524C212.841 274.524 212.265 274.9 211.905 275.652L210.969 275.1C211.233 274.556 211.597 274.144 212.061 273.864C212.533 273.584 213.053 273.444 213.621 273.444C214.325 273.444 214.937 273.676 215.457 274.14C215.977 274.604 216.237 275.228 216.237 276.012C216.237 276.86 215.737 277.784 214.737 278.784L212.589 280.92H216.393V282H210.969ZM220.011 276.876C220.803 276.876 221.471 277.112 222.015 277.584C222.567 278.048 222.843 278.692 222.843 279.516C222.843 280.332 222.563 280.976 222.003 281.448C221.443 281.92 220.763 282.156 219.963 282.156C219.323 282.156 218.751 282.004 218.247 281.7C217.743 281.388 217.391 280.94 217.191 280.356L218.139 279.816C218.251 280.224 218.467 280.536 218.787 280.752C219.107 280.96 219.499 281.064 219.963 281.064C220.491 281.064 220.919 280.928 221.247 280.656C221.575 280.384 221.739 280.004 221.739 279.516C221.739 279.028 221.575 278.648 221.247 278.376C220.919 278.096 220.499 277.956 219.987 277.956H217.611L217.923 273.6H222.519V274.644H218.931L218.787 276.876H220.011ZM224.367 283.2H223.743L228.543 272.4H229.167L224.367 283.2ZM232.003 273.6H232.963V282H231.859V274.8L230.071 275.328L229.795 274.368L232.003 273.6ZM240.072 280.968C239.504 281.76 238.708 282.156 237.684 282.156C236.66 282.156 235.864 281.76 235.296 280.968C234.728 280.176 234.444 279.12 234.444 277.8C234.444 276.48 234.728 275.424 235.296 274.632C235.864 273.84 236.66 273.444 237.684 273.444C238.708 273.444 239.504 273.84 240.072 274.632C240.64 275.424 240.924 276.48 240.924 277.8C240.924 279.12 240.64 280.176 240.072 280.968ZM236.112 280.212C236.48 280.78 237.004 281.064 237.684 281.064C238.364 281.064 238.888 280.78 239.256 280.212C239.632 279.644 239.82 278.84 239.82 277.8C239.82 276.76 239.632 275.956 239.256 275.388C238.888 274.812 238.364 274.524 237.684 274.524C237.004 274.524 236.48 274.808 236.112 275.376C235.744 275.944 235.56 276.752 235.56 277.8C235.56 278.84 235.744 279.644 236.112 280.212Z" fill="#88898B"/>
<path d="M267.356 282V281.088L270.32 278.064C271.112 277.272 271.508 276.592 271.508 276.024C271.508 275.552 271.364 275.184 271.076 274.92C270.788 274.656 270.436 274.524 270.02 274.524C269.228 274.524 268.652 274.9 268.292 275.652L267.356 275.1C267.62 274.556 267.984 274.144 268.448 273.864C268.92 273.584 269.44 273.444 270.008 273.444C270.712 273.444 271.324 273.676 271.844 274.14C272.364 274.604 272.624 275.228 272.624 276.012C272.624 276.86 272.124 277.784 271.124 278.784L268.976 280.92H272.78V282H267.356ZM273.234 273.6H278.478V274.596L275.418 282H274.254L277.29 274.656H273.234V273.6ZM279.98 283.2H279.356L284.156 272.4H284.78L279.98 283.2ZM287.616 273.6H288.576V282H287.472V274.8L285.684 275.328L285.408 274.368L287.616 273.6ZM295.686 280.968C295.118 281.76 294.322 282.156 293.298 282.156C292.274 282.156 291.478 281.76 290.91 280.968C290.342 280.176 290.058 279.12 290.058 277.8C290.058 276.48 290.342 275.424 290.91 274.632C291.478 273.84 292.274 273.444 293.298 273.444C294.322 273.444 295.118 273.84 295.686 274.632C296.254 275.424 296.538 276.48 296.538 277.8C296.538 279.12 296.254 280.176 295.686 280.968ZM291.726 280.212C292.094 280.78 292.618 281.064 293.298 281.064C293.978 281.064 294.502 280.78 294.87 280.212C295.246 279.644 295.434 278.84 295.434 277.8C295.434 276.76 295.246 275.956 294.87 275.388C294.502 274.812 293.978 274.524 293.298 274.524C292.618 274.524 292.094 274.808 291.726 275.376C291.358 275.944 291.174 276.752 291.174 277.8C291.174 278.84 291.358 279.644 291.726 280.212Z" fill="#88898B"/>
<path d="M322.969 282V281.088L325.933 278.064C326.725 277.272 327.121 276.592 327.121 276.024C327.121 275.552 326.977 275.184 326.689 274.92C326.401 274.656 326.049 274.524 325.633 274.524C324.841 274.524 324.265 274.9 323.905 275.652L322.969 275.1C323.233 274.556 323.597 274.144 324.061 273.864C324.533 273.584 325.053 273.444 325.621 273.444C326.325 273.444 326.937 273.676 327.457 274.14C327.977 274.604 328.237 275.228 328.237 276.012C328.237 276.86 327.737 277.784 326.737 278.784L324.589 280.92H328.393V282H322.969ZM334.95 276.264C334.95 276.912 334.778 277.476 334.434 277.956H334.446L331.734 282H330.474L332.466 279.06C332.29 279.076 332.154 279.084 332.058 279.084C331.21 279.084 330.514 278.824 329.97 278.304C329.434 277.776 329.166 277.096 329.166 276.264C329.166 275.432 329.434 274.756 329.97 274.236C330.514 273.708 331.21 273.444 332.058 273.444C332.906 273.444 333.598 273.708 334.134 274.236C334.678 274.756 334.95 275.432 334.95 276.264ZM330.762 274.992C330.434 275.312 330.27 275.736 330.27 276.264C330.27 276.792 330.434 277.22 330.762 277.548C331.098 277.868 331.53 278.028 332.058 278.028C332.586 278.028 333.014 277.868 333.342 277.548C333.678 277.22 333.846 276.792 333.846 276.264C333.846 275.736 333.682 275.312 333.354 274.992C333.026 274.672 332.594 274.512 332.058 274.512C331.53 274.512 331.098 274.672 330.762 274.992ZM336.367 283.2H335.743L340.543 272.4H341.167L336.367 283.2ZM344.003 273.6H344.963V282H343.859V274.8L342.071 275.328L341.795 274.368L344.003 273.6ZM352.072 280.968C351.504 281.76 350.708 282.156 349.684 282.156C348.66 282.156 347.864 281.76 347.296 280.968C346.728 280.176 346.444 279.12 346.444 277.8C346.444 276.48 346.728 275.424 347.296 274.632C347.864 273.84 348.66 273.444 349.684 273.444C350.708 273.444 351.504 273.84 352.072 274.632C352.64 275.424 352.924 276.48 352.924 277.8C352.924 279.12 352.64 280.176 352.072 280.968ZM348.112 280.212C348.48 280.78 349.004 281.064 349.684 281.064C350.364 281.064 350.888 280.78 351.256 280.212C351.632 279.644 351.82 278.84 351.82 277.8C351.82 276.76 351.632 275.956 351.256 275.388C350.888 274.812 350.364 274.524 349.684 274.524C349.004 274.524 348.48 274.808 348.112 275.376C347.744 275.944 347.56 276.752 347.56 277.8C347.56 278.84 347.744 279.644 348.112 280.212Z" fill="#88898B"/>
<path d="M384.507 278.044C385.147 278.164 385.671 278.44 386.079 278.872C386.487 279.304 386.691 279.852 386.691 280.516C386.691 281.332 386.411 281.976 385.851 282.448C385.291 282.92 384.611 283.156 383.811 283.156C383.171 283.156 382.603 283.012 382.107 282.724C381.611 282.428 381.259 282.004 381.051 281.452L381.987 280.9C382.235 281.676 382.843 282.064 383.811 282.064C384.331 282.064 384.755 281.928 385.083 281.656C385.411 281.384 385.575 281.004 385.575 280.516C385.575 280.028 385.411 279.648 385.083 279.376C384.755 279.096 384.331 278.956 383.811 278.956H383.523L383.079 278.272L385.023 275.644H381.291V274.6H386.331V275.584L384.507 278.044ZM389.208 274.6H390.168V283H389.064V275.8L387.276 276.328L387 275.368L389.208 274.6ZM392.189 284.2H391.565L396.365 273.4H396.989L392.189 284.2ZM399.825 274.6H400.785V283H399.681V275.8L397.893 276.328L397.617 275.368L399.825 274.6ZM407.895 281.968C407.327 282.76 406.531 283.156 405.507 283.156C404.483 283.156 403.687 282.76 403.119 281.968C402.551 281.176 402.267 280.12 402.267 278.8C402.267 277.48 402.551 276.424 403.119 275.632C403.687 274.84 404.483 274.444 405.507 274.444C406.531 274.444 407.327 274.84 407.895 275.632C408.463 276.424 408.747 277.48 408.747 278.8C408.747 280.12 408.463 281.176 407.895 281.968ZM403.935 281.212C404.303 281.78 404.827 282.064 405.507 282.064C406.187 282.064 406.711 281.78 407.079 281.212C407.455 280.644 407.643 279.84 407.643 278.8C407.643 277.76 407.455 276.956 407.079 276.388C406.711 275.812 406.187 275.524 405.507 275.524C404.827 275.524 404.303 275.808 403.935 276.376C403.567 276.944 403.383 277.752 403.383 278.8C403.383 279.84 403.567 280.644 403.935 281.212Z" fill="#88898B"/>
<path d="M441.854 280.968C441.286 281.76 440.49 282.156 439.466 282.156C438.442 282.156 437.646 281.76 437.078 280.968C436.51 280.176 436.226 279.12 436.226 277.8C436.226 276.48 436.51 275.424 437.078 274.632C437.646 273.84 438.442 273.444 439.466 273.444C440.49 273.444 441.286 273.84 441.854 274.632C442.422 275.424 442.706 276.48 442.706 277.8C442.706 279.12 442.422 280.176 441.854 280.968ZM437.894 280.212C438.262 280.78 438.786 281.064 439.466 281.064C440.146 281.064 440.67 280.78 441.038 280.212C441.414 279.644 441.602 278.84 441.602 277.8C441.602 276.76 441.414 275.956 441.038 275.388C440.67 274.812 440.146 274.524 439.466 274.524C438.786 274.524 438.262 274.808 437.894 275.376C437.526 275.944 437.342 276.752 437.342 277.8C437.342 278.84 437.526 279.644 437.894 280.212ZM443.524 282V281.088L446.488 278.064C447.28 277.272 447.676 276.592 447.676 276.024C447.676 275.552 447.532 275.184 447.244 274.92C446.956 274.656 446.604 274.524 446.188 274.524C445.396 274.524 444.82 274.9 444.46 275.652L443.524 275.1C443.788 274.556 444.152 274.144 444.616 273.864C445.088 273.584 445.608 273.444 446.176 273.444C446.88 273.444 447.492 273.676 448.012 274.14C448.532 274.604 448.792 275.228 448.792 276.012C448.792 276.86 448.292 277.784 447.292 278.784L445.144 280.92H448.948V282H443.524ZM450.5 283.2H449.876L454.676 272.4H455.3L450.5 283.2ZM458.136 273.6H459.096V282H457.992V274.8L456.204 275.328L455.928 274.368L458.136 273.6ZM462.413 273.6H463.373V282H462.269V274.8L460.481 275.328L460.205 274.368L462.413 273.6Z" fill="#88898B"/>
<path d="M497.961 280.968C497.393 281.76 496.597 282.156 495.573 282.156C494.549 282.156 493.753 281.76 493.185 280.968C492.617 280.176 492.333 279.12 492.333 277.8C492.333 276.48 492.617 275.424 493.185 274.632C493.753 273.84 494.549 273.444 495.573 273.444C496.597 273.444 497.393 273.84 497.961 274.632C498.529 275.424 498.813 276.48 498.813 277.8C498.813 279.12 498.529 280.176 497.961 280.968ZM494.001 280.212C494.369 280.78 494.893 281.064 495.573 281.064C496.253 281.064 496.777 280.78 497.145 280.212C497.521 279.644 497.709 278.84 497.709 277.8C497.709 276.76 497.521 275.956 497.145 275.388C496.777 274.812 496.253 274.524 495.573 274.524C494.893 274.524 494.369 274.808 494.001 275.376C493.633 275.944 493.449 276.752 493.449 277.8C493.449 278.84 493.633 279.644 494.001 280.212ZM506.06 279.36V280.404H505.04V282H503.924V280.404H499.64V279.36L502.652 273.6H503.852L500.84 279.36H503.924V276.984H505.04V279.36H506.06ZM507.393 283.2H506.769L511.569 272.4H512.193L507.393 283.2ZM515.028 273.6H515.988V282H514.884V274.8L513.096 275.328L512.82 274.368L515.028 273.6ZM519.306 273.6H520.266V282H519.162V274.8L517.374 275.328L517.098 274.368L519.306 273.6Z" fill="#88898B"/>
<path d="M554.713 280.968C554.145 281.76 553.349 282.156 552.325 282.156C551.301 282.156 550.505 281.76 549.937 280.968C549.369 280.176 549.085 279.12 549.085 277.8C549.085 276.48 549.369 275.424 549.937 274.632C550.505 273.84 551.301 273.444 552.325 273.444C553.349 273.444 554.145 273.84 554.713 274.632C555.281 275.424 555.565 276.48 555.565 277.8C555.565 279.12 555.281 280.176 554.713 280.968ZM550.753 280.212C551.121 280.78 551.645 281.064 552.325 281.064C553.005 281.064 553.529 280.78 553.897 280.212C554.273 279.644 554.461 278.84 554.461 277.8C554.461 276.76 554.273 275.956 553.897 275.388C553.529 274.812 553.005 274.524 552.325 274.524C551.645 274.524 551.121 274.808 550.753 275.376C550.385 275.944 550.201 276.752 550.201 277.8C550.201 278.84 550.385 279.644 550.753 280.212ZM559.332 276.504C560.172 276.504 560.864 276.768 561.408 277.296C561.952 277.816 562.224 278.492 562.224 279.324C562.224 280.156 561.952 280.836 561.408 281.364C560.864 281.892 560.172 282.156 559.332 282.156C558.484 282.156 557.788 281.892 557.244 281.364C556.708 280.836 556.44 280.156 556.44 279.324C556.44 278.676 556.608 278.116 556.944 277.644L559.644 273.6H560.916L558.936 276.528C559.112 276.512 559.244 276.504 559.332 276.504ZM558.036 280.608C558.372 280.928 558.804 281.088 559.332 281.088C559.86 281.088 560.288 280.928 560.616 280.608C560.952 280.28 561.12 279.852 561.12 279.324C561.12 278.796 560.952 278.372 560.616 278.052C560.288 277.732 559.86 277.572 559.332 277.572C558.796 277.572 558.364 277.732 558.036 278.052C557.708 278.372 557.544 278.796 557.544 279.324C557.544 279.852 557.708 280.28 558.036 280.608ZM563.641 283.2H563.017L567.817 272.4H568.441L563.641 283.2ZM571.276 273.6H572.236V282H571.132V274.8L569.344 275.328L569.068 274.368L571.276 273.6ZM575.554 273.6H576.514V282H575.41V274.8L573.622 275.328L573.346 274.368L575.554 273.6Z" fill="#88898B"/>
<path d="M37.6006 228.036V229.572H36.7006V231H35.0326V229.572H31.0606V228.036L33.8566 222.6H35.6326L32.8486 228.036H35.0326V226.044H36.7006V228.036H37.6006ZM41.5495 231.168C40.5015 231.168 39.6775 230.772 39.0775 229.98C38.4855 229.18 38.1895 228.12 38.1895 226.8C38.1895 225.48 38.4855 224.424 39.0775 223.632C39.6775 222.832 40.5015 222.432 41.5495 222.432C42.6055 222.432 43.4295 222.832 44.0215 223.632C44.6135 224.424 44.9095 225.48 44.9095 226.8C44.9095 228.12 44.6135 229.18 44.0215 229.98C43.4295 230.772 42.6055 231.168 41.5495 231.168ZM40.2775 228.852C40.5655 229.316 40.9895 229.548 41.5495 229.548C42.1095 229.548 42.5335 229.312 42.8215 228.84C43.1175 228.368 43.2655 227.688 43.2655 226.8C43.2655 225.904 43.1175 225.22 42.8215 224.748C42.5335 224.276 42.1095 224.04 41.5495 224.04C40.9895 224.04 40.5655 224.276 40.2775 224.748C39.9895 225.22 39.8455 225.904 39.8455 226.8C39.8455 227.696 39.9895 228.38 40.2775 228.852ZM49.1081 231.168C48.0601 231.168 47.2361 230.772 46.6361 229.98C46.0441 229.18 45.7481 228.12 45.7481 226.8C45.7481 225.48 46.0441 224.424 46.6361 223.632C47.2361 222.832 48.0601 222.432 49.1081 222.432C50.1641 222.432 50.9881 222.832 51.5801 223.632C52.1721 224.424 52.4681 225.48 52.4681 226.8C52.4681 228.12 52.1721 229.18 51.5801 229.98C50.9881 230.772 50.1641 231.168 49.1081 231.168ZM47.8361 228.852C48.1241 229.316 48.5481 229.548 49.1081 229.548C49.6681 229.548 50.0921 229.312 50.3801 228.84C50.6761 228.368 50.8241 227.688 50.8241 226.8C50.8241 225.904 50.6761 225.22 50.3801 224.748C50.0921 224.276 49.6681 224.04 49.1081 224.04C48.5481 224.04 48.1241 224.276 47.8361 224.748C47.5481 225.22 47.4041 225.904 47.4041 226.8C47.4041 227.696 47.5481 228.38 47.8361 228.852ZM59.1267 231H57.3267L55.1427 228.276V231H53.5947V222.6H55.1427V227.64L57.2067 225H59.0547L56.6427 227.964L59.1267 231Z" fill="#B9B9C3"/>
<path d="M36.1349 260.632C36.9109 261.096 37.2989 261.772 37.2989 262.66C37.2989 263.436 37.0269 264.048 36.4829 264.496C35.9469 264.944 35.2149 265.168 34.2869 265.168C33.3509 265.168 32.6149 264.944 32.0789 264.496C31.5429 264.048 31.2749 263.436 31.2749 262.66C31.2749 261.772 31.6589 261.096 32.4269 260.632C31.8429 260.208 31.5509 259.628 31.5509 258.892C31.5509 258.116 31.8109 257.512 32.3309 257.08C32.8589 256.648 33.5109 256.432 34.2869 256.432C35.0629 256.432 35.7109 256.648 36.2309 257.08C36.7509 257.512 37.0109 258.116 37.0109 258.892C37.0109 259.636 36.7189 260.216 36.1349 260.632ZM35.0669 258.256C34.8669 258.08 34.6069 257.992 34.2869 257.992C33.9669 257.992 33.7069 258.08 33.5069 258.256C33.3069 258.432 33.2069 258.672 33.2069 258.976C33.2069 259.28 33.3069 259.524 33.5069 259.708C33.7069 259.884 33.9669 259.972 34.2869 259.972C34.6069 259.972 34.8669 259.884 35.0669 259.708C35.2669 259.524 35.3669 259.28 35.3669 258.976C35.3669 258.672 35.2669 258.432 35.0669 258.256ZM33.2909 263.308C33.5469 263.508 33.8789 263.608 34.2869 263.608C34.6949 263.608 35.0229 263.508 35.2709 263.308C35.5269 263.1 35.6549 262.812 35.6549 262.444C35.6549 262.084 35.5269 261.804 35.2709 261.604C35.0229 261.396 34.6949 261.292 34.2869 261.292C33.8789 261.292 33.5469 261.396 33.2909 261.604C33.0429 261.804 32.9189 262.084 32.9189 262.444C32.9189 262.812 33.0429 263.1 33.2909 263.308ZM41.4792 265.168C40.4312 265.168 39.6072 264.772 39.0072 263.98C38.4152 263.18 38.1192 262.12 38.1192 260.8C38.1192 259.48 38.4152 258.424 39.0072 257.632C39.6072 256.832 40.4312 256.432 41.4792 256.432C42.5352 256.432 43.3592 256.832 43.9512 257.632C44.5432 258.424 44.8392 259.48 44.8392 260.8C44.8392 262.12 44.5432 263.18 43.9512 263.98C43.3592 264.772 42.5352 265.168 41.4792 265.168ZM40.2072 262.852C40.4952 263.316 40.9192 263.548 41.4792 263.548C42.0392 263.548 42.4632 263.312 42.7512 262.84C43.0472 262.368 43.1952 261.688 43.1952 260.8C43.1952 259.904 43.0472 259.22 42.7512 258.748C42.4632 258.276 42.0392 258.04 41.4792 258.04C40.9192 258.04 40.4952 258.276 40.2072 258.748C39.9192 259.22 39.7752 259.904 39.7752 260.8C39.7752 261.696 39.9192 262.38 40.2072 262.852ZM49.0378 265.168C47.9898 265.168 47.1658 264.772 46.5658 263.98C45.9738 263.18 45.6778 262.12 45.6778 260.8C45.6778 259.48 45.9738 258.424 46.5658 257.632C47.1658 256.832 47.9898 256.432 49.0378 256.432C50.0938 256.432 50.9178 256.832 51.5098 257.632C52.1018 258.424 52.3978 259.48 52.3978 260.8C52.3978 262.12 52.1018 263.18 51.5098 263.98C50.9178 264.772 50.0938 265.168 49.0378 265.168ZM47.7658 262.852C48.0538 263.316 48.4778 263.548 49.0378 263.548C49.5978 263.548 50.0218 263.312 50.3098 262.84C50.6058 262.368 50.7538 261.688 50.7538 260.8C50.7538 259.904 50.6058 259.22 50.3098 258.748C50.0218 258.276 49.5978 258.04 49.0378 258.04C48.4778 258.04 48.0538 258.276 47.7658 258.748C47.4778 259.22 47.3338 259.904 47.3338 260.8C47.3338 261.696 47.4778 262.38 47.7658 262.852ZM59.0564 265H57.2564L55.0724 262.276V265H53.5244V256.6H55.0724V261.64L57.1364 259H58.9844L56.5724 261.964L59.0564 265Z" fill="#B9B9C3"/>
<path d="M30.4842 197V195.764L33.3522 192.812C33.9922 192.14 34.3122 191.58 34.3122 191.132C34.3122 190.804 34.2082 190.54 34.0002 190.34C33.8002 190.14 33.5402 190.04 33.2202 190.04C32.5882 190.04 32.1202 190.368 31.8162 191.024L30.4242 190.208C30.6882 189.632 31.0682 189.192 31.5642 188.888C32.0602 188.584 32.6042 188.432 33.1962 188.432C33.9562 188.432 34.6082 188.672 35.1522 189.152C35.6962 189.624 35.9682 190.264 35.9682 191.072C35.9682 191.944 35.5082 192.84 34.5882 193.76L32.9442 195.404H36.1002V197H30.4842ZM40.198 197.168C39.15 197.168 38.326 196.772 37.726 195.98C37.134 195.18 36.838 194.12 36.838 192.8C36.838 191.48 37.134 190.424 37.726 189.632C38.326 188.832 39.15 188.432 40.198 188.432C41.254 188.432 42.078 188.832 42.67 189.632C43.262 190.424 43.558 191.48 43.558 192.8C43.558 194.12 43.262 195.18 42.67 195.98C42.078 196.772 41.254 197.168 40.198 197.168ZM38.926 194.852C39.214 195.316 39.638 195.548 40.198 195.548C40.758 195.548 41.182 195.312 41.47 194.84C41.766 194.368 41.914 193.688 41.914 192.8C41.914 191.904 41.766 191.22 41.47 190.748C41.182 190.276 40.758 190.04 40.198 190.04C39.638 190.04 39.214 190.276 38.926 190.748C38.638 191.22 38.494 191.904 38.494 192.8C38.494 193.696 38.638 194.38 38.926 194.852ZM47.7566 197.168C46.7086 197.168 45.8846 196.772 45.2846 195.98C44.6926 195.18 44.3966 194.12 44.3966 192.8C44.3966 191.48 44.6926 190.424 45.2846 189.632C45.8846 188.832 46.7086 188.432 47.7566 188.432C48.8126 188.432 49.6366 188.832 50.2286 189.632C50.8206 190.424 51.1166 191.48 51.1166 192.8C51.1166 194.12 50.8206 195.18 50.2286 195.98C49.6366 196.772 48.8126 197.168 47.7566 197.168ZM46.4846 194.852C46.7726 195.316 47.1966 195.548 47.7566 195.548C48.3166 195.548 48.7406 195.312 49.0286 194.84C49.3246 194.368 49.4726 193.688 49.4726 192.8C49.4726 191.904 49.3246 191.22 49.0286 190.748C48.7406 190.276 48.3166 190.04 47.7566 190.04C47.1966 190.04 46.7726 190.276 46.4846 190.748C46.1966 191.22 46.0526 191.904 46.0526 192.8C46.0526 193.696 46.1966 194.38 46.4846 194.852ZM57.7752 197H55.9752L53.7912 194.276V197H52.2432V188.6H53.7912V193.64L55.8552 191H57.7032L55.2912 193.964L57.7752 197Z" fill="#B9B9C3"/>
<path d="M40.7214 163.168C39.6734 163.168 38.8494 162.772 38.2494 161.98C37.6574 161.18 37.3614 160.12 37.3614 158.8C37.3614 157.48 37.6574 156.424 38.2494 155.632C38.8494 154.832 39.6734 154.432 40.7214 154.432C41.7774 154.432 42.6014 154.832 43.1934 155.632C43.7854 156.424 44.0814 157.48 44.0814 158.8C44.0814 160.12 43.7854 161.18 43.1934 161.98C42.6014 162.772 41.7774 163.168 40.7214 163.168ZM39.4494 160.852C39.7374 161.316 40.1614 161.548 40.7214 161.548C41.2814 161.548 41.7054 161.312 41.9934 160.84C42.2894 160.368 42.4374 159.688 42.4374 158.8C42.4374 157.904 42.2894 157.22 41.9934 156.748C41.7054 156.276 41.2814 156.04 40.7214 156.04C40.1614 156.04 39.7374 156.276 39.4494 156.748C39.1614 157.22 39.0174 157.904 39.0174 158.8C39.0174 159.696 39.1614 160.38 39.4494 160.852ZM48.28 163.168C47.232 163.168 46.408 162.772 45.808 161.98C45.216 161.18 44.92 160.12 44.92 158.8C44.92 157.48 45.216 156.424 45.808 155.632C46.408 154.832 47.232 154.432 48.28 154.432C49.336 154.432 50.16 154.832 50.752 155.632C51.344 156.424 51.64 157.48 51.64 158.8C51.64 160.12 51.344 161.18 50.752 161.98C50.16 162.772 49.336 163.168 48.28 163.168ZM47.008 160.852C47.296 161.316 47.72 161.548 48.28 161.548C48.84 161.548 49.264 161.312 49.552 160.84C49.848 160.368 49.996 159.688 49.996 158.8C49.996 157.904 49.848 157.22 49.552 156.748C49.264 156.276 48.84 156.04 48.28 156.04C47.72 156.04 47.296 156.276 47.008 156.748C46.72 157.22 46.576 157.904 46.576 158.8C46.576 159.696 46.72 160.38 47.008 160.852Z" fill="#B9B9C3"/>
<path d="M30.4842 129V127.764L33.3522 124.812C33.9922 124.14 34.3122 123.58 34.3122 123.132C34.3122 122.804 34.2082 122.54 34.0002 122.34C33.8002 122.14 33.5402 122.04 33.2202 122.04C32.5882 122.04 32.1202 122.368 31.8162 123.024L30.4242 122.208C30.6882 121.632 31.0682 121.192 31.5642 120.888C32.0602 120.584 32.6042 120.432 33.1962 120.432C33.9562 120.432 34.6082 120.672 35.1522 121.152C35.6962 121.624 35.9682 122.264 35.9682 123.072C35.9682 123.944 35.5082 124.84 34.5882 125.76L32.9442 127.404H36.1002V129H30.4842ZM40.198 129.168C39.15 129.168 38.326 128.772 37.726 127.98C37.134 127.18 36.838 126.12 36.838 124.8C36.838 123.48 37.134 122.424 37.726 121.632C38.326 120.832 39.15 120.432 40.198 120.432C41.254 120.432 42.078 120.832 42.67 121.632C43.262 122.424 43.558 123.48 43.558 124.8C43.558 126.12 43.262 127.18 42.67 127.98C42.078 128.772 41.254 129.168 40.198 129.168ZM38.926 126.852C39.214 127.316 39.638 127.548 40.198 127.548C40.758 127.548 41.182 127.312 41.47 126.84C41.766 126.368 41.914 125.688 41.914 124.8C41.914 123.904 41.766 123.22 41.47 122.748C41.182 122.276 40.758 122.04 40.198 122.04C39.638 122.04 39.214 122.276 38.926 122.748C38.638 123.22 38.494 123.904 38.494 124.8C38.494 125.696 38.638 126.38 38.926 126.852ZM47.7566 129.168C46.7086 129.168 45.8846 128.772 45.2846 127.98C44.6926 127.18 44.3966 126.12 44.3966 124.8C44.3966 123.48 44.6926 122.424 45.2846 121.632C45.8846 120.832 46.7086 120.432 47.7566 120.432C48.8126 120.432 49.6366 120.832 50.2286 121.632C50.8206 122.424 51.1166 123.48 51.1166 124.8C51.1166 126.12 50.8206 127.18 50.2286 127.98C49.6366 128.772 48.8126 129.168 47.7566 129.168ZM46.4846 126.852C46.7726 127.316 47.1966 127.548 47.7566 127.548C48.3166 127.548 48.7406 127.312 49.0286 126.84C49.3246 126.368 49.4726 125.688 49.4726 124.8C49.4726 123.904 49.3246 123.22 49.0286 122.748C48.7406 122.276 48.3166 122.04 47.7566 122.04C47.1966 122.04 46.7726 122.276 46.4846 122.748C46.1966 123.22 46.0526 123.904 46.0526 124.8C46.0526 125.696 46.1966 126.38 46.4846 126.852ZM57.7752 129H55.9752L53.7912 126.276V129H52.2432V120.6H53.7912V125.64L55.8552 123H57.7032L55.2912 125.964L57.7752 129Z" fill="#B9B9C3"/>
<path d="M37.1006 92.036V93.572H36.2006V95H34.5326V93.572H30.5606V92.036L33.3566 86.6H35.1326L32.3486 92.036H34.5326V90.044H36.2006V92.036H37.1006ZM41.0495 95.168C40.0015 95.168 39.1775 94.772 38.5775 93.98C37.9855 93.18 37.6895 92.12 37.6895 90.8C37.6895 89.48 37.9855 88.424 38.5775 87.632C39.1775 86.832 40.0015 86.432 41.0495 86.432C42.1055 86.432 42.9295 86.832 43.5215 87.632C44.1135 88.424 44.4095 89.48 44.4095 90.8C44.4095 92.12 44.1135 93.18 43.5215 93.98C42.9295 94.772 42.1055 95.168 41.0495 95.168ZM39.7775 92.852C40.0655 93.316 40.4895 93.548 41.0495 93.548C41.6095 93.548 42.0335 93.312 42.3215 92.84C42.6175 92.368 42.7655 91.688 42.7655 90.8C42.7655 89.904 42.6175 89.22 42.3215 88.748C42.0335 88.276 41.6095 88.04 41.0495 88.04C40.4895 88.04 40.0655 88.276 39.7775 88.748C39.4895 89.22 39.3455 89.904 39.3455 90.8C39.3455 91.696 39.4895 92.38 39.7775 92.852ZM48.6081 95.168C47.5601 95.168 46.7361 94.772 46.1361 93.98C45.5441 93.18 45.2481 92.12 45.2481 90.8C45.2481 89.48 45.5441 88.424 46.1361 87.632C46.7361 86.832 47.5601 86.432 48.6081 86.432C49.6641 86.432 50.4881 86.832 51.0801 87.632C51.6721 88.424 51.9681 89.48 51.9681 90.8C51.9681 92.12 51.6721 93.18 51.0801 93.98C50.4881 94.772 49.6641 95.168 48.6081 95.168ZM47.3361 92.852C47.6241 93.316 48.0481 93.548 48.6081 93.548C49.1681 93.548 49.5921 93.312 49.8801 92.84C50.1761 92.368 50.3241 91.688 50.3241 90.8C50.3241 89.904 50.1761 89.22 49.8801 88.748C49.5921 88.276 49.1681 88.04 48.6081 88.04C48.0481 88.04 47.6241 88.276 47.3361 88.748C47.0481 89.22 46.9041 89.904 46.9041 90.8C46.9041 91.696 47.0481 92.38 47.3361 92.852ZM58.6267 95H56.8267L54.6427 92.276V95H53.0947V86.6H54.6427V91.64L56.7067 89H58.5547L56.1427 91.964L58.6267 95Z" fill="#B9B9C3"/>
<path d="M35.6349 56.632C36.4109 57.096 36.7989 57.772 36.7989 58.66C36.7989 59.436 36.5269 60.048 35.9829 60.496C35.4469 60.944 34.7149 61.168 33.7869 61.168C32.8509 61.168 32.1149 60.944 31.5789 60.496C31.0429 60.048 30.7749 59.436 30.7749 58.66C30.7749 57.772 31.1589 57.096 31.9269 56.632C31.3429 56.208 31.0509 55.628 31.0509 54.892C31.0509 54.116 31.3109 53.512 31.8309 53.08C32.3589 52.648 33.0109 52.432 33.7869 52.432C34.5629 52.432 35.2109 52.648 35.7309 53.08C36.2509 53.512 36.5109 54.116 36.5109 54.892C36.5109 55.636 36.2189 56.216 35.6349 56.632ZM34.5669 54.256C34.3669 54.08 34.1069 53.992 33.7869 53.992C33.4669 53.992 33.2069 54.08 33.0069 54.256C32.8069 54.432 32.7069 54.672 32.7069 54.976C32.7069 55.28 32.8069 55.524 33.0069 55.708C33.2069 55.884 33.4669 55.972 33.7869 55.972C34.1069 55.972 34.3669 55.884 34.5669 55.708C34.7669 55.524 34.8669 55.28 34.8669 54.976C34.8669 54.672 34.7669 54.432 34.5669 54.256ZM32.7909 59.308C33.0469 59.508 33.3789 59.608 33.7869 59.608C34.1949 59.608 34.5229 59.508 34.7709 59.308C35.0269 59.1 35.1549 58.812 35.1549 58.444C35.1549 58.084 35.0269 57.804 34.7709 57.604C34.5229 57.396 34.1949 57.292 33.7869 57.292C33.3789 57.292 33.0469 57.396 32.7909 57.604C32.5429 57.804 32.4189 58.084 32.4189 58.444C32.4189 58.812 32.5429 59.1 32.7909 59.308ZM40.9792 61.168C39.9312 61.168 39.1072 60.772 38.5072 59.98C37.9152 59.18 37.6192 58.12 37.6192 56.8C37.6192 55.48 37.9152 54.424 38.5072 53.632C39.1072 52.832 39.9312 52.432 40.9792 52.432C42.0352 52.432 42.8592 52.832 43.4512 53.632C44.0432 54.424 44.3392 55.48 44.3392 56.8C44.3392 58.12 44.0432 59.18 43.4512 59.98C42.8592 60.772 42.0352 61.168 40.9792 61.168ZM39.7072 58.852C39.9952 59.316 40.4192 59.548 40.9792 59.548C41.5392 59.548 41.9632 59.312 42.2512 58.84C42.5472 58.368 42.6952 57.688 42.6952 56.8C42.6952 55.904 42.5472 55.22 42.2512 54.748C41.9632 54.276 41.5392 54.04 40.9792 54.04C40.4192 54.04 39.9952 54.276 39.7072 54.748C39.4192 55.22 39.2752 55.904 39.2752 56.8C39.2752 57.696 39.4192 58.38 39.7072 58.852ZM48.5378 61.168C47.4898 61.168 46.6658 60.772 46.0658 59.98C45.4738 59.18 45.1778 58.12 45.1778 56.8C45.1778 55.48 45.4738 54.424 46.0658 53.632C46.6658 52.832 47.4898 52.432 48.5378 52.432C49.5938 52.432 50.4178 52.832 51.0098 53.632C51.6018 54.424 51.8978 55.48 51.8978 56.8C51.8978 58.12 51.6018 59.18 51.0098 59.98C50.4178 60.772 49.5938 61.168 48.5378 61.168ZM47.2658 58.852C47.5538 59.316 47.9778 59.548 48.5378 59.548C49.0978 59.548 49.5218 59.312 49.8098 58.84C50.1058 58.368 50.2538 57.688 50.2538 56.8C50.2538 55.904 50.1058 55.22 49.8098 54.748C49.5218 54.276 49.0978 54.04 48.5378 54.04C47.9778 54.04 47.5538 54.276 47.2658 54.748C46.9778 55.22 46.8338 55.904 46.8338 56.8C46.8338 57.696 46.9778 58.38 47.2658 58.852ZM58.5564 61H56.7564L54.5724 58.276V61H53.0244V52.6H54.5724V57.64L56.6364 55H58.4844L56.0724 57.964L58.5564 61Z" fill="#B9B9C3"/>
<path d="M165.5 199.311C165.5 201.52 167.291 203.311 169.5 203.311C171.709 203.311 173.5 201.52 173.5 199.311V168.414H165.5V199.311Z" fill="#998DEA"/>
<path d="M109.5 199.311C109.5 201.52 111.291 203.311 113.5 203.311C115.709 203.311 117.5 201.52 117.5 199.311V168.414H109.5V199.311Z" fill="#998DEA"/>
<path d="M221.5 188.735C221.5 190.944 223.291 192.735 225.5 192.735C227.709 192.735 229.5 190.944 229.5 188.735V168.414H221.5V188.735Z" fill="#998DEA"/>
<path d="M277.5 237.379C277.5 239.588 279.291 241.379 281.5 241.379C283.709 241.379 285.5 239.588 285.5 237.379V167.356H277.5V237.379Z" fill="#998DEA"/>
<path d="M333.5 208.828C333.5 211.037 335.291 212.828 337.5 212.828C339.709 212.828 341.5 211.037 341.5 208.828V168.414H333.5V208.828Z" fill="#998DEA"/>
<path d="M389.5 188.735C389.5 190.944 391.291 192.735 393.5 192.735C395.709 192.735 397.5 190.944 397.5 188.735V168.414H389.5V188.735Z" fill="#998DEA"/>
<path d="M445.5 202.482C445.5 204.692 447.291 206.482 449.5 206.482C451.709 206.482 453.5 204.692 453.5 202.482V167.356H445.5V202.482Z" fill="#998DEA"/>
<path d="M501.5 196.138C501.5 198.347 503.291 200.138 505.5 200.138C507.709 200.138 509.5 198.347 509.5 196.138V167.356H501.5V196.138Z" fill="#998DEA"/>
<path d="M557.5 208.828C557.5 211.037 559.291 212.828 561.5 212.828C563.709 212.828 565.5 211.037 565.5 208.828V167.357H557.5V208.828Z" fill="#998DEA"/>
<path d="M109.5 120.598C109.5 118.389 111.291 116.598 113.5 116.598C115.709 116.598 117.5 118.389 117.5 120.598V157.839H109.5V120.598Z" fill="#FF8DB4"/>
<path d="M165.5 84.6436C165.5 82.4344 167.291 80.6436 169.5 80.6436C171.709 80.6436 173.5 82.4344 173.5 84.6436V158.896H165.5V84.6436Z" fill="#FF8DB4"/>
<path d="M221 55C221 52.7909 222.791 51 225 51C227.209 51 229 52.7909 229 55V156H221V55Z" fill="#FF8DB4"/>
<path d="M277 77C277 74.7909 278.791 73 281 73C283.209 73 285 74.7909 285 77V157H277V77Z" fill="#FF8DB4"/>
<path d="M333.5 116.368C333.5 114.159 335.291 112.368 337.5 112.368C339.709 112.368 341.5 114.159 341.5 116.368V158.897H333.5V116.368Z" fill="#FF8DB4"/>
<path d="M389.5 135.402C389.5 133.193 391.291 131.402 393.5 131.402C395.709 131.402 397.5 133.193 397.5 135.402V156.782H389.5V135.402Z" fill="#FF8DB4"/>
<path d="M445.5 86.7588C445.5 84.5497 447.291 82.7588 449.5 82.7588C451.709 82.7588 453.5 84.5497 453.5 86.7588V158.897H445.5V86.7588Z" fill="#FF8DB4"/>
<path d="M501.5 63.4941C501.5 61.285 503.291 59.4941 505.5 59.4941C507.709 59.4941 509.5 61.285 509.5 63.4941V156.781H501.5V63.4941Z" fill="#FF8DB4"/>
<path d="M557.5 126.942C557.5 124.733 559.291 122.942 561.5 122.942C563.709 122.942 565.5 124.733 565.5 126.942V155.724H557.5V126.942Z" fill="#FF8DB4"/>
</svg>
