<svg width="431" height="324" viewBox="0 0 431 324" fill="none" xmlns="http://www.w3.org/2000/svg">
<path d="M150.783 309.132C150.233 309.132 149.749 309.018 149.331 308.791C148.913 308.564 148.616 308.237 148.44 307.812L149.089 307.427C149.331 308.065 149.896 308.384 150.783 308.384C151.333 308.384 151.762 308.252 152.07 307.988C152.385 307.724 152.543 307.335 152.543 306.822V301.3H153.313V306.822C153.313 307.57 153.071 308.142 152.587 308.538C152.11 308.934 151.509 309.132 150.783 309.132ZM158.722 306.382V303.5H159.448V309H158.722V308.142C158.311 308.802 157.695 309.132 156.874 309.132C156.214 309.132 155.69 308.93 155.301 308.527C154.912 308.116 154.718 307.566 154.718 306.877V303.5H155.444V306.877C155.444 307.368 155.572 307.75 155.829 308.021C156.093 308.292 156.463 308.428 156.94 308.428C157.49 308.428 157.923 308.256 158.238 307.911C158.561 307.566 158.722 307.057 158.722 306.382ZM163.558 303.368C164.218 303.368 164.742 303.573 165.131 303.984C165.52 304.387 165.714 304.934 165.714 305.623V309H164.988V305.623C164.988 305.132 164.856 304.75 164.592 304.479C164.335 304.208 163.969 304.072 163.492 304.072C162.942 304.072 162.506 304.244 162.183 304.589C161.868 304.934 161.71 305.443 161.71 306.118V309H160.984V303.5H161.71V304.358C162.121 303.698 162.737 303.368 163.558 303.368ZM169.659 303.368C170.48 303.368 171.136 303.658 171.628 304.237C172.134 304.809 172.387 305.487 172.387 306.272C172.387 306.309 172.379 306.422 172.365 306.613H167.536C167.609 307.163 167.844 307.603 168.24 307.933C168.636 308.263 169.131 308.428 169.725 308.428C170.561 308.428 171.151 308.116 171.496 307.493L172.134 307.867C171.892 308.263 171.558 308.575 171.133 308.802C170.715 309.022 170.242 309.132 169.714 309.132C168.848 309.132 168.144 308.861 167.602 308.318C167.059 307.775 166.788 307.086 166.788 306.25C166.788 305.421 167.055 304.736 167.591 304.193C168.126 303.643 168.815 303.368 169.659 303.368ZM169.659 304.072C169.087 304.072 168.606 304.241 168.218 304.578C167.836 304.915 167.609 305.359 167.536 305.909H171.639C171.558 305.322 171.334 304.871 170.968 304.556C170.586 304.233 170.15 304.072 169.659 304.072Z" fill="black"/>
<path d="M71.963 302.3H72.92V310H72.15V303.466L69.455 307.976H69.345L66.65 303.466V310H65.88V302.3H66.837L69.4 306.59L71.963 302.3ZM79.2979 305.578V304.5H80.0239V310H79.2979V308.922C78.7919 309.729 78.0512 310.132 77.0759 310.132C76.2912 310.132 75.6202 309.853 75.0629 309.296C74.5129 308.739 74.2379 308.057 74.2379 307.25C74.2379 306.443 74.5129 305.761 75.0629 305.204C75.6202 304.647 76.2912 304.368 77.0759 304.368C78.0512 304.368 78.7919 304.771 79.2979 305.578ZM75.5909 308.801C76.0089 309.219 76.5222 309.428 77.1309 309.428C77.7395 309.428 78.2529 309.219 78.6709 308.801C79.0889 308.368 79.2979 307.851 79.2979 307.25C79.2979 306.641 79.0889 306.128 78.6709 305.71C78.2529 305.285 77.7395 305.072 77.1309 305.072C76.5222 305.072 76.0089 305.285 75.5909 305.71C75.1729 306.128 74.9639 306.641 74.9639 307.25C74.9639 307.851 75.1729 308.368 75.5909 308.801ZM83.739 309.109L85.521 304.5H86.291L83.937 310.506C83.717 311.063 83.409 311.492 83.013 311.793C82.6243 312.101 82.1917 312.237 81.715 312.2V311.518C82.375 311.599 82.8773 311.217 83.222 310.374L83.365 310.033L80.901 304.5H81.671L83.739 309.109Z" fill="black"/>
<path d="M247.783 309.132C247.233 309.132 246.749 309.018 246.331 308.791C245.913 308.564 245.616 308.237 245.44 307.812L246.089 307.427C246.331 308.065 246.896 308.384 247.783 308.384C248.333 308.384 248.762 308.252 249.07 307.988C249.385 307.724 249.543 307.335 249.543 306.822V301.3H250.313V306.822C250.313 307.57 250.071 308.142 249.587 308.538C249.11 308.934 248.509 309.132 247.783 309.132ZM255.722 306.382V303.5H256.448V309H255.722V308.142C255.311 308.802 254.695 309.132 253.874 309.132C253.214 309.132 252.69 308.93 252.301 308.527C251.912 308.116 251.718 307.566 251.718 306.877V303.5H252.444V306.877C252.444 307.368 252.572 307.75 252.829 308.021C253.093 308.292 253.463 308.428 253.94 308.428C254.49 308.428 254.923 308.256 255.238 307.911C255.561 307.566 255.722 307.057 255.722 306.382ZM258.71 309H257.984V300.97H258.71V309ZM262.428 308.109L264.21 303.5H264.98L262.626 309.506C262.406 310.063 262.098 310.492 261.702 310.793C261.314 311.101 260.881 311.237 260.404 311.2V310.518C261.064 310.599 261.567 310.217 261.911 309.374L262.054 309.033L259.59 303.5H260.36L262.428 308.109Z" fill="black"/>
<path d="M354.315 309H352.665L352.203 307.614H349.134L348.672 309H347.033L349.728 301.3H351.609L354.315 309ZM350.674 303.049L349.618 306.195H351.73L350.674 303.049ZM358.573 306.47V303.5H359.992V309H358.573V308.384C358.236 308.897 357.689 309.154 356.934 309.154C356.333 309.154 355.834 308.952 355.438 308.549C355.049 308.138 354.855 307.581 354.855 306.877V303.5H356.274V306.701C356.274 307.06 356.369 307.339 356.56 307.537C356.758 307.735 357.026 307.834 357.363 307.834C357.737 307.834 358.03 307.72 358.243 307.493C358.463 307.258 358.573 306.917 358.573 306.47ZM365.505 304.182V303.5H366.891V308.736C366.891 309.579 366.608 310.228 366.044 310.683C365.486 311.13 364.812 311.354 364.02 311.354C362.773 311.354 361.904 310.907 361.413 310.012L362.623 309.319C362.894 309.832 363.374 310.089 364.064 310.089C364.511 310.089 364.863 309.972 365.12 309.737C365.376 309.502 365.505 309.169 365.505 308.736V308.142C365.087 308.699 364.5 308.978 363.745 308.978C362.967 308.978 362.315 308.707 361.787 308.164C361.266 307.607 361.006 306.939 361.006 306.162C361.006 305.385 361.27 304.721 361.798 304.171C362.326 303.621 362.975 303.346 363.745 303.346C364.5 303.346 365.087 303.625 365.505 304.182ZM365.065 307.251C365.358 306.965 365.505 306.602 365.505 306.162C365.505 305.722 365.358 305.366 365.065 305.095C364.779 304.809 364.412 304.666 363.965 304.666C363.525 304.666 363.154 304.809 362.854 305.095C362.568 305.366 362.425 305.722 362.425 306.162C362.425 306.602 362.568 306.965 362.854 307.251C363.147 307.53 363.517 307.669 363.965 307.669C364.412 307.669 364.779 307.53 365.065 307.251Z" fill="black"/>
<path d="M412.82 222H412.006L411.291 220.108H407.639L406.924 222H406.11L409.069 214.3H409.861L412.82 222ZM409.465 215.257L407.914 219.382H411.016L409.465 215.257ZM415.519 221.241L417.444 216.5H418.214L415.959 222H415.079L412.824 216.5H413.594L415.519 221.241ZM423.606 217.578V216.5H424.332V221.78C424.332 222.572 424.061 223.195 423.518 223.65C422.976 224.105 422.327 224.332 421.571 224.332C420.288 224.332 419.419 223.885 418.964 222.99L419.602 222.627C419.932 223.294 420.589 223.628 421.571 223.628C422.202 223.628 422.697 223.463 423.056 223.133C423.423 222.803 423.606 222.352 423.606 221.78V220.922C423.1 221.729 422.36 222.132 421.384 222.132C420.6 222.132 419.929 221.853 419.371 221.296C418.821 220.739 418.546 220.057 418.546 219.25C418.546 218.443 418.821 217.761 419.371 217.204C419.929 216.647 420.6 216.368 421.384 216.368C422.36 216.368 423.1 216.771 423.606 217.578ZM419.899 220.801C420.317 221.219 420.831 221.428 421.439 221.428C422.048 221.428 422.561 221.219 422.979 220.801C423.397 220.368 423.606 219.851 423.606 219.25C423.606 218.641 423.397 218.128 422.979 217.71C422.561 217.285 422.048 217.072 421.439 217.072C420.831 217.072 420.317 217.285 419.899 217.71C419.481 218.128 419.272 218.641 419.272 219.25C419.272 219.851 419.481 220.368 419.899 220.801Z" fill="black"/>
<line x1="39.5" y1="324" x2="39.5" y2="2.18557e-08" stroke="#ECECEC"/>
<path d="M14.617 249.402H15.915C16.641 249.402 17.2497 249.615 17.741 250.04C18.247 250.458 18.5 251.034 18.5 251.767C18.5 252.493 18.247 253.072 17.741 253.505C17.2497 253.923 16.641 254.132 15.915 254.132C15.321 254.132 14.7967 253.989 14.342 253.703C13.8947 253.41 13.594 253.006 13.44 252.493L14.089 252.119C14.199 252.522 14.4153 252.834 14.738 253.054C15.0607 253.274 15.453 253.384 15.915 253.384C16.4577 253.384 16.894 253.241 17.224 252.955C17.5613 252.662 17.73 252.266 17.73 251.767C17.73 251.268 17.5613 250.876 17.224 250.59C16.894 250.297 16.4577 250.15 15.915 250.15H13.825L14.1 246.3H18.225V247.026H14.782L14.617 249.402ZM24.3356 253.054C23.8296 253.773 23.1146 254.132 22.1906 254.132C21.2739 254.132 20.5553 253.773 20.0346 253.054C19.5286 252.328 19.2756 251.36 19.2756 250.15C19.2756 248.933 19.5286 247.968 20.0346 247.257C20.5553 246.531 21.2739 246.168 22.1906 246.168C23.1146 246.168 23.8296 246.531 24.3356 247.257C24.8489 247.968 25.1056 248.933 25.1056 250.15C25.1056 251.367 24.8489 252.335 24.3356 253.054ZM20.6066 252.537C20.9953 253.102 21.5233 253.384 22.1906 253.384C22.8653 253.384 23.3896 253.102 23.7636 252.537C24.1449 251.98 24.3356 251.184 24.3356 250.15C24.3356 249.116 24.1449 248.32 23.7636 247.763C23.3896 247.198 22.8653 246.916 22.1906 246.916C21.5233 246.916 20.9953 247.198 20.6066 247.763C20.2326 248.328 20.0456 249.123 20.0456 250.15C20.0456 251.177 20.2326 251.972 20.6066 252.537Z" fill="black"/>
<path d="M161.115 255.734H162.105V256.46H161.115V258H160.345V256.46H156.275V255.734L159.135 250.3H159.982L157.122 255.734H160.345V253.38H161.115V255.734ZM163.998 253.402H165.296C166.022 253.402 166.631 253.615 167.122 254.04C167.628 254.458 167.881 255.034 167.881 255.767C167.881 256.493 167.628 257.072 167.122 257.505C166.631 257.923 166.022 258.132 165.296 258.132C164.702 258.132 164.178 257.989 163.723 257.703C163.276 257.41 162.975 257.006 162.821 256.493L163.47 256.119C163.58 256.522 163.796 256.834 164.119 257.054C164.442 257.274 164.834 257.384 165.296 257.384C165.839 257.384 166.275 257.241 166.605 256.955C166.942 256.662 167.111 256.266 167.111 255.767C167.111 255.268 166.942 254.876 166.605 254.59C166.275 254.297 165.839 254.15 165.296 254.15H163.206L163.481 250.3H167.606V251.026H164.163L163.998 253.402Z" fill="black"/>
<path d="M74.5 205.709C74.5 206.288 74.3423 206.802 74.027 207.249L71.508 211H70.639L72.531 208.184C72.333 208.228 72.1277 208.25 71.915 208.25C71.1523 208.25 70.5327 208.015 70.056 207.546C69.572 207.077 69.33 206.464 69.33 205.709C69.33 204.968 69.572 204.36 70.056 203.883C70.5473 203.406 71.167 203.168 71.915 203.168C72.663 203.168 73.2827 203.406 73.774 203.883C74.258 204.36 74.5 204.968 74.5 205.709ZM70.595 204.411C70.265 204.741 70.1 205.174 70.1 205.709C70.1 206.244 70.265 206.677 70.595 207.007C70.9397 207.337 71.3797 207.502 71.915 207.502C72.4577 207.502 72.894 207.337 73.224 207.007C73.5613 206.677 73.73 206.244 73.73 205.709C73.73 205.174 73.5613 204.741 73.224 204.411C72.894 204.081 72.4577 203.916 71.915 203.916C71.3797 203.916 70.9397 204.081 70.595 204.411ZM80.333 205.709C80.333 206.288 80.1753 206.802 79.86 207.249L77.341 211H76.472L78.364 208.184C78.166 208.228 77.9607 208.25 77.748 208.25C76.9853 208.25 76.3657 208.015 75.889 207.546C75.405 207.077 75.163 206.464 75.163 205.709C75.163 204.968 75.405 204.36 75.889 203.883C76.3803 203.406 77 203.168 77.748 203.168C78.496 203.168 79.1157 203.406 79.607 203.883C80.091 204.36 80.333 204.968 80.333 205.709ZM76.428 204.411C76.098 204.741 75.933 205.174 75.933 205.709C75.933 206.244 76.098 206.677 76.428 207.007C76.7727 207.337 77.2127 207.502 77.748 207.502C78.2907 207.502 78.727 207.337 79.057 207.007C79.3943 206.677 79.563 206.244 79.563 205.709C79.563 205.174 79.3943 204.741 79.057 204.411C78.727 204.081 78.2907 203.916 77.748 203.916C77.2127 203.916 76.7727 204.081 76.428 204.411Z" fill="black"/>
<path d="M252.335 49H247.44V48.307L250.212 45.513C251.004 44.721 251.4 44.0427 251.4 43.478C251.4 43.0013 251.25 42.6237 250.949 42.345C250.656 42.059 250.289 41.916 249.849 41.916C249.064 41.916 248.489 42.279 248.122 43.005L247.473 42.62C247.708 42.1507 248.034 41.7913 248.452 41.542C248.87 41.2927 249.336 41.168 249.849 41.168C250.465 41.168 251.004 41.377 251.466 41.795C251.935 42.1983 252.17 42.7593 252.17 43.478C252.17 43.9033 252.053 44.3213 251.818 44.732C251.583 45.1353 251.224 45.579 250.74 46.063L248.54 48.252H252.335V49ZM254.343 44.402H255.641C256.367 44.402 256.975 44.6147 257.467 45.04C257.973 45.458 258.226 46.0337 258.226 46.767C258.226 47.493 257.973 48.0723 257.467 48.505C256.975 48.923 256.367 49.132 255.641 49.132C255.047 49.132 254.522 48.989 254.068 48.703C253.62 48.4097 253.32 48.0063 253.166 47.493L253.815 47.119C253.925 47.5223 254.141 47.834 254.464 48.054C254.786 48.274 255.179 48.384 255.641 48.384C256.183 48.384 256.62 48.241 256.95 47.955C257.287 47.6617 257.456 47.2657 257.456 46.767C257.456 46.2683 257.287 45.876 256.95 45.59C256.62 45.2967 256.183 45.15 255.641 45.15H253.551L253.826 41.3H257.951V42.026H254.508L254.343 44.402ZM260.068 44.402H261.366C262.092 44.402 262.701 44.6147 263.192 45.04C263.698 45.458 263.951 46.0337 263.951 46.767C263.951 47.493 263.698 48.0723 263.192 48.505C262.701 48.923 262.092 49.132 261.366 49.132C260.772 49.132 260.248 48.989 259.793 48.703C259.346 48.4097 259.045 48.0063 258.891 47.493L259.54 47.119C259.65 47.5223 259.867 47.834 260.189 48.054C260.512 48.274 260.904 48.384 261.366 48.384C261.909 48.384 262.345 48.241 262.675 47.955C263.013 47.6617 263.181 47.2657 263.181 46.767C263.181 46.2683 263.013 45.876 262.675 45.59C262.345 45.2967 261.909 45.15 261.366 45.15H259.276L259.551 41.3H263.676V42.026H260.233L260.068 44.402Z" fill="black"/>
<path d="M349.143 131.015L351.167 130.3H352.267V138H351.002V131.653L349.451 132.093L349.143 131.015ZM355.15 133.204H356.118C356.851 133.204 357.471 133.424 357.977 133.864C358.483 134.297 358.736 134.898 358.736 135.668C358.736 136.438 358.475 137.043 357.955 137.483C357.441 137.923 356.803 138.143 356.041 138.143C355.417 138.143 354.875 138 354.413 137.714C353.951 137.428 353.621 137.021 353.423 136.493L354.512 135.866C354.724 136.563 355.234 136.911 356.041 136.911C356.473 136.911 356.818 136.801 357.075 136.581C357.339 136.354 357.471 136.049 357.471 135.668C357.471 135.294 357.342 134.997 357.086 134.777C356.829 134.55 356.488 134.436 356.063 134.436H353.819L354.116 130.3H358.406V131.488H355.282L355.15 133.204ZM364.602 137.054C364.074 137.78 363.333 138.143 362.38 138.143C361.434 138.143 360.69 137.78 360.147 137.054C359.619 136.328 359.355 135.36 359.355 134.15C359.355 132.94 359.619 131.972 360.147 131.246C360.69 130.52 361.434 130.157 362.38 130.157C363.333 130.157 364.074 130.52 364.602 131.246C365.137 131.965 365.405 132.933 365.405 134.15C365.405 135.367 365.137 136.335 364.602 137.054ZM362.38 136.911C362.952 136.911 363.388 136.673 363.689 136.196C363.99 135.719 364.14 135.037 364.14 134.15C364.14 133.263 363.99 132.581 363.689 132.104C363.388 131.627 362.952 131.389 362.38 131.389C361.815 131.389 361.379 131.627 361.071 132.104C360.77 132.581 360.62 133.263 360.62 134.15C360.62 135.037 360.77 135.719 361.071 136.196C361.379 136.673 361.815 136.911 362.38 136.911Z" fill="black"/>
<path d="M8.165 205.004L10.2 204.3H10.86V212H10.09V205.147L8.363 205.664L8.165 205.004ZM17.3483 211.054C16.8423 211.773 16.1273 212.132 15.2033 212.132C14.2866 212.132 13.5679 211.773 13.0473 211.054C12.5413 210.328 12.2883 209.36 12.2883 208.15C12.2883 206.933 12.5413 205.968 13.0473 205.257C13.5679 204.531 14.2866 204.168 15.2033 204.168C16.1273 204.168 16.8423 204.531 17.3483 205.257C17.8616 205.968 18.1183 206.933 18.1183 208.15C18.1183 209.367 17.8616 210.335 17.3483 211.054ZM13.6193 210.537C14.0079 211.102 14.5359 211.384 15.2033 211.384C15.8779 211.384 16.4023 211.102 16.7763 210.537C17.1576 209.98 17.3483 209.184 17.3483 208.15C17.3483 207.116 17.1576 206.32 16.7763 205.763C16.4023 205.198 15.8779 204.916 15.2033 204.916C14.5359 204.916 14.0079 205.198 13.6193 205.763C13.2453 206.328 13.0583 207.123 13.0583 208.15C13.0583 209.177 13.2453 209.972 13.6193 210.537ZM24.277 211.054C23.771 211.773 23.056 212.132 22.132 212.132C21.2153 212.132 20.4967 211.773 19.976 211.054C19.47 210.328 19.217 209.36 19.217 208.15C19.217 206.933 19.47 205.968 19.976 205.257C20.4967 204.531 21.2153 204.168 22.132 204.168C23.056 204.168 23.771 204.531 24.277 205.257C24.7903 205.968 25.047 206.933 25.047 208.15C25.047 209.367 24.7903 210.335 24.277 211.054ZM20.548 210.537C20.9367 211.102 21.4647 211.384 22.132 211.384C22.8067 211.384 23.331 211.102 23.705 210.537C24.0863 209.98 24.277 209.184 24.277 208.15C24.277 207.116 24.0863 206.32 23.705 205.763C23.331 205.198 22.8067 204.916 22.132 204.916C21.4647 204.916 20.9367 205.198 20.548 205.763C20.174 206.328 19.987 207.123 19.987 208.15C19.987 209.177 20.174 209.972 20.548 210.537Z" fill="black"/>
<path d="M8.165 163.004L10.2 162.3H10.86V170H10.09V163.147L8.363 163.664L8.165 163.004ZM13.3553 165.402H14.6533C15.3793 165.402 15.9879 165.615 16.4793 166.04C16.9853 166.458 17.2383 167.034 17.2383 167.767C17.2383 168.493 16.9853 169.072 16.4793 169.505C15.9879 169.923 15.3793 170.132 14.6533 170.132C14.0593 170.132 13.5349 169.989 13.0803 169.703C12.6329 169.41 12.3323 169.006 12.1783 168.493L12.8273 168.119C12.9373 168.522 13.1536 168.834 13.4763 169.054C13.7989 169.274 14.1913 169.384 14.6533 169.384C15.1959 169.384 15.6323 169.241 15.9623 168.955C16.2996 168.662 16.4683 168.266 16.4683 167.767C16.4683 167.268 16.2996 166.876 15.9623 166.59C15.6323 166.297 15.1959 166.15 14.6533 166.15H12.5633L12.8383 162.3H16.9633V163.026H13.5203L13.3553 165.402ZM23.0739 169.054C22.5679 169.773 21.8529 170.132 20.9289 170.132C20.0122 170.132 19.2935 169.773 18.7729 169.054C18.2669 168.328 18.0139 167.36 18.0139 166.15C18.0139 164.933 18.2669 163.968 18.7729 163.257C19.2935 162.531 20.0122 162.168 20.9289 162.168C21.8529 162.168 22.5679 162.531 23.0739 163.257C23.5872 163.968 23.8439 164.933 23.8439 166.15C23.8439 167.367 23.5872 168.335 23.0739 169.054ZM19.3449 168.537C19.7335 169.102 20.2615 169.384 20.9289 169.384C21.6035 169.384 22.1279 169.102 22.5019 168.537C22.8832 167.98 23.0739 167.184 23.0739 166.15C23.0739 165.116 22.8832 164.32 22.5019 163.763C22.1279 163.198 21.6035 162.916 20.9289 162.916C20.2615 162.916 19.7335 163.198 19.3449 163.763C18.9709 164.328 18.7839 165.123 18.7839 166.15C18.7839 167.177 18.9709 167.972 19.3449 168.537Z" fill="black"/>
<path d="M11.335 128H6.44V127.307L9.212 124.513C10.004 123.721 10.4 123.043 10.4 122.478C10.4 122.001 10.2497 121.624 9.949 121.345C9.65567 121.059 9.289 120.916 8.849 120.916C8.06433 120.916 7.48867 121.279 7.122 122.005L6.473 121.62C6.70767 121.151 7.034 120.791 7.452 120.542C7.87 120.293 8.33567 120.168 8.849 120.168C9.465 120.168 10.004 120.377 10.466 120.795C10.9353 121.198 11.17 121.759 11.17 122.478C11.17 122.903 11.0527 123.321 10.818 123.732C10.5833 124.135 10.224 124.579 9.74 125.063L7.54 127.252H11.335V128ZM17.2819 127.054C16.7759 127.773 16.0609 128.132 15.1369 128.132C14.2202 128.132 13.5015 127.773 12.9809 127.054C12.4749 126.328 12.2219 125.36 12.2219 124.15C12.2219 122.933 12.4749 121.968 12.9809 121.257C13.5015 120.531 14.2202 120.168 15.1369 120.168C16.0609 120.168 16.7759 120.531 17.2819 121.257C17.7952 121.968 18.0519 122.933 18.0519 124.15C18.0519 125.367 17.7952 126.335 17.2819 127.054ZM13.5529 126.537C13.9415 127.102 14.4695 127.384 15.1369 127.384C15.8115 127.384 16.3359 127.102 16.7099 126.537C17.0912 125.98 17.2819 125.184 17.2819 124.15C17.2819 123.116 17.0912 122.32 16.7099 121.763C16.3359 121.198 15.8115 120.916 15.1369 120.916C14.4695 120.916 13.9415 121.198 13.5529 121.763C13.1789 122.328 12.9919 123.123 12.9919 124.15C12.9919 125.177 13.1789 125.972 13.5529 126.537ZM24.2106 127.054C23.7046 127.773 22.9896 128.132 22.0656 128.132C21.1489 128.132 20.4303 127.773 19.9096 127.054C19.4036 126.328 19.1506 125.36 19.1506 124.15C19.1506 122.933 19.4036 121.968 19.9096 121.257C20.4303 120.531 21.1489 120.168 22.0656 120.168C22.9896 120.168 23.7046 120.531 24.2106 121.257C24.7239 121.968 24.9806 122.933 24.9806 124.15C24.9806 125.367 24.7239 126.335 24.2106 127.054ZM20.4816 126.537C20.8703 127.102 21.3983 127.384 22.0656 127.384C22.7403 127.384 23.2646 127.102 23.6386 126.537C24.0199 125.98 24.2106 125.184 24.2106 124.15C24.2106 123.116 24.0199 122.32 23.6386 121.763C23.2646 121.198 22.7403 120.916 22.0656 120.916C21.3983 120.916 20.8703 121.198 20.4816 121.763C20.1076 122.328 19.9206 123.123 19.9206 124.15C19.9206 125.177 20.1076 125.972 20.4816 126.537Z" fill="black"/>
<path d="M11.335 86H6.44V85.307L9.212 82.513C10.004 81.721 10.4 81.0427 10.4 80.478C10.4 80.0013 10.2497 79.6237 9.949 79.345C9.65567 79.059 9.289 78.916 8.849 78.916C8.06433 78.916 7.48867 79.279 7.122 80.005L6.473 79.62C6.70767 79.1507 7.034 78.7913 7.452 78.542C7.87 78.2927 8.33567 78.168 8.849 78.168C9.465 78.168 10.004 78.377 10.466 78.795C10.9353 79.1983 11.17 79.7593 11.17 80.478C11.17 80.9033 11.0527 81.3213 10.818 81.732C10.5833 82.1353 10.224 82.579 9.74 83.063L7.54 85.252H11.335V86ZM13.3426 81.402H14.6406C15.3666 81.402 15.9753 81.6147 16.4666 82.04C16.9726 82.458 17.2256 83.0337 17.2256 83.767C17.2256 84.493 16.9726 85.0723 16.4666 85.505C15.9753 85.923 15.3666 86.132 14.6406 86.132C14.0466 86.132 13.5223 85.989 13.0676 85.703C12.6203 85.4097 12.3196 85.0063 12.1656 84.493L12.8146 84.119C12.9246 84.5223 13.1409 84.834 13.4636 85.054C13.7863 85.274 14.1786 85.384 14.6406 85.384C15.1833 85.384 15.6196 85.241 15.9496 84.955C16.2869 84.6617 16.4556 84.2657 16.4556 83.767C16.4556 83.2683 16.2869 82.876 15.9496 82.59C15.6196 82.2967 15.1833 82.15 14.6406 82.15H12.5506L12.8256 78.3H16.9506V79.026H13.5076L13.3426 81.402ZM23.0612 85.054C22.5552 85.7727 21.8402 86.132 20.9162 86.132C19.9995 86.132 19.2808 85.7727 18.7602 85.054C18.2542 84.328 18.0012 83.36 18.0012 82.15C18.0012 80.9327 18.2542 79.9683 18.7602 79.257C19.2808 78.531 19.9995 78.168 20.9162 78.168C21.8402 78.168 22.5552 78.531 23.0612 79.257C23.5745 79.9683 23.8312 80.9327 23.8312 82.15C23.8312 83.3673 23.5745 84.3353 23.0612 85.054ZM19.3322 84.537C19.7208 85.1017 20.2488 85.384 20.9162 85.384C21.5908 85.384 22.1152 85.1017 22.4892 84.537C22.8705 83.9797 23.0612 83.184 23.0612 82.15C23.0612 81.116 22.8705 80.3203 22.4892 79.763C22.1152 79.1983 21.5908 78.916 20.9162 78.916C20.2488 78.916 19.7208 79.1983 19.3322 79.763C18.9582 80.3277 18.7712 81.1233 18.7712 82.15C18.7712 83.1767 18.9582 83.9723 19.3322 84.537Z" fill="black"/>
<path d="M11.06 37.026L9.267 39.501C9.87567 39.5743 10.3817 39.8127 10.785 40.216C11.1883 40.5973 11.39 41.1143 11.39 41.767C11.39 42.493 11.137 43.0723 10.631 43.505C10.1397 43.923 9.531 44.132 8.805 44.132C8.22567 44.132 7.71233 44 7.265 43.736C6.81767 43.4647 6.506 43.087 6.33 42.603L6.968 42.229C7.09267 42.603 7.31267 42.889 7.628 43.087C7.95067 43.285 8.343 43.384 8.805 43.384C9.34767 43.384 9.784 43.241 10.114 42.955C10.4513 42.6617 10.62 42.2657 10.62 41.767C10.62 41.2683 10.4513 40.876 10.114 40.59C9.784 40.2967 9.34767 40.15 8.805 40.15V40.139L8.794 40.15H8.585L8.255 39.644L10.169 37.026H6.55V36.3H11.06V37.026ZM17.443 43.054C16.937 43.7727 16.222 44.132 15.298 44.132C14.3813 44.132 13.6627 43.7727 13.142 43.054C12.636 42.328 12.383 41.36 12.383 40.15C12.383 38.9327 12.636 37.9683 13.142 37.257C13.6627 36.531 14.3813 36.168 15.298 36.168C16.222 36.168 16.937 36.531 17.443 37.257C17.9563 37.9683 18.213 38.9327 18.213 40.15C18.213 41.3673 17.9563 42.3353 17.443 43.054ZM13.714 42.537C14.1027 43.1017 14.6307 43.384 15.298 43.384C15.9727 43.384 16.497 43.1017 16.871 42.537C17.2523 41.9797 17.443 41.184 17.443 40.15C17.443 39.116 17.2523 38.3203 16.871 37.763C16.497 37.1983 15.9727 36.916 15.298 36.916C14.6307 36.916 14.1027 37.1983 13.714 37.763C13.34 38.3277 13.153 39.1233 13.153 40.15C13.153 41.1767 13.34 41.9723 13.714 42.537ZM24.3717 43.054C23.8657 43.7727 23.1507 44.132 22.2267 44.132C21.3101 44.132 20.5914 43.7727 20.0707 43.054C19.5647 42.328 19.3117 41.36 19.3117 40.15C19.3117 38.9327 19.5647 37.9683 20.0707 37.257C20.5914 36.531 21.3101 36.168 22.2267 36.168C23.1507 36.168 23.8657 36.531 24.3717 37.257C24.8851 37.9683 25.1417 38.9327 25.1417 40.15C25.1417 41.3673 24.8851 42.3353 24.3717 43.054ZM20.6427 42.537C21.0314 43.1017 21.5594 43.384 22.2267 43.384C22.9014 43.384 23.4257 43.1017 23.7997 42.537C24.1811 41.9797 24.3717 41.184 24.3717 40.15C24.3717 39.116 24.1811 38.3203 23.7997 37.763C23.4257 37.1983 22.9014 36.916 22.2267 36.916C21.5594 36.916 21.0314 37.1983 20.6427 37.763C20.2687 38.3277 20.0817 39.1233 20.0817 40.15C20.0817 41.1767 20.2687 41.9723 20.6427 42.537Z" fill="black"/>
<path d="M151 271C151 269.343 152.343 268 154 268H173C174.657 268 176 269.343 176 271V295H151V271Z" fill="#17A1FA"/>
<path d="M65 221C65 219.343 66.3431 218 68 218H87C88.6569 218 90 219.343 90 221V295H65V221Z" fill="#17A1FA"/>
<path d="M244 61C244 59.3432 245.343 58 247 58H266C267.657 58 269 59.3431 269 61V294H244V61Z" fill="#17A1FA"/>
<path d="M345 148C345 146.343 346.343 145 348 145H367C368.657 145 370 146.343 370 148V295H345V148Z" fill="#17A1FA"/>
<line x1="-4.37114e-08" y1="294.5" x2="431" y2="294.5" stroke="#ECECEC"/>
<line x1="393" y1="218.539" x2="40.0001" y2="218.5" stroke="black"/>
</svg>
