
                                    <svg width="16" height="16" viewBox="0 0 16 16" fill="none" xmlns="http://www.w3.org/2000/svg">
                                        <g opacity="0.5">
                                        <g clip-path="url(#clip0_786_1291)">
                                        <path d="M8.59375 9.09375C8.85263 9.09375 9.0625 8.88387 9.0625 8.625V6.75C9.0625 6.49112 8.85263 6.28125 8.59375 6.28125C8.33487 6.28125 8.125 6.49112 8.125 6.75V8.625C8.125 8.88387 8.33487 9.09375 8.59375 9.09375Z" fill="black"/>
                                        <path d="M2.96875 9.09375C3.22763 9.09375 3.4375 8.88387 3.4375 8.625V6.75C3.4375 6.49112 3.22763 6.28125 2.96875 6.28125C2.70987 6.28125 2.5 6.49112 2.5 6.75V8.625C2.5 8.88387 2.70987 9.09375 2.96875 9.09375Z" fill="black"/>
                                        <path d="M15.9665 7.82591L15.1879 5.87953C14.8299 4.98456 13.9757 4.40625 13.0118 4.40625H12.875V3.46875H14.2812C14.5401 3.46875 14.75 3.25887 14.75 3C14.75 2.74113 14.5401 2.53125 14.2812 2.53125H9.21875C9.062 2.53125 8.91566 2.60956 8.82875 2.74L8.12569 3.79456C7.84006 3.34166 7.3805 3.00884 6.84156 2.89072C6.63891 1.62572 5.53994 0.65625 4.21875 0.65625C2.89756 0.65625 1.79859 1.62572 1.59597 2.89069C0.684375 3.0905 0 3.90434 0 4.875V7.6875C0 7.78003 0.027375 7.8705 0.0787188 7.9475L1.46788 10.0312H0.46875C0.209875 10.0312 0 10.2411 0 10.5V13.625C0 13.8839 0.209875 14.0938 0.46875 14.0938H1.67C1.928 14.8212 2.62272 15.3438 3.4375 15.3438C4.25228 15.3438 4.94697 14.8212 5.205 14.0938H10.795C11.053 14.8212 11.7477 15.3438 12.5625 15.3438C13.3773 15.3438 14.072 14.8212 14.33 14.0938H15.5312C15.7901 14.0938 16 13.8839 16 13.625V8C16 7.94037 15.9886 7.88128 15.9665 7.82591ZM12.875 5.34375H13.0118C13.5902 5.34375 14.1027 5.69075 14.3175 6.22775L14.8389 7.53125H12.875V5.34375ZM2.03125 3.78125C2.29012 3.78125 2.5 3.57137 2.5 3.3125C2.5 2.36478 3.27103 1.59375 4.21875 1.59375C5.16647 1.59375 5.9375 2.36478 5.9375 3.3125C5.9375 3.57137 6.14738 3.78125 6.40625 3.78125C6.84169 3.78125 7.21837 4.03706 7.39425 4.40625H1.04325C1.21912 4.03706 1.59581 3.78125 2.03125 3.78125ZM0.9375 7.54556V5.34375H7.96875V5.34344C8.12253 5.34344 8.27022 5.26784 8.35875 5.135L9.46959 3.46875H11.9375V4.40625H10.4688C10.2099 4.40625 10 4.61613 10 4.875V10.0312H2.59462L0.9375 7.54556ZM3.4375 14.4062C2.92056 14.4062 2.5 13.9857 2.5 13.4688C2.5 12.9518 2.92056 12.5312 3.4375 12.5312C3.95444 12.5312 4.375 12.9518 4.375 13.4688C4.375 13.9857 3.95444 14.4062 3.4375 14.4062ZM12.5625 14.4062C12.0456 14.4062 11.625 13.9857 11.625 13.4688C11.625 12.9518 12.0456 12.5312 12.5625 12.5312C13.0794 12.5312 13.5 12.9518 13.5 13.4688C13.5 13.9857 13.0794 14.4062 12.5625 14.4062ZM15.0625 13.1562H14.411C14.2617 12.2707 13.4899 11.5938 12.5625 11.5938C11.6351 11.5938 10.8633 12.2707 10.714 13.1562H5.28597C5.13669 12.2707 4.36487 11.5938 3.4375 11.5938C2.51012 11.5938 1.73831 12.2707 1.58903 13.1562H0.9375V10.9688H15.0625V13.1562ZM15.0625 10.0312H10.9375V5.34375H11.9375V8C11.9375 8.25887 12.1474 8.46875 12.4062 8.46875H15.0625V10.0312Z" fill="black"/>
                                        <path d="M6.71875 9.09375C6.97763 9.09375 7.1875 8.88387 7.1875 8.625V6.75C7.1875 6.49112 6.97763 6.28125 6.71875 6.28125C6.45987 6.28125 6.25 6.49112 6.25 6.75V8.625C6.25 8.88387 6.45987 9.09375 6.71875 9.09375Z" fill="black"/>
                                        <path d="M4.84375 9.09375C5.10263 9.09375 5.3125 8.88387 5.3125 8.625V6.75C5.3125 6.49112 5.10263 6.28125 4.84375 6.28125C4.58487 6.28125 4.375 6.49112 4.375 6.75V8.625C4.375 8.88387 4.58487 9.09375 4.84375 9.09375Z" fill="black"/>
                                        </g>
                                        </g>
                                        <defs>
                                        <clipPath id="clip0_786_1291">
                                        <rect width="16" height="16" fill="white"/>
                                        </clipPath>
                                        </defs>
                                        </svg>