<svg width="25" height="25" viewBox="0 0 25 25" fill="none" xmlns="http://www.w3.org/2000/svg">
<path d="M12.5 0C5.59875 0 0 5.59169 0 12.4934C0 19.4018 5.59875 25 12.5 25C19.405 25 24.999 19.4017 24.999 12.4934C24.9991 5.59169 19.405 0 12.5 0ZM13.3908 19.4488C13.1005 19.7071 12.764 19.837 12.3829 19.837C11.9885 19.837 11.6445 19.7095 11.3509 19.4539C11.0568 19.1989 10.9095 18.8417 10.9095 18.3829C10.9095 17.9759 11.0521 17.6333 11.3363 17.3557C11.6206 17.078 11.9692 16.9392 12.3829 16.9392C12.7899 16.9392 13.1325 17.078 13.4106 17.3557C13.6882 17.6333 13.8275 17.9758 13.8275 18.3829C13.827 18.8351 13.6816 19.1905 13.3908 19.4488ZM17.0108 10.4742C16.7878 10.8879 16.5228 11.2445 16.2156 11.5453C15.9092 11.8459 15.3582 12.3513 14.5629 13.0618C14.3436 13.2623 14.1672 13.4383 14.035 13.5898C13.9028 13.7418 13.8039 13.8806 13.7394 14.0067C13.6745 14.1328 13.6247 14.259 13.5893 14.385C13.554 14.5107 13.5009 14.7323 13.4289 15.049C13.3065 15.721 12.9221 16.0569 12.276 16.0569C11.94 16.0569 11.6577 15.9472 11.4276 15.7275C11.1984 15.5078 11.084 15.1817 11.084 14.7488C11.084 14.2062 11.1683 13.7361 11.3363 13.3385C11.5033 12.9409 11.7269 12.5922 12.0045 12.2915C12.2826 11.9908 12.6571 11.6341 13.1291 11.2205C13.5427 10.8586 13.8416 10.5857 14.0255 10.4017C14.21 10.2173 14.3648 10.0121 14.4905 9.78621C14.6171 9.55986 14.6792 9.3147 14.6792 9.0498C14.6792 8.53267 14.4877 8.09693 14.1028 7.74166C13.7183 7.38639 13.2223 7.2085 12.6148 7.2085C11.9038 7.2085 11.3806 7.38778 11.0446 7.74635C10.7086 8.10492 10.4249 8.63287 10.1919 9.33074C9.97169 10.0611 9.55477 10.4262 8.9416 10.4262C8.57973 10.4262 8.27436 10.2987 8.02544 10.0436C7.77697 9.78853 7.65274 9.51234 7.65274 9.21496C7.65274 8.60132 7.84991 7.97924 8.2438 7.34917C8.63814 6.71909 9.21316 6.19722 9.96932 5.78406C10.725 5.37044 11.6074 5.16336 12.6148 5.16336C13.5517 5.16336 14.3785 5.33651 15.0956 5.6824C15.8128 6.02778 16.3671 6.4979 16.7581 7.09266C17.1487 7.68695 17.3444 8.33306 17.3444 9.03092C17.3453 9.5792 17.2338 10.0606 17.0108 10.4742Z" fill="#68696D"/>
</svg>
