<svg width="23" height="17" viewBox="0 0 23 17" fill="none" xmlns="http://www.w3.org/2000/svg">
<rect x="4.79297" y="14.333" width="5.31034" height="2.66667" fill="#68696D"/>
<path d="M7.44824 14.3337C7.44824 9.26699 7.44824 5.33366 7.44824 4.00033M7.44824 4.00033L9.7241 1.66699L12 4.00033H20.7241H7.44824Z" stroke="#68696D" stroke-width="2"/>
<path d="M19.9658 4.66699V8.66699" stroke="#68696D"/>
<path d="M9.72414 1H4.7931V3.66667H6.68966H2.13793M2.13793 3.66667V1.66667H1V3.66667H2.13793ZM19.9655 8.66667L18.4483 10.3333H21.1034H21.4828L19.9655 8.66667Z" stroke="#68696D"/>
<rect x="13.8965" y="13.667" width="3.7931" height="3.33333" fill="#68696D"/>
<rect x="13.8965" y="13.667" width="3.7931" height="3.33333" fill="#68696D"/>
<rect x="13.8965" y="13.667" width="3.7931" height="3.33333" fill="#68696D"/>
<rect x="17.6895" y="11.667" width="5.31034" height="5.33333" fill="#68696D"/>
</svg>
