<svg width="15" height="15" viewBox="0 0 15 15" fill="none" xmlns="http://www.w3.org/2000/svg">
<g opacity="0.5">
<path d="M7.5 10.6641C5.10917 10.6641 3.16406 12.6092 3.16406 15H4.33594C4.33594 14.3389 4.53984 13.7247 4.88789 13.2166L6.25063 14.5793C6.2061 14.7115 6.18164 14.8528 6.18164 15H8.81836C8.81836 14.8528 8.7939 14.7115 8.74939 14.5793L10.1121 13.2165C10.4602 13.7247 10.6641 14.3389 10.6641 15H11.8359C11.8359 12.6092 9.89083 10.6641 7.5 10.6641ZM7.07927 13.7506L5.71652 12.3879C6.22468 12.0398 6.83895 11.8359 7.5 11.8359C8.16105 11.8359 8.77532 12.0398 9.28345 12.3879L7.9207 13.7506C7.78854 13.7061 7.64716 13.6816 7.5 13.6816C7.35284 13.6816 7.21146 13.7061 7.07927 13.7506ZM12.8033 9.69668C11.9864 8.87982 11.0141 8.27511 9.95329 7.90904C11.0895 7.12649 11.8359 5.81684 11.8359 4.33594C11.8359 1.94511 9.89083 0 7.5 0C5.10917 0 3.16406 1.94511 3.16406 4.33594C3.16406 5.81684 3.91052 7.12649 5.04674 7.90907C3.9859 8.27511 3.01359 8.87982 2.19671 9.69671C0.780147 11.1133 0 12.9967 0 15H1.17188C1.17188 11.5107 4.01065 8.67188 7.5 8.67188C10.9893 8.67188 13.8281 11.5107 13.8281 15H15C15 12.9967 14.2199 11.1133 12.8033 9.69668ZM4.33594 4.33594C4.33594 2.59128 5.75531 1.17188 7.5 1.17188C9.24469 1.17188 10.6641 2.59128 10.6641 4.33594C10.6641 6.0806 9.24469 7.5 7.5 7.5C5.75531 7.5 4.33594 6.0806 4.33594 4.33594Z" fill="black"/>
</g>
</svg>
