<svg width="20" height="20" viewBox="0 0 20 20" fill="none" xmlns="http://www.w3.org/2000/svg">
<g clip-path="url(#clip0_17341_10044)">
<path d="M16 18H4.35067C3.42689 18 3.35881 17.7366 3.35881 16.875V3.125C3.35881 2.26344 3.42689 2 4.35067 2H14.6493C15.5731 2 16.3247 2.26344 16.3247 3.125L16.1632 18.0219C16.1632 18.4534 17 18.5 17 18.5C17.4626 18.5 18 20.4315 18 20L18.1675 3.125C18.1675 1.40188 16.4969 0 14.6493 0H4.35067C2.50311 0 1 1.40188 1 3.125V16.875C1 18.5981 2.50311 20 4.35067 20H16C16.4626 20 17 19.4315 17 19C17 18.5685 16.4626 18 16 18Z" fill="white"/>
<path d="M5.17188 15H4.78125C4.34977 15 4 15.3498 4 15.7812C4 16.2127 4.34977 16.5625 4.78125 16.5625H5.17188C5.60336 16.5625 5.95312 16.2127 5.95312 15.7812C5.95312 15.3498 5.60336 15 5.17188 15Z" fill="white"/>
<path d="M12.7422 3H7.78125C7.34977 3 7 3.34977 7 3.78125C7 4.21273 7.34977 4.5625 7.78125 4.5625H12.7422C13.1737 4.5625 13.5234 4.21273 13.5234 3.78125C13.5234 3.34977 13.1737 3 12.7422 3Z" fill="white"/>
<path d="M11.1122 9.17805H10.3963C10.0462 9.17805 9.76139 8.88812 9.76139 8.53176V8.42617C9.76139 8.07641 10.0344 7.81266 10.3963 7.81266H11.0733C11.2723 7.81266 11.4781 7.94586 11.4781 8.16875C11.4781 8.60023 11.8278 8.95 12.2593 8.95C12.6908 8.95 13.0406 8.60023 13.0406 8.16875C13.0406 7.23246 12.3492 6.45117 11.4382 6.28379V5.78141C11.4382 5.34992 11.0885 5.00016 10.657 5.00016C10.2255 5.00016 9.87572 5.34992 9.87572 5.78141V6.31063C9.48908 6.40188 9.13486 6.59465 8.84764 6.87574C8.42928 7.28508 8.19889 7.83574 8.19889 8.42617V8.53176C8.19889 9.74969 9.18463 10.7405 10.3963 10.7405H11.1122C11.4647 10.7405 11.7515 11.0261 11.7515 11.3771V11.7482C11.7515 12.0878 11.4767 12.3439 11.1122 12.3439H9.94877C9.72854 12.3439 9.56244 12.1862 9.56244 11.9771C9.56244 11.5457 9.21268 11.1959 8.78119 11.1959C8.34971 11.1959 7.99994 11.5457 7.99994 11.9771C7.99994 12.5004 8.20502 12.9888 8.5774 13.3523C8.92615 13.6928 9.38483 13.8871 9.87572 13.9047V14.3361C9.87572 14.7676 10.2255 15.1173 10.657 15.1173C11.0885 15.1173 11.4382 14.7676 11.4382 14.3361V13.8836C12.5129 13.7335 13.314 12.8496 13.314 11.7482V11.3771C13.314 10.1645 12.3263 9.17805 11.1122 9.17805Z" fill="white"/>
<path d="M5.17188 3H4.78125C4.34977 3 4 3.34977 4 3.78125C4 4.21273 4.34977 4.5625 4.78125 4.5625H5.17188C5.60336 4.5625 5.95312 4.21273 5.95312 3.78125C5.95312 3.34977 5.60336 3 5.17188 3Z" fill="white"/>
<path d="M5.17188 12H4.78125C4.34977 12 4 12.3498 4 12.7812C4 13.2127 4.34977 13.5625 4.78125 13.5625H5.17188C5.60336 13.5625 5.95312 13.2127 5.95312 12.7812C5.95312 12.3498 5.60336 12 5.17188 12Z" fill="white"/>
<path d="M5.17188 9H4.78125C4.34977 9 4 9.34977 4 9.78125C4 10.2127 4.34977 10.5625 4.78125 10.5625H5.17188C5.60336 10.5625 5.95312 10.2127 5.95312 9.78125C5.95312 9.34977 5.60336 9 5.17188 9Z" fill="white"/>
<path d="M5.17188 6H4.78125C4.34977 6 4 6.34977 4 6.78125C4 7.21273 4.34977 7.5625 4.78125 7.5625H5.17188C5.60336 7.5625 5.95312 7.21273 5.95312 6.78125C5.95312 6.34977 5.60336 6 5.17188 6Z" fill="white"/>
</g>
<defs>
<clipPath id="clip0_17341_10044">
<rect width="20" height="20" fill="white"/>
</clipPath>
</defs>
</svg>
