<svg width="15" height="15" viewBox="0 0 15 15" fill="none" xmlns="http://www.w3.org/2000/svg">
<g clip-path="url(#clip0_17029_959)">
<path d="M11.875 0.625H3.125C2.46196 0.625 1.82607 0.888392 1.35723 1.35723C0.888392 1.82607 0.625 2.46196 0.625 3.125V7.5C0.625 7.66576 0.690848 7.82473 0.808058 7.94194C0.925268 8.05915 1.08424 8.125 1.25 8.125H4.375V13.75C4.3747 13.8695 4.4087 13.9867 4.47295 14.0875C4.5372 14.1883 4.62901 14.2685 4.7375 14.3188C4.84624 14.3688 4.96707 14.3866 5.08563 14.37C5.20418 14.3533 5.31546 14.303 5.40625 14.225L7.1875 12.7L8.96875 14.225C9.08196 14.3218 9.22603 14.375 9.375 14.375C9.52397 14.375 9.66804 14.3218 9.78125 14.225L11.5625 12.7L13.3438 14.225C13.457 14.3218 13.601 14.375 13.75 14.375C13.8404 14.3744 13.9298 14.3552 14.0125 14.3188C14.121 14.2685 14.2128 14.1883 14.2771 14.0875C14.3413 13.9867 14.3753 13.8695 14.375 13.75V3.125C14.375 2.46196 14.1116 1.82607 13.6428 1.35723C13.1739 0.888392 12.538 0.625 11.875 0.625ZM1.875 6.875V3.125C1.875 2.79348 2.0067 2.47554 2.24112 2.24112C2.47554 2.0067 2.79348 1.875 3.125 1.875C3.45652 1.875 3.77446 2.0067 4.00888 2.24112C4.2433 2.47554 4.375 2.79348 4.375 3.125V6.875H1.875ZM13.125 12.3938L11.9688 11.4C11.8555 11.3032 11.7115 11.25 11.5625 11.25C11.4135 11.25 11.2695 11.3032 11.1562 11.4L9.375 12.925L7.59375 11.4C7.48054 11.3032 7.33647 11.25 7.1875 11.25C7.03853 11.25 6.89446 11.3032 6.78125 11.4L5.625 12.3938V3.125C5.62422 2.68593 5.50782 2.2548 5.2875 1.875H11.875C12.2065 1.875 12.5245 2.0067 12.7589 2.24112C12.9933 2.47554 13.125 2.79348 13.125 3.125V12.3938ZM11.875 3.75C11.875 3.91576 11.8092 4.07473 11.6919 4.19194C11.5747 4.30915 11.4158 4.375 11.25 4.375H7.5C7.33424 4.375 7.17527 4.30915 7.05806 4.19194C6.94085 4.07473 6.875 3.91576 6.875 3.75C6.875 3.58424 6.94085 3.42527 7.05806 3.30806C7.17527 3.19085 7.33424 3.125 7.5 3.125H11.25C11.4158 3.125 11.5747 3.19085 11.6919 3.30806C11.8092 3.42527 11.875 3.58424 11.875 3.75ZM11.875 6.25C11.875 6.41576 11.8092 6.57473 11.6919 6.69194C11.5747 6.80915 11.4158 6.875 11.25 6.875H7.5C7.33424 6.875 7.17527 6.80915 7.05806 6.69194C6.94085 6.57473 6.875 6.41576 6.875 6.25C6.875 6.08424 6.94085 5.92527 7.05806 5.80806C7.17527 5.69085 7.33424 5.625 7.5 5.625H11.25C11.4158 5.625 11.5747 5.69085 11.6919 5.80806C11.8092 5.92527 11.875 6.08424 11.875 6.25ZM11.875 8.75C11.875 8.91576 11.8092 9.07473 11.6919 9.19194C11.5747 9.30915 11.4158 9.375 11.25 9.375H7.5C7.33424 9.375 7.17527 9.30915 7.05806 9.19194C6.94085 9.07473 6.875 8.91576 6.875 8.75C6.875 8.58424 6.94085 8.42527 7.05806 8.30806C7.17527 8.19085 7.33424 8.125 7.5 8.125H11.25C11.4158 8.125 11.5747 8.19085 11.6919 8.30806C11.8092 8.42527 11.875 8.58424 11.875 8.75Z" fill="white"/>
</g>
<defs>
<clipPath id="clip0_17029_959">
<rect width="15" height="15" fill="white"/>
</clipPath>
</defs>
</svg>
