<svg width="13" height="12" viewBox="0 0 13 12" fill="none" xmlns="http://www.w3.org/2000/svg">
<path d="M8.17214 12H3.42621C2.51791 11.9989 1.64706 11.6376 1.00463 10.9953C0.362376 10.353 0.00106528 9.48215 0 8.57376V3.82761C0.00106245 2.91931 0.362376 2.04846 1.00463 1.40602C1.64697 0.763775 2.51782 0.402555 3.42621 0.401489H5.54029V1.30759L3.42621 1.30768C2.7581 1.30838 2.11764 1.57409 1.6452 2.04653C1.17276 2.51897 0.906982 3.15945 0.906189 3.82754V8.57369C0.906986 9.2418 1.17269 9.88235 1.64513 10.3547C2.11757 10.8271 2.75812 11.0929 3.42623 11.0936H8.17216C8.84027 11.0929 9.48082 10.8271 9.95326 10.3547C10.4257 9.88226 10.6914 9.24178 10.6922 8.57369V6.20016H11.5983V8.57369H11.5984C11.5973 9.48199 11.236 10.3528 10.5938 10.9953C9.95142 11.6376 9.08057 11.9988 8.17218 11.9999L8.17214 12Z" fill="#88898B"/>
<path d="M10.2992 0L4.3828 5.91638L3.90283 8.15512L6.14157 7.67551L12.0579 1.75891L10.2992 0ZM4.37622 7.29625L4.63173 6.104L5.95404 7.4264L4.74825 7.68483L4.37622 7.29625Z" fill="#88898B"/>
</svg>
