<svg width="34" height="34" viewBox="0 0 34 34" fill="none" xmlns="http://www.w3.org/2000/svg">
<path d="M4.9585 28.3332C4.39183 28.3332 3.896 28.1207 3.471 27.6957C3.046 27.2707 2.8335 26.7748 2.8335 26.2082V7.7915C2.8335 7.22484 3.046 6.729 3.471 6.304C3.896 5.879 4.39183 5.6665 4.9585 5.6665H29.0418C29.6085 5.6665 30.1043 5.879 30.5293 6.304C30.9543 6.729 31.1668 7.22484 31.1668 7.7915V26.2082C31.1668 26.7748 30.9543 27.2707 30.5293 27.6957C30.1043 28.1207 29.6085 28.3332 29.0418 28.3332H4.9585ZM17.0002 17.6373L4.9585 9.73942V26.2082H29.0418V9.73942L17.0002 17.6373ZM17.0002 15.5123L28.9002 7.7915H5.13558L17.0002 15.5123ZM4.9585 9.73942V7.7915V26.2082V9.73942Z" fill="white"/>
</svg>
