<svg xmlns="http://www.w3.org/2000/svg" width="16" height="15" viewBox="0 0 16 15" fill="none">
<g clip-path="url(#clip0_15176_2339)">
<path d="M15.5 5.36133C15.5 5.03771 15.2352 4.77539 14.9116 4.77539C14.588 4.77539 14.3256 5.03771 14.3256 5.36133V11.0379C14.0597 10.9111 13.7626 10.8398 13.4492 10.8398H2.66841C2.11892 10.8398 1.67188 10.4004 1.67188 9.81445C1.67188 9.22852 2.11892 8.78906 2.66841 8.78906H3.75195C4.07557 8.78906 4.33789 8.52674 4.33789 8.20312V3.01808H8.26367C8.58729 3.01808 8.84961 2.75575 8.84961 2.43214C8.84961 2.10853 8.58729 1.8462 8.26367 1.8462H4.33789V0.585938C4.33789 0.262324 4.07557 0 3.75195 0H2.66841C1.47274 0 0.5 0.972744 0.5 2.16841V9.84334C0.5 11.039 1.47274 12.0117 2.66841 12.0117H11.4863V14.4141C11.4863 14.7377 11.7487 15 12.0723 15H13.4492C14.58 15 15.5 14.08 15.5 12.9492C15.5 12.941 15.5 5.36133 15.5 5.36133ZM1.67188 2.16841C1.67188 1.61892 2.11892 1.17188 2.66841 1.17188H3.16602V7.61719H2.66841C2.30935 7.61719 1.97044 7.70511 1.67188 7.86059V2.16841ZM13.4492 13.8281H12.6582V12.0117H13.4492C13.9127 12.0117 14.2933 12.3764 14.3256 12.8369V13.0078C14.3256 13.0087 14.3258 13.0095 14.3258 13.0103C14.2943 13.4665 13.9133 13.8281 13.4492 13.8281ZM8.57671 6.8545C8.68851 6.96911 8.84038 7.03128 8.99612 7.03128C9.04827 7.03128 9.10086 7.02431 9.15251 7.00998L11.5175 6.35487C11.6148 6.32792 11.7036 6.27624 11.775 6.2049L14.9852 3.00079C15.6705 2.31542 15.6705 1.20026 14.9852 0.514863C14.2998 -0.170479 13.1846 -0.170537 12.4997 0.514395L9.28279 3.72416C9.21447 3.79233 9.16402 3.8763 9.13599 3.96864L8.43544 6.27504C8.37333 6.4795 8.42747 6.70154 8.57671 6.8545ZM13.3279 1.3435C13.5563 1.11504 13.928 1.11504 14.1565 1.3435C14.385 1.57195 14.385 1.94367 14.1569 2.17175L14.0434 2.28504L13.2147 1.45638L13.3279 1.3435ZM10.2146 4.44987L12.3852 2.28413L13.214 3.11291L11.0562 5.26664L9.86639 5.59623L10.2146 4.44987Z" fill="#68696D"/>
</g>
<defs>
<clipPath id="clip0_15176_2339">
<rect width="15" height="15" fill="white" transform="translate(0.5)"/>
</clipPath>
</defs>
</svg>