<svg width="16" height="16" viewBox="0 0 16 16" fill="none" xmlns="http://www.w3.org/2000/svg">
<g clip-path="url(#clip0_247_838)">
<path d="M8.59375 9.09375C8.85263 9.09375 9.0625 8.88387 9.0625 8.625V6.75C9.0625 6.49112 8.85263 6.28125 8.59375 6.28125C8.33487 6.28125 8.125 6.49112 8.125 6.75V8.625C8.125 8.88387 8.33487 9.09375 8.59375 9.09375Z" fill="black"/>
<path d="M2.96875 9.09375C3.22763 9.09375 3.4375 8.88387 3.4375 8.625V6.75C3.4375 6.49112 3.22763 6.28125 2.96875 6.28125C2.70987 6.28125 2.5 6.49112 2.5 6.75V8.625C2.5 8.88387 2.70987 9.09375 2.96875 9.09375Z" fill="black"/>
<mask id="path-3-inside-1_247_838" fill="white">
<path d="M15.9665 7.82591L15.1879 5.87953C14.8299 4.98456 13.9757 4.40625 13.0118 4.40625H12.875V3.46875H14.2812C14.5401 3.46875 14.75 3.25887 14.75 3C14.75 2.74113 14.5401 2.53125 14.2812 2.53125H9.21875C9.062 2.53125 8.91566 2.60956 8.82875 2.74L8.12569 3.79456C7.84006 3.34166 7.3805 3.00884 6.84156 2.89072C6.63891 1.62572 5.53994 0.65625 4.21875 0.65625C2.89756 0.65625 1.79859 1.62572 1.59597 2.89069C0.684375 3.0905 0 3.90434 0 4.875V7.6875C0 7.78003 0.027375 7.8705 0.0787188 7.9475L1.46788 10.0312H0.46875C0.209875 10.0312 0 10.2411 0 10.5V13.625C0 13.8839 0.209875 14.0938 0.46875 14.0938H1.67C1.928 14.8212 2.62272 15.3438 3.4375 15.3438C4.25228 15.3438 4.94697 14.8212 5.205 14.0938H10.795C11.053 14.8212 11.7477 15.3438 12.5625 15.3438C13.3773 15.3438 14.072 14.8212 14.33 14.0938H15.5312C15.7901 14.0938 16 13.8839 16 13.625V8C16 7.94037 15.9886 7.88128 15.9665 7.82591ZM12.875 5.34375H13.0118C13.5902 5.34375 14.1027 5.69075 14.3175 6.22775L14.8389 7.53125H12.875V5.34375ZM2.03125 3.78125C2.29012 3.78125 2.5 3.57137 2.5 3.3125C2.5 2.36478 3.27103 1.59375 4.21875 1.59375C5.16647 1.59375 5.9375 2.36478 5.9375 3.3125C5.9375 3.57137 6.14738 3.78125 6.40625 3.78125C6.84169 3.78125 7.21837 4.03706 7.39425 4.40625H1.04325C1.21912 4.03706 1.59581 3.78125 2.03125 3.78125ZM0.9375 7.54556V5.34375H7.96875C8.12253 5.34375 8.27022 5.26784 8.35875 5.135L9.46959 3.46875H11.9375V4.40625H10.4688C10.2099 4.40625 10 4.61613 10 4.875V10.0312H2.59462L0.9375 7.54556ZM3.4375 14.4062C2.92056 14.4062 2.5 13.9857 2.5 13.4688C2.5 12.9518 2.92056 12.5312 3.4375 12.5312C3.95444 12.5312 4.375 12.9518 4.375 13.4688C4.375 13.9857 3.95444 14.4062 3.4375 14.4062ZM12.5625 14.4062C12.0456 14.4062 11.625 13.9857 11.625 13.4688C11.625 12.9518 12.0456 12.5312 12.5625 12.5312C13.0794 12.5312 13.5 12.9518 13.5 13.4688C13.5 13.9857 13.0794 14.4062 12.5625 14.4062ZM15.0625 13.1562H14.411C14.2617 12.2707 13.4899 11.5938 12.5625 11.5938C11.6351 11.5938 10.8633 12.2707 10.714 13.1562H5.28597C5.13669 12.2707 4.36487 11.5938 3.4375 11.5938C2.51012 11.5938 1.73831 12.2707 1.58903 13.1562H0.9375V10.9688H15.0625V13.1562ZM15.0625 10.0312H10.9375V5.34375H11.9375V8C11.9375 8.25887 12.1474 8.46875 12.4062 8.46875H15.0625V10.0312Z"/>
</mask>
<path d="M15.9665 7.82591L15.1879 5.87953C14.8299 4.98456 13.9757 4.40625 13.0118 4.40625H12.875V3.46875H14.2812C14.5401 3.46875 14.75 3.25887 14.75 3C14.75 2.74113 14.5401 2.53125 14.2812 2.53125H9.21875C9.062 2.53125 8.91566 2.60956 8.82875 2.74L8.12569 3.79456C7.84006 3.34166 7.3805 3.00884 6.84156 2.89072C6.63891 1.62572 5.53994 0.65625 4.21875 0.65625C2.89756 0.65625 1.79859 1.62572 1.59597 2.89069C0.684375 3.0905 0 3.90434 0 4.875V7.6875C0 7.78003 0.027375 7.8705 0.0787188 7.9475L1.46788 10.0312H0.46875C0.209875 10.0312 0 10.2411 0 10.5V13.625C0 13.8839 0.209875 14.0938 0.46875 14.0938H1.67C1.928 14.8212 2.62272 15.3438 3.4375 15.3438C4.25228 15.3438 4.94697 14.8212 5.205 14.0938H10.795C11.053 14.8212 11.7477 15.3438 12.5625 15.3438C13.3773 15.3438 14.072 14.8212 14.33 14.0938H15.5312C15.7901 14.0938 16 13.8839 16 13.625V8C16 7.94037 15.9886 7.88128 15.9665 7.82591ZM12.875 5.34375H13.0118C13.5902 5.34375 14.1027 5.69075 14.3175 6.22775L14.8389 7.53125H12.875V5.34375ZM2.03125 3.78125C2.29012 3.78125 2.5 3.57137 2.5 3.3125C2.5 2.36478 3.27103 1.59375 4.21875 1.59375C5.16647 1.59375 5.9375 2.36478 5.9375 3.3125C5.9375 3.57137 6.14738 3.78125 6.40625 3.78125C6.84169 3.78125 7.21837 4.03706 7.39425 4.40625H1.04325C1.21912 4.03706 1.59581 3.78125 2.03125 3.78125ZM0.9375 7.54556V5.34375H7.96875C8.12253 5.34375 8.27022 5.26784 8.35875 5.135L9.46959 3.46875H11.9375V4.40625H10.4688C10.2099 4.40625 10 4.61613 10 4.875V10.0312H2.59462L0.9375 7.54556ZM3.4375 14.4062C2.92056 14.4062 2.5 13.9857 2.5 13.4688C2.5 12.9518 2.92056 12.5312 3.4375 12.5312C3.95444 12.5312 4.375 12.9518 4.375 13.4688C4.375 13.9857 3.95444 14.4062 3.4375 14.4062ZM12.5625 14.4062C12.0456 14.4062 11.625 13.9857 11.625 13.4688C11.625 12.9518 12.0456 12.5312 12.5625 12.5312C13.0794 12.5312 13.5 12.9518 13.5 13.4688C13.5 13.9857 13.0794 14.4062 12.5625 14.4062ZM15.0625 13.1562H14.411C14.2617 12.2707 13.4899 11.5938 12.5625 11.5938C11.6351 11.5938 10.8633 12.2707 10.714 13.1562H5.28597C5.13669 12.2707 4.36487 11.5938 3.4375 11.5938C2.51012 11.5938 1.73831 12.2707 1.58903 13.1562H0.9375V10.9688H15.0625V13.1562ZM15.0625 10.0312H10.9375V5.34375H11.9375V8C11.9375 8.25887 12.1474 8.46875 12.4062 8.46875H15.0625V10.0312Z" fill="#111727"/>
<path d="M15.9665 7.82591L14.5737 8.38298L14.5738 8.38313L15.9665 7.82591ZM15.1879 5.87953L16.5807 5.32246L16.5806 5.32243L15.1879 5.87953ZM12.875 4.40625H11.375V5.90625H12.875V4.40625ZM12.875 3.46875V1.96875H11.375V3.46875H12.875ZM8.82875 2.74L10.0768 3.57207L10.0771 3.57171L8.82875 2.74ZM8.12569 3.79456L6.85692 4.59471L8.09073 6.55111L9.37375 4.62663L8.12569 3.79456ZM6.84156 2.89072L5.36045 3.128L5.52211 4.13713L6.52041 4.35594L6.84156 2.89072ZM1.59597 2.89069L1.91713 4.3559L2.91544 4.13708L3.07709 3.12794L1.59597 2.89069ZM0.0787188 7.9475L1.3268 7.11545L1.32672 7.11533L0.0787188 7.9475ZM1.46788 10.0312V11.5312H4.27064L2.71595 9.1992L1.46788 10.0312ZM1.67 14.0938L3.08372 13.5923L2.72954 12.5938H1.67V14.0938ZM5.205 14.0938V12.5938H4.1455L3.7913 13.5923L5.205 14.0938ZM10.795 14.0938L12.2087 13.5923L11.8545 12.5938H10.795V14.0938ZM14.33 14.0938V12.5938H13.2705L12.9163 13.5923L14.33 14.0938ZM12.875 5.34375V3.84375H11.375V5.34375H12.875ZM14.3175 6.22775L15.7102 5.67066L15.7102 5.67064L14.3175 6.22775ZM14.8389 7.53125V9.03125H17.0545L16.2316 6.97416L14.8389 7.53125ZM12.875 7.53125H11.375V9.03125H12.875V7.53125ZM7.39425 4.40625V5.90625H9.77034L8.74844 3.76114L7.39425 4.40625ZM1.04325 4.40625L-0.310939 3.76114L-1.33284 5.90625H1.04325V4.40625ZM0.9375 7.54556H-0.5625V7.99973L-0.310575 8.37761L0.9375 7.54556ZM0.9375 5.34375V3.84375H-0.5625V5.34375H0.9375ZM8.35875 5.135L7.11068 4.30294L7.11054 4.30315L8.35875 5.135ZM9.46959 3.46875V1.96875H8.66682L8.22152 2.63669L9.46959 3.46875ZM11.9375 3.46875H13.4375V1.96875H11.9375V3.46875ZM11.9375 4.40625V5.90625H13.4375V4.40625H11.9375ZM10 10.0312V11.5312H11.5V10.0312H10ZM2.59462 10.0312L1.34655 10.8633L1.79185 11.5312H2.59462V10.0312ZM15.0625 13.1562V14.6562H16.5625V13.1562H15.0625ZM14.411 13.1562L12.9318 13.4056L13.1427 14.6562H14.411V13.1562ZM10.714 13.1562V14.6562H11.9823L12.1932 13.4056L10.714 13.1562ZM5.28597 13.1562L3.80684 13.4056L4.01766 14.6562H5.28597V13.1562ZM1.58903 13.1562V14.6562H2.85734L3.06816 13.4056L1.58903 13.1562ZM0.9375 13.1562H-0.5625V14.6562H0.9375V13.1562ZM0.9375 10.9688V9.46875H-0.5625V10.9688H0.9375ZM15.0625 10.9688H16.5625V9.46875H15.0625V10.9688ZM15.0625 10.0312V11.5312H16.5625V10.0312H15.0625ZM10.9375 10.0312H9.4375V11.5312H10.9375V10.0312ZM10.9375 5.34375V3.84375H9.4375V5.34375H10.9375ZM11.9375 5.34375H13.4375V3.84375H11.9375V5.34375ZM15.0625 8.46875H16.5625V6.96875H15.0625V8.46875ZM17.3592 7.26883L16.5807 5.32246L13.7952 6.43661L14.5737 8.38298L17.3592 7.26883ZM16.5806 5.32243C15.9948 3.85798 14.5891 2.90625 13.0118 2.90625V5.90625C13.3624 5.90625 13.665 6.11115 13.7952 6.43663L16.5806 5.32243ZM13.0118 2.90625H12.875V5.90625H13.0118V2.90625ZM14.375 4.40625V3.46875H11.375V4.40625H14.375ZM12.875 4.96875H14.2812V1.96875H12.875V4.96875ZM14.2812 4.96875C15.3686 4.96875 16.25 4.0873 16.25 3H13.25C13.25 2.43045 13.7117 1.96875 14.2812 1.96875V4.96875ZM16.25 3C16.25 1.9127 15.3686 1.03125 14.2812 1.03125V4.03125C13.7117 4.03125 13.25 3.56955 13.25 3H16.25ZM14.2812 1.03125H9.21875V4.03125H14.2812V1.03125ZM9.21875 1.03125C8.56057 1.03125 7.94565 1.36015 7.58044 1.90829L10.0771 3.57171C9.88566 3.85897 9.56343 4.03125 9.21875 4.03125V1.03125ZM7.58069 1.90793L6.87762 2.9625L9.37375 4.62663L10.0768 3.57207L7.58069 1.90793ZM9.39445 2.99442C8.90041 2.21104 8.10417 1.63185 7.16271 1.4255L6.52041 4.35594C6.65683 4.38584 6.77971 4.47228 6.85692 4.59471L9.39445 2.99442ZM8.32268 2.65344C8.00546 0.673362 6.28933 -0.84375 4.21875 -0.84375V2.15625C4.79054 2.15625 5.27235 2.57808 5.36045 3.128L8.32268 2.65344ZM4.21875 -0.84375C2.14818 -0.84375 0.432024 0.67335 0.11485 2.65344L3.07709 3.12794C3.16516 2.57809 3.64694 2.15625 4.21875 2.15625V-0.84375ZM1.27481 1.42547C-0.309313 1.7727 -1.5 3.18362 -1.5 4.875H1.5C1.5 4.62507 1.67806 4.4083 1.91713 4.3559L1.27481 1.42547ZM-1.5 4.875V7.6875H1.5V4.875H-1.5ZM-1.5 7.6875C-1.5 8.07601 -1.38505 8.45607 -1.16928 8.77967L1.32672 7.11533C1.4398 7.28493 1.5 7.48405 1.5 7.6875H-1.5ZM-1.16936 8.77955L0.219797 10.8633L2.71595 9.1992L1.3268 7.11545L-1.16936 8.77955ZM1.46788 8.53125H0.46875V11.5312H1.46788V8.53125ZM0.46875 8.53125C-0.618552 8.53125 -1.5 9.4127 -1.5 10.5H1.5C1.5 11.0696 1.0383 11.5312 0.46875 11.5312V8.53125ZM-1.5 10.5V13.625H1.5V10.5H-1.5ZM-1.5 13.625C-1.5 14.7123 -0.618552 15.5938 0.46875 15.5938V12.5938C1.0383 12.5938 1.5 13.0554 1.5 13.625H-1.5ZM0.46875 15.5938H1.67V12.5938H0.46875V15.5938ZM0.256283 14.5952C0.719193 15.9003 1.96575 16.8438 3.4375 16.8438V13.8438C3.27969 13.8438 3.13681 13.742 3.08372 13.5923L0.256283 14.5952ZM3.4375 16.8438C4.90929 16.8438 6.15576 15.9003 6.6187 14.5952L3.7913 13.5923C3.73817 13.7421 3.59527 13.8438 3.4375 13.8438V16.8438ZM5.205 15.5938H10.795V12.5938H5.205V15.5938ZM9.38128 14.5952C9.84419 15.9003 11.0907 16.8438 12.5625 16.8438V13.8438C12.4047 13.8438 12.2618 13.742 12.2087 13.5923L9.38128 14.5952ZM12.5625 16.8438C14.0343 16.8438 15.2808 15.9003 15.7437 14.5952L12.9163 13.5923C12.8632 13.7421 12.7203 13.8438 12.5625 13.8438V16.8438ZM14.33 15.5938H15.5312V12.5938H14.33V15.5938ZM15.5312 15.5938C16.6186 15.5938 17.5 14.7123 17.5 13.625H14.5C14.5 13.0554 14.9617 12.5938 15.5312 12.5938V15.5938ZM17.5 13.625V8H14.5V13.625H17.5ZM17.5 8C17.5 7.74961 17.4522 7.50138 17.3591 7.26868L14.5738 8.38313C14.525 8.26118 14.5 8.13114 14.5 8H17.5ZM12.875 6.84375H13.0118V3.84375H12.875V6.84375ZM13.0118 6.84375C12.9981 6.84375 12.9785 6.83894 12.96 6.82647C12.9416 6.814 12.9299 6.79752 12.9248 6.78486L15.7102 5.67064C15.2676 4.56421 14.2036 3.84375 13.0118 3.84375V6.84375ZM12.9248 6.78484L13.4462 8.08834L16.2316 6.97416L15.7102 5.67066L12.9248 6.78484ZM14.8389 6.03125H12.875V9.03125H14.8389V6.03125ZM14.375 7.53125V5.34375H11.375V7.53125H14.375ZM2.03125 5.28125C3.11855 5.28125 4 4.3998 4 3.3125H1C1 2.74295 1.4617 2.28125 2.03125 2.28125V5.28125ZM4 3.3125C4 3.19321 4.09946 3.09375 4.21875 3.09375V0.09375C2.4426 0.09375 1 1.53635 1 3.3125H4ZM4.21875 3.09375C4.33804 3.09375 4.4375 3.19321 4.4375 3.3125H7.4375C7.4375 1.53635 5.9949 0.09375 4.21875 0.09375V3.09375ZM4.4375 3.3125C4.4375 4.3998 5.31895 5.28125 6.40625 5.28125V2.28125C6.9758 2.28125 7.4375 2.74295 7.4375 3.3125H4.4375ZM6.40625 5.28125C6.23964 5.28125 6.10267 5.1828 6.04006 5.05136L8.74844 3.76114C8.33408 2.89133 7.44374 2.28125 6.40625 2.28125V5.28125ZM7.39425 2.90625H1.04325V5.90625H7.39425V2.90625ZM2.39744 5.05136C2.33483 5.1828 2.19786 5.28125 2.03125 5.28125V2.28125C0.993761 2.28125 0.103424 2.89133 -0.310939 3.76114L2.39744 5.05136ZM2.4375 7.54556V5.34375H-0.5625V7.54556H2.4375ZM0.9375 6.84375H7.96875V3.84375H0.9375V6.84375ZM7.96875 6.84375C8.61371 6.84375 9.23451 6.52572 9.60696 5.96685L7.11054 4.30315C7.30593 4.00997 7.63136 3.84375 7.96875 3.84375V6.84375ZM9.60682 5.96706L10.7177 4.30081L8.22152 2.63669L7.11068 4.30294L9.60682 5.96706ZM9.46959 4.96875H11.9375V1.96875H9.46959V4.96875ZM10.4375 3.46875V4.40625H13.4375V3.46875H10.4375ZM11.9375 2.90625H10.4688V5.90625H11.9375V2.90625ZM10.4688 2.90625C9.38145 2.90625 8.5 3.7877 8.5 4.875H11.5C11.5 5.44455 11.0383 5.90625 10.4688 5.90625V2.90625ZM8.5 4.875V10.0312H11.5V4.875H8.5ZM10 8.53125H2.59462V11.5312H10V8.53125ZM3.8427 9.1992L2.18558 6.71351L-0.310575 8.37761L1.34655 10.8633L3.8427 9.1992ZM3.4375 12.9062C3.74899 12.9062 4 13.1573 4 13.4688H1C1 14.8141 2.09214 15.9062 3.4375 15.9062V12.9062ZM4 13.4688C4 13.7802 3.74899 14.0312 3.4375 14.0312V11.0312C2.09214 11.0312 1 12.1234 1 13.4688H4ZM3.4375 14.0312C3.12601 14.0312 2.875 13.7802 2.875 13.4688H5.875C5.875 12.1234 4.78286 11.0312 3.4375 11.0312V14.0312ZM2.875 13.4688C2.875 13.1573 3.12601 12.9062 3.4375 12.9062V15.9062C4.78286 15.9062 5.875 14.8141 5.875 13.4688H2.875ZM12.5625 12.9062C12.874 12.9062 13.125 13.1573 13.125 13.4688H10.125C10.125 14.8141 11.2171 15.9062 12.5625 15.9062V12.9062ZM13.125 13.4688C13.125 13.7802 12.874 14.0312 12.5625 14.0312V11.0312C11.2171 11.0312 10.125 12.1234 10.125 13.4688H13.125ZM12.5625 14.0312C12.251 14.0312 12 13.7802 12 13.4688H15C15 12.1234 13.9079 11.0312 12.5625 11.0312V14.0312ZM12 13.4688C12 13.1573 12.251 12.9062 12.5625 12.9062V15.9062C13.9079 15.9062 15 14.8141 15 13.4688H12ZM15.0625 11.6562H14.411V14.6562H15.0625V11.6562ZM15.8901 12.9069C15.6214 11.313 14.2359 10.0938 12.5625 10.0938V13.0938C12.7439 13.0938 12.902 13.2283 12.9318 13.4056L15.8901 12.9069ZM12.5625 10.0938C10.8891 10.0938 9.50358 11.313 9.2349 12.9069L12.1932 13.4056C12.223 13.2283 12.3811 13.0938 12.5625 13.0938V10.0938ZM10.714 11.6562H5.28597V14.6562H10.714V11.6562ZM6.7651 12.9069C6.49642 11.313 5.11088 10.0938 3.4375 10.0938V13.0938C3.61887 13.0938 3.77696 13.2283 3.80684 13.4056L6.7651 12.9069ZM3.4375 10.0938C1.76412 10.0938 0.378581 11.313 0.109899 12.9069L3.06816 13.4056C3.09804 13.2283 3.25613 13.0938 3.4375 13.0938V10.0938ZM1.58903 11.6562H0.9375V14.6562H1.58903V11.6562ZM2.4375 13.1562V10.9688H-0.5625V13.1562H2.4375ZM0.9375 12.4688H15.0625V9.46875H0.9375V12.4688ZM13.5625 10.9688V13.1562H16.5625V10.9688H13.5625ZM15.0625 8.53125H10.9375V11.5312H15.0625V8.53125ZM12.4375 10.0312V5.34375H9.4375V10.0312H12.4375ZM10.9375 6.84375H11.9375V3.84375H10.9375V6.84375ZM10.4375 5.34375V8H13.4375V5.34375H10.4375ZM10.4375 8C10.4375 9.0873 11.3189 9.96875 12.4062 9.96875V6.96875C12.9758 6.96875 13.4375 7.43045 13.4375 8H10.4375ZM12.4062 9.96875H15.0625V6.96875H12.4062V9.96875ZM13.5625 8.46875V10.0312H16.5625V8.46875H13.5625Z" fill="#111727" mask="url(#path-3-inside-1_247_838)"/>
<path d="M6.71875 9.09375C6.97763 9.09375 7.1875 8.88387 7.1875 8.625V6.75C7.1875 6.49112 6.97763 6.28125 6.71875 6.28125C6.45987 6.28125 6.25 6.49112 6.25 6.75V8.625C6.25 8.88387 6.45987 9.09375 6.71875 9.09375Z" fill="black"/>
<path d="M4.84375 9.09375C5.10263 9.09375 5.3125 8.88387 5.3125 8.625V6.75C5.3125 6.49112 5.10263 6.28125 4.84375 6.28125C4.58487 6.28125 4.375 6.49112 4.375 6.75V8.625C4.375 8.88387 4.58487 9.09375 4.84375 9.09375Z" fill="black"/>
</g>
<defs>
<clipPath id="clip0_247_838">
<rect width="16" height="16" fill="white"/>
</clipPath>
</defs>
</svg>
