<!-- <svg width="24" height="24" viewBox="0 0 24 24" fill="none" xmlns="http://www.w3.org/2000/svg">
<mask id="mask0_6105_1242" style="mask-type:alpha" maskUnits="userSpaceOnUse" x="0" y="0" width="24" height="24">
<rect width="24" height="24" fill="#D9D9D9"/>
</mask>
<g mask="url(#mask0_6105_1242)">
<path d="M5 19H6.4L15.025 10.375L13.625 8.975L5 17.6V19ZM19.3 8.925L15.05 4.725L16.45 3.325C16.8333 2.94167 17.3043 2.75 17.863 2.75C18.421 2.75 18.8917 2.94167 19.275 3.325L20.675 4.725C21.0583 5.10833 21.2583 5.571 21.275 6.113C21.2917 6.65433 21.1083 7.11667 20.725 7.5L19.3 8.925ZM17.85 10.4L7.25 21H3V16.75L13.6 6.15L17.85 10.4Z" fill="#1C1B1F"/>
</g>
</svg> -->

<svg width="24" height="25" viewBox="0 0 24 25" fill="none" xmlns="http://www.w3.org/2000/svg">
<mask id="mask0_15723_6272" style="mask-type:alpha" maskUnits="userSpaceOnUse" x="0" y="0" width="24" height="25">
<rect y="0.5" width="24" height="24" fill="#D9D9D9"/>
</mask>
<g mask="url(#mask0_15723_6272)">
<path d="M5 19.5H6.4L15.025 10.875L13.625 9.475L5 18.1V19.5ZM19.3 9.425L15.05 5.225L16.45 3.825C16.8333 3.44167 17.3043 3.25 17.863 3.25C18.421 3.25 18.8917 3.44167 19.275 3.825L20.675 5.225C21.0583 5.60833 21.2583 6.071 21.275 6.613C21.2917 7.15433 21.1083 7.61667 20.725 8L19.3 9.425ZM17.85 10.9L7.25 21.5H3V17.25L13.6 6.65L17.85 10.9Z" fill="#88898B"/>
</g>
</svg>
