<svg width="22" height="22" viewBox="0 0 22 22" fill="none" xmlns="http://www.w3.org/2000/svg">
<mask id="mask0_17342_10912" style="mask-type:alpha" maskUnits="userSpaceOnUse" x="0" y="0" width="22" height="22">
<rect x="0.333496" y="0.5" width="21" height="21" fill="#D9D9D9"/>
</mask>
<g mask="url(#mask0_17342_10912)">
<path d="M4.7085 17.125H5.9335L13.4804 9.57812L12.2554 8.35313L4.7085 15.9V17.125ZM17.221 8.30938L13.5022 4.63437L14.7272 3.40938C15.0627 3.07396 15.4748 2.90625 15.9636 2.90625C16.4519 2.90625 16.8637 3.07396 17.1991 3.40938L18.4241 4.63437C18.7595 4.96979 18.9345 5.37462 18.9491 5.84888C18.9637 6.32254 18.8033 6.72708 18.4679 7.0625L17.221 8.30938ZM15.9522 9.6L6.67725 18.875H2.9585V15.1562L12.2335 5.88125L15.9522 9.6Z" fill="#88898B"/>
</g>
</svg>
