<svg width="23" height="29" viewBox="0 0 23 29" fill="none" xmlns="http://www.w3.org/2000/svg">
<path d="M17.9923 14.3998L14.8123 14.0398V12.3748C16.4023 11.6548 17.4623 10.3948 17.4623 8.99982V8.14482C17.4623 7.87482 17.1973 7.69482 16.7998 7.69482C16.4023 7.69482 16.1373 7.87482 16.1373 8.14482V8.99982C16.1373 10.7548 14.0836 12.1498 11.4998 12.1498C8.91605 12.1498 6.8623 10.7548 6.8623 8.99982V8.14482C6.8623 7.87482 6.5973 7.69482 6.1998 7.69482C5.8023 7.69482 5.5373 7.87482 5.5373 8.14482V8.99982C5.5373 10.3948 6.5973 11.6548 8.1873 12.3748V14.0398L5.0073 14.3998C2.2248 14.6698 0.237305 16.2898 0.237305 18.2248V21.5098C0.237305 21.7798 0.502305 21.9598 0.899805 21.9598C1.2973 21.9598 1.5623 21.7798 1.5623 21.5098V18.2248C1.5623 16.7398 3.08605 15.5248 5.20605 15.2998L5.86855 15.2098L4.4773 15.8398C4.01355 16.0648 4.2123 16.4248 4.3448 16.5148L6.53105 17.9998L5.6698 18.5848C5.47105 18.7198 5.4048 18.9898 5.60355 19.1698L10.8373 24.4351V27.4501H5.5373V20.7001C5.5373 20.4301 5.2723 20.2501 4.8748 20.2501C4.4773 20.2501 4.2123 20.4301 4.2123 20.7001V27.4501H1.5623V26.1001C1.5623 25.8301 1.2973 25.6501 0.899805 25.6501C0.502305 25.6501 0.237305 25.8301 0.237305 26.1001V27.9001C0.237305 28.1701 0.502305 28.3501 0.899805 28.3501H22.0998C22.4973 28.3501 22.7623 28.1701 22.7623 27.9001V18.2253C22.7623 16.2903 20.7748 14.6703 17.9923 14.4003V14.3998ZM9.5123 12.8248C10.1086 12.9598 10.7711 13.0498 11.4998 13.0498C12.2286 13.0498 12.8911 12.9598 13.4873 12.8248V14.2648C13.0236 14.6698 12.2948 14.9398 11.4998 14.9398C10.7048 14.9398 9.97605 14.7148 9.5123 14.2648V12.8248ZM7.06105 18.9448L7.98855 18.3148C8.25355 18.1348 8.25355 17.8648 7.98855 17.6848L5.9348 16.2898L8.38605 15.1648L10.3073 22.2301L7.06105 18.9448ZM11.4998 21.7798L9.84355 15.5251C10.3736 15.7051 10.9036 15.7951 11.4998 15.7951C12.0961 15.7951 12.6261 15.7051 13.1561 15.5251L12.4936 18.0001C12.4273 18.2251 12.6923 18.4951 13.0236 18.5401C13.3548 18.5851 13.7523 18.4051 13.8186 18.1801L14.6136 15.1651L17.0648 16.2901L15.0111 17.6851C14.7461 17.8651 14.7461 18.1351 15.0111 18.3151L15.9386 18.9451L12.6923 22.2301L13.2886 20.1151C13.3548 19.8901 13.0898 19.6201 12.7586 19.5751C12.4273 19.5301 12.0298 19.7101 11.9636 19.9351L11.4998 21.7798ZM21.4373 27.4498H18.7873V20.6998C18.7873 20.4298 18.5223 20.2498 18.1248 20.2498C17.7273 20.2498 17.4623 20.4298 17.4623 20.6998V27.4498H12.1623V24.4348L17.3298 19.1696C17.5286 18.9896 17.4623 18.7646 17.2636 18.5846L16.4023 17.9996L18.5886 16.5146C18.9861 16.1996 18.6548 15.8846 18.4561 15.8396L17.0648 15.2096L17.7273 15.2996C19.8473 15.5246 21.3711 16.7846 21.3711 18.2246V27.4498H21.4373Z" fill="white"/>
<path d="M0.899805 24.7497C1.2973 24.7497 1.5623 24.5697 1.5623 24.2997V23.3997C1.5623 23.1297 1.2973 22.9497 0.899805 22.9497C0.502305 22.9497 0.237305 23.1297 0.237305 23.3997V24.2997C0.237305 24.5697 0.502305 24.7497 0.899805 24.7497Z" fill="white"/>
<path d="M5.5374 5.48992V6.29992C5.5374 6.47992 5.6699 6.61492 5.86865 6.70492C7.98865 7.55992 9.7774 8.00992 11.4999 8.00992C13.2224 8.00992 15.0112 7.55992 17.1312 6.70492C17.3299 6.61492 17.4624 6.47992 17.4624 6.29992V5.48992L18.5887 3.73492C19.0524 3.10492 18.7874 2.38492 18.0587 1.93492C17.7937 1.75492 17.3299 1.79992 17.1312 1.97992C16.8662 2.15992 16.9324 2.47492 17.1974 2.60992C17.5287 2.78992 17.5949 3.05992 17.3962 3.32992L16.3362 4.94992H6.66365L5.6699 3.32992C5.47115 3.10492 5.60365 2.78992 5.86865 2.60992C8.1874 1.25992 11.9637 0.944917 15.077 1.75492C15.4083 1.84492 15.8058 1.75492 15.9383 1.48492C16.0708 1.25992 15.9383 0.989917 15.5408 0.899917C11.9633 -8.29399e-05 7.72327 0.404917 5.0074 1.97992C4.2124 2.42992 4.01365 3.14992 4.41115 3.73492L5.5374 5.48992ZM6.8624 5.84992H16.1374V6.02992C12.5599 7.42492 10.4399 7.42492 6.8624 6.02992V5.84992Z" fill="white"/>
<path d="M10.1747 2.69971C9.77721 2.69971 9.51221 2.87971 9.51221 3.14971C9.51221 3.41971 9.77721 3.59971 10.1747 3.59971H12.8247C13.2222 3.59971 13.4872 3.41971 13.4872 3.14971C13.4872 2.87971 13.2222 2.69971 12.8247 2.69971H10.1747Z" fill="white"/>
</svg>
