<svg width="29" height="28" viewBox="0 0 29 28" fill="none" xmlns="http://www.w3.org/2000/svg">
<circle cx="14.6719" cy="14" r="14" fill="#FDD7E4"/>
<path d="M17.6416 8.24608C17.9124 8.40242 18.02 8.73287 17.9047 9.0144L17.8677 9.0898L12.2603 18.802C12.0898 19.0974 11.712 19.1986 11.4166 19.028C11.1458 18.8717 11.0382 18.5413 11.1535 18.2597L11.1905 18.1843L16.7979 8.47215C16.9684 8.17674 17.3462 8.07552 17.6416 8.24608Z" fill="black"/>
<path d="M17.1721 8.18414C17.4724 8.10293 17.7807 8.25779 17.9003 8.53513L17.9303 8.6219L19.1517 13.2227C19.2392 13.5524 19.0429 13.8906 18.7132 13.9782C18.4135 14.0577 18.1067 13.9027 17.9876 13.6262L17.9577 13.5397L16.8956 9.53817L12.8994 10.6193C12.6001 10.7002 12.2926 10.5466 12.1722 10.2706L12.142 10.1843C12.061 9.88491 12.2146 9.57742 12.4906 9.45708L12.5769 9.42679L17.1721 8.18414Z" fill="black"/>
</svg>
