<svg width="15" height="12" viewBox="0 0 15 12" fill="none" xmlns="http://www.w3.org/2000/svg">
<path d="M6.0001 1.8H7.8001C8.31609 1.8 8.7001 1.41599 8.7001 0.900002C8.7001 0.384018 8.31609 0 7.8001 0H6.0001C5.48412 0 5.1001 0.384018 5.1001 0.900002C5.1001 1.41599 5.48412 1.8 6.0001 1.8Z" fill="#88898B"/>
<path d="M6.0001 1.8H7.8001C8.31609 1.8 8.7001 1.41599 8.7001 0.900002C8.7001 0.384018 8.31609 0 7.8001 0H6.0001C5.48412 0 5.1001 0.384018 5.1001 0.900002C5.1001 1.41599 5.48412 1.8 6.0001 1.8Z" fill="#88898B"/>
<path d="M6.0001 1.8H7.8001C8.31609 1.8 8.7001 1.41599 8.7001 0.900002C8.7001 0.384018 8.31609 0 7.8001 0H6.0001C5.48412 0 5.1001 0.384018 5.1001 0.900002C5.1001 1.41599 5.48412 1.8 6.0001 1.8Z" fill="#88898B"/>
<path d="M6.0001 1.8H7.8001C8.31609 1.8 8.7001 1.41599 8.7001 0.900002C8.7001 0.384018 8.31609 0 7.8001 0H6.0001C5.48412 0 5.1001 0.384018 5.1001 0.900002C5.1001 1.41599 5.48412 1.8 6.0001 1.8Z" fill="#88898B"/>
<path d="M6.0001 1.8H7.8001C8.31609 1.8 8.7001 1.41599 8.7001 0.900002C8.7001 0.384018 8.31609 0 7.8001 0H6.0001C5.48412 0 5.1001 0.384018 5.1001 0.900002C5.1001 1.41599 5.48412 1.8 6.0001 1.8Z" fill="#88898B"/>
<path d="M6.0001 1.8H7.8001C8.31609 1.8 8.7001 1.41599 8.7001 0.900002C8.7001 0.384018 8.31609 0 7.8001 0H6.0001C5.48412 0 5.1001 0.384018 5.1001 0.900002C5.1001 1.41599 5.48412 1.8 6.0001 1.8Z" fill="#88898B"/>
<path d="M13.2001 0.599956H9.87602C9.87602 0.599956 9.90003 0.815915 9.90003 0.899991C9.90003 2.06398 8.97601 2.99993 7.79999 2.99993H5.99999C4.82397 2.99993 3.89995 2.06398 3.89995 0.899888C3.89995 0.815916 3.89995 0.599854 3.92396 0.599854L1.20004 0.599954C0.540001 0.599954 0 1.13995 0 1.79999V10.8C0 11.46 0.540001 12 1.20004 12H13.2001C13.8602 12 14.4002 11.46 14.4002 10.8L14.4001 1.79999C14.4001 1.13995 13.8601 0.599954 13.2 0.599954L13.2001 0.599956ZM5.91601 9.59997H2.48418C2.10016 9.59997 1.80013 9.23997 1.80013 8.85595C1.80013 8.25599 2.42411 7.92 3.08415 7.65592C3.54016 7.47592 3.60013 7.29592 3.60013 7.07997C3.60013 6.89997 3.4801 6.71997 3.32411 6.56398C3.06013 6.32402 2.90415 5.96402 2.90415 5.58C2.9161 4.82395 3.36016 4.19996 4.17611 4.19996C4.98009 4.19996 5.43611 4.82395 5.43611 5.58C5.43611 5.96402 5.29207 6.32402 5.01614 6.56398C4.8721 6.70802 4.74012 6.89997 4.74012 7.07997C4.74012 7.25997 4.80009 7.43997 5.25611 7.65592C5.91614 7.9199 6.54013 8.25588 6.54013 8.85595C6.60019 9.23997 6.30016 9.59997 5.91614 9.59997H5.91601ZM12.5999 8.39993C12.5999 8.57993 12.4799 8.69997 12.2999 8.69997H8.09998C7.91998 8.69997 7.79995 8.57993 7.79995 8.39993V7.79997C7.79995 7.61997 7.91998 7.49993 8.09998 7.49993H12.2999C12.4799 7.49993 12.5999 7.61997 12.5999 7.79997V8.39993ZM13.1999 5.99996C13.1999 6.17996 13.0799 6.3 12.8999 6.3H8.09978C7.91978 6.3 7.79974 6.17996 7.79974 5.99996V5.4C7.79974 5.22 7.91978 5.09996 8.09978 5.09996H12.8999C13.0799 5.09996 13.1999 5.22 13.1999 5.4V5.99996Z" fill="#88898B"/>
<path d="M13.2001 0.599956H9.87602C9.87602 0.599956 9.90003 0.815915 9.90003 0.899991C9.90003 2.06398 8.97601 2.99993 7.79999 2.99993H5.99999C4.82397 2.99993 3.89995 2.06398 3.89995 0.899888C3.89995 0.815916 3.89995 0.599854 3.92396 0.599854L1.20004 0.599954C0.540001 0.599954 0 1.13995 0 1.79999V10.8C0 11.46 0.540001 12 1.20004 12H13.2001C13.8602 12 14.4002 11.46 14.4002 10.8L14.4001 1.79999C14.4001 1.13995 13.8601 0.599954 13.2 0.599954L13.2001 0.599956ZM5.91601 9.59997H2.48418C2.10016 9.59997 1.80013 9.23997 1.80013 8.85595C1.80013 8.25599 2.42411 7.92 3.08415 7.65592C3.54016 7.47592 3.60013 7.29592 3.60013 7.07997C3.60013 6.89997 3.4801 6.71997 3.32411 6.56398C3.06013 6.32402 2.90415 5.96402 2.90415 5.58C2.9161 4.82395 3.36016 4.19996 4.17611 4.19996C4.98009 4.19996 5.43611 4.82395 5.43611 5.58C5.43611 5.96402 5.29207 6.32402 5.01614 6.56398C4.8721 6.70802 4.74012 6.89997 4.74012 7.07997C4.74012 7.25997 4.80009 7.43997 5.25611 7.65592C5.91614 7.9199 6.54013 8.25588 6.54013 8.85595C6.60019 9.23997 6.30016 9.59997 5.91614 9.59997H5.91601ZM12.5999 8.39993C12.5999 8.57993 12.4799 8.69997 12.2999 8.69997H8.09998C7.91998 8.69997 7.79995 8.57993 7.79995 8.39993V7.79997C7.79995 7.61997 7.91998 7.49993 8.09998 7.49993H12.2999C12.4799 7.49993 12.5999 7.61997 12.5999 7.79997V8.39993ZM13.1999 5.99996C13.1999 6.17996 13.0799 6.3 12.8999 6.3H8.09978C7.91978 6.3 7.79974 6.17996 7.79974 5.99996V5.4C7.79974 5.22 7.91978 5.09996 8.09978 5.09996H12.8999C13.0799 5.09996 13.1999 5.22 13.1999 5.4V5.99996Z" fill="#88898B"/>
<path d="M13.2001 0.599956H9.87602C9.87602 0.599956 9.90003 0.815915 9.90003 0.899991C9.90003 2.06398 8.97601 2.99993 7.79999 2.99993H5.99999C4.82397 2.99993 3.89995 2.06398 3.89995 0.899888C3.89995 0.815916 3.89995 0.599854 3.92396 0.599854L1.20004 0.599954C0.540001 0.599954 0 1.13995 0 1.79999V10.8C0 11.46 0.540001 12 1.20004 12H13.2001C13.8602 12 14.4002 11.46 14.4002 10.8L14.4001 1.79999C14.4001 1.13995 13.8601 0.599954 13.2 0.599954L13.2001 0.599956ZM5.91601 9.59997H2.48418C2.10016 9.59997 1.80013 9.23997 1.80013 8.85595C1.80013 8.25599 2.42411 7.92 3.08415 7.65592C3.54016 7.47592 3.60013 7.29592 3.60013 7.07997C3.60013 6.89997 3.4801 6.71997 3.32411 6.56398C3.06013 6.32402 2.90415 5.96402 2.90415 5.58C2.9161 4.82395 3.36016 4.19996 4.17611 4.19996C4.98009 4.19996 5.43611 4.82395 5.43611 5.58C5.43611 5.96402 5.29207 6.32402 5.01614 6.56398C4.8721 6.70802 4.74012 6.89997 4.74012 7.07997C4.74012 7.25997 4.80009 7.43997 5.25611 7.65592C5.91614 7.9199 6.54013 8.25588 6.54013 8.85595C6.60019 9.23997 6.30016 9.59997 5.91614 9.59997H5.91601ZM12.5999 8.39993C12.5999 8.57993 12.4799 8.69997 12.2999 8.69997H8.09998C7.91998 8.69997 7.79995 8.57993 7.79995 8.39993V7.79997C7.79995 7.61997 7.91998 7.49993 8.09998 7.49993H12.2999C12.4799 7.49993 12.5999 7.61997 12.5999 7.79997V8.39993ZM13.1999 5.99996C13.1999 6.17996 13.0799 6.3 12.8999 6.3H8.09978C7.91978 6.3 7.79974 6.17996 7.79974 5.99996V5.4C7.79974 5.22 7.91978 5.09996 8.09978 5.09996H12.8999C13.0799 5.09996 13.1999 5.22 13.1999 5.4V5.99996Z" fill="#88898B"/>
<path d="M13.2001 0.599956H9.87602C9.87602 0.599956 9.90003 0.815915 9.90003 0.899991C9.90003 2.06398 8.97601 2.99993 7.79999 2.99993H5.99999C4.82397 2.99993 3.89995 2.06398 3.89995 0.899888C3.89995 0.815916 3.89995 0.599854 3.92396 0.599854L1.20004 0.599954C0.540001 0.599954 0 1.13995 0 1.79999V10.8C0 11.46 0.540001 12 1.20004 12H13.2001C13.8602 12 14.4002 11.46 14.4002 10.8L14.4001 1.79999C14.4001 1.13995 13.8601 0.599954 13.2 0.599954L13.2001 0.599956ZM5.91601 9.59997H2.48418C2.10016 9.59997 1.80013 9.23997 1.80013 8.85595C1.80013 8.25599 2.42411 7.92 3.08415 7.65592C3.54016 7.47592 3.60013 7.29592 3.60013 7.07997C3.60013 6.89997 3.4801 6.71997 3.32411 6.56398C3.06013 6.32402 2.90415 5.96402 2.90415 5.58C2.9161 4.82395 3.36016 4.19996 4.17611 4.19996C4.98009 4.19996 5.43611 4.82395 5.43611 5.58C5.43611 5.96402 5.29207 6.32402 5.01614 6.56398C4.8721 6.70802 4.74012 6.89997 4.74012 7.07997C4.74012 7.25997 4.80009 7.43997 5.25611 7.65592C5.91614 7.9199 6.54013 8.25588 6.54013 8.85595C6.60019 9.23997 6.30016 9.59997 5.91614 9.59997H5.91601ZM12.5999 8.39993C12.5999 8.57993 12.4799 8.69997 12.2999 8.69997H8.09998C7.91998 8.69997 7.79995 8.57993 7.79995 8.39993V7.79997C7.79995 7.61997 7.91998 7.49993 8.09998 7.49993H12.2999C12.4799 7.49993 12.5999 7.61997 12.5999 7.79997V8.39993ZM13.1999 5.99996C13.1999 6.17996 13.0799 6.3 12.8999 6.3H8.09978C7.91978 6.3 7.79974 6.17996 7.79974 5.99996V5.4C7.79974 5.22 7.91978 5.09996 8.09978 5.09996H12.8999C13.0799 5.09996 13.1999 5.22 13.1999 5.4V5.99996Z" fill="#88898B"/>
<path d="M13.2001 0.599956H9.87602C9.87602 0.599956 9.90003 0.815915 9.90003 0.899991C9.90003 2.06398 8.97601 2.99993 7.79999 2.99993H5.99999C4.82397 2.99993 3.89995 2.06398 3.89995 0.899888C3.89995 0.815916 3.89995 0.599854 3.92396 0.599854L1.20004 0.599954C0.540001 0.599954 0 1.13995 0 1.79999V10.8C0 11.46 0.540001 12 1.20004 12H13.2001C13.8602 12 14.4002 11.46 14.4002 10.8L14.4001 1.79999C14.4001 1.13995 13.8601 0.599954 13.2 0.599954L13.2001 0.599956ZM5.91601 9.59997H2.48418C2.10016 9.59997 1.80013 9.23997 1.80013 8.85595C1.80013 8.25599 2.42411 7.92 3.08415 7.65592C3.54016 7.47592 3.60013 7.29592 3.60013 7.07997C3.60013 6.89997 3.4801 6.71997 3.32411 6.56398C3.06013 6.32402 2.90415 5.96402 2.90415 5.58C2.9161 4.82395 3.36016 4.19996 4.17611 4.19996C4.98009 4.19996 5.43611 4.82395 5.43611 5.58C5.43611 5.96402 5.29207 6.32402 5.01614 6.56398C4.8721 6.70802 4.74012 6.89997 4.74012 7.07997C4.74012 7.25997 4.80009 7.43997 5.25611 7.65592C5.91614 7.9199 6.54013 8.25588 6.54013 8.85595C6.60019 9.23997 6.30016 9.59997 5.91614 9.59997H5.91601ZM12.5999 8.39993C12.5999 8.57993 12.4799 8.69997 12.2999 8.69997H8.09998C7.91998 8.69997 7.79995 8.57993 7.79995 8.39993V7.79997C7.79995 7.61997 7.91998 7.49993 8.09998 7.49993H12.2999C12.4799 7.49993 12.5999 7.61997 12.5999 7.79997V8.39993ZM13.1999 5.99996C13.1999 6.17996 13.0799 6.3 12.8999 6.3H8.09978C7.91978 6.3 7.79974 6.17996 7.79974 5.99996V5.4C7.79974 5.22 7.91978 5.09996 8.09978 5.09996H12.8999C13.0799 5.09996 13.1999 5.22 13.1999 5.4V5.99996Z" fill="#88898B"/>
<path d="M13.2001 0.599956H9.87602C9.87602 0.599956 9.90003 0.815915 9.90003 0.899991C9.90003 2.06398 8.97601 2.99993 7.79999 2.99993H5.99999C4.82397 2.99993 3.89995 2.06398 3.89995 0.899888C3.89995 0.815916 3.89995 0.599854 3.92396 0.599854L1.20004 0.599954C0.540001 0.599954 0 1.13995 0 1.79999V10.8C0 11.46 0.540001 12 1.20004 12H13.2001C13.8602 12 14.4002 11.46 14.4002 10.8L14.4001 1.79999C14.4001 1.13995 13.8601 0.599954 13.2 0.599954L13.2001 0.599956ZM5.91601 9.59997H2.48418C2.10016 9.59997 1.80013 9.23997 1.80013 8.85595C1.80013 8.25599 2.42411 7.92 3.08415 7.65592C3.54016 7.47592 3.60013 7.29592 3.60013 7.07997C3.60013 6.89997 3.4801 6.71997 3.32411 6.56398C3.06013 6.32402 2.90415 5.96402 2.90415 5.58C2.9161 4.82395 3.36016 4.19996 4.17611 4.19996C4.98009 4.19996 5.43611 4.82395 5.43611 5.58C5.43611 5.96402 5.29207 6.32402 5.01614 6.56398C4.8721 6.70802 4.74012 6.89997 4.74012 7.07997C4.74012 7.25997 4.80009 7.43997 5.25611 7.65592C5.91614 7.9199 6.54013 8.25588 6.54013 8.85595C6.60019 9.23997 6.30016 9.59997 5.91614 9.59997H5.91601ZM12.5999 8.39993C12.5999 8.57993 12.4799 8.69997 12.2999 8.69997H8.09998C7.91998 8.69997 7.79995 8.57993 7.79995 8.39993V7.79997C7.79995 7.61997 7.91998 7.49993 8.09998 7.49993H12.2999C12.4799 7.49993 12.5999 7.61997 12.5999 7.79997V8.39993ZM13.1999 5.99996C13.1999 6.17996 13.0799 6.3 12.8999 6.3H8.09978C7.91978 6.3 7.79974 6.17996 7.79974 5.99996V5.4C7.79974 5.22 7.91978 5.09996 8.09978 5.09996H12.8999C13.0799 5.09996 13.1999 5.22 13.1999 5.4V5.99996Z" fill="#88898B"/>
</svg>
