<svg width="23" height="24" viewBox="0 0 23 24" fill="none" xmlns="http://www.w3.org/2000/svg">
<g clip-path="url(#clip0_21261_4401)">
<path d="M22.8428 8.7207C22.8428 8.2245 22.3425 8 21.8497 8C21.3569 8 20.3599 8.2245 20.3599 8.7207V16.5C19.7198 16.5 20.1971 16.5 19.7198 16.5H3.97267C3.13587 16.5 2.48292 16.3984 2.48292 15.5C2.48292 14.6016 3.13587 14.5 3.97267 14.5H5.46242C5.95524 14.5 6.45559 13.4962 6.45559 13V5.69885H11.823C12.3158 5.69885 12.9112 4.99621 12.9112 4.5C12.9112 4.00379 12.3158 3.33084 11.823 3.33084H6.45559V1.5C6.45559 1.00379 6.45182 0.5 5.959 0.5H3.30217C1.48135 0.5 0 1.99154 0 3.82489V15.5931C0 17.4264 1.48135 18.918 3.30217 18.918H16.0756V22.5C16.0756 22.9962 17.1301 23.5 17.6229 23.5H19.7198C21.4419 23.5 22.8428 22.0894 22.8428 20.3555C22.8428 20.3428 22.8428 8.7207 22.8428 8.7207ZM2.48292 3.82489C2.48292 2.98234 2.46538 2.79248 3.30217 2.79248H4.05996V12.1797H3.30217C2.75537 12.1797 2.93759 12.2616 2.48292 12.5V3.82489ZM19.7198 21.3811H18.5152V18.918H19.7198C20.4257 18.918 20.8073 19.2939 20.8565 20V20.4453C20.8565 21 20.4265 21.3811 19.7198 21.3811ZM12.2997 11.0102C12.4699 11.186 12.7012 11.2813 12.9384 11.2813C13.0178 11.2813 13.0979 11.2706 13.1765 11.2486L16.8838 10.5C17.0321 10.4587 17.5713 10.3535 17.6801 10.2441L22.3463 5.5C23.39 4.4491 23.1026 2.3404 22.0588 1.28946C21.0151 0.2386 18.92 0.239229 17.877 1.28946L12.9112 6C12.8071 6.10453 12.4146 6.5 12.4146 7L12.0845 10.1217C11.99 10.4352 12.0724 10.7757 12.2997 11.0102ZM19.8633 3C20.2112 2.6497 20.5087 2.6497 20.8565 3C21.2045 3.3503 20.7073 4.15028 20.3599 4.5L19.3668 3.5L19.8633 3ZM15.3941 7.5L18.3736 4.5L19.3668 5.5L16.3873 8.5L14.8975 9L15.3941 7.5Z" fill="black"/>
</g>
<defs>
<clipPath id="clip0_21261_4401">
<rect width="23" height="23" fill="white" transform="translate(0 0.5)"/>
</clipPath>
</defs>
</svg>
