<svg width="15" height="15" viewBox="0 0 15 15" fill="none" xmlns="http://www.w3.org/2000/svg">
<g opacity="0.5">
<g clip-path="url(#clip0_786_1305)">
<path d="M15 5.36133C15 5.03771 14.7352 4.77539 14.4116 4.77539C14.088 4.77539 13.8256 5.03771 13.8256 5.36133V11.0379C13.5597 10.9111 13.2626 10.8398 12.9492 10.8398H2.16841C1.61892 10.8398 1.17188 10.4004 1.17188 9.81445C1.17188 9.22852 1.61892 8.78906 2.16841 8.78906H3.25195C3.57557 8.78906 3.83789 8.52674 3.83789 8.20312V3.01808H7.76367C8.08729 3.01808 8.34961 2.75575 8.34961 2.43214C8.34961 2.10853 8.08729 1.8462 7.76367 1.8462H3.83789V0.585938C3.83789 0.262324 3.57557 0 3.25195 0H2.16841C0.972744 0 0 0.972744 0 2.16841V9.84334C0 11.039 0.972744 12.0117 2.16841 12.0117H10.9863V14.4141C10.9863 14.7377 11.2487 15 11.5723 15H12.9492C14.08 15 15 14.08 15 12.9492C15 12.941 15 5.36133 15 5.36133ZM1.17188 2.16841C1.17188 1.61892 1.61892 1.17188 2.16841 1.17188H2.66602V7.61719H2.16841C1.80935 7.61719 1.47044 7.70511 1.17188 7.86059V2.16841ZM12.9492 13.8281H12.1582V12.0117H12.9492C13.4127 12.0117 13.7933 12.3764 13.8256 12.8369V13.0078C13.8256 13.0087 13.8258 13.0095 13.8258 13.0103C13.7943 13.4665 13.4133 13.8281 12.9492 13.8281ZM8.07671 6.8545C8.18851 6.96911 8.34038 7.03128 8.49612 7.03128C8.54827 7.03128 8.60086 7.02431 8.65251 7.00998L11.0175 6.35487C11.1148 6.32792 11.2036 6.27624 11.275 6.2049L14.4852 3.00079C15.1705 2.31542 15.1705 1.20026 14.4852 0.514863C13.7998 -0.170479 12.6846 -0.170537 11.9997 0.514395L8.78279 3.72416C8.71447 3.79233 8.66402 3.8763 8.63599 3.96864L7.93544 6.27504C7.87333 6.4795 7.92747 6.70154 8.07671 6.8545ZM12.8279 1.3435C13.0563 1.11504 13.428 1.11504 13.6565 1.3435C13.885 1.57195 13.885 1.94367 13.6569 2.17175L13.5434 2.28504L12.7147 1.45638L12.8279 1.3435ZM9.71458 4.44987L11.8852 2.28413L12.714 3.11291L10.5562 5.26664L9.36639 5.59623L9.71458 4.44987Z" fill="#111727"/>
</g>
</g>
<defs>
<clipPath id="clip0_786_1305">
<rect width="15" height="15" fill="white"/>
</clipPath>
</defs>
</svg>
