<svg width="28" height="28" viewBox="0 0 28 28" fill="none" xmlns="http://www.w3.org/2000/svg">
<circle cx="14" cy="14" r="14" fill="#CFC8FF"/>
<path d="M16.9704 19.0274C16.6996 19.1838 16.3596 19.1117 16.1734 18.8711L16.1266 18.8013L10.5193 9.08918C10.3487 8.79377 10.45 8.41602 10.7454 8.24546C11.0162 8.08912 11.3562 8.16114 11.5423 8.40177L11.5891 8.47154L17.1964 18.1837C17.367 18.4791 17.2658 18.8569 16.9704 19.0274Z" fill="black"/>
<path d="M17.2588 18.6516C17.179 18.9523 16.8907 19.1419 16.5907 19.1067L16.5006 19.0893L11.9055 17.8467C11.5762 17.7576 11.3814 17.4185 11.4705 17.0892C11.5514 16.7899 11.8391 16.6017 12.1381 16.6369L12.228 16.6542L16.2244 17.7351L17.2863 13.7338C17.3658 13.4341 17.6526 13.2446 17.9518 13.2784L18.0417 13.2953C18.3414 13.3749 18.5309 13.6617 18.4971 13.9608L18.4802 14.0508L17.2588 18.6516Z" fill="black"/>
</svg>
