<svg width="20" height="20" viewBox="0 0 20 20" fill="none" xmlns="http://www.w3.org/2000/svg">
<path d="M1.42286 15.8007C1.58442 17.2405 2.73348 18.3889 4.17271 18.5557C6.05472 18.7739 8.00366 19 10 19C11.9963 19 13.9453 18.7739 15.8273 18.5557C17.2665 18.3889 18.4156 17.2405 18.5771 15.8007C18.7874 13.9272 19 11.9871 19 10C19 8.01286 18.7874 6.07285 18.5771 4.19932C18.4156 2.75949 17.2665 1.61113 15.8273 1.44426C13.9453 1.22606 11.9963 1 10 1C8.00366 1 6.05472 1.22606 4.17271 1.44426C2.73348 1.61113 1.58442 2.75949 1.42286 4.19932C1.21263 6.07285 1 8.01286 1 10C1 11.9871 1.21263 13.9272 1.42286 15.8007Z" fill="#F9F9FB"/>
<path d="M18.5771 4.19932L19.3225 4.11569L18.5771 4.19932ZM18.5771 15.8007L17.8318 15.717L18.5771 15.8007ZM4.17271 18.5557L4.25909 17.8107L4.17271 18.5557ZM10 18.25C8.05391 18.25 6.14744 18.0297 4.25909 17.8107L4.08633 19.3007C5.962 19.5182 7.9534 19.75 10 19.75V18.25ZM15.7409 17.8107C13.8526 18.0297 11.9461 18.25 10 18.25V19.75C12.0466 19.75 14.038 19.5182 15.9137 19.3007L15.7409 17.8107ZM19.3225 15.8843C19.5322 14.015 19.75 12.0351 19.75 10H18.25C18.25 11.9392 18.0425 13.8393 17.8318 15.717L19.3225 15.8843ZM19.75 10C19.75 7.96491 19.5322 5.98503 19.3225 4.11569L17.8318 4.28295C18.0425 6.16066 18.25 8.06081 18.25 10H19.75ZM10 1.75C11.9461 1.75 13.8526 1.97033 15.7409 2.18927L15.9137 0.699252C14.038 0.481786 12.0466 0.25 10 0.25V1.75ZM4.25909 2.18927C6.14744 1.97033 8.05391 1.75 10 1.75V0.25C7.9534 0.25 5.962 0.481786 4.08633 0.699252L4.25909 2.18927ZM0.677536 4.11569C0.46778 5.98503 0.25 7.96491 0.25 10H1.75C1.75 8.06081 1.95749 6.16066 2.16818 4.28295L0.677536 4.11569ZM0.25 10C0.25 12.0351 0.46778 14.015 0.677537 15.8843L2.16818 15.717C1.95749 13.8393 1.75 11.9392 1.75 10H0.25ZM19.3225 4.11569C19.1218 2.32729 17.6981 0.906141 15.9137 0.699252L15.7409 2.18927C16.8349 2.31611 17.7094 3.19168 17.8318 4.28295L19.3225 4.11569ZM15.9137 19.3007C17.6981 19.0939 19.1218 17.6727 19.3225 15.8843L17.8318 15.717C17.7094 16.8083 16.8349 17.6839 15.7409 17.8107L15.9137 19.3007ZM4.08633 0.699252C2.30189 0.90614 0.878211 2.32729 0.677536 4.11569L2.16818 4.28295C2.29063 3.19168 3.16507 2.31611 4.25909 2.18927L4.08633 0.699252ZM4.25909 17.8107C3.16507 17.6839 2.29063 16.8083 2.16818 15.717L0.677537 15.8843C0.878211 17.6727 2.30189 19.0939 4.08633 19.3007L4.25909 17.8107Z" fill="#888B93"/>
<path d="M9.99504 10.9483C9.99504 10.4284 10.4179 10.1095 11.1639 9.61102C11.8559 9.14865 12.2209 8.54886 12.0586 7.7326C11.8962 6.91634 11.2218 6.24189 10.4055 6.07953C9.1242 5.82466 7.89111 6.83662 7.89111 8.14302" stroke="#888B93" stroke-width="1.5" stroke-linecap="round" stroke-linejoin="round"/>
<path d="M9.99445 13.9424C9.89504 13.9424 9.81445 13.8618 9.81445 13.7624C9.81445 13.663 9.89504 13.5824 9.99445 13.5824" stroke="#888B93" stroke-width="1.5"/>
<path d="M9.99432 13.9424C10.0937 13.9424 10.1743 13.8618 10.1743 13.7624C10.1743 13.663 10.0937 13.5824 9.99432 13.5824" stroke="#888B93" stroke-width="1.5"/>
</svg>
