<svg width="13" height="13" viewBox="0 0 13 13" fill="none" xmlns="http://www.w3.org/2000/svg">
<mask id="mask0_2885_1489" style="mask-type:alpha" maskUnits="userSpaceOnUse" x="0" y="0" width="13" height="13">
<rect width="13" height="13" fill="#D9D9D9"/>
</mask>
<g mask="url(#mask0_2885_1489)">
<path d="M10.6167 11.0377L7.20417 7.66308C6.93333 7.87734 6.62188 8.04696 6.26979 8.17194C5.91771 8.29693 5.54306 8.35942 5.14583 8.35942C4.16181 8.35942 3.32908 8.0225 2.64767 7.34865C1.96589 6.67445 1.625 5.8508 1.625 4.87771C1.625 3.90461 1.96589 3.08097 2.64767 2.40676C3.32908 1.73292 4.16181 1.396 5.14583 1.396C6.12986 1.396 6.96276 1.73292 7.64454 2.40676C8.32596 3.08097 8.66667 3.90461 8.66667 4.87771C8.66667 5.27052 8.60347 5.64101 8.47708 5.98918C8.35069 6.33735 8.17917 6.64535 7.9625 6.91317L11.375 10.2878L10.6167 11.0377ZM5.14583 7.28813C5.82292 7.28813 6.39853 7.05387 6.87267 6.58535C7.34644 6.11648 7.58333 5.54727 7.58333 4.87771C7.58333 4.20815 7.34644 3.63893 6.87267 3.17006C6.39853 2.70155 5.82292 2.46729 5.14583 2.46729C4.46875 2.46729 3.89314 2.70155 3.419 3.17006C2.94522 3.63893 2.70833 4.20815 2.70833 4.87771C2.70833 5.54727 2.94522 6.11648 3.419 6.58535C3.89314 7.05387 4.46875 7.28813 5.14583 7.28813Z" fill="#1C1B1F"/>
</g>
</svg>
