<svg width="11" height="14" viewBox="0 0 11 14" fill="none" xmlns="http://www.w3.org/2000/svg">
<path d="M8.75814 7.06183C8.74343 6.67952 8.74732 6.29578 8.75074 5.92409C8.75244 5.75703 8.75415 5.59026 8.75415 5.42368L8.75453 4.99101V4.86901C8.75368 4.40494 8.75282 3.92546 8.75709 3.45095C8.16656 3.30732 7.57088 3.15808 6.994 3.01361C6.5229 2.8955 6.03585 2.77388 5.55706 2.65595C5.52281 2.6477 5.47737 2.64723 5.44673 2.65472C4.97649 2.77008 4.49816 2.88999 4.03532 3.00601C3.44799 3.15306 2.84153 3.30456 2.24121 3.45037L2.24292 3.84795C2.24842 4.91642 2.25459 6.02162 2.23912 7.11025C2.22831 7.87166 2.465 8.53419 2.96182 9.13772C3.56952 9.87491 4.37666 10.4518 5.49846 10.9505C6.45301 10.5341 7.21012 10.0249 7.81129 9.395C8.48169 8.69215 8.79153 7.92904 8.75814 7.06187L8.75814 7.06183ZM7.62705 5.51352C7.33827 5.88417 7.04866 6.25384 6.76044 6.62488C6.2917 7.22928 5.82505 7.83528 5.3552 8.4388C5.0908 8.77842 4.8781 8.77472 4.62672 8.43055C4.21112 7.86173 3.79523 7.29301 3.38019 6.72373C3.23998 6.53124 3.2414 6.33268 3.38189 6.20224C3.52192 6.07218 3.7234 6.08499 3.90185 6.23943C4.20676 6.50353 4.50984 6.77029 4.81436 7.03527C4.86322 7.07777 4.91596 7.11619 5.01605 7.1955C5.05532 7.13213 5.08132 7.06591 5.12742 7.01952C5.76851 6.37415 6.41114 5.7301 7.05758 5.09005C7.1273 5.02098 7.2178 4.95534 7.30983 4.93067C7.46237 4.88969 7.59737 4.94983 7.6764 5.09365C7.75836 5.24221 7.7282 5.38365 7.62707 5.51353L7.62705 5.51352Z" fill="#88898B"/>
<path d="M10.9354 7.03753C10.9265 6.80359 10.9239 6.56386 10.9241 6.32498H10.9329L10.9325 4.5379C10.9314 3.95314 10.9306 3.34828 10.9366 2.75802C10.9446 2.03676 10.5338 1.50551 9.83772 1.33682C9.15961 1.17251 8.46813 0.999564 7.79942 0.832333L7.50143 0.757768C6.99571 0.631123 6.47289 0.500218 5.95805 0.373763C5.66225 0.300905 5.33886 0.300432 5.04809 0.372055C4.48221 0.510843 3.9191 0.651729 3.39487 0.783212C2.74588 0.945812 1.93801 1.14789 1.16874 1.33362C0.47242 1.50154 0.0588104 2.0381 0.0620404 2.76922L0.0652657 3.40522C0.0716218 4.629 0.0784522 5.8945 0.0606173 7.13356C0.0427826 8.40686 0.45203 9.56014 1.27699 10.5617C2.16711 11.6417 3.32163 12.4685 4.91086 13.1642C5.08646 13.2407 5.2871 13.2812 5.49107 13.2812C5.70063 13.2812 5.91039 13.2387 6.09773 13.1581C7.43903 12.5808 8.51236 11.8584 9.3797 10.9502C10.4675 9.81002 10.9909 8.49346 10.9354 7.03754L10.9354 7.03753ZM8.46118 10.1378C7.68963 10.9466 6.71953 11.6034 5.49881 12.1427C4.06253 11.497 3.02604 10.7517 2.24477 9.8044C1.60793 9.03172 1.3053 8.18304 1.31917 7.20923C1.33956 5.761 1.33188 4.29178 1.32448 2.87107L1.32239 2.46647C2.07933 2.28243 2.84176 2.09164 3.58172 1.9063C4.19882 1.75185 4.83671 1.59201 5.46529 1.43795C5.47971 1.43434 5.51605 1.4333 5.54223 1.43984C6.16484 1.59305 6.79807 1.75157 7.41053 1.90496C8.15134 2.09052 8.91464 2.28178 9.67537 2.46742C9.6711 3.05501 9.67195 3.64642 9.67299 4.22092V4.25365L9.67262 4.97064C9.67262 5.19187 9.67053 5.4131 9.66835 5.63451C9.66341 6.12819 9.65858 6.63858 9.67774 7.14858C9.72005 8.25795 9.32227 9.23572 8.46127 10.1379L8.46118 10.1378Z" fill="#88898B"/>
</svg>
