<svg width="23" height="20" viewBox="0 0 23 20" fill="none" xmlns="http://www.w3.org/2000/svg">
<mask id="mask0_16805_2022" style="mask-type:alpha" maskUnits="userSpaceOnUse" x="0" y="0" width="23" height="20">
<rect y="0.5" width="23" height="19" fill="#D9D9D9"/>
</mask>
<g mask="url(#mask0_16805_2022)">
<path d="M2.3 19.5C1.6675 19.5 1.12623 19.2676 0.6762 18.8029C0.2254 18.3374 0 17.7781 0 17.125V12.375C0.6325 12.375 1.17415 12.1423 1.62495 11.6767C2.07498 11.212 2.3 10.6531 2.3 10C2.3 9.34688 2.07498 8.78756 1.62495 8.32206C1.17415 7.85735 0.6325 7.625 0 7.625V2.875C0 2.22187 0.2254 1.66296 0.6762 1.19825C1.12623 0.73275 1.6675 0.5 2.3 0.5H20.7C21.3325 0.5 21.8741 0.73275 22.3249 1.19825C22.775 1.66296 23 2.22187 23 2.875V7.625C22.3675 7.625 21.8258 7.85735 21.375 8.32206C20.925 8.78756 20.7 9.34688 20.7 10C20.7 10.6531 20.925 11.212 21.375 11.6767C21.8258 12.1423 22.3675 12.375 23 12.375V17.125C23 17.7781 22.775 18.3374 22.3249 18.8029C21.8741 19.2676 21.3325 19.5 20.7 19.5H2.3ZM2.3 17.125H20.7V14.0969C19.9908 13.6615 19.4304 13.0828 19.0187 12.3608C18.6062 11.638 18.4 10.851 18.4 10C18.4 9.14896 18.6062 8.36204 19.0187 7.63925C19.4304 6.91725 19.9908 6.33854 20.7 5.90313V2.875H2.3V5.90313C3.00917 6.33854 3.56998 6.91725 3.98245 7.63925C4.39415 8.36204 4.6 9.14896 4.6 10C4.6 10.851 4.39415 11.638 3.98245 12.3608C3.56998 13.0828 3.00917 13.6615 2.3 14.0969V17.125ZM11.5 15.9375C11.8258 15.9375 12.0991 15.8235 12.32 15.5955C12.54 15.3683 12.65 15.0865 12.65 14.75C12.65 14.4135 12.54 14.1313 12.32 13.9033C12.0991 13.6761 11.8258 13.5625 11.5 13.5625C11.1742 13.5625 10.9012 13.6761 10.6812 13.9033C10.4604 14.1313 10.35 14.4135 10.35 14.75C10.35 15.0865 10.4604 15.3683 10.6812 15.5955C10.9012 15.8235 11.1742 15.9375 11.5 15.9375ZM11.5 11.1875C11.8258 11.1875 12.0991 11.0735 12.32 10.8455C12.54 10.6183 12.65 10.3365 12.65 10C12.65 9.66354 12.54 9.38131 12.32 9.15331C12.0991 8.9261 11.8258 8.8125 11.5 8.8125C11.1742 8.8125 10.9012 8.9261 10.6812 9.15331C10.4604 9.38131 10.35 9.66354 10.35 10C10.35 10.3365 10.4604 10.6183 10.6812 10.8455C10.9012 11.0735 11.1742 11.1875 11.5 11.1875ZM11.5 6.4375C11.8258 6.4375 12.0991 6.3235 12.32 6.0955C12.54 5.86829 12.65 5.58646 12.65 5.25C12.65 4.91354 12.54 4.63131 12.32 4.40331C12.0991 4.1761 11.8258 4.0625 11.5 4.0625C11.1742 4.0625 10.9012 4.1761 10.6812 4.40331C10.4604 4.63131 10.35 4.91354 10.35 5.25C10.35 5.58646 10.4604 5.86829 10.6812 6.0955C10.9012 6.3235 11.1742 6.4375 11.5 6.4375Z" fill="black"/>
</g>
</svg>
