<svg width="23" height="24" viewBox="0 0 23 24" fill="none" xmlns="http://www.w3.org/2000/svg">
<g clip-path="url(#clip0_21261_4411)">
<path d="M22.8426 8.7207C22.8426 8.2245 22.3423 8 21.8495 8C21.3567 8 20.3597 8.2245 20.3597 8.7207V16.5C19.7196 16.5 20.1969 16.5 19.7196 16.5H3.97246C3.13566 16.5 2.4827 16.3984 2.4827 15.5C2.4827 14.6016 3.13566 14.5 3.97246 14.5H5.46221C5.95502 14.5 6.45537 13.4962 6.45537 13V5.69885H11.8227C12.3156 5.69885 12.911 4.99621 12.911 4.5C12.911 4.00379 12.3156 3.33084 11.8227 3.33084H6.45537V1.5C6.45537 1.00379 6.45161 0.5 5.95879 0.5H3.30196C1.48114 0.5 -0.000213623 1.99154 -0.000213623 3.82489V15.5931C-0.000213623 17.4264 1.48114 18.918 3.30196 18.918H16.0754V22.5C16.0754 22.9962 17.1299 23.5 17.6227 23.5H19.7196C21.4416 23.5 22.8426 22.0894 22.8426 20.3555C22.8426 20.3428 22.8426 8.7207 22.8426 8.7207ZM2.4827 3.82489C2.4827 2.98234 2.46516 2.79248 3.30196 2.79248H4.05975V12.1797H3.30196C2.75516 12.1797 2.93738 12.2616 2.4827 12.5V3.82489ZM19.7196 21.3811H18.515V18.918H19.7196C20.4254 18.918 20.8071 19.2939 20.8563 20V20.4453C20.8563 21 20.4263 21.3811 19.7196 21.3811ZM12.2995 11.0102C12.4697 11.186 12.701 11.2813 12.9382 11.2813C13.0176 11.2813 13.0977 11.2706 13.1763 11.2486L16.8836 10.5C17.0318 10.4587 17.5711 10.3535 17.6799 10.2441L22.3461 5.5C23.3898 4.4491 23.1023 2.3404 22.0586 1.28946C21.0149 0.2386 18.9198 0.239229 17.8768 1.28946L12.911 6C12.8069 6.10453 12.4144 6.5 12.4144 7L12.0843 10.1217C11.9897 10.4352 12.0722 10.7757 12.2995 11.0102ZM19.8631 3C20.211 2.6497 20.5084 2.6497 20.8563 3C21.2043 3.3503 20.707 4.15028 20.3597 4.5L19.3666 3.5L19.8631 3ZM15.3939 7.5L18.3734 4.5L19.3666 5.5L16.387 8.5L14.8973 9L15.3939 7.5Z" fill="black"/>
</g>
<defs>
<clipPath id="clip0_21261_4411">
<rect width="23" height="23" fill="white" transform="translate(0 0.5)"/>
</clipPath>
</defs>
</svg>
