<svg width="23" height="24" viewBox="0 0 23 24" fill="none" xmlns="http://www.w3.org/2000/svg">
<mask id="mask0_15889_837" style="mask-type:alpha" maskUnits="userSpaceOnUse" x="0" y="0" width="23" height="24">
<rect y="0.5" width="23" height="23" fill="#17A1FA"/>
</mask>
<g mask="url(#mask0_15889_837)">
<path d="M18.2082 18.708H7.6665C7.13942 18.708 6.68836 18.5205 6.31334 18.1455C5.93767 17.7698 5.74984 17.3184 5.74984 16.7913V3.37467C5.74984 2.84759 5.93767 2.39622 6.31334 2.02055C6.68836 1.64552 7.13942 1.45801 7.6665 1.45801H14.3748L20.1248 7.20801V16.7913C20.1248 17.3184 19.9373 17.7698 19.5623 18.1455C19.1866 18.5205 18.7353 18.708 18.2082 18.708ZM13.4165 8.16634V3.37467H7.6665V16.7913H18.2082V8.16634H13.4165ZM3.83317 22.5413C3.30609 22.5413 2.85503 22.3538 2.48 21.9788C2.10434 21.6031 1.9165 21.1518 1.9165 20.6247V7.20801H3.83317V20.6247H14.3748V22.5413H3.83317Z" fill="#17A1FA"/>
</g>
</svg>
