<svg width="46" height="44" viewBox="0 0 46 44" fill="none" xmlns="http://www.w3.org/2000/svg">
<ellipse opacity="0.2" cx="31.5523" cy="28.0854" rx="9.13357" ry="8.82683" fill="white"/>
<g clip-path="url(#clip0_7642_1196)">
<path d="M37.2801 14.6977L28.8937 10.6903C28.6021 10.5509 28.2576 10.5616 27.9759 10.7188L18.9891 15.7331C18.9885 15.7334 18.9879 15.7337 18.9873 15.734C18.9868 15.7343 18.9862 15.7347 18.9856 15.735L9.99882 20.7493C9.71703 20.9065 9.53526 21.1894 9.51438 21.5032L8.91226 30.5258C8.88137 30.9885 9.20413 31.4039 9.67252 31.5043L30.2909 35.9256C30.5372 35.9785 30.784 35.9359 30.9881 35.822C31.1923 35.7081 31.3539 35.5228 31.4297 35.2902L37.7769 15.8232C37.9211 15.381 37.7102 14.9032 37.2801 14.6977ZM19.9597 23.8782L20.3509 18.0165L25.7993 20.62L19.9597 23.8782ZM27.1437 22.0414L29.078 32.6246L20.5613 25.7142L27.1437 22.0414ZM21.535 16.4843L27.3744 13.2261L26.9832 19.0876L21.535 16.4843ZM17.9946 24.1029L12.5464 21.4995L18.3858 18.2414L17.9946 24.1029ZM16.8107 25.6352L10.9712 28.8934L11.3624 23.0318L16.8107 25.6352ZM18.7681 26.7147L26.8313 33.2573L12.5361 30.1919L18.7681 26.7147ZM28.937 21.0409L35.169 17.5637L30.7683 31.0606L28.937 21.0409ZM28.9483 18.8629L29.3395 13.0013L34.7878 15.6047L28.9483 18.8629Z" fill="#FF8E09"/>
<path d="M26.9652 9.05396C27.1809 8.93362 27.3491 8.73375 27.4185 8.48295L28.4259 4.84972C28.565 4.34811 28.257 3.83245 27.7379 3.69803C27.2189 3.56364 26.6853 3.86135 26.5462 4.36296L25.5388 7.99619C25.3997 8.4978 25.7077 9.01346 26.2268 9.14788C26.4864 9.21509 26.7496 9.17429 26.9652 9.05396Z" fill="#FF8E09"/>
<path d="M17.3006 12.9107C17.766 12.651 17.9254 12.0759 17.6568 11.6261L15.7107 8.36864C15.442 7.91889 14.8469 7.76479 14.3815 8.02445C13.9161 8.28411 13.7566 8.85925 14.0253 9.309L15.9714 12.5665C16.2401 13.0163 16.8352 13.1704 17.3006 12.9107Z" fill="#FF8E09"/>
<path d="M8.27374 19.1649C8.53329 19.2321 8.79648 19.1913 9.01209 19.071C9.2277 18.9507 9.39591 18.7508 9.4654 18.5C9.60452 17.9984 9.29646 17.4828 8.77736 17.3483L5.01802 16.3748C4.49901 16.2404 3.96543 16.5381 3.82631 17.0397C3.68718 17.5413 3.99525 18.057 4.51434 18.1914L8.27374 19.1649Z" fill="#FF8E09"/>
</g>
<defs>
<clipPath id="clip0_7642_1196">
<rect width="32.9377" height="32.38" fill="white" transform="matrix(0.873264 -0.487247 0.512863 0.858471 0 16.0488)"/>
</clipPath>
</defs>
</svg>
