<svg width="20" height="14" viewBox="0 0 20 14" fill="none" xmlns="http://www.w3.org/2000/svg">
<path d="M7.1 12C7.1 12.7456 6.49558 13.35 5.75 13.35C5.00442 13.35 4.4 12.7456 4.4 12C4.4 11.2544 5.00442 10.65 5.75 10.65C6.49558 10.65 7.1 11.2544 7.1 12Z" stroke="rgba(255, 255, 255, 1)" stroke-width="0.8"/>
<circle cx="9.75" cy="12" r="1.35" stroke="rgba(255, 255, 255, 1)" stroke-width="0.8"/>
<path d="M11.9472 10.0264L11.809 9.75H11.5H4.5H4.19098L4.05279 10.0264L3.19098 11.75H2.4099L0.609902 2.75H9H16.5694L17.9194 11.75H12.809L11.9472 10.0264Z" stroke="rgba(255, 255, 255, 1)"/>
<line x1="16" y1="11.75" x2="20" y2="11.75" stroke="rgba(255, 255, 255, 1)"/>
<path d="M3.5 2.75L5.71761 1.41943C5.90531 1.30682 6.10476 1.21508 6.31242 1.14586L8.05132 0.566228C8.66712 0.360961 9.33288 0.360961 9.94868 0.566228L11.7977 1.18258C11.9324 1.22747 12.0637 1.28186 12.1907 1.34535L15 2.75" stroke="rgba(255, 255, 255, 1)" stroke-width="0.5"/>
<line x1="8" y1="4.75" x2="17" y2="4.75" stroke="rgba(255, 255, 255, 1)"/>
<line x1="8" y1="6.75" x2="17" y2="6.75" stroke="rgba(255, 255, 255, 1)"/>
<line x1="19.5" y1="10.25" x2="19.5" y2="11.25" stroke="rgba(255, 255, 255, 1)"/>
</svg>
