<svg width="19" height="15" viewBox="0 0 19 15" fill="none" xmlns="http://www.w3.org/2000/svg">
<path d="M18.5232 5.83286C18.4906 5.34407 18.0344 5.18114 17.676 4.95304C16.6984 4.3665 15.7208 3.81254 14.7433 3.226C14.6455 3.16082 14.5803 3.12824 14.4826 3.06307C14.2545 2.93272 13.9938 2.96531 13.7331 2.96531C13.6028 2.96531 13.4724 2.96531 13.3747 2.96531V2.63945H13.5376C14.3848 2.63945 14.3848 1.33602 13.5376 1.33602C12.2016 1.33602 10.8656 1.33602 9.49695 1.33602C9.13851 1.33602 8.84524 1.62929 8.84524 1.98773V2.96531C8.38904 2.96531 7.96542 2.96531 7.50922 2.96531C7.44405 2.28101 7.02043 1.72705 6.4013 1.49895C6.27096 0.651716 5.55407 0 4.67425 0C3.79444 0 3.07755 0.651716 2.94721 1.49895C2.32808 1.72705 1.90446 2.31359 1.83929 2.96531C1.8067 2.96531 1.8067 2.96531 1.77412 2.96531C1.41567 2.96531 1.02464 2.96531 0.666199 2.96531C0.307755 2.96531 0.0144826 3.25858 0.0144826 3.61703V5.66993V5.7351V5.80027C0.0144826 6.48458 -0.0181032 7.16888 0.0144826 7.85318C0.0470684 8.47231 0.372927 9.15661 0.535856 9.77574C0.796542 10.6881 1.08981 11.568 1.3505 12.4804C1.44826 12.7411 1.67636 12.9692 1.96963 12.9692H3.14272C3.43599 13.7186 4.15288 14.24 5.00011 14.24C5.84734 14.24 6.56423 13.686 6.8575 12.9366C8.58455 12.9366 10.3442 12.904 12.0712 12.904H13.0814C13.3421 13.686 14.0916 14.24 14.9388 14.24C15.786 14.24 16.5355 13.686 16.7962 12.904H17.8063C18.1648 12.904 18.4581 12.6107 18.4581 12.2523C18.4581 10.3297 18.4581 8.40714 18.4581 6.48458C18.5232 6.28906 18.5558 6.06096 18.5232 5.83286ZM15.0691 7.00595H17.2198V7.72284C16.5029 7.72284 15.786 7.72284 15.0691 7.72284C15.0691 7.46215 15.0691 7.23405 15.0691 7.00595ZM13.9938 4.30133C14.7759 4.75753 15.5905 5.24632 16.3726 5.70252C15.8512 5.70252 15.3624 5.70252 14.841 5.70252C14.7107 5.70252 14.5478 5.70252 14.4174 5.70252C14.059 5.70252 13.7657 5.99579 13.7657 6.35423V8.37455C13.7657 8.733 14.059 9.02627 14.4174 9.02627H17.2198V11.6331C17.0895 11.6331 16.9917 11.6331 16.8614 11.6331C16.6007 10.8511 15.8512 10.2971 15.004 10.2971C14.1567 10.2971 13.4073 10.8511 13.1466 11.6331C13.0162 11.6331 12.9185 11.6331 12.7881 11.6331C12.7881 9.31954 12.7881 7.03854 12.7881 4.72494C12.7881 4.5946 12.7881 4.43167 12.7881 4.30133H13.9938ZM5.39114 2.99789C5.45631 2.83497 5.61924 2.70462 5.81476 2.70462C6.01027 2.70462 6.1732 2.83497 6.23837 2.99789C5.9451 2.99789 5.68441 2.99789 5.39114 2.99789ZM4.70684 1.30343C4.86977 1.30343 5.00011 1.40119 5.09787 1.53153C4.96753 1.5967 4.83718 1.69446 4.70684 1.75963C4.5765 1.66188 4.44615 1.56412 4.31581 1.53153C4.41357 1.40119 4.54391 1.30343 4.70684 1.30343ZM3.59892 2.70462C3.79444 2.70462 3.95737 2.83497 4.02254 2.99789C3.72927 2.99789 3.46858 2.99789 3.17531 2.99789C3.24048 2.80238 3.40341 2.70462 3.59892 2.70462ZM8.42162 4.30133H9.52954C9.88799 4.30133 10.1813 4.00805 10.1813 3.64961C10.1813 3.32375 10.1813 2.99789 10.1813 2.67204H12.0712V2.99789C11.7454 3.03048 11.4521 3.29117 11.4521 3.64961V5.18114C8.09577 5.18114 4.70684 5.18114 1.3505 5.18114C1.3505 4.88787 1.3505 4.5946 1.3505 4.30133H8.42162ZM1.90446 9.61281C1.77412 9.1892 1.64377 8.76558 1.51343 8.34197C1.44826 8.11387 1.38309 8.0487 1.38309 7.85318C1.3505 7.39698 1.3505 6.94078 1.38309 6.48458H11.4847V11.2095V11.6331C9.95316 11.6331 8.45421 11.6331 6.92268 11.6657C6.66199 10.8837 5.91252 10.3297 5.06528 10.3297C4.18547 10.3297 3.43599 10.9162 3.17531 11.6983C2.94721 11.6983 2.75169 11.6983 2.52359 11.6983C2.32808 10.9814 2.09998 10.2971 1.90446 9.61281ZM5.06528 12.9692C4.70684 12.9692 4.38098 12.6759 4.38098 12.2849C4.38098 11.8938 4.67425 11.6005 5.06528 11.6005C5.42373 11.6005 5.74959 11.8938 5.74959 12.2849C5.74959 12.6759 5.42373 12.9692 5.06528 12.9692ZM15.004 12.9692C14.6455 12.9692 14.3197 12.6759 14.3197 12.2849C14.3197 11.8938 14.6129 11.6005 15.004 11.6005C15.3624 11.6005 15.6883 11.8938 15.6883 12.2849C15.6883 12.6759 15.3624 12.9692 15.004 12.9692Z" fill="#130F26"/>
</svg>
