<svg width="30" height="28" viewBox="0 0 30 28" fill="none" xmlns="http://www.w3.org/2000/svg">
<path d="M16.1133 15.8203C16.5987 15.8203 16.9922 15.4268 16.9922 14.9414V11.4258C16.9922 10.9404 16.5987 10.5469 16.1133 10.5469C15.6279 10.5469 15.2344 10.9404 15.2344 11.4258V14.9414C15.2344 15.4268 15.6279 15.8203 16.1133 15.8203Z" fill="black"/>
<path d="M5.56641 15.8203C6.0518 15.8203 6.44531 15.4268 6.44531 14.9414V11.4258C6.44531 10.9404 6.0518 10.5469 5.56641 10.5469C5.08102 10.5469 4.6875 10.9404 4.6875 11.4258V14.9414C4.6875 15.4268 5.08102 15.8203 5.56641 15.8203Z" fill="black"/>
<path d="M29.9371 13.4431L28.4774 9.79365C27.8061 8.11559 26.2045 7.03125 24.3971 7.03125H24.1406V5.27344H26.7773C27.2627 5.27344 27.6562 4.87992 27.6562 4.39453C27.6562 3.90914 27.2627 3.51562 26.7773 3.51562H17.2852C16.9912 3.51562 16.7169 3.66246 16.5539 3.90703L15.2357 5.88434C14.7001 5.03514 13.8384 4.41111 12.8279 4.18963C12.4479 1.81775 10.3874 0 7.91016 0C5.43293 0 3.37236 1.81775 2.99244 4.18957C1.2832 4.56422 0 6.09018 0 7.91016V13.1836C0 13.3571 0.0513281 13.5267 0.147598 13.6711L2.75227 17.5781H0.878906C0.393516 17.5781 0 17.9716 0 18.457V24.3164C0 24.8018 0.393516 25.1953 0.878906 25.1953H3.13125C3.615 26.5593 4.9176 27.5391 6.44531 27.5391C7.97303 27.5391 9.27557 26.5593 9.75937 25.1953H20.2406C20.7244 26.5593 22.027 27.5391 23.5547 27.5391C25.0824 27.5391 26.3849 26.5593 26.8687 25.1953H29.1211C29.6065 25.1953 30 24.8018 30 24.3164V13.7695C30 13.6577 29.9787 13.5469 29.9371 13.4431ZM24.1406 8.78906H24.3971C25.4816 8.78906 26.4425 9.43969 26.8453 10.4466L27.8229 12.8906H24.1406V8.78906ZM3.80859 5.85938C4.29398 5.85938 4.6875 5.46586 4.6875 4.98047C4.6875 3.2035 6.13318 1.75781 7.91016 1.75781C9.68713 1.75781 11.1328 3.2035 11.1328 4.98047C11.1328 5.46586 11.5263 5.85938 12.0117 5.85938C12.8282 5.85938 13.5345 6.33902 13.8642 7.03125H1.95609C2.28586 6.33902 2.99215 5.85938 3.80859 5.85938ZM1.75781 12.9175V8.78906H14.9414V8.78848C15.2297 8.78848 15.5067 8.64674 15.6727 8.39766L17.7555 5.27344H22.3828V7.03125H19.6289C19.1435 7.03125 18.75 7.42477 18.75 7.91016V17.5781H4.86492L1.75781 12.9175ZM6.44531 25.7812C5.47605 25.7812 4.6875 24.9927 4.6875 24.0234C4.6875 23.0542 5.47605 22.2656 6.44531 22.2656C7.41457 22.2656 8.20312 23.0542 8.20312 24.0234C8.20312 24.9927 7.41457 25.7812 6.44531 25.7812ZM23.5547 25.7812C22.5854 25.7812 21.7969 24.9927 21.7969 24.0234C21.7969 23.0542 22.5854 22.2656 23.5547 22.2656C24.5239 22.2656 25.3125 23.0542 25.3125 24.0234C25.3125 24.9927 24.5239 25.7812 23.5547 25.7812ZM28.2422 23.4375H27.0206C26.7407 21.777 25.2935 20.5078 23.5547 20.5078C21.8159 20.5078 20.3687 21.777 20.0888 23.4375H9.91119C9.63129 21.777 8.18414 20.5078 6.44531 20.5078C4.70648 20.5078 3.25934 21.777 2.97943 23.4375H1.75781V19.3359H28.2422V23.4375ZM28.2422 17.5781H20.5078V8.78906H22.3828V13.7695C22.3828 14.2549 22.7763 14.6484 23.2617 14.6484H28.2422V17.5781Z" fill="black"/>
<path d="M12.5977 15.8203C13.083 15.8203 13.4766 15.4268 13.4766 14.9414V11.4258C13.4766 10.9404 13.083 10.5469 12.5977 10.5469C12.1123 10.5469 11.7188 10.9404 11.7188 11.4258V14.9414C11.7188 15.4268 12.1123 15.8203 12.5977 15.8203Z" fill="black"/>
<path d="M9.08203 15.8203C9.56742 15.8203 9.96094 15.4268 9.96094 14.9414V11.4258C9.96094 10.9404 9.56742 10.5469 9.08203 10.5469C8.59664 10.5469 8.20312 10.9404 8.20312 11.4258V14.9414C8.20312 15.4268 8.59664 15.8203 9.08203 15.8203Z" fill="black"/>
</svg>
