<svg width="37" height="28" viewBox="0 0 37 28" fill="none" xmlns="http://www.w3.org/2000/svg">
<path d="M6.57692 23.9624C6.57692 25.3637 5.4407 26.5001 4.03846 26.5001C2.63622 26.5001 1.5 25.3637 1.5 23.9624C1.5 22.5612 2.63622 21.4248 4.03846 21.4248C5.4407 21.4248 6.57692 22.5612 6.57692 23.9624Z" stroke="#68696D" stroke-width="3"/>
<path d="M14.6536 23.9624C14.6536 25.3637 13.5174 26.5001 12.1151 26.5001C10.7129 26.5001 9.57666 25.3637 9.57666 23.9624C9.57666 22.5612 10.7129 21.4248 12.1151 21.4248C13.5174 21.4248 14.6536 22.5612 14.6536 23.9624Z" stroke="#68696D" stroke-width="3"/>
<path d="M32.1536 23.9624C32.1536 25.3637 31.0174 26.5001 29.6151 26.5001C28.2129 26.5001 27.0767 25.3637 27.0767 23.9624C27.0767 22.5612 28.2129 21.4248 29.6151 21.4248C31.0174 21.4248 32.1536 22.5612 32.1536 23.9624Z" stroke="#68696D" stroke-width="3"/>
<path d="M33.4999 23.3392C33.4999 24.1676 34.1715 24.8392 34.9999 24.8392C35.8283 24.8392 36.4999 24.1676 36.4999 23.3392H33.4999ZM34.8179 13.8907L33.5909 14.7535L34.8179 13.8907ZM30.273 7.42678L31.5 6.56401L30.273 7.42678ZM16.3333 24.8392H22.5127V21.8392H16.3333V24.8392ZM25.0127 22.3392V8.00195H22.0127V22.3392H25.0127ZM24.5127 8.50195H29.455V5.50195H24.5127V8.50195ZM29.0459 8.28954L33.5909 14.7535L36.045 13.0279L31.5 6.56401L29.0459 8.28954ZM33.4999 14.4659V23.3392H36.4999V14.4659H33.4999ZM33.5909 14.7535C33.5317 14.6693 33.4999 14.5688 33.4999 14.4659H36.4999C36.4999 13.9512 36.341 13.449 36.045 13.0279L33.5909 14.7535ZM29.455 8.50195C29.2922 8.50195 29.1396 8.42271 29.0459 8.28954L31.5 6.56401C31.0319 5.89819 30.2689 5.50195 29.455 5.50195V8.50195ZM25.0127 8.00195C25.0127 8.2781 24.7889 8.50195 24.5127 8.50195V5.50195C23.132 5.50195 22.0127 6.62124 22.0127 8.00195H25.0127ZM22.5127 24.8392C23.8935 24.8392 25.0127 23.7199 25.0127 22.3392H22.0127C22.0127 22.0631 22.2366 21.8392 22.5127 21.8392V24.8392Z" fill="#68696D"/>
<path d="M1.5 17.9902V3.1804H16.4651C16.7977 3.1804 17.1269 3.11407 17.4334 2.98528L20.9689 1.5H24.0324L20.6794 4.45801C20.1415 4.93259 19.8333 5.61538 19.8333 6.33273V16.9845H3.66886C3.12456 16.9845 2.59513 17.1621 2.16098 17.4904L1.5 17.9902Z" stroke="#68696D" stroke-width="3"/>
</svg>
