<!-- <svg width="20" height="14" viewBox="0 0 20 14" fill="none" xmlns="http://www.w3.org/2000/svg">
<path d="M7.1 12C7.1 12.7456 6.49558 13.35 5.75 13.35C5.00442 13.35 4.4 12.7456 4.4 12C4.4 11.2544 5.00442 10.65 5.75 10.65C6.49558 10.65 7.1 11.2544 7.1 12Z" stroke="#17A1FA" stroke-width="0.8"/>
<circle cx="9.75" cy="12" r="1.35" stroke="#17A1FA" stroke-width="0.8"/>
<path d="M11.9472 10.0264L11.809 9.75H11.5H4.5H4.19098L4.05279 10.0264L3.19098 11.75H2.4099L0.609902 2.75H9H16.5694L17.9194 11.75H12.809L11.9472 10.0264Z" stroke="#17A1FA"/>
<line x1="16" y1="11.75" x2="20" y2="11.75" stroke="#17A1FA"/>
<path d="M3.5 2.75L5.71761 1.41943C5.90531 1.30682 6.10476 1.21508 6.31242 1.14586L8.05132 0.566228C8.66712 0.360961 9.33288 0.360961 9.94868 0.566228L11.7977 1.18258C11.9324 1.22747 12.0637 1.28186 12.1907 1.34535L15 2.75" stroke="#17A1FA" stroke-width="0.5"/>
<line x1="8" y1="4.75" x2="17" y2="4.75" stroke="#17A1FA"/>
<line x1="8" y1="6.75" x2="17" y2="6.75" stroke="#17A1FA"/>
<line x1="19.5" y1="10.25" x2="19.5" y2="11.25" stroke="#17A1FA"/>
</svg>

 -->
<svg width="20" height="16" viewBox="0 0 20 16" fill="none" xmlns="http://www.w3.org/2000/svg">
<path d="M19.9862 6.55378C19.951 6.00458 19.4588 5.82151 19.0721 5.56522C18.0173 4.90618 16.9625 4.28375 15.9077 3.62471C15.8022 3.55149 15.7319 3.51487 15.6264 3.44165C15.3803 3.29519 15.099 3.33181 14.8178 3.33181C14.6771 3.33181 14.5365 3.33181 14.431 3.33181V2.96568H14.6068C15.521 2.96568 15.521 1.50114 14.6068 1.50114C13.1653 1.50114 11.7237 1.50114 10.247 1.50114C9.86028 1.50114 9.54384 1.83066 9.54384 2.23341V3.33181C9.05161 3.33181 8.59454 3.33181 8.10231 3.33181C8.03199 2.56293 7.57491 1.9405 6.90688 1.68421C6.76625 0.732265 5.99274 0 5.04343 0C4.09412 0 3.32062 0.732265 3.17998 1.68421C2.51195 1.9405 2.05488 2.59954 1.98456 3.33181C1.9494 3.33181 1.9494 3.33181 1.91424 3.33181C1.52748 3.33181 1.10557 3.33181 0.718816 3.33181C0.332062 3.33181 0.0156264 3.66133 0.0156264 4.06407V6.37071V6.44394V6.51716C0.0156264 7.28604 -0.019533 8.05492 0.0156264 8.8238C0.0507859 9.51945 0.402381 10.2883 0.578178 10.984C0.859454 12.0092 1.17589 12.9977 1.45716 14.0229C1.56264 14.3158 1.80876 14.5721 2.12519 14.5721H3.39094C3.70737 15.4142 4.48088 16 5.39503 16C6.30917 16 7.08268 15.3776 7.39912 14.5355C9.26257 14.5355 11.1612 14.4989 13.0246 14.4989H14.1146C14.3959 15.3776 15.2045 16 16.1187 16C17.0328 16 17.8415 15.3776 18.1228 14.4989H19.2127C19.5995 14.4989 19.9159 14.1693 19.9159 13.7666C19.9159 11.6064 19.9159 9.44622 19.9159 7.28604C19.9862 7.06636 20.0214 6.81007 19.9862 6.55378ZM16.2593 7.87185H18.5798V8.67735C17.8063 8.67735 17.0328 8.67735 16.2593 8.67735C16.2593 8.38444 16.2593 8.12815 16.2593 7.87185ZM15.099 4.83295C15.9429 5.34554 16.8219 5.89474 17.6657 6.40732C17.1031 6.40732 16.5757 6.40732 16.0132 6.40732C15.8725 6.40732 15.6968 6.40732 15.5561 6.40732C15.1694 6.40732 14.8529 6.73684 14.8529 7.13959V9.40961C14.8529 9.81236 15.1694 10.1419 15.5561 10.1419H18.5798V13.0709C18.4392 13.0709 18.3337 13.0709 18.1931 13.0709C17.9118 12.1922 17.1031 11.5698 16.189 11.5698C15.2748 11.5698 14.4662 12.1922 14.1849 13.0709C14.0443 13.0709 13.9388 13.0709 13.7981 13.0709C13.7981 10.4714 13.7981 7.90847 13.7981 5.30892C13.7981 5.16247 13.7981 4.9794 13.7981 4.83295H15.099ZM5.81694 3.36842C5.88726 3.18535 6.06306 3.0389 6.27401 3.0389C6.48497 3.0389 6.66077 3.18535 6.73109 3.36842C6.41465 3.36842 6.13337 3.36842 5.81694 3.36842ZM5.07859 1.46453C5.25439 1.46453 5.39503 1.57437 5.5005 1.72082C5.35987 1.79405 5.21923 1.90389 5.07859 1.97712C4.93795 1.86728 4.79731 1.75744 4.65668 1.72082C4.76216 1.57437 4.90279 1.46453 5.07859 1.46453ZM3.88317 3.0389C4.09412 3.0389 4.26992 3.18535 4.34024 3.36842C4.02381 3.36842 3.74253 3.36842 3.4261 3.36842C3.49641 3.14874 3.67221 3.0389 3.88317 3.0389ZM9.08677 4.83295H10.2822C10.6689 4.83295 10.9854 4.50343 10.9854 4.10069C10.9854 3.73455 10.9854 3.36842 10.9854 3.00229H13.0246V3.36842C12.673 3.40503 12.3566 3.69794 12.3566 4.10069V5.82151C8.73518 5.82151 5.07859 5.82151 1.45716 5.82151C1.45716 5.49199 1.45716 5.16247 1.45716 4.83295H9.08677ZM2.05488 10.8009C1.91424 10.3249 1.7736 9.84897 1.63296 9.373C1.56264 9.1167 1.49232 9.04348 1.49232 8.8238C1.45716 8.31121 1.45716 7.79863 1.49232 7.28604H12.3918V12.595V13.0709C10.7393 13.0709 9.12193 13.0709 7.46943 13.1076C7.18816 12.2288 6.37949 11.6064 5.46534 11.6064C4.51604 11.6064 3.70737 12.2654 3.4261 13.1442C3.17998 13.1442 2.96902 13.1442 2.72291 13.1442C2.51195 12.3387 2.26583 11.5698 2.05488 10.8009ZM5.46534 14.5721C5.07859 14.5721 4.727 14.2426 4.727 13.8032C4.727 13.3638 5.04343 13.0343 5.46534 13.0343C5.8521 13.0343 6.20369 13.3638 6.20369 13.8032C6.20369 14.2426 5.8521 14.5721 5.46534 14.5721ZM16.189 14.5721C15.8022 14.5721 15.4506 14.2426 15.4506 13.8032C15.4506 13.3638 15.7671 13.0343 16.189 13.0343C16.5757 13.0343 16.9273 13.3638 16.9273 13.8032C16.9273 14.2426 16.5757 14.5721 16.189 14.5721Z" fill="rgba(23, 161, 250, 1)"/>
</svg>
