<svg width="541" height="253" viewBox="0 0 541 253" fill="none" xmlns="http://www.w3.org/2000/svg">
<rect width="541" height="253" rx="20" fill="#CAEAFF"/>
<path d="M407.435 184.78V176.773C407.435 162.429 394.513 157.799 388.052 157.276H398.544C413.765 157.276 418.519 168.649 418.993 174.336V176.773H441.043V161.106V157.276C457.26 158.669 460.959 170.854 460.781 176.773V184.78H407.435Z" fill="#9696FD"/>
<path d="M319.077 176.464V70.3447H109V177.503H319.077V176.464Z" fill="#B1DDF9"/>
<path d="M418.993 176.773H441.042V161.106V157.276V148.399C440.331 132.105 425.098 128.728 417.57 129.076H412.591H400.144C417.499 131.583 419.941 145.439 418.993 152.054V174.336V176.773Z" fill="#9897FD"/>
<path d="M407.078 97.9172C393.137 73.9644 349.464 69.3689 329.371 70.0652C342.352 69.6153 380.227 100.528 365.646 101.679C383.452 101.66 400.035 101.666 402.989 101.747C403.621 101.764 404.172 101.739 404.649 101.679C408.038 101.255 407.754 99.0869 407.078 97.9172Z" fill="#9696FD"/>
<path d="M407.434 176.773V184.781H329.371V176.773V168.94V101.747V70.0654C342.352 69.6156 380.227 100.529 365.646 101.679C383.452 101.66 400.035 101.667 402.989 101.747C403.621 101.764 404.172 101.739 404.649 101.679L412.591 129.077H400.143C417.499 131.584 419.941 145.44 418.992 152.055V174.336C418.518 168.65 413.764 157.277 398.543 157.277H388.052C394.512 157.799 407.434 162.43 407.434 176.773Z" fill="white"/>
<path d="M293.436 192.266C298.33 192.266 302.48 188.997 303.919 184.955H282.952C284.392 188.997 288.541 192.266 293.436 192.266Z" fill="#040255"/>
<path d="M407.606 177.097V185.103M407.606 177.097H419.173M407.606 177.097H360.98M407.606 177.097C407.606 162.756 394.674 158.126 388.208 157.604M407.606 185.103H460.994V177.097M407.606 185.103H329.481M460.994 177.097C461.172 171.179 457.47 158.997 441.24 157.604M460.994 177.097H449.783M329.481 185.103H319.515V178.141M329.481 185.103V177.097M319.515 177.097H329.481M319.515 177.097V70.4099H265.414L109.802 70.4099V177.097L319.515 178.141M319.515 177.097V178.141M329.481 177.097H360.98M329.481 177.097V169.265M329.481 70.4099C349.59 69.7137 393.298 74.3084 407.25 98.2564C407.926 99.4259 408.21 101.594 404.819 102.018M329.481 70.4099V102.085M329.481 70.4099C342.472 69.9601 380.378 100.867 365.785 102.018M329.481 102.085C338.971 102.061 352.708 102.032 365.785 102.018M329.481 102.085V169.265M365.785 102.018C383.605 101.998 400.201 102.005 403.157 102.085C403.79 102.102 404.341 102.077 404.819 102.018M365.785 102.018L373.615 129.41M373.615 129.41V152.383M373.615 129.41H400.309M412.767 129.41L404.819 102.018M412.767 129.41H400.309M412.767 129.41H417.749C425.283 129.062 440.529 132.438 441.24 148.728V157.604M333.752 129.41H369.344L362.937 105.392H333.752V129.41ZM333.752 129.41V164.392H358.666C360.209 161.317 365.358 154.611 373.615 152.383M373.615 152.383H419.173M419.173 152.383C420.122 145.769 417.678 131.916 400.309 129.41M419.173 152.383V174.66M419.173 177.097H441.24M419.173 177.097V174.66M441.24 177.097V161.433M441.24 177.097H449.783M441.24 157.604V161.433M441.24 161.433C444.147 163.348 449.925 169.161 449.783 177.097M419.173 174.66C418.699 168.975 413.941 157.604 398.708 157.604C394.188 157.604 390.769 157.604 388.208 157.604M360.98 177.097C361.229 174.062 361.914 171.471 362.901 169.265M388.208 157.604C382.136 157.604 380.892 157.604 381.267 157.604C376.251 157.604 366.986 160.133 362.901 169.265M412.767 181.274H454.765M423.8 169.265H436.969M423.8 165.088H436.969M423.8 160.737H436.969M423.8 156.56H436.969M423.8 152.383H436.969M329.481 169.265H362.901" stroke="#030B53" stroke-width="3"/>
<path d="M385.376 192.266C390.271 192.266 394.421 188.997 395.86 184.955H374.893C376.332 188.997 380.482 192.266 385.376 192.266Z" fill="#040255"/>
<path d="M350.338 192.266C355.233 192.266 359.382 188.997 360.822 184.955H339.854C341.294 188.997 345.444 192.266 350.338 192.266Z" fill="#040255"/>
<path d="M329.355 192.266C334.25 192.266 338.399 188.997 339.839 184.955H318.871C320.311 188.997 324.461 192.266 329.355 192.266Z" fill="#040255"/>
<path d="M314.442 192.244C319.336 192.244 323.486 188.975 324.926 184.933H303.958C305.398 188.975 309.547 192.244 314.442 192.244Z" fill="#040255"/>
<path d="M390.108 181.821C390.108 186.923 385.874 191.114 380.583 191.114C375.292 191.114 371.058 186.923 371.058 181.821C371.058 176.719 375.292 172.528 380.583 172.528C385.874 172.528 390.108 176.719 390.108 181.821Z" fill="white" stroke="#040255" stroke-width="3"/>
<ellipse cx="380.583" cy="181.821" rx="4.62335" ry="4.52595" fill="#040255"/>
<path d="M422.55 192.266C427.444 192.266 431.594 188.997 433.033 184.955H412.066C413.506 188.997 417.655 192.266 422.55 192.266Z" fill="#040255"/>
<path d="M337.195 136.388C337.076 137.2 337.444 138.825 339.862 138.825C342.281 138.825 344.782 138.825 345.73 138.825C346.56 138.883 348.22 138.477 348.22 136.388" stroke="#040255" stroke-width="3"/>
<path d="M382.539 120.199C377.923 120.199 374.182 124.096 374.182 128.903H390.897C390.897 124.096 387.155 120.199 382.539 120.199Z" stroke="#040255" stroke-width="3"/>
<path d="M359.245 113.236L355.155 105.229H333.817V129.077H359.245V113.236Z" fill="#01C6A5"/>
<path d="M348.22 114.052C348.22 110.909 350.768 108.361 353.91 108.361V108.361C357.053 108.361 359.601 110.909 359.601 114.052V128.902H348.22V114.052Z" stroke="#040255" stroke-width="3"/>
<path d="M352.487 118.98C353.732 119.734 356.684 120.721 358.533 118.632M354.266 113.932V117.239M357.466 113.932V117.239" stroke="white" stroke-width="2" stroke-linecap="round"/>
<rect width="9.60234" height="107.23" transform="matrix(-1 0 0 1 308.922 70.7393)" fill="#01C6A5"/>
<rect width="9.60234" height="107.23" transform="matrix(-1 0 0 1 292.206 70.7393)" fill="#01C6A5"/>
<path d="M457.113 171.725C457.113 173.075 455.989 174.206 454.557 174.206C453.125 174.206 452 173.075 452 171.725C452 170.374 453.125 169.243 454.557 169.243C455.989 169.243 457.113 170.374 457.113 171.725Z" fill="white" stroke="#040255" stroke-width="2"/>
<path d="M414.792 171.725C414.792 173.075 413.667 174.206 412.235 174.206C410.803 174.206 409.679 173.075 409.679 171.725C409.679 170.374 410.803 169.243 412.235 169.243C413.667 169.243 414.792 170.374 414.792 171.725Z" fill="white" stroke="#040255" stroke-width="2"/>
<path d="M297.997 181.821C297.997 186.923 293.763 191.114 288.472 191.114C283.181 191.114 278.947 186.923 278.947 181.821C278.947 176.719 283.181 172.528 288.472 172.528C293.763 172.528 297.997 176.719 297.997 181.821Z" fill="white" stroke="#040255" stroke-width="3"/>
<path d="M133.96 178.831C133.96 183.933 129.726 188.123 124.435 188.123C119.145 188.123 114.91 183.933 114.91 178.831C114.91 173.728 119.145 169.538 124.435 169.538C129.726 169.538 133.96 173.728 133.96 178.831Z" fill="white" stroke="#040255" stroke-width="3"/>
<path d="M319.335 181.821C319.335 186.923 315.101 191.114 309.811 191.114C304.52 191.114 300.286 186.923 300.286 181.821C300.286 176.719 304.52 172.528 309.811 172.528C315.101 172.528 319.335 176.719 319.335 181.821Z" fill="white" stroke="#040255" stroke-width="3"/>
<ellipse cx="288.472" cy="181.821" rx="4.62335" ry="4.52595" fill="#040255"/>
<path d="M156.411 178.831C156.411 183.933 152.177 188.123 146.886 188.123C141.596 188.123 137.361 183.933 137.361 178.831C137.361 173.728 141.596 169.538 146.886 169.538C152.177 169.538 156.411 173.728 156.411 178.831Z" fill="white" stroke="#040255" stroke-width="3"/>
<ellipse cx="146.886" cy="178.831" rx="4.62335" ry="4.52595" fill="#040255"/>
<ellipse cx="124.422" cy="178.644" rx="4.62335" ry="4.52595" fill="#040255"/>
<ellipse cx="309.811" cy="181.821" rx="4.62335" ry="4.52595" fill="#040255"/>
</svg>
