<svg width="42" height="42" viewBox="0 0 42 42" fill="none" xmlns="http://www.w3.org/2000/svg">
<g clip-path="url(#clip0_715_438)">
<path d="M22.549 23.8531C23.2243 23.8531 23.7718 23.3056 23.7718 22.6302V17.7389C23.7718 17.0636 23.2243 16.5161 22.549 16.5161C21.8737 16.5161 21.3262 17.0636 21.3262 17.7389V22.6302C21.3262 23.3056 21.8737 23.8531 22.549 23.8531Z" fill="black"/>
<path d="M7.87517 23.8531C8.5505 23.8531 9.098 23.3056 9.098 22.6302V17.7389C9.098 17.0636 8.5505 16.5161 7.87517 16.5161C7.19984 16.5161 6.65234 17.0636 6.65234 17.7389V22.6302C6.65234 23.3056 7.19984 23.8531 7.87517 23.8531Z" fill="black"/>
<path d="M41.7823 20.5456L39.7513 15.4681C38.8174 13.1334 36.5891 11.6248 34.0745 11.6248H33.7176V9.17912H37.3861C38.0614 9.17912 38.6089 8.63162 38.6089 7.95629C38.6089 7.28097 38.0614 6.73347 37.3861 6.73347H24.1795C23.7706 6.73347 23.3889 6.93776 23.1621 7.27803L21.3281 10.0291C20.583 8.84757 19.3841 7.97936 17.9782 7.67121C17.4495 4.37121 14.5826 1.84216 11.1361 1.84216C7.68948 1.84216 4.8226 4.37121 4.29401 7.67113C1.91594 8.19238 0.130615 10.3155 0.130615 12.8476V20.1846C0.130615 20.4259 0.202028 20.6619 0.335969 20.8628L3.95985 26.2987H1.35344C0.678115 26.2987 0.130615 26.8462 0.130615 27.5215V35.6737C0.130615 36.349 0.678115 36.8965 1.35344 36.8965H4.48714C5.16018 38.7942 6.97249 40.1574 9.09801 40.1574C11.2235 40.1574 13.0358 38.7942 13.7089 36.8965H28.2915C28.9645 38.7942 30.7768 40.1574 32.9024 40.1574C35.0279 40.1574 36.8401 38.7942 37.5132 36.8965H40.6469C41.3223 36.8965 41.8698 36.349 41.8698 35.6737V20.9998C41.8698 20.8442 41.8401 20.6901 41.7823 20.5456ZM33.7176 14.0704H34.0745C35.5833 14.0704 36.9202 14.9756 37.4806 16.3765L38.8408 19.7769H33.7176V14.0704ZM5.42953 9.99434C6.10486 9.99434 6.65236 9.44684 6.65236 8.77151C6.65236 6.2992 8.66374 4.28782 11.1361 4.28782C13.6084 4.28782 15.6197 6.2992 15.6197 8.77151C15.6197 9.44684 16.1672 9.99434 16.8426 9.99434C17.9785 9.99434 18.9612 10.6617 19.42 11.6248H2.85214C3.31094 10.6617 4.2936 9.99434 5.42953 9.99434ZM2.57627 19.8143V14.0704H20.9187V14.0696C21.3198 14.0696 21.7051 13.8724 21.9361 13.5259L24.8339 9.17912H31.2719V11.6248H27.4404C26.7651 11.6248 26.2176 12.1723 26.2176 12.8476V26.2987H6.8992L2.57627 19.8143ZM9.09801 37.7117C7.74948 37.7117 6.65236 36.6146 6.65236 35.2661C6.65236 33.9175 7.74948 32.8204 9.09801 32.8204C10.4465 32.8204 11.5437 33.9175 11.5437 35.2661C11.5437 36.6146 10.4465 37.7117 9.09801 37.7117ZM32.9024 37.7117C31.5538 37.7117 30.4567 36.6146 30.4567 35.2661C30.4567 33.9175 31.5538 32.8204 32.9024 32.8204C34.2509 32.8204 35.348 33.9175 35.348 35.2661C35.348 36.6146 34.2509 37.7117 32.9024 37.7117ZM39.4241 34.4509H37.7245C37.335 32.1406 35.3216 30.3748 32.9024 30.3748C30.4831 30.3748 28.4697 32.1406 28.0803 34.4509H13.9201C13.5307 32.1406 11.5172 30.3748 9.09801 30.3748C6.67877 30.3748 4.66534 32.1406 4.27591 34.4509H2.57627V28.7443H39.4241V34.4509ZM39.4241 26.2987H28.6632V14.0704H31.2719V20.9998C31.2719 21.6751 31.8194 22.2226 32.4948 22.2226H39.4241V26.2987Z" fill="black"/>
<path d="M17.6579 23.8531C18.3332 23.8531 18.8807 23.3056 18.8807 22.6302V17.7389C18.8807 17.0636 18.3332 16.5161 17.6579 16.5161C16.9826 16.5161 16.4351 17.0636 16.4351 17.7389V22.6302C16.4351 23.3056 16.9826 23.8531 17.6579 23.8531Z" fill="black"/>
<path d="M12.7665 23.8531C13.4419 23.8531 13.9894 23.3056 13.9894 22.6302V17.7389C13.9894 17.0636 13.4419 16.5161 12.7665 16.5161C12.0912 16.5161 11.5437 17.0636 11.5437 17.7389V22.6302C11.5437 23.3056 12.0912 23.8531 12.7665 23.8531Z" fill="black"/>
</g>
<defs>
<clipPath id="clip0_715_438">
<rect width="41.7391" height="41.7391" fill="white" transform="translate(0.130615 0.130249)"/>
</clipPath>
</defs>
</svg>
