<svg width="20" height="20" viewBox="0 0 20 20" fill="none" xmlns="http://www.w3.org/2000/svg">
<mask id="mask0_17341_10043" style="mask-type:alpha" maskUnits="userSpaceOnUse" x="0" y="0" width="20" height="20">
<rect width="20" height="20" fill="#D9D9D9"/>
</mask>
<g mask="url(#mask0_17341_10043)">
<path d="M2 20C1.45 20 0.979333 19.7554 0.588 19.2663C0.196 18.7763 0 18.1875 0 17.5V12.5C0.55 12.5 1.021 12.255 1.413 11.765C1.80433 11.2758 2 10.6875 2 10C2 9.3125 1.80433 8.72375 1.413 8.23375C1.021 7.74458 0.55 7.5 0 7.5V2.5C0 1.8125 0.196 1.22417 0.588 0.735C0.979333 0.245 1.45 0 2 0H18C18.55 0 19.021 0.245 19.413 0.735C19.8043 1.22417 20 1.8125 20 2.5V7.5C19.45 7.5 18.979 7.74458 18.587 8.23375C18.1957 8.72375 18 9.3125 18 10C18 10.6875 18.1957 11.2758 18.587 11.765C18.979 12.255 19.45 12.5 20 12.5V17.5C20 18.1875 19.8043 18.7763 19.413 19.2663C19.021 19.7554 18.55 20 18 20H2ZM2 17.5H18V14.3125C17.3833 13.8542 16.896 13.245 16.538 12.485C16.1793 11.7242 16 10.8958 16 10C16 9.10417 16.1793 8.27583 16.538 7.515C16.896 6.755 17.3833 6.14583 18 5.6875V2.5H2V5.6875C2.61667 6.14583 3.10433 6.755 3.463 7.515C3.821 8.27583 4 9.10417 4 10C4 10.8958 3.821 11.7242 3.463 12.485C3.10433 13.245 2.61667 13.8542 2 14.3125V17.5ZM10 16.25C10.2833 16.25 10.521 16.13 10.713 15.89C10.9043 15.6508 11 15.3542 11 15C11 14.6458 10.9043 14.3487 10.713 14.1087C10.521 13.8696 10.2833 13.75 10 13.75C9.71667 13.75 9.47933 13.8696 9.288 14.1087C9.096 14.3487 9 14.6458 9 15C9 15.3542 9.096 15.6508 9.288 15.89C9.47933 16.13 9.71667 16.25 10 16.25ZM10 11.25C10.2833 11.25 10.521 11.13 10.713 10.89C10.9043 10.6508 11 10.3542 11 10C11 9.64583 10.9043 9.34875 10.713 9.10875C10.521 8.86958 10.2833 8.75 10 8.75C9.71667 8.75 9.47933 8.86958 9.288 9.10875C9.096 9.34875 9 9.64583 9 10C9 10.3542 9.096 10.6508 9.288 10.89C9.47933 11.13 9.71667 11.25 10 11.25ZM10 6.25C10.2833 6.25 10.521 6.13 10.713 5.89C10.9043 5.65083 11 5.35417 11 5C11 4.64583 10.9043 4.34875 10.713 4.10875C10.521 3.86958 10.2833 3.75 10 3.75C9.71667 3.75 9.47933 3.86958 9.288 4.10875C9.096 4.34875 9 4.64583 9 5C9 5.35417 9.096 5.65083 9.288 5.89C9.47933 6.13 9.71667 6.25 10 6.25Z" fill="#17A1FA"/>
</g>
<path d="M13.4942 12.756C13.4942 13.5773 13.2329 14.2447 12.7102 14.758C12.1875 15.262 11.5062 15.5653 10.6662 15.668V16.9H9.7282V15.682C8.9442 15.626 8.2722 15.4067 7.7122 15.024C7.1522 14.6413 6.75087 14.1233 6.5082 13.47L8.1742 12.504C8.47287 13.2507 8.99087 13.6753 9.7282 13.778V11.356C9.71887 11.356 9.7142 11.356 9.7142 11.356L9.6862 11.342C9.35954 11.2207 9.09354 11.1133 8.8882 11.02C8.68287 10.9267 8.4402 10.7913 8.1602 10.614C7.88954 10.4367 7.67487 10.2547 7.5162 10.068C7.36687 9.872 7.23154 9.62467 7.1102 9.326C6.9982 9.02733 6.9422 8.70067 6.9422 8.346C6.9422 7.52467 7.2082 6.86667 7.7402 6.372C8.28154 5.87733 8.9442 5.59267 9.7282 5.518V4.3H10.6662V5.546C11.9355 5.69533 12.8315 6.35333 13.3542 7.52L11.7302 8.472C11.5062 7.912 11.1515 7.57133 10.6662 7.45V9.788C11.5342 10.1333 12.1175 10.4087 12.4162 10.614C13.1349 11.1273 13.4942 11.8413 13.4942 12.756ZM8.8602 8.36C8.8602 8.56533 8.92554 8.74733 9.0562 8.906C9.18687 9.05533 9.41087 9.20933 9.7282 9.368V7.408C9.4482 7.464 9.23354 7.576 9.0842 7.744C8.93487 7.912 8.8602 8.11733 8.8602 8.36ZM10.6662 13.75C11.2635 13.6193 11.5622 13.2927 11.5622 12.77C11.5622 12.5367 11.4875 12.3407 11.3382 12.182C11.1982 12.0233 10.9742 11.874 10.6662 11.734V13.75Z" fill="#17A1FA"/>
</svg>