<svg width="20" height="16" viewBox="0 0 20 16" fill="none" xmlns="http://www.w3.org/2000/svg">
<mask id="mask0_17342_10509" style="mask-type:alpha" maskUnits="userSpaceOnUse" x="0" y="0" width="20" height="16">
<rect width="20" height="16" fill="#D9D9D9"/>
</mask>
<g mask="url(#mask0_17342_10509)">
<path d="M2 16C1.45 16 0.979333 15.8043 0.588 15.413C0.196 15.021 0 14.55 0 14V10C0.55 10 1.021 9.804 1.413 9.412C1.80433 9.02067 2 8.55 2 8C2 7.45 1.80433 6.979 1.413 6.587C1.021 6.19567 0.55 6 0 6V2C0 1.45 0.196 0.979333 0.588 0.588C0.979333 0.196 1.45 0 2 0H18C18.55 0 19.021 0.196 19.413 0.588C19.8043 0.979333 20 1.45 20 2V6C19.45 6 18.979 6.19567 18.587 6.587C18.1957 6.979 18 7.45 18 8C18 8.55 18.1957 9.02067 18.587 9.412C18.979 9.804 19.45 10 20 10V14C20 14.55 19.8043 15.021 19.413 15.413C19.021 15.8043 18.55 16 18 16H2ZM2 14H18V11.45C17.3833 11.0833 16.896 10.596 16.538 9.988C16.1793 9.37933 16 8.71667 16 8C16 7.28333 16.1793 6.62067 16.538 6.012C16.896 5.404 17.3833 4.91667 18 4.55V2H2V4.55C2.61667 4.91667 3.10433 5.404 3.463 6.012C3.821 6.62067 4 7.28333 4 8C4 8.71667 3.821 9.37933 3.463 9.988C3.10433 10.596 2.61667 11.0833 2 11.45V14ZM10 13C10.2833 13 10.521 12.904 10.713 12.712C10.9043 12.5207 11 12.2833 11 12C11 11.7167 10.9043 11.479 10.713 11.287C10.521 11.0957 10.2833 11 10 11C9.71667 11 9.47933 11.0957 9.288 11.287C9.096 11.479 9 11.7167 9 12C9 12.2833 9.096 12.5207 9.288 12.712C9.47933 12.904 9.71667 13 10 13ZM10 9C10.2833 9 10.521 8.904 10.713 8.712C10.9043 8.52067 11 8.28333 11 8C11 7.71667 10.9043 7.479 10.713 7.287C10.521 7.09567 10.2833 7 10 7C9.71667 7 9.47933 7.09567 9.288 7.287C9.096 7.479 9 7.71667 9 8C9 8.28333 9.096 8.52067 9.288 8.712C9.47933 8.904 9.71667 9 10 9ZM10 5C10.2833 5 10.521 4.904 10.713 4.712C10.9043 4.52067 11 4.28333 11 4C11 3.71667 10.9043 3.479 10.713 3.287C10.521 3.09567 10.2833 3 10 3C9.71667 3 9.47933 3.09567 9.288 3.287C9.096 3.479 9 3.71667 9 4C9 4.28333 9.096 4.52067 9.288 4.712C9.47933 4.904 9.71667 5 10 5Z" fill="white"/>
</g>
<path d="M13.4942 10.256C13.4942 11.0773 13.2329 11.7447 12.7102 12.258C12.1875 12.762 11.5062 13.0653 10.6662 13.168V14.4H9.7282V13.182C8.9442 13.126 8.2722 12.9067 7.7122 12.524C7.1522 12.1413 6.75087 11.6233 6.5082 10.97L8.1742 10.004C8.47287 10.7507 8.99087 11.1753 9.7282 11.278V8.856C9.71887 8.856 9.7142 8.856 9.7142 8.856L9.6862 8.842C9.35954 8.72067 9.09354 8.61333 8.8882 8.52C8.68287 8.42667 8.4402 8.29133 8.1602 8.114C7.88954 7.93667 7.67487 7.75467 7.5162 7.568C7.36687 7.372 7.23154 7.12467 7.1102 6.826C6.9982 6.52733 6.9422 6.20067 6.9422 5.846C6.9422 5.02467 7.2082 4.36667 7.7402 3.872C8.28154 3.37733 8.9442 3.09267 9.7282 3.018V1.8H10.6662V3.046C11.9355 3.19533 12.8315 3.85333 13.3542 5.02L11.7302 5.972C11.5062 5.412 11.1515 5.07133 10.6662 4.95V7.288C11.5342 7.63333 12.1175 7.90867 12.4162 8.114C13.1349 8.62733 13.4942 9.34133 13.4942 10.256ZM8.8602 5.86C8.8602 6.06533 8.92554 6.24733 9.0562 6.406C9.18687 6.55533 9.41087 6.70933 9.7282 6.868V4.908C9.4482 4.964 9.23354 5.076 9.0842 5.244C8.93487 5.412 8.8602 5.61733 8.8602 5.86ZM10.6662 11.25C11.2635 11.1193 11.5622 10.7927 11.5622 10.27C11.5622 10.0367 11.4875 9.84067 11.3382 9.682C11.1982 9.52333 10.9742 9.374 10.6662 9.234V11.25Z" fill="white"/>
</svg>
