<svg width="30" height="30" viewBox="0 0 30 30" fill="none" xmlns="http://www.w3.org/2000/svg">
<path fill-rule="evenodd" clip-rule="evenodd" d="M12.2453 19.9062C6.7194 19.9062 2 20.7415 2 24.088C2 27.4346 6.69065 28.3 12.2453 28.3C17.7726 28.3 22.4905 27.4633 22.4905 24.1182C22.4905 20.7731 17.8013 19.9062 12.2453 19.9062Z" stroke="#130F26" stroke-width="2.2" stroke-linecap="round" stroke-linejoin="round"/>
<path fill-rule="evenodd" clip-rule="evenodd" d="M12.2453 15.1333C15.8722 15.1333 18.8119 12.1935 18.8119 8.56663C18.8119 4.93974 15.8722 2 12.2453 2C8.61984 2 5.6801 4.93974 5.6801 8.56663C5.66716 12.1806 8.58534 15.1203 12.2007 15.1333H12.2453Z" stroke="#130F26" stroke-width="2.2" stroke-linecap="round" stroke-linejoin="round"/>
<path d="M25.6531 10.5092V16.2736" stroke="#130F26" stroke-width="2.2" stroke-linecap="round" stroke-linejoin="round"/>
<path d="M28.5943 13.3911H22.7148" stroke="#130F26" stroke-width="2.2" stroke-linecap="round" stroke-linejoin="round"/>
</svg>
