<svg width="26" height="23" viewBox="0 0 26 23" fill="none" xmlns="http://www.w3.org/2000/svg">
<path d="M13.9277 13.209C14.3322 13.209 14.6602 12.8811 14.6602 12.4766V9.54688C14.6602 9.14238 14.3322 8.81445 13.9277 8.81445C13.5232 8.81445 13.1953 9.14238 13.1953 9.54688V12.4766C13.1953 12.8811 13.5232 13.209 13.9277 13.209Z" fill="white"/>
<path d="M5.13867 13.209C5.54316 13.209 5.87109 12.8811 5.87109 12.4766V9.54688C5.87109 9.14238 5.54316 8.81445 5.13867 8.81445C4.73418 8.81445 4.40625 9.14238 4.40625 9.54688V12.4766C4.40625 12.8811 4.73418 13.209 5.13867 13.209Z" fill="white"/>
<path d="M25.4476 11.228L24.2312 8.18677C23.6718 6.78838 22.3371 5.88477 20.831 5.88477H20.6172V4.41992H22.8145C23.2189 4.41992 23.5469 4.09199 23.5469 3.6875C23.5469 3.28301 23.2189 2.95508 22.8145 2.95508H14.9043C14.6594 2.95508 14.4307 3.07744 14.2949 3.28125L13.1964 4.929C12.7501 4.22134 12.032 3.70132 11.1899 3.51675C10.8733 1.54019 9.15615 0.0253906 7.0918 0.0253906C5.02744 0.0253906 3.3103 1.54019 2.9937 3.5167C1.56934 3.82891 0.5 5.10054 0.5 6.61719V11.0117C0.5 11.1563 0.542773 11.2977 0.622998 11.418L2.79355 14.6738H1.23242C0.82793 14.6738 0.5 15.0018 0.5 15.4062V20.2891C0.5 20.6936 0.82793 21.0215 1.23242 21.0215H3.10938C3.5125 22.1581 4.598 22.9746 5.87109 22.9746C7.14419 22.9746 8.22964 22.1581 8.63281 21.0215H17.3672C17.7703 22.1581 18.8558 22.9746 20.1289 22.9746C21.402 22.9746 22.4875 22.1581 22.8906 21.0215H24.7676C25.1721 21.0215 25.5 20.6936 25.5 20.2891V11.5C25.5 11.4068 25.4822 11.3145 25.4476 11.228ZM20.6172 7.34961H20.831C21.7347 7.34961 22.5354 7.8918 22.8711 8.73086L23.6858 10.7676H20.6172V7.34961ZM3.67383 4.9082C4.07832 4.9082 4.40625 4.58027 4.40625 4.17578C4.40625 2.69497 5.61099 1.49023 7.0918 1.49023C8.57261 1.49023 9.77734 2.69497 9.77734 4.17578C9.77734 4.58027 10.1053 4.9082 10.5098 4.9082C11.1901 4.9082 11.7787 5.30791 12.0535 5.88477H2.13008C2.40488 5.30791 2.99346 4.9082 3.67383 4.9082ZM1.96484 10.7899V7.34961H12.9512V7.34912C13.1915 7.34912 13.4222 7.23101 13.5605 7.02344L15.2962 4.41992H19.1523V5.88477H16.8574C16.4529 5.88477 16.125 6.2127 16.125 6.61719V14.6738H4.5541L1.96484 10.7899ZM5.87109 21.5098C5.06338 21.5098 4.40625 20.8526 4.40625 20.0449C4.40625 19.2372 5.06338 18.5801 5.87109 18.5801C6.67881 18.5801 7.33594 19.2372 7.33594 20.0449C7.33594 20.8526 6.67881 21.5098 5.87109 21.5098ZM20.1289 21.5098C19.3212 21.5098 18.6641 20.8526 18.6641 20.0449C18.6641 19.2372 19.3212 18.5801 20.1289 18.5801C20.9366 18.5801 21.5938 19.2372 21.5938 20.0449C21.5938 20.8526 20.9366 21.5098 20.1289 21.5098ZM24.0352 19.5566H23.0171C22.7839 18.1729 21.5779 17.1152 20.1289 17.1152C18.6799 17.1152 17.4739 18.1729 17.2407 19.5566H8.75933C8.52607 18.1729 7.32012 17.1152 5.87109 17.1152C4.42207 17.1152 3.21611 18.1729 2.98286 19.5566H1.96484V16.1387H24.0352V19.5566ZM24.0352 14.6738H17.5898V7.34961H19.1523V11.5C19.1523 11.9045 19.4803 12.2324 19.8848 12.2324H24.0352V14.6738Z" fill="white"/>
<path d="M10.998 13.209C11.4025 13.209 11.7305 12.8811 11.7305 12.4766V9.54688C11.7305 9.14238 11.4025 8.81445 10.998 8.81445C10.5936 8.81445 10.2656 9.14238 10.2656 9.54688V12.4766C10.2656 12.8811 10.5936 13.209 10.998 13.209Z" fill="white"/>
<path d="M8.06836 13.209C8.47285 13.209 8.80078 12.8811 8.80078 12.4766V9.54688C8.80078 9.14238 8.47285 8.81445 8.06836 8.81445C7.66387 8.81445 7.33594 9.14238 7.33594 9.54688V12.4766C7.33594 12.8811 7.66387 13.209 8.06836 13.209Z" fill="white"/>
</svg>
