<svg width="19" height="21" viewBox="0 0 19 21" fill="none" xmlns="http://www.w3.org/2000/svg">
<circle cx="9.19287" cy="5" r="3.75" stroke="black" stroke-width="2.5"/>
<path d="M16.987 18.8532C16.9775 18.8594 16.9671 18.8659 16.956 18.8728C16.6044 19.0876 15.9236 19.294 14.9418 19.4458C13.0337 19.7408 10.6324 19.7434 9.19268 19.7434C7.75297 19.7434 5.22418 19.7409 3.25051 19.4449C2.35579 19.3107 1.72802 19.1358 1.37533 18.9614C1.97044 18.0461 3.34433 16.3887 4.92831 14.9144C5.76642 14.1343 6.62448 13.4424 7.41451 12.9534C8.23998 12.4424 8.8376 12.25 9.19268 12.25C9.58078 12.25 10.2085 12.4377 11.042 12.9082C11.8447 13.3615 12.7162 14.0073 13.5559 14.748C14.3929 15.4865 15.1724 16.2964 15.7954 17.0601C16.3844 17.7821 16.7866 18.4058 16.987 18.8532ZM1.16087 18.8274C1.16095 18.8274 1.16218 18.8286 1.16431 18.8309C1.16184 18.8286 1.16078 18.8274 1.16087 18.8274Z" stroke="black" stroke-width="2.5"/>
</svg>
