<svg width="16" height="13" viewBox="0 0 16 13" fill="none" xmlns="http://www.w3.org/2000/svg">
<path d="M2.81154 10.7681C2.81154 11.3643 2.32793 11.8481 1.73077 11.8481C1.1336 11.8481 0.65 11.3643 0.65 10.7681C0.65 10.1719 1.1336 9.68809 1.73077 9.68809C2.32793 9.68809 2.81154 10.1719 2.81154 10.7681Z" stroke="#68696D" stroke-width="1.3"/>
<path d="M6.27296 10.7681C6.27296 11.3643 5.78936 11.8481 5.1922 11.8481C4.59503 11.8481 4.11143 11.3643 4.11143 10.7681C4.11143 10.1719 4.59503 9.68809 5.1922 9.68809C5.78936 9.68809 6.27296 10.1719 6.27296 10.7681Z" stroke="#68696D" stroke-width="1.3"/>
<path d="M13.773 10.7681C13.773 11.3643 13.2894 11.8481 12.6922 11.8481C12.095 11.8481 11.6114 11.3643 11.6114 10.7681C11.6114 10.1719 12.095 9.68809 12.6922 9.68809C13.2894 9.68809 13.773 10.1719 13.773 10.7681Z" stroke="#68696D" stroke-width="1.3"/>
<path d="M14.35 10.501C14.35 10.86 14.641 11.151 15 11.151C15.359 11.151 15.65 10.86 15.65 10.501H14.35ZM14.818 6.30464L15.3496 5.93072L14.818 6.30464ZM7 11.151H9.07692V9.85098H7V11.151ZM10.7269 9.50098V4.50098H9.42692V9.50098H10.7269ZM11.0769 4.15098H12.3269V2.85098H11.0769V4.15098ZM12.6132 4.29963L14.2863 6.67857L15.3496 5.93072L13.6765 3.55178L12.6132 4.29963ZM14.35 6.87991V10.501H15.65V6.87991H14.35ZM14.2863 6.67857C14.3277 6.73752 14.35 6.80784 14.35 6.87991H15.65C15.65 6.54014 15.5451 6.20864 15.3496 5.93072L14.2863 6.67857ZM12.3269 4.15098C12.4408 4.15098 12.5476 4.20644 12.6132 4.29963L13.6765 3.55178C13.3675 3.11243 12.864 2.85098 12.3269 2.85098V4.15098ZM10.7269 4.50098C10.7269 4.30768 10.8836 4.15098 11.0769 4.15098V2.85098C10.1657 2.85098 9.42692 3.58971 9.42692 4.50098H10.7269ZM9.07692 11.151C9.98819 11.151 10.7269 10.4122 10.7269 9.50098H9.42692C9.42692 9.69428 9.27022 9.85098 9.07692 9.85098V11.151Z" fill="#68696D"/>
<path d="M0.65 2.22098C0.65 2.02768 0.8067 1.87098 1 1.87098H6.94138C7.1608 1.87098 7.37802 1.82721 7.58032 1.74225L8.92309 1.17828C8.966 1.16026 9.01208 1.15098 9.05862 1.15098H9.35444C9.67693 1.15098 9.82781 1.55014 9.58595 1.76347L9.05143 2.23492C8.6963 2.54814 8.49286 2.99884 8.49286 3.47236V7.42098C8.49286 7.61428 8.33616 7.77098 8.14286 7.77098H1.68476C1.37703 7.77098 1.0777 7.87139 0.832227 8.05697L1.1972 8.53973L0.832226 8.05697C0.757344 8.11358 0.65 8.06016 0.65 7.96629V2.22098Z" stroke="#68696D" stroke-width="1.3"/>
</svg>
