<svg width="27" height="24" viewBox="0 0 27 24" fill="none" xmlns="http://www.w3.org/2000/svg">
<g clip-path="url(#clip0_21217_1863)">
<circle cx="3" cy="18.5" r="1.9" stroke="black" stroke-width="2.2"/>
<circle cx="9" cy="18.5" r="1.9" stroke="black" stroke-width="2.2"/>
<circle cx="22" cy="18.5" r="1.9" stroke="black" stroke-width="2.2"/>
<path d="M24.75 17.5C24.75 18.1904 25.3096 18.75 26 18.75C26.6904 18.75 27.25 18.1904 27.25 17.5H24.75ZM25.8087 11.0495L26.8197 10.3143L25.8087 11.0495ZM22.7995 6.91183L21.7886 7.64704L22.7995 6.91183ZM13 18.75H17V16.25H13V18.75ZM19.25 16.5V7.5H16.75V16.5H19.25ZM19 7.75H21.9908V5.25H19V7.75ZM21.7886 7.64704L24.7978 11.7847L26.8197 10.3143L23.8104 6.17661L21.7886 7.64704ZM24.75 11.6377V17.5H27.25V11.6377H24.75ZM24.7978 11.7847C24.7667 11.742 24.75 11.6905 24.75 11.6377H27.25C27.25 11.1622 27.0993 10.6989 26.8197 10.3143L24.7978 11.7847ZM21.9908 7.75C21.9108 7.75 21.8356 7.71173 21.7886 7.64704L23.8104 6.17661C23.387 5.59444 22.7106 5.25 21.9908 5.25V7.75ZM19.25 7.5C19.25 7.63807 19.1381 7.75 19 7.75V5.25C17.7574 5.25 16.75 6.25736 16.75 7.5H19.25ZM17 18.75C18.2426 18.75 19.25 17.7426 19.25 16.5H16.75C16.75 16.3619 16.8619 16.25 17 16.25V18.75Z" fill="black"/>
<path d="M1.25 13.2466V4.79H12.3316C12.5824 4.79 12.8315 4.74805 13.0686 4.66588L15.7105 3.75H17.1591L15.6757 4.8299C15.0941 5.25335 14.75 5.92945 14.75 6.64893V12.69H2.78641C2.36526 12.69 1.95257 12.8082 1.59528 13.0311L1.25 13.2466ZM17.7802 3.29789L17.7798 3.29812L17.7802 3.29789Z" stroke="black" stroke-width="2.5"/>
</g>
<defs>
<clipPath id="clip0_21217_1863">
<rect width="27" height="23" fill="white" transform="translate(0 0.5)"/>
</clipPath>
</defs>
</svg>
