<svg width="33" height="30" viewBox="0 0 33 30" fill="none" xmlns="http://www.w3.org/2000/svg">
<path d="M15.0424 21.7923H17.9591V17.4173H22.3341V14.5006H17.9591V10.1257H15.0424V14.5006H10.6674V17.4173H15.0424V21.7923ZM16.5007 29.084C14.6778 29.084 12.9706 28.7379 11.3791 28.0456C9.78656 27.3525 8.40115 26.4162 7.22282 25.2369C6.04351 24.0586 5.10726 22.6731 4.41407 21.0806C3.72184 19.4891 3.37573 17.7819 3.37573 15.959C3.37573 14.1361 3.72184 12.4284 4.41407 10.8359C5.10726 9.24433 6.04351 7.85891 7.22282 6.67961C8.40115 5.50128 9.78656 4.566 11.3791 3.87378C12.9706 3.18058 14.6778 2.83398 16.5007 2.83398C18.3236 2.83398 20.0314 3.18058 21.6239 3.87378C23.2154 4.566 24.6008 5.50128 25.7801 6.67961C26.9584 7.85891 27.8942 9.24433 28.5874 10.8359C29.2796 12.4284 29.6257 14.1361 29.6257 15.959C29.6257 17.7819 29.2796 19.4891 28.5874 21.0806C27.8942 22.6731 26.9584 24.0586 25.7801 25.2369C24.6008 26.4162 23.2154 27.3525 21.6239 28.0456C20.0314 28.7379 18.3236 29.084 16.5007 29.084ZM7.1674 0.427734L9.20906 2.4694L3.01115 8.66732L0.969482 6.62565L7.1674 0.427734ZM25.8341 0.427734L32.032 6.62565L29.9903 8.66732L23.7924 2.4694L25.8341 0.427734ZM16.5007 26.1673C19.3445 26.1673 21.7566 25.1766 23.737 23.1952C25.7184 21.2148 26.7091 18.8027 26.7091 15.959C26.7091 13.1152 25.7184 10.7027 23.737 8.72128C21.7566 6.74086 19.3445 5.75065 16.5007 5.75065C13.657 5.75065 11.2449 6.74086 9.26448 8.72128C7.28309 10.7027 6.2924 13.1152 6.2924 15.959C6.2924 18.8027 7.28309 21.2148 9.26448 23.1952C11.2449 25.1766 13.657 26.1673 16.5007 26.1673Z" fill="#F73333"/>
</svg>
