<svg width="60" height="38" viewBox="0 0 60 38" fill="none" xmlns="http://www.w3.org/2000/svg">
<path d="M56.8865 36.9556H3.61377C2.5092 36.9556 1.61377 36.0601 1.61377 34.9556V7.57626C1.61377 6.47169 2.5092 5.57626 3.61377 5.57626H13.7227C14.1772 5.57626 14.6181 5.42148 14.9728 5.13741L18.3983 2.39441C18.753 2.11035 19.1939 1.95557 19.6484 1.95557H40.18C40.5841 1.95557 40.9787 2.07796 41.3118 2.30661L45.564 5.22521C45.8972 5.45387 46.2918 5.57626 46.6958 5.57626H56.8865C57.9911 5.57626 58.8865 6.47168 58.8865 7.57625V34.9556C58.8865 36.0601 57.9911 36.9556 56.8865 36.9556Z" fill="#FDD7E4" stroke="#68696D" stroke-width="2"/>
<path d="M9.77393 8.45557V14.4556" stroke="#68696D" stroke-width="3"/>
<path d="M6.11328 11.3262L13.6133 11.3267" stroke="#68696D" stroke-width="2"/>
<path d="M36.8263 20.1039C36.8263 23.9662 33.6035 27.1317 29.5848 27.1317C25.5661 27.1317 22.3433 23.9662 22.3433 20.1039C22.3433 16.2417 25.5661 13.0762 29.5848 13.0762C33.6035 13.0762 36.8263 16.2417 36.8263 20.1039Z" stroke="#68696D" stroke-width="1.5"/>
<path d="M40.8218 20.1037C40.8218 26.1137 35.81 31.0203 29.5845 31.0203C23.359 31.0203 18.3472 26.1137 18.3472 20.1037C18.3472 14.0936 23.359 9.18701 29.5845 9.18701C35.81 9.18701 40.8218 14.0936 40.8218 20.1037Z" stroke="#68696D" stroke-width="1.5"/>
</svg>
