<svg xmlns="http://www.w3.org/2000/svg" width="35" height="35" viewBox="0 0 35 35" fill="none">
<path d="M23.6314 16.5806L16.2041 26.1835L10.3671 22.1835" stroke="white" stroke-width="3" stroke-linecap="square"/>
<path d="M9.74512 12V8H13.4804C14.4056 8 15.2551 7.48905 15.6888 6.67179L16.3006 5.51873L17.3549 4.77366L18.7989 5.59011L19.3729 6.67179C19.8065 7.48905 20.6561 8 21.5813 8H24.7859V12H9.74512Z" stroke="white" stroke-width="3"/>
<path d="M8.77551 10L6 10C4.89543 10 4 10.8954 4 12L4 30C4 31.1046 4.89543 32 6 32L17.2653 32L28 32C29.1046 32 30 31.1046 30 30L30 12C30 10.8954 29.1046 10 28 10H24.6939" stroke="white" stroke-width="3"/>
</svg>