<svg width="24" height="25" viewBox="0 0 24 25" fill="none" xmlns="http://www.w3.org/2000/svg">
<mask id="mask0_16022_8876" style="mask-type:alpha" maskUnits="userSpaceOnUse" x="0" y="0" width="24" height="25">
<rect y="0.5" width="24" height="24" fill="#D9D9D9"/>
</mask>
<g mask="url(#mask0_16022_8876)">
<path d="M4 20.5C3.45 20.5 2.97933 20.3043 2.588 19.913C2.196 19.521 2 19.05 2 18.5V14.5C2.55 14.5 3.021 14.304 3.413 13.912C3.80433 13.5207 4 13.05 4 12.5C4 11.95 3.80433 11.479 3.413 11.087C3.021 10.6957 2.55 10.5 2 10.5V6.5C2 5.95 2.196 5.47933 2.588 5.088C2.97933 4.696 3.45 4.5 4 4.5H20C20.55 4.5 21.021 4.696 21.413 5.088C21.8043 5.47933 22 5.95 22 6.5V10.5C21.45 10.5 20.979 10.6957 20.587 11.087C20.1957 11.479 20 11.95 20 12.5C20 13.05 20.1957 13.5207 20.587 13.912C20.979 14.304 21.45 14.5 22 14.5V18.5C22 19.05 21.8043 19.521 21.413 19.913C21.021 20.3043 20.55 20.5 20 20.5H4ZM4 18.5H20V15.95C19.3833 15.5833 18.896 15.096 18.538 14.488C18.1793 13.8793 18 13.2167 18 12.5C18 11.7833 18.1793 11.1207 18.538 10.512C18.896 9.904 19.3833 9.41667 20 9.05V6.5H4V9.05C4.61667 9.41667 5.10433 9.904 5.463 10.512C5.821 11.1207 6 11.7833 6 12.5C6 13.2167 5.821 13.8793 5.463 14.488C5.10433 15.096 4.61667 15.5833 4 15.95V18.5ZM12 17.5C12.2833 17.5 12.521 17.404 12.713 17.212C12.9043 17.0207 13 16.7833 13 16.5C13 16.2167 12.9043 15.979 12.713 15.787C12.521 15.5957 12.2833 15.5 12 15.5C11.7167 15.5 11.4793 15.5957 11.288 15.787C11.096 15.979 11 16.2167 11 16.5C11 16.7833 11.096 17.0207 11.288 17.212C11.4793 17.404 11.7167 17.5 12 17.5ZM12 13.5C12.2833 13.5 12.521 13.404 12.713 13.212C12.9043 13.0207 13 12.7833 13 12.5C13 12.2167 12.9043 11.979 12.713 11.787C12.521 11.5957 12.2833 11.5 12 11.5C11.7167 11.5 11.4793 11.5957 11.288 11.787C11.096 11.979 11 12.2167 11 12.5C11 12.7833 11.096 13.0207 11.288 13.212C11.4793 13.404 11.7167 13.5 12 13.5ZM12 9.5C12.2833 9.5 12.521 9.404 12.713 9.212C12.9043 9.02067 13 8.78333 13 8.5C13 8.21667 12.9043 7.979 12.713 7.787C12.521 7.59567 12.2833 7.5 12 7.5C11.7167 7.5 11.4793 7.59567 11.288 7.787C11.096 7.979 11 8.21667 11 8.5C11 8.78333 11.096 9.02067 11.288 9.212C11.4793 9.404 11.7167 9.5 12 9.5Z" fill="black"/>
</g>
</svg>
