<svg width="22" height="21" viewBox="0 0 22 21" fill="none" xmlns="http://www.w3.org/2000/svg">
<path d="M14.3012 20.9995H5.99586C4.40634 20.9976 2.88235 20.3653 1.75809 19.2414C0.634158 18.1173 0.00186424 16.5933 0 15.0036V6.69785C0.00185928 5.10833 0.634158 3.58434 1.75809 2.46008C2.88219 1.33615 4.40618 0.704013 5.99586 0.702148H9.6955V2.28782L5.99586 2.28798C4.82667 2.28922 3.70586 2.75419 2.8791 3.58096C2.05233 4.40773 1.58722 5.52857 1.58583 6.69773V15.0035C1.58723 16.1727 2.05221 17.2937 2.87898 18.1203C3.70575 18.947 4.82671 19.4121 5.9959 19.4134H14.3013C15.4705 19.4122 16.5914 18.947 17.4182 18.1203C18.245 17.2935 18.7099 16.1727 18.7113 15.0035V10.8498H20.297V15.0035H20.2972C20.2953 16.593 19.663 18.117 18.5391 19.2413C17.415 20.3654 15.891 20.9975 14.3013 20.9994L14.3012 20.9995Z" fill="black"/>
<path d="M18.0237 0L7.67002 10.3537L6.83008 14.2714L10.7479 13.4321L21.1015 3.07809L18.0237 0ZM7.65851 12.7684L8.10565 10.682L10.4197 12.9962L8.30957 13.4484L7.65851 12.7684Z" fill="black"/>
</svg>
