<svg width="21" height="22" viewBox="0 0 21 22" fill="none" xmlns="http://www.w3.org/2000/svg">
<mask id="mask0_20635_2170" style="mask-type:alpha" maskUnits="userSpaceOnUse" x="0" y="0" width="21" height="22">
<rect y="0.5" width="21" height="21" fill="#D9D9D9"/>
</mask>
<g mask="url(#mask0_20635_2170)">
<path d="M4.375 17.1245H5.6L13.1469 9.57764L11.9219 8.35264L4.375 15.8995V17.1245ZM16.8875 8.30889L13.1687 4.63389L14.3938 3.40889C14.7292 3.07347 15.1413 2.90576 15.6301 2.90576C16.1184 2.90576 16.5302 3.07347 16.8656 3.40889L18.0906 4.63389C18.426 4.9693 18.601 5.37414 18.6156 5.84839C18.6302 6.32205 18.4698 6.7266 18.1344 7.06201L16.8875 8.30889ZM15.6188 9.59951L6.34375 18.8745H2.625V15.1558L11.9 5.88076L15.6188 9.59951Z" fill="#88898B"/>
</g>
</svg>
