<svg width="35" height="30" viewBox="0 0 35 34" fill="none" xmlns="http://www.w3.org/2000/svg">
<path d="M14.9 20.3C14.9 19.7133 15.0733 19.1533 15.42 18.62C15.78 18.0867 16.1667 17.66 16.58 17.34C16.9933 17.0067 17.3733 16.62 17.72 16.18C18.08 15.74 18.26 15.3 18.26 14.86C18.26 14.3933 18.1 14.0333 17.78 13.78C17.46 13.5267 17.0133 13.4 16.44 13.4C15.32 13.4 14.5267 13.9933 14.06 15.18L11.7 13.82C12.1 12.8333 12.7333 12.0733 13.6 11.54C14.48 10.9933 15.46 10.72 16.54 10.72C17.7533 10.72 18.8 11.0733 19.68 11.78C20.5733 12.4733 21.02 13.4333 21.02 14.66C21.02 15.22 20.9 15.74 20.66 16.22C20.4333 16.7 20.1533 17.1133 19.82 17.46C19.5 17.7933 19.1733 18.1133 18.84 18.42C18.52 18.7133 18.24 19.02 18 19.34C17.7733 19.66 17.66 19.98 17.66 20.3H14.9ZM17.48 24.76C17.1467 25.0933 16.7467 25.26 16.28 25.26C15.8133 25.26 15.4133 25.0933 15.08 24.76C14.7467 24.4267 14.58 24.0267 14.58 23.56C14.58 23.0933 14.7467 22.6933 15.08 22.36C15.4133 22.0267 15.8133 21.86 16.28 21.86C16.7467 21.86 17.1467 22.0267 17.48 22.36C17.8133 22.6933 17.98 23.0933 17.98 23.56C17.98 24.0267 17.8133 24.4267 17.48 24.76Z" fill="black"/>
<path d="M29.7875 9.15904C28.2141 6.59307 25.9051 4.5598 23.1608 3.32357C20.4164 2.08733 17.3636 1.70532 14.3992 2.2272C11.4349 2.74907 8.6961 4.15069 6.53894 6.24984C4.38178 8.34899 2.90604 11.0486 2.30356 13.9976C1.70109 16.9466 1.99976 20.0087 3.16074 22.7857C4.32172 25.5628 6.29131 27.9263 8.81344 29.569C11.3356 31.2118 14.2936 32.0577 17.3029 31.997C20.3123 31.9362 23.2337 30.9714 25.6874 29.2282" stroke="black" stroke-width="3"/>
<path d="M32.6723 2.04366L29.8152 10.9973L20.7221 8.22353" stroke="black" stroke-width="3"/>
</svg>
