<svg xmlns="http://www.w3.org/2000/svg" width="36" height="35" viewBox="0 0 36 35" fill="none">
<mask id="mask0_16123_4656" style="mask-type:alpha" maskUnits="userSpaceOnUse" x="0" y="0" width="36" height="35">
<rect x="0.5" width="35" height="35" fill="#D9D9D9"/>
</mask>
<g mask="url(#mask0_16123_4656)">
<path d="M16.542 32.0114C14.6948 31.817 12.9754 31.3129 11.3839 30.4991C9.79137 29.6844 8.40595 28.6266 7.22762 27.3258C6.04831 26.026 5.11838 24.5375 4.43783 22.8604C3.75727 21.1833 3.41699 19.3969 3.41699 17.501C3.41699 15.2892 3.86081 13.2475 4.74845 11.376C5.63512 9.50449 6.84408 7.90032 8.37533 6.56352H4.87533V3.64685H13.6253V12.3969H10.7087V8.42289C9.37185 9.49234 8.30824 10.8112 7.51783 12.3794C6.72838 13.9466 6.33366 15.6538 6.33366 17.501C6.33366 20.4906 7.3122 23.0728 9.26928 25.2477C11.2254 27.4235 13.6496 28.6937 16.542 29.0583V32.0114ZM15.9222 24.2094L9.76074 18.0114L11.8024 15.9698L15.9222 20.0896L24.1982 11.8135L26.2399 13.8916L15.9222 24.2094ZM22.3753 31.3552V22.6052H25.292V26.5791C26.6288 25.4854 27.6924 24.1607 28.4828 22.6052C29.2723 21.0496 29.667 19.3482 29.667 17.501C29.667 14.5114 28.6889 11.9287 26.7328 9.75289C24.7757 7.57803 22.351 6.30831 19.4587 5.94373V2.9906C23.1531 3.35518 26.2642 4.91074 28.792 7.65727C31.3198 10.4038 32.5837 13.685 32.5837 17.501C32.5837 19.7128 32.1398 21.7545 31.2522 23.626C30.3655 25.4975 29.1566 27.1017 27.6253 28.4385H31.1253V31.3552H22.3753Z" fill="white"/>
</g>
</svg>