<svg width="161" height="32" viewBox="0 0 161 32" fill="none" xmlns="http://www.w3.org/2000/svg">
<rect width="161" height="32" rx="10" fill="#FFCFE6"/>
<path d="M47.424 14.152L53.248 13.96V17.544L47.424 17.352L50.752 22.152L47.488 24.072L44.544 18.888L41.6 24.072L38.336 22.152L41.664 17.352L35.84 17.544V13.96L41.664 14.152L38.336 9.352L41.6 7.432L44.544 12.616L47.488 7.432L50.752 9.352L47.424 14.152ZM72.4865 14.152L78.3105 13.96V17.544L72.4865 17.352L75.8145 22.152L72.5505 24.072L69.6065 18.888L66.6625 24.072L63.3985 22.152L66.7265 17.352L60.9025 17.544V13.96L66.7265 14.152L63.3985 9.352L66.6625 7.432L69.6065 12.616L72.5505 7.432L75.8145 9.352L72.4865 14.152ZM97.549 14.152L103.373 13.96V17.544L97.549 17.352L100.877 22.152L97.613 24.072L94.669 18.888L91.725 24.072L88.461 22.152L91.789 17.352L85.965 17.544V13.96L91.789 14.152L88.461 9.352L91.725 7.432L94.669 12.616L97.613 7.432L100.877 9.352L97.549 14.152ZM122.612 14.152L128.436 13.96V17.544L122.612 17.352L125.94 22.152L122.676 24.072L119.732 18.888L116.788 24.072L113.524 22.152L116.852 17.352L111.028 17.544V13.96L116.852 14.152L113.524 9.352L116.788 7.432L119.732 12.616L122.676 7.432L125.94 9.352L122.612 14.152Z" fill="#EC7DA3"/>
</svg>
